%TF.GenerationSoftware,KiCad,Pcbnew,5.1.6*%
%TF.CreationDate,2020-09-04T20:47:42+02:00*%
%TF.ProjectId,JBC_Nano_Hardware,4a42435f-4e61-46e6-9f5f-486172647761,rev?*%
%TF.SameCoordinates,Original*%
%TF.FileFunction,Soldermask,Bot*%
%TF.FilePolarity,Negative*%
%FSLAX46Y46*%
G04 Gerber Fmt 4.6, Leading zero omitted, Abs format (unit mm)*
G04 Created by KiCad (PCBNEW 5.1.6) date 2020-09-04 20:47:42*
%MOMM*%
%LPD*%
G01*
G04 APERTURE LIST*
%ADD10C,2.300000*%
%ADD11R,2.100000X2.100000*%
%ADD12C,2.100000*%
%ADD13C,3.100000*%
%ADD14C,2.800000*%
%ADD15R,3.100000X3.100000*%
%ADD16R,1.800000X1.800000*%
%ADD17O,1.800000X1.800000*%
%ADD18R,2.600000X3.100000*%
%ADD19R,1.000000X1.800000*%
%ADD20C,1.600000*%
G04 APERTURE END LIST*
D10*
%TO.C,REF\u002A\u002A*%
X26924000Y-68326000D03*
%TD*%
%TO.C,REF\u002A\u002A*%
X67564000Y-25146000D03*
%TD*%
%TO.C,REF\u002A\u002A*%
X40640000Y-45212000D03*
%TD*%
%TO.C,REF\u002A\u002A*%
X25146000Y-46990000D03*
%TD*%
%TO.C,REF\u002A\u002A*%
X35814000Y-25146000D03*
%TD*%
%TO.C,REF\u002A\u002A*%
X25908000Y-25146000D03*
%TD*%
D11*
%TO.C,C9*%
X60325000Y-32258000D03*
D12*
X60325000Y-28758000D03*
%TD*%
D13*
%TO.C,F1*%
X67056000Y-42164000D03*
X44556000Y-42164000D03*
D14*
X55806000Y-42164000D03*
%TD*%
D15*
%TO.C,J1*%
X45466000Y-32004000D03*
D13*
X50546000Y-32004000D03*
%TD*%
D16*
%TO.C,J3*%
X37846000Y-50038000D03*
D17*
X40386000Y-50038000D03*
X42926000Y-50038000D03*
X45466000Y-50038000D03*
%TD*%
D16*
%TO.C,J4*%
X31242000Y-63754000D03*
D17*
X28702000Y-63754000D03*
X26162000Y-63754000D03*
%TD*%
D16*
%TO.C,J5*%
X40386000Y-32004000D03*
D17*
X40386000Y-34544000D03*
X40386000Y-37084000D03*
X40386000Y-39624000D03*
%TD*%
D12*
%TO.C,SW1*%
X32686000Y-28934000D03*
X27686000Y-28934000D03*
D18*
X35786000Y-35934000D03*
X24586000Y-35934000D03*
D12*
X32686000Y-43434000D03*
X30186000Y-43434000D03*
D11*
X27686000Y-43434000D03*
%TD*%
D19*
%TO.C,SW2*%
X31926000Y-51562000D03*
X28526000Y-51562000D03*
%TD*%
%TO.C,SW3*%
X31926000Y-48006000D03*
X28526000Y-48006000D03*
%TD*%
D13*
%TO.C,J2*%
X63881000Y-56134000D03*
X63881000Y-61214000D03*
D15*
X63881000Y-51054000D03*
D13*
X63881000Y-66294000D03*
%TD*%
D20*
%TO.C,TP1*%
X48260000Y-58674000D03*
%TD*%
%TO.C,TP2*%
X44424600Y-62001400D03*
%TD*%
M02*
