%TF.GenerationSoftware,KiCad,Pcbnew,5.1.6*%
%TF.CreationDate,2020-09-04T20:47:42+02:00*%
%TF.ProjectId,JBC_Nano_Hardware,4a42435f-4e61-46e6-9f5f-486172647761,rev?*%
%TF.SameCoordinates,Original*%
%TF.FileFunction,Legend,Top*%
%TF.FilePolarity,Positive*%
%FSLAX46Y46*%
G04 Gerber Fmt 4.6, Leading zero omitted, Abs format (unit mm)*
G04 Created by KiCad (PCBNEW 5.1.6) date 2020-09-04 20:47:42*
%MOMM*%
%LPD*%
G01*
G04 APERTURE LIST*
%ADD10C,0.150000*%
%ADD11C,0.120000*%
G04 APERTURE END LIST*
D10*
X47172952Y-69540380D02*
X47172952Y-68540380D01*
X47744380Y-69540380D01*
X47744380Y-68540380D01*
X48411047Y-68540380D02*
X48601523Y-68540380D01*
X48696761Y-68588000D01*
X48792000Y-68683238D01*
X48839619Y-68873714D01*
X48839619Y-69207047D01*
X48792000Y-69397523D01*
X48696761Y-69492761D01*
X48601523Y-69540380D01*
X48411047Y-69540380D01*
X48315809Y-69492761D01*
X48220571Y-69397523D01*
X48172952Y-69207047D01*
X48172952Y-68873714D01*
X48220571Y-68683238D01*
X48315809Y-68588000D01*
X48411047Y-68540380D01*
X49030095Y-69635619D02*
X49792000Y-69635619D01*
X50553904Y-68588000D02*
X50458666Y-68540380D01*
X50315809Y-68540380D01*
X50172952Y-68588000D01*
X50077714Y-68683238D01*
X50030095Y-68778476D01*
X49982476Y-68968952D01*
X49982476Y-69111809D01*
X50030095Y-69302285D01*
X50077714Y-69397523D01*
X50172952Y-69492761D01*
X50315809Y-69540380D01*
X50411047Y-69540380D01*
X50553904Y-69492761D01*
X50601523Y-69445142D01*
X50601523Y-69111809D01*
X50411047Y-69111809D01*
X51030095Y-69540380D02*
X51030095Y-68540380D01*
X51268190Y-68540380D01*
X51411047Y-68588000D01*
X51506285Y-68683238D01*
X51553904Y-68778476D01*
X51601523Y-68968952D01*
X51601523Y-69111809D01*
X51553904Y-69302285D01*
X51506285Y-69397523D01*
X51411047Y-69492761D01*
X51268190Y-69540380D01*
X51030095Y-69540380D01*
X52601523Y-69540380D02*
X52268190Y-69064190D01*
X52030095Y-69540380D02*
X52030095Y-68540380D01*
X52411047Y-68540380D01*
X52506285Y-68588000D01*
X52553904Y-68635619D01*
X52601523Y-68730857D01*
X52601523Y-68873714D01*
X52553904Y-68968952D01*
X52506285Y-69016571D01*
X52411047Y-69064190D01*
X52030095Y-69064190D01*
X52887238Y-68540380D02*
X53220571Y-69540380D01*
X53553904Y-68540380D01*
X37005047Y-69540380D02*
X37005047Y-68540380D01*
X37576476Y-69540380D01*
X37576476Y-68540380D01*
X38243142Y-68540380D02*
X38433619Y-68540380D01*
X38528857Y-68588000D01*
X38624095Y-68683238D01*
X38671714Y-68873714D01*
X38671714Y-69207047D01*
X38624095Y-69397523D01*
X38528857Y-69492761D01*
X38433619Y-69540380D01*
X38243142Y-69540380D01*
X38147904Y-69492761D01*
X38052666Y-69397523D01*
X38005047Y-69207047D01*
X38005047Y-68873714D01*
X38052666Y-68683238D01*
X38147904Y-68588000D01*
X38243142Y-68540380D01*
X38862190Y-69635619D02*
X39624095Y-69635619D01*
X39719333Y-68540380D02*
X40052666Y-69540380D01*
X40386000Y-68540380D01*
X41243142Y-68588000D02*
X41147904Y-68540380D01*
X41005047Y-68540380D01*
X40862190Y-68588000D01*
X40766952Y-68683238D01*
X40719333Y-68778476D01*
X40671714Y-68968952D01*
X40671714Y-69111809D01*
X40719333Y-69302285D01*
X40766952Y-69397523D01*
X40862190Y-69492761D01*
X41005047Y-69540380D01*
X41100285Y-69540380D01*
X41243142Y-69492761D01*
X41290761Y-69445142D01*
X41290761Y-69111809D01*
X41100285Y-69111809D01*
X41671714Y-69254666D02*
X42147904Y-69254666D01*
X41576476Y-69540380D02*
X41909809Y-68540380D01*
X42243142Y-69540380D01*
X42433619Y-68540380D02*
X43005047Y-68540380D01*
X42719333Y-69540380D02*
X42719333Y-68540380D01*
X43338380Y-69016571D02*
X43671714Y-69016571D01*
X43814571Y-69540380D02*
X43338380Y-69540380D01*
X43338380Y-68540380D01*
X43814571Y-68540380D01*
D11*
%TO.C,C1*%
X41908000Y-58739721D02*
X41908000Y-59065279D01*
X42928000Y-58739721D02*
X42928000Y-59065279D01*
%TO.C,C2*%
X44452000Y-58739721D02*
X44452000Y-59065279D01*
X43432000Y-58739721D02*
X43432000Y-59065279D01*
%TO.C,C3*%
X31748000Y-51119721D02*
X31748000Y-51445279D01*
X32768000Y-51119721D02*
X32768000Y-51445279D01*
%TO.C,C4*%
X56390000Y-31303279D02*
X56390000Y-30977721D01*
X55370000Y-31303279D02*
X55370000Y-30977721D01*
%TO.C,C5*%
X30228000Y-59247721D02*
X30228000Y-59573279D01*
X29208000Y-59247721D02*
X29208000Y-59573279D01*
%TO.C,C6*%
X23620000Y-51724779D02*
X23620000Y-51399221D01*
X24640000Y-51724779D02*
X24640000Y-51399221D01*
%TO.C,C7*%
X58295000Y-31303279D02*
X58295000Y-30977721D01*
X57275000Y-31303279D02*
X57275000Y-30977721D01*
%TO.C,C8*%
X27684000Y-59247721D02*
X27684000Y-59573279D01*
X28704000Y-59247721D02*
X28704000Y-59573279D01*
%TO.C,C10*%
X27180000Y-59247721D02*
X27180000Y-59573279D01*
X26160000Y-59247721D02*
X26160000Y-59573279D01*
%TO.C,C11*%
X45092779Y-46456000D02*
X44767221Y-46456000D01*
X45092779Y-47476000D02*
X44767221Y-47476000D01*
%TO.C,C12*%
X45092779Y-45952000D02*
X44767221Y-45952000D01*
X45092779Y-44932000D02*
X44767221Y-44932000D01*
%TO.C,C14*%
X45400279Y-63248000D02*
X45074721Y-63248000D01*
X45400279Y-62228000D02*
X45074721Y-62228000D01*
%TO.C,C15*%
X52232779Y-56644000D02*
X51907221Y-56644000D01*
X52232779Y-55624000D02*
X51907221Y-55624000D01*
%TO.C,C16*%
X52232779Y-54100000D02*
X51907221Y-54100000D01*
X52232779Y-55120000D02*
X51907221Y-55120000D01*
%TO.C,C13*%
X37454721Y-64260000D02*
X37780279Y-64260000D01*
X37454721Y-65280000D02*
X37780279Y-65280000D01*
%TO.C,D1*%
X59155000Y-57416500D02*
X59155000Y-55131500D01*
X59155000Y-55131500D02*
X57685000Y-55131500D01*
X57685000Y-55131500D02*
X57685000Y-57416500D01*
%TO.C,J5*%
X39056000Y-33274000D02*
X41716000Y-33274000D01*
X39056000Y-33274000D02*
X39056000Y-40954000D01*
X39056000Y-40954000D02*
X41716000Y-40954000D01*
X41716000Y-33274000D02*
X41716000Y-40954000D01*
X41716000Y-30674000D02*
X41716000Y-32004000D01*
X40386000Y-30674000D02*
X41716000Y-30674000D01*
%TO.C,JP1*%
X41418000Y-64169000D02*
X43418000Y-64169000D01*
X41418000Y-66969000D02*
X41418000Y-64169000D01*
X43418000Y-66969000D02*
X41418000Y-66969000D01*
X43418000Y-64169000D02*
X43418000Y-66969000D01*
%TO.C,JP2*%
X50930000Y-67294000D02*
X48130000Y-67294000D01*
X48130000Y-67294000D02*
X48130000Y-65294000D01*
X48130000Y-65294000D02*
X50930000Y-65294000D01*
X50930000Y-65294000D02*
X50930000Y-67294000D01*
%TO.C,L1*%
X25960000Y-55953922D02*
X25960000Y-56471078D01*
X27380000Y-55953922D02*
X27380000Y-56471078D01*
%TO.C,Q1*%
X55880000Y-62464000D02*
X53930000Y-62464000D01*
X55880000Y-62464000D02*
X57830000Y-62464000D01*
X55880000Y-67584000D02*
X53930000Y-67584000D01*
X55880000Y-67584000D02*
X59330000Y-67584000D01*
%TO.C,R1*%
X59815000Y-63743721D02*
X59815000Y-64069279D01*
X60835000Y-63743721D02*
X60835000Y-64069279D01*
%TO.C,R3*%
X58930000Y-60263721D02*
X58930000Y-60589279D01*
X57910000Y-60263721D02*
X57910000Y-60589279D01*
%TO.C,R5*%
X54608000Y-58511221D02*
X54608000Y-58836779D01*
X55628000Y-58511221D02*
X55628000Y-58836779D01*
%TO.C,R6*%
X56132000Y-58836779D02*
X56132000Y-58511221D01*
X57152000Y-58836779D02*
X57152000Y-58511221D01*
%TO.C,R2*%
X37454721Y-65784000D02*
X37780279Y-65784000D01*
X37454721Y-66804000D02*
X37780279Y-66804000D01*
%TO.C,R7*%
X57656000Y-48448279D02*
X57656000Y-48122721D01*
X58676000Y-48448279D02*
X58676000Y-48122721D01*
%TO.C,R8*%
X60314721Y-48008000D02*
X60640279Y-48008000D01*
X60314721Y-46988000D02*
X60640279Y-46988000D01*
%TO.C,R9*%
X31240000Y-46598721D02*
X31240000Y-46924279D01*
X32260000Y-46598721D02*
X32260000Y-46924279D01*
%TO.C,R10*%
X29716000Y-46873279D02*
X29716000Y-46547721D01*
X30736000Y-46873279D02*
X30736000Y-46547721D01*
%TO.C,SW1*%
X30186000Y-36434000D02*
X30186000Y-35434000D01*
X29686000Y-35934000D02*
X30686000Y-35934000D01*
X33886000Y-29234000D02*
X36486000Y-29234000D01*
X28886000Y-29234000D02*
X31486000Y-29234000D01*
X23886000Y-29234000D02*
X26486000Y-29234000D01*
X26086000Y-43134000D02*
X26386000Y-43434000D01*
X26086000Y-43734000D02*
X26086000Y-43134000D01*
X26386000Y-43434000D02*
X26086000Y-43734000D01*
X23886000Y-42634000D02*
X26386000Y-42634000D01*
X23886000Y-37834000D02*
X23886000Y-42634000D01*
X36486000Y-42634000D02*
X33686000Y-42634000D01*
X36486000Y-37734000D02*
X36486000Y-42634000D01*
X36486000Y-29234000D02*
X36486000Y-34134000D01*
X23886000Y-34134000D02*
X23886000Y-29234000D01*
X33186000Y-35934000D02*
G75*
G03*
X33186000Y-35934000I-3000000J0D01*
G01*
%TO.C,U1*%
X36322000Y-62567000D02*
X38522000Y-62567000D01*
X36322000Y-62567000D02*
X34122000Y-62567000D01*
X36322000Y-55797000D02*
X38522000Y-55797000D01*
X36322000Y-55797000D02*
X32722000Y-55797000D01*
%TO.C,U4*%
X51190000Y-60234000D02*
X52950000Y-60234000D01*
X52950000Y-57164000D02*
X50520000Y-57164000D01*
%TO.C,Y1*%
X31194000Y-51162000D02*
X30894000Y-51162000D01*
X30894000Y-51162000D02*
X30894000Y-51962000D01*
X25494000Y-51962000D02*
X25494000Y-51162000D01*
X28894000Y-53362000D02*
X27494000Y-53362000D01*
X27494000Y-49762000D02*
X28894000Y-49762000D01*
X28894000Y-49762000D02*
X28894000Y-49522000D01*
%TO.C,U3*%
X46242000Y-67366000D02*
X46242000Y-66436000D01*
X46242000Y-64206000D02*
X46242000Y-65136000D01*
X46242000Y-64206000D02*
X44082000Y-64206000D01*
X46242000Y-67366000D02*
X44782000Y-67366000D01*
%TO.C,U6*%
X38300000Y-55204000D02*
X40100000Y-55204000D01*
X40100000Y-51984000D02*
X37650000Y-51984000D01*
%TO.C,D2*%
X49155000Y-37363000D02*
X49155000Y-39848000D01*
X50525000Y-37363000D02*
X49155000Y-37363000D01*
X50525000Y-39848000D02*
X50525000Y-37363000D01*
%TO.C,R4*%
X50350000Y-42423279D02*
X50350000Y-42097721D01*
X49330000Y-42423279D02*
X49330000Y-42097721D01*
%TO.C,U2*%
X55800000Y-52310000D02*
X49790000Y-52310000D01*
X53550000Y-45490000D02*
X49790000Y-45490000D01*
X49790000Y-52310000D02*
X49790000Y-51050000D01*
X49790000Y-45490000D02*
X49790000Y-46750000D01*
%TO.C,C17*%
X41908000Y-37683221D02*
X41908000Y-38008779D01*
X42928000Y-37683221D02*
X42928000Y-38008779D01*
%TO.C,U5*%
X48376000Y-64767100D02*
X50176000Y-64767100D01*
X50176000Y-61547100D02*
X47726000Y-61547100D01*
%TO.C,C1*%
D10*
X42775142Y-56300666D02*
X42822761Y-56348285D01*
X42870380Y-56491142D01*
X42870380Y-56586380D01*
X42822761Y-56729238D01*
X42727523Y-56824476D01*
X42632285Y-56872095D01*
X42441809Y-56919714D01*
X42298952Y-56919714D01*
X42108476Y-56872095D01*
X42013238Y-56824476D01*
X41918000Y-56729238D01*
X41870380Y-56586380D01*
X41870380Y-56491142D01*
X41918000Y-56348285D01*
X41965619Y-56300666D01*
X42870380Y-55348285D02*
X42870380Y-55919714D01*
X42870380Y-55634000D02*
X41870380Y-55634000D01*
X42013238Y-55729238D01*
X42108476Y-55824476D01*
X42156095Y-55919714D01*
%TO.C,C2*%
X44299142Y-56300666D02*
X44346761Y-56348285D01*
X44394380Y-56491142D01*
X44394380Y-56586380D01*
X44346761Y-56729238D01*
X44251523Y-56824476D01*
X44156285Y-56872095D01*
X43965809Y-56919714D01*
X43822952Y-56919714D01*
X43632476Y-56872095D01*
X43537238Y-56824476D01*
X43442000Y-56729238D01*
X43394380Y-56586380D01*
X43394380Y-56491142D01*
X43442000Y-56348285D01*
X43489619Y-56300666D01*
X43489619Y-55919714D02*
X43442000Y-55872095D01*
X43394380Y-55776857D01*
X43394380Y-55538761D01*
X43442000Y-55443523D01*
X43489619Y-55395904D01*
X43584857Y-55348285D01*
X43680095Y-55348285D01*
X43822952Y-55395904D01*
X44394380Y-55967333D01*
X44394380Y-55348285D01*
%TO.C,C3*%
X34045142Y-51449166D02*
X34092761Y-51496785D01*
X34140380Y-51639642D01*
X34140380Y-51734880D01*
X34092761Y-51877738D01*
X33997523Y-51972976D01*
X33902285Y-52020595D01*
X33711809Y-52068214D01*
X33568952Y-52068214D01*
X33378476Y-52020595D01*
X33283238Y-51972976D01*
X33188000Y-51877738D01*
X33140380Y-51734880D01*
X33140380Y-51639642D01*
X33188000Y-51496785D01*
X33235619Y-51449166D01*
X33140380Y-51115833D02*
X33140380Y-50496785D01*
X33521333Y-50830119D01*
X33521333Y-50687261D01*
X33568952Y-50592023D01*
X33616571Y-50544404D01*
X33711809Y-50496785D01*
X33949904Y-50496785D01*
X34045142Y-50544404D01*
X34092761Y-50592023D01*
X34140380Y-50687261D01*
X34140380Y-50972976D01*
X34092761Y-51068214D01*
X34045142Y-51115833D01*
%TO.C,C4*%
X56237142Y-28614666D02*
X56284761Y-28662285D01*
X56332380Y-28805142D01*
X56332380Y-28900380D01*
X56284761Y-29043238D01*
X56189523Y-29138476D01*
X56094285Y-29186095D01*
X55903809Y-29233714D01*
X55760952Y-29233714D01*
X55570476Y-29186095D01*
X55475238Y-29138476D01*
X55380000Y-29043238D01*
X55332380Y-28900380D01*
X55332380Y-28805142D01*
X55380000Y-28662285D01*
X55427619Y-28614666D01*
X55665714Y-27757523D02*
X56332380Y-27757523D01*
X55284761Y-27995619D02*
X55999047Y-28233714D01*
X55999047Y-27614666D01*
%TO.C,C5*%
X29805333Y-61825142D02*
X29757714Y-61872761D01*
X29614857Y-61920380D01*
X29519619Y-61920380D01*
X29376761Y-61872761D01*
X29281523Y-61777523D01*
X29233904Y-61682285D01*
X29186285Y-61491809D01*
X29186285Y-61348952D01*
X29233904Y-61158476D01*
X29281523Y-61063238D01*
X29376761Y-60968000D01*
X29519619Y-60920380D01*
X29614857Y-60920380D01*
X29757714Y-60968000D01*
X29805333Y-61015619D01*
X30710095Y-60920380D02*
X30233904Y-60920380D01*
X30186285Y-61396571D01*
X30233904Y-61348952D01*
X30329142Y-61301333D01*
X30567238Y-61301333D01*
X30662476Y-61348952D01*
X30710095Y-61396571D01*
X30757714Y-61491809D01*
X30757714Y-61729904D01*
X30710095Y-61825142D01*
X30662476Y-61872761D01*
X30567238Y-61920380D01*
X30329142Y-61920380D01*
X30233904Y-61872761D01*
X30186285Y-61825142D01*
%TO.C,C6*%
X24487142Y-54268666D02*
X24534761Y-54316285D01*
X24582380Y-54459142D01*
X24582380Y-54554380D01*
X24534761Y-54697238D01*
X24439523Y-54792476D01*
X24344285Y-54840095D01*
X24153809Y-54887714D01*
X24010952Y-54887714D01*
X23820476Y-54840095D01*
X23725238Y-54792476D01*
X23630000Y-54697238D01*
X23582380Y-54554380D01*
X23582380Y-54459142D01*
X23630000Y-54316285D01*
X23677619Y-54268666D01*
X23582380Y-53411523D02*
X23582380Y-53602000D01*
X23630000Y-53697238D01*
X23677619Y-53744857D01*
X23820476Y-53840095D01*
X24010952Y-53887714D01*
X24391904Y-53887714D01*
X24487142Y-53840095D01*
X24534761Y-53792476D01*
X24582380Y-53697238D01*
X24582380Y-53506761D01*
X24534761Y-53411523D01*
X24487142Y-53363904D01*
X24391904Y-53316285D01*
X24153809Y-53316285D01*
X24058571Y-53363904D01*
X24010952Y-53411523D01*
X23963333Y-53506761D01*
X23963333Y-53697238D01*
X24010952Y-53792476D01*
X24058571Y-53840095D01*
X24153809Y-53887714D01*
%TO.C,C7*%
X58142142Y-28614666D02*
X58189761Y-28662285D01*
X58237380Y-28805142D01*
X58237380Y-28900380D01*
X58189761Y-29043238D01*
X58094523Y-29138476D01*
X57999285Y-29186095D01*
X57808809Y-29233714D01*
X57665952Y-29233714D01*
X57475476Y-29186095D01*
X57380238Y-29138476D01*
X57285000Y-29043238D01*
X57237380Y-28900380D01*
X57237380Y-28805142D01*
X57285000Y-28662285D01*
X57332619Y-28614666D01*
X57237380Y-28281333D02*
X57237380Y-27614666D01*
X58237380Y-28043238D01*
%TO.C,C8*%
X27773333Y-61825142D02*
X27725714Y-61872761D01*
X27582857Y-61920380D01*
X27487619Y-61920380D01*
X27344761Y-61872761D01*
X27249523Y-61777523D01*
X27201904Y-61682285D01*
X27154285Y-61491809D01*
X27154285Y-61348952D01*
X27201904Y-61158476D01*
X27249523Y-61063238D01*
X27344761Y-60968000D01*
X27487619Y-60920380D01*
X27582857Y-60920380D01*
X27725714Y-60968000D01*
X27773333Y-61015619D01*
X28344761Y-61348952D02*
X28249523Y-61301333D01*
X28201904Y-61253714D01*
X28154285Y-61158476D01*
X28154285Y-61110857D01*
X28201904Y-61015619D01*
X28249523Y-60968000D01*
X28344761Y-60920380D01*
X28535238Y-60920380D01*
X28630476Y-60968000D01*
X28678095Y-61015619D01*
X28725714Y-61110857D01*
X28725714Y-61158476D01*
X28678095Y-61253714D01*
X28630476Y-61301333D01*
X28535238Y-61348952D01*
X28344761Y-61348952D01*
X28249523Y-61396571D01*
X28201904Y-61444190D01*
X28154285Y-61539428D01*
X28154285Y-61729904D01*
X28201904Y-61825142D01*
X28249523Y-61872761D01*
X28344761Y-61920380D01*
X28535238Y-61920380D01*
X28630476Y-61872761D01*
X28678095Y-61825142D01*
X28725714Y-61729904D01*
X28725714Y-61539428D01*
X28678095Y-61444190D01*
X28630476Y-61396571D01*
X28535238Y-61348952D01*
%TO.C,C10*%
X25503142Y-60078857D02*
X25550761Y-60126476D01*
X25598380Y-60269333D01*
X25598380Y-60364571D01*
X25550761Y-60507428D01*
X25455523Y-60602666D01*
X25360285Y-60650285D01*
X25169809Y-60697904D01*
X25026952Y-60697904D01*
X24836476Y-60650285D01*
X24741238Y-60602666D01*
X24646000Y-60507428D01*
X24598380Y-60364571D01*
X24598380Y-60269333D01*
X24646000Y-60126476D01*
X24693619Y-60078857D01*
X25598380Y-59126476D02*
X25598380Y-59697904D01*
X25598380Y-59412190D02*
X24598380Y-59412190D01*
X24741238Y-59507428D01*
X24836476Y-59602666D01*
X24884095Y-59697904D01*
X24598380Y-58507428D02*
X24598380Y-58412190D01*
X24646000Y-58316952D01*
X24693619Y-58269333D01*
X24788857Y-58221714D01*
X24979333Y-58174095D01*
X25217428Y-58174095D01*
X25407904Y-58221714D01*
X25503142Y-58269333D01*
X25550761Y-58316952D01*
X25598380Y-58412190D01*
X25598380Y-58507428D01*
X25550761Y-58602666D01*
X25503142Y-58650285D01*
X25407904Y-58697904D01*
X25217428Y-58745523D01*
X24979333Y-58745523D01*
X24788857Y-58697904D01*
X24693619Y-58650285D01*
X24646000Y-58602666D01*
X24598380Y-58507428D01*
%TO.C,C11*%
X47157142Y-46357142D02*
X47109523Y-46404761D01*
X46966666Y-46452380D01*
X46871428Y-46452380D01*
X46728571Y-46404761D01*
X46633333Y-46309523D01*
X46585714Y-46214285D01*
X46538095Y-46023809D01*
X46538095Y-45880952D01*
X46585714Y-45690476D01*
X46633333Y-45595238D01*
X46728571Y-45500000D01*
X46871428Y-45452380D01*
X46966666Y-45452380D01*
X47109523Y-45500000D01*
X47157142Y-45547619D01*
X48109523Y-46452380D02*
X47538095Y-46452380D01*
X47823809Y-46452380D02*
X47823809Y-45452380D01*
X47728571Y-45595238D01*
X47633333Y-45690476D01*
X47538095Y-45738095D01*
X49061904Y-46452380D02*
X48490476Y-46452380D01*
X48776190Y-46452380D02*
X48776190Y-45452380D01*
X48680952Y-45595238D01*
X48585714Y-45690476D01*
X48490476Y-45738095D01*
%TO.C,C12*%
X47157142Y-44957142D02*
X47109523Y-45004761D01*
X46966666Y-45052380D01*
X46871428Y-45052380D01*
X46728571Y-45004761D01*
X46633333Y-44909523D01*
X46585714Y-44814285D01*
X46538095Y-44623809D01*
X46538095Y-44480952D01*
X46585714Y-44290476D01*
X46633333Y-44195238D01*
X46728571Y-44100000D01*
X46871428Y-44052380D01*
X46966666Y-44052380D01*
X47109523Y-44100000D01*
X47157142Y-44147619D01*
X48109523Y-45052380D02*
X47538095Y-45052380D01*
X47823809Y-45052380D02*
X47823809Y-44052380D01*
X47728571Y-44195238D01*
X47633333Y-44290476D01*
X47538095Y-44338095D01*
X48490476Y-44147619D02*
X48538095Y-44100000D01*
X48633333Y-44052380D01*
X48871428Y-44052380D01*
X48966666Y-44100000D01*
X49014285Y-44147619D01*
X49061904Y-44242857D01*
X49061904Y-44338095D01*
X49014285Y-44480952D01*
X48442857Y-45052380D01*
X49061904Y-45052380D01*
%TO.C,C14*%
X44594642Y-61571142D02*
X44547023Y-61618761D01*
X44404166Y-61666380D01*
X44308928Y-61666380D01*
X44166071Y-61618761D01*
X44070833Y-61523523D01*
X44023214Y-61428285D01*
X43975595Y-61237809D01*
X43975595Y-61094952D01*
X44023214Y-60904476D01*
X44070833Y-60809238D01*
X44166071Y-60714000D01*
X44308928Y-60666380D01*
X44404166Y-60666380D01*
X44547023Y-60714000D01*
X44594642Y-60761619D01*
X45547023Y-61666380D02*
X44975595Y-61666380D01*
X45261309Y-61666380D02*
X45261309Y-60666380D01*
X45166071Y-60809238D01*
X45070833Y-60904476D01*
X44975595Y-60952095D01*
X46404166Y-60999714D02*
X46404166Y-61666380D01*
X46166071Y-60618761D02*
X45927976Y-61333047D01*
X46547023Y-61333047D01*
%TO.C,C15*%
X48379142Y-56491142D02*
X48331523Y-56538761D01*
X48188666Y-56586380D01*
X48093428Y-56586380D01*
X47950571Y-56538761D01*
X47855333Y-56443523D01*
X47807714Y-56348285D01*
X47760095Y-56157809D01*
X47760095Y-56014952D01*
X47807714Y-55824476D01*
X47855333Y-55729238D01*
X47950571Y-55634000D01*
X48093428Y-55586380D01*
X48188666Y-55586380D01*
X48331523Y-55634000D01*
X48379142Y-55681619D01*
X49331523Y-56586380D02*
X48760095Y-56586380D01*
X49045809Y-56586380D02*
X49045809Y-55586380D01*
X48950571Y-55729238D01*
X48855333Y-55824476D01*
X48760095Y-55872095D01*
X50236285Y-55586380D02*
X49760095Y-55586380D01*
X49712476Y-56062571D01*
X49760095Y-56014952D01*
X49855333Y-55967333D01*
X50093428Y-55967333D01*
X50188666Y-56014952D01*
X50236285Y-56062571D01*
X50283904Y-56157809D01*
X50283904Y-56395904D01*
X50236285Y-56491142D01*
X50188666Y-56538761D01*
X50093428Y-56586380D01*
X49855333Y-56586380D01*
X49760095Y-56538761D01*
X49712476Y-56491142D01*
%TO.C,C16*%
X48379142Y-54967142D02*
X48331523Y-55014761D01*
X48188666Y-55062380D01*
X48093428Y-55062380D01*
X47950571Y-55014761D01*
X47855333Y-54919523D01*
X47807714Y-54824285D01*
X47760095Y-54633809D01*
X47760095Y-54490952D01*
X47807714Y-54300476D01*
X47855333Y-54205238D01*
X47950571Y-54110000D01*
X48093428Y-54062380D01*
X48188666Y-54062380D01*
X48331523Y-54110000D01*
X48379142Y-54157619D01*
X49331523Y-55062380D02*
X48760095Y-55062380D01*
X49045809Y-55062380D02*
X49045809Y-54062380D01*
X48950571Y-54205238D01*
X48855333Y-54300476D01*
X48760095Y-54348095D01*
X50188666Y-54062380D02*
X49998190Y-54062380D01*
X49902952Y-54110000D01*
X49855333Y-54157619D01*
X49760095Y-54300476D01*
X49712476Y-54490952D01*
X49712476Y-54871904D01*
X49760095Y-54967142D01*
X49807714Y-55014761D01*
X49902952Y-55062380D01*
X50093428Y-55062380D01*
X50188666Y-55014761D01*
X50236285Y-54967142D01*
X50283904Y-54871904D01*
X50283904Y-54633809D01*
X50236285Y-54538571D01*
X50188666Y-54490952D01*
X50093428Y-54443333D01*
X49902952Y-54443333D01*
X49807714Y-54490952D01*
X49760095Y-54538571D01*
X49712476Y-54633809D01*
%TO.C,C13*%
X33647142Y-65127142D02*
X33599523Y-65174761D01*
X33456666Y-65222380D01*
X33361428Y-65222380D01*
X33218571Y-65174761D01*
X33123333Y-65079523D01*
X33075714Y-64984285D01*
X33028095Y-64793809D01*
X33028095Y-64650952D01*
X33075714Y-64460476D01*
X33123333Y-64365238D01*
X33218571Y-64270000D01*
X33361428Y-64222380D01*
X33456666Y-64222380D01*
X33599523Y-64270000D01*
X33647142Y-64317619D01*
X34599523Y-65222380D02*
X34028095Y-65222380D01*
X34313809Y-65222380D02*
X34313809Y-64222380D01*
X34218571Y-64365238D01*
X34123333Y-64460476D01*
X34028095Y-64508095D01*
X34932857Y-64222380D02*
X35551904Y-64222380D01*
X35218571Y-64603333D01*
X35361428Y-64603333D01*
X35456666Y-64650952D01*
X35504285Y-64698571D01*
X35551904Y-64793809D01*
X35551904Y-65031904D01*
X35504285Y-65127142D01*
X35456666Y-65174761D01*
X35361428Y-65222380D01*
X35075714Y-65222380D01*
X34980476Y-65174761D01*
X34932857Y-65127142D01*
%TO.C,D1*%
X60302380Y-57354595D02*
X59302380Y-57354595D01*
X59302380Y-57116500D01*
X59350000Y-56973642D01*
X59445238Y-56878404D01*
X59540476Y-56830785D01*
X59730952Y-56783166D01*
X59873809Y-56783166D01*
X60064285Y-56830785D01*
X60159523Y-56878404D01*
X60254761Y-56973642D01*
X60302380Y-57116500D01*
X60302380Y-57354595D01*
X60302380Y-55830785D02*
X60302380Y-56402214D01*
X60302380Y-56116500D02*
X59302380Y-56116500D01*
X59445238Y-56211738D01*
X59540476Y-56306976D01*
X59588095Y-56402214D01*
%TO.C,J5*%
X40052666Y-28686380D02*
X40052666Y-29400666D01*
X40005047Y-29543523D01*
X39909809Y-29638761D01*
X39766952Y-29686380D01*
X39671714Y-29686380D01*
X41005047Y-28686380D02*
X40528857Y-28686380D01*
X40481238Y-29162571D01*
X40528857Y-29114952D01*
X40624095Y-29067333D01*
X40862190Y-29067333D01*
X40957428Y-29114952D01*
X41005047Y-29162571D01*
X41052666Y-29257809D01*
X41052666Y-29495904D01*
X41005047Y-29591142D01*
X40957428Y-29638761D01*
X40862190Y-29686380D01*
X40624095Y-29686380D01*
X40528857Y-29638761D01*
X40481238Y-29591142D01*
%TO.C,L1*%
X28772380Y-56379166D02*
X28772380Y-56855357D01*
X27772380Y-56855357D01*
X28772380Y-55522023D02*
X28772380Y-56093452D01*
X28772380Y-55807738D02*
X27772380Y-55807738D01*
X27915238Y-55902976D01*
X28010476Y-55998214D01*
X28058095Y-56093452D01*
%TO.C,Q1*%
X55784761Y-68971619D02*
X55689523Y-68924000D01*
X55594285Y-68828761D01*
X55451428Y-68685904D01*
X55356190Y-68638285D01*
X55260952Y-68638285D01*
X55308571Y-68876380D02*
X55213333Y-68828761D01*
X55118095Y-68733523D01*
X55070476Y-68543047D01*
X55070476Y-68209714D01*
X55118095Y-68019238D01*
X55213333Y-67924000D01*
X55308571Y-67876380D01*
X55499047Y-67876380D01*
X55594285Y-67924000D01*
X55689523Y-68019238D01*
X55737142Y-68209714D01*
X55737142Y-68543047D01*
X55689523Y-68733523D01*
X55594285Y-68828761D01*
X55499047Y-68876380D01*
X55308571Y-68876380D01*
X56689523Y-68876380D02*
X56118095Y-68876380D01*
X56403809Y-68876380D02*
X56403809Y-67876380D01*
X56308571Y-68019238D01*
X56213333Y-68114476D01*
X56118095Y-68162095D01*
%TO.C,R1*%
X62207380Y-64073166D02*
X61731190Y-64406500D01*
X62207380Y-64644595D02*
X61207380Y-64644595D01*
X61207380Y-64263642D01*
X61255000Y-64168404D01*
X61302619Y-64120785D01*
X61397857Y-64073166D01*
X61540714Y-64073166D01*
X61635952Y-64120785D01*
X61683571Y-64168404D01*
X61731190Y-64263642D01*
X61731190Y-64644595D01*
X62207380Y-63120785D02*
X62207380Y-63692214D01*
X62207380Y-63406500D02*
X61207380Y-63406500D01*
X61350238Y-63501738D01*
X61445476Y-63596976D01*
X61493095Y-63692214D01*
%TO.C,R3*%
X60302380Y-60593166D02*
X59826190Y-60926500D01*
X60302380Y-61164595D02*
X59302380Y-61164595D01*
X59302380Y-60783642D01*
X59350000Y-60688404D01*
X59397619Y-60640785D01*
X59492857Y-60593166D01*
X59635714Y-60593166D01*
X59730952Y-60640785D01*
X59778571Y-60688404D01*
X59826190Y-60783642D01*
X59826190Y-61164595D01*
X59302380Y-60259833D02*
X59302380Y-59640785D01*
X59683333Y-59974119D01*
X59683333Y-59831261D01*
X59730952Y-59736023D01*
X59778571Y-59688404D01*
X59873809Y-59640785D01*
X60111904Y-59640785D01*
X60207142Y-59688404D01*
X60254761Y-59736023D01*
X60302380Y-59831261D01*
X60302380Y-60116976D01*
X60254761Y-60212214D01*
X60207142Y-60259833D01*
%TO.C,R5*%
X55570380Y-61380666D02*
X55094190Y-61714000D01*
X55570380Y-61952095D02*
X54570380Y-61952095D01*
X54570380Y-61571142D01*
X54618000Y-61475904D01*
X54665619Y-61428285D01*
X54760857Y-61380666D01*
X54903714Y-61380666D01*
X54998952Y-61428285D01*
X55046571Y-61475904D01*
X55094190Y-61571142D01*
X55094190Y-61952095D01*
X54570380Y-60475904D02*
X54570380Y-60952095D01*
X55046571Y-60999714D01*
X54998952Y-60952095D01*
X54951333Y-60856857D01*
X54951333Y-60618761D01*
X54998952Y-60523523D01*
X55046571Y-60475904D01*
X55141809Y-60428285D01*
X55379904Y-60428285D01*
X55475142Y-60475904D01*
X55522761Y-60523523D01*
X55570380Y-60618761D01*
X55570380Y-60856857D01*
X55522761Y-60952095D01*
X55475142Y-60999714D01*
%TO.C,R6*%
X57094380Y-61380666D02*
X56618190Y-61714000D01*
X57094380Y-61952095D02*
X56094380Y-61952095D01*
X56094380Y-61571142D01*
X56142000Y-61475904D01*
X56189619Y-61428285D01*
X56284857Y-61380666D01*
X56427714Y-61380666D01*
X56522952Y-61428285D01*
X56570571Y-61475904D01*
X56618190Y-61571142D01*
X56618190Y-61952095D01*
X56094380Y-60523523D02*
X56094380Y-60714000D01*
X56142000Y-60809238D01*
X56189619Y-60856857D01*
X56332476Y-60952095D01*
X56522952Y-60999714D01*
X56903904Y-60999714D01*
X56999142Y-60952095D01*
X57046761Y-60904476D01*
X57094380Y-60809238D01*
X57094380Y-60618761D01*
X57046761Y-60523523D01*
X56999142Y-60475904D01*
X56903904Y-60428285D01*
X56665809Y-60428285D01*
X56570571Y-60475904D01*
X56522952Y-60523523D01*
X56475333Y-60618761D01*
X56475333Y-60809238D01*
X56522952Y-60904476D01*
X56570571Y-60952095D01*
X56665809Y-60999714D01*
%TO.C,R2*%
X34631333Y-66746380D02*
X34298000Y-66270190D01*
X34059904Y-66746380D02*
X34059904Y-65746380D01*
X34440857Y-65746380D01*
X34536095Y-65794000D01*
X34583714Y-65841619D01*
X34631333Y-65936857D01*
X34631333Y-66079714D01*
X34583714Y-66174952D01*
X34536095Y-66222571D01*
X34440857Y-66270190D01*
X34059904Y-66270190D01*
X35012285Y-65841619D02*
X35059904Y-65794000D01*
X35155142Y-65746380D01*
X35393238Y-65746380D01*
X35488476Y-65794000D01*
X35536095Y-65841619D01*
X35583714Y-65936857D01*
X35583714Y-66032095D01*
X35536095Y-66174952D01*
X34964666Y-66746380D01*
X35583714Y-66746380D01*
%TO.C,R7*%
X57348380Y-48426666D02*
X56872190Y-48760000D01*
X57348380Y-48998095D02*
X56348380Y-48998095D01*
X56348380Y-48617142D01*
X56396000Y-48521904D01*
X56443619Y-48474285D01*
X56538857Y-48426666D01*
X56681714Y-48426666D01*
X56776952Y-48474285D01*
X56824571Y-48521904D01*
X56872190Y-48617142D01*
X56872190Y-48998095D01*
X56348380Y-48093333D02*
X56348380Y-47426666D01*
X57348380Y-47855238D01*
%TO.C,R8*%
X60285333Y-46680380D02*
X59952000Y-46204190D01*
X59713904Y-46680380D02*
X59713904Y-45680380D01*
X60094857Y-45680380D01*
X60190095Y-45728000D01*
X60237714Y-45775619D01*
X60285333Y-45870857D01*
X60285333Y-46013714D01*
X60237714Y-46108952D01*
X60190095Y-46156571D01*
X60094857Y-46204190D01*
X59713904Y-46204190D01*
X60856761Y-46108952D02*
X60761523Y-46061333D01*
X60713904Y-46013714D01*
X60666285Y-45918476D01*
X60666285Y-45870857D01*
X60713904Y-45775619D01*
X60761523Y-45728000D01*
X60856761Y-45680380D01*
X61047238Y-45680380D01*
X61142476Y-45728000D01*
X61190095Y-45775619D01*
X61237714Y-45870857D01*
X61237714Y-45918476D01*
X61190095Y-46013714D01*
X61142476Y-46061333D01*
X61047238Y-46108952D01*
X60856761Y-46108952D01*
X60761523Y-46156571D01*
X60713904Y-46204190D01*
X60666285Y-46299428D01*
X60666285Y-46489904D01*
X60713904Y-46585142D01*
X60761523Y-46632761D01*
X60856761Y-46680380D01*
X61047238Y-46680380D01*
X61142476Y-46632761D01*
X61190095Y-46585142D01*
X61237714Y-46489904D01*
X61237714Y-46299428D01*
X61190095Y-46204190D01*
X61142476Y-46156571D01*
X61047238Y-46108952D01*
%TO.C,R9*%
X33632380Y-46928166D02*
X33156190Y-47261500D01*
X33632380Y-47499595D02*
X32632380Y-47499595D01*
X32632380Y-47118642D01*
X32680000Y-47023404D01*
X32727619Y-46975785D01*
X32822857Y-46928166D01*
X32965714Y-46928166D01*
X33060952Y-46975785D01*
X33108571Y-47023404D01*
X33156190Y-47118642D01*
X33156190Y-47499595D01*
X33632380Y-46451976D02*
X33632380Y-46261500D01*
X33584761Y-46166261D01*
X33537142Y-46118642D01*
X33394285Y-46023404D01*
X33203809Y-45975785D01*
X32822857Y-45975785D01*
X32727619Y-46023404D01*
X32680000Y-46071023D01*
X32632380Y-46166261D01*
X32632380Y-46356738D01*
X32680000Y-46451976D01*
X32727619Y-46499595D01*
X32822857Y-46547214D01*
X33060952Y-46547214D01*
X33156190Y-46499595D01*
X33203809Y-46451976D01*
X33251428Y-46356738D01*
X33251428Y-46166261D01*
X33203809Y-46071023D01*
X33156190Y-46023404D01*
X33060952Y-45975785D01*
%TO.C,R10*%
X29248380Y-47353357D02*
X28772190Y-47686690D01*
X29248380Y-47924785D02*
X28248380Y-47924785D01*
X28248380Y-47543833D01*
X28296000Y-47448595D01*
X28343619Y-47400976D01*
X28438857Y-47353357D01*
X28581714Y-47353357D01*
X28676952Y-47400976D01*
X28724571Y-47448595D01*
X28772190Y-47543833D01*
X28772190Y-47924785D01*
X29248380Y-46400976D02*
X29248380Y-46972404D01*
X29248380Y-46686690D02*
X28248380Y-46686690D01*
X28391238Y-46781928D01*
X28486476Y-46877166D01*
X28534095Y-46972404D01*
X28248380Y-45781928D02*
X28248380Y-45686690D01*
X28296000Y-45591452D01*
X28343619Y-45543833D01*
X28438857Y-45496214D01*
X28629333Y-45448595D01*
X28867428Y-45448595D01*
X29057904Y-45496214D01*
X29153142Y-45543833D01*
X29200761Y-45591452D01*
X29248380Y-45686690D01*
X29248380Y-45781928D01*
X29200761Y-45877166D01*
X29153142Y-45924785D01*
X29057904Y-45972404D01*
X28867428Y-46020023D01*
X28629333Y-46020023D01*
X28438857Y-45972404D01*
X28343619Y-45924785D01*
X28296000Y-45877166D01*
X28248380Y-45781928D01*
%TO.C,SW1*%
X38758761Y-30289333D02*
X38806380Y-30146476D01*
X38806380Y-29908380D01*
X38758761Y-29813142D01*
X38711142Y-29765523D01*
X38615904Y-29717904D01*
X38520666Y-29717904D01*
X38425428Y-29765523D01*
X38377809Y-29813142D01*
X38330190Y-29908380D01*
X38282571Y-30098857D01*
X38234952Y-30194095D01*
X38187333Y-30241714D01*
X38092095Y-30289333D01*
X37996857Y-30289333D01*
X37901619Y-30241714D01*
X37854000Y-30194095D01*
X37806380Y-30098857D01*
X37806380Y-29860761D01*
X37854000Y-29717904D01*
X37806380Y-29384571D02*
X38806380Y-29146476D01*
X38092095Y-28956000D01*
X38806380Y-28765523D01*
X37806380Y-28527428D01*
X38806380Y-27622666D02*
X38806380Y-28194095D01*
X38806380Y-27908380D02*
X37806380Y-27908380D01*
X37949238Y-28003619D01*
X38044476Y-28098857D01*
X38092095Y-28194095D01*
%TO.C,U1*%
X35560095Y-62952380D02*
X35560095Y-63761904D01*
X35607714Y-63857142D01*
X35655333Y-63904761D01*
X35750571Y-63952380D01*
X35941047Y-63952380D01*
X36036285Y-63904761D01*
X36083904Y-63857142D01*
X36131523Y-63761904D01*
X36131523Y-62952380D01*
X37131523Y-63952380D02*
X36560095Y-63952380D01*
X36845809Y-63952380D02*
X36845809Y-62952380D01*
X36750571Y-63095238D01*
X36655333Y-63190476D01*
X36560095Y-63238095D01*
%TO.C,U4*%
X47752095Y-58126380D02*
X47752095Y-58935904D01*
X47799714Y-59031142D01*
X47847333Y-59078761D01*
X47942571Y-59126380D01*
X48133047Y-59126380D01*
X48228285Y-59078761D01*
X48275904Y-59031142D01*
X48323523Y-58935904D01*
X48323523Y-58126380D01*
X49228285Y-58459714D02*
X49228285Y-59126380D01*
X48990190Y-58078761D02*
X48752095Y-58793047D01*
X49371142Y-58793047D01*
%TO.C,Y1*%
X27717809Y-48490190D02*
X27717809Y-48966380D01*
X27384476Y-47966380D02*
X27717809Y-48490190D01*
X28051142Y-47966380D01*
X28908285Y-48966380D02*
X28336857Y-48966380D01*
X28622571Y-48966380D02*
X28622571Y-47966380D01*
X28527333Y-48109238D01*
X28432095Y-48204476D01*
X28336857Y-48252095D01*
%TO.C,U3*%
X44720095Y-67778380D02*
X44720095Y-68587904D01*
X44767714Y-68683142D01*
X44815333Y-68730761D01*
X44910571Y-68778380D01*
X45101047Y-68778380D01*
X45196285Y-68730761D01*
X45243904Y-68683142D01*
X45291523Y-68587904D01*
X45291523Y-67778380D01*
X45672476Y-67778380D02*
X46291523Y-67778380D01*
X45958190Y-68159333D01*
X46101047Y-68159333D01*
X46196285Y-68206952D01*
X46243904Y-68254571D01*
X46291523Y-68349809D01*
X46291523Y-68587904D01*
X46243904Y-68683142D01*
X46196285Y-68730761D01*
X46101047Y-68778380D01*
X45815333Y-68778380D01*
X45720095Y-68730761D01*
X45672476Y-68683142D01*
%TO.C,U6*%
X41148095Y-53046380D02*
X41148095Y-53855904D01*
X41195714Y-53951142D01*
X41243333Y-53998761D01*
X41338571Y-54046380D01*
X41529047Y-54046380D01*
X41624285Y-53998761D01*
X41671904Y-53951142D01*
X41719523Y-53855904D01*
X41719523Y-53046380D01*
X42624285Y-53046380D02*
X42433809Y-53046380D01*
X42338571Y-53094000D01*
X42290952Y-53141619D01*
X42195714Y-53284476D01*
X42148095Y-53474952D01*
X42148095Y-53855904D01*
X42195714Y-53951142D01*
X42243333Y-53998761D01*
X42338571Y-54046380D01*
X42529047Y-54046380D01*
X42624285Y-53998761D01*
X42671904Y-53951142D01*
X42719523Y-53855904D01*
X42719523Y-53617809D01*
X42671904Y-53522571D01*
X42624285Y-53474952D01*
X42529047Y-53427333D01*
X42338571Y-53427333D01*
X42243333Y-53474952D01*
X42195714Y-53522571D01*
X42148095Y-53617809D01*
%TO.C,D2*%
X51672380Y-39786095D02*
X50672380Y-39786095D01*
X50672380Y-39548000D01*
X50720000Y-39405142D01*
X50815238Y-39309904D01*
X50910476Y-39262285D01*
X51100952Y-39214666D01*
X51243809Y-39214666D01*
X51434285Y-39262285D01*
X51529523Y-39309904D01*
X51624761Y-39405142D01*
X51672380Y-39548000D01*
X51672380Y-39786095D01*
X50767619Y-38833714D02*
X50720000Y-38786095D01*
X50672380Y-38690857D01*
X50672380Y-38452761D01*
X50720000Y-38357523D01*
X50767619Y-38309904D01*
X50862857Y-38262285D01*
X50958095Y-38262285D01*
X51100952Y-38309904D01*
X51672380Y-38881333D01*
X51672380Y-38262285D01*
%TO.C,R4*%
X51692380Y-42427166D02*
X51216190Y-42760500D01*
X51692380Y-42998595D02*
X50692380Y-42998595D01*
X50692380Y-42617642D01*
X50740000Y-42522404D01*
X50787619Y-42474785D01*
X50882857Y-42427166D01*
X51025714Y-42427166D01*
X51120952Y-42474785D01*
X51168571Y-42522404D01*
X51216190Y-42617642D01*
X51216190Y-42998595D01*
X51025714Y-41570023D02*
X51692380Y-41570023D01*
X50644761Y-41808119D02*
X51359047Y-42046214D01*
X51359047Y-41427166D01*
%TO.C,U2*%
X54138095Y-53052380D02*
X54138095Y-53861904D01*
X54185714Y-53957142D01*
X54233333Y-54004761D01*
X54328571Y-54052380D01*
X54519047Y-54052380D01*
X54614285Y-54004761D01*
X54661904Y-53957142D01*
X54709523Y-53861904D01*
X54709523Y-53052380D01*
X55138095Y-53147619D02*
X55185714Y-53100000D01*
X55280952Y-53052380D01*
X55519047Y-53052380D01*
X55614285Y-53100000D01*
X55661904Y-53147619D01*
X55709523Y-53242857D01*
X55709523Y-53338095D01*
X55661904Y-53480952D01*
X55090476Y-54052380D01*
X55709523Y-54052380D01*
%TO.C,C17*%
X44205142Y-38488857D02*
X44252761Y-38536476D01*
X44300380Y-38679333D01*
X44300380Y-38774571D01*
X44252761Y-38917428D01*
X44157523Y-39012666D01*
X44062285Y-39060285D01*
X43871809Y-39107904D01*
X43728952Y-39107904D01*
X43538476Y-39060285D01*
X43443238Y-39012666D01*
X43348000Y-38917428D01*
X43300380Y-38774571D01*
X43300380Y-38679333D01*
X43348000Y-38536476D01*
X43395619Y-38488857D01*
X44300380Y-37536476D02*
X44300380Y-38107904D01*
X44300380Y-37822190D02*
X43300380Y-37822190D01*
X43443238Y-37917428D01*
X43538476Y-38012666D01*
X43586095Y-38107904D01*
X43300380Y-37203142D02*
X43300380Y-36536476D01*
X44300380Y-36965047D01*
%TO.C,U5*%
X48514095Y-59709480D02*
X48514095Y-60519004D01*
X48561714Y-60614242D01*
X48609333Y-60661861D01*
X48704571Y-60709480D01*
X48895047Y-60709480D01*
X48990285Y-60661861D01*
X49037904Y-60614242D01*
X49085523Y-60519004D01*
X49085523Y-59709480D01*
X50037904Y-59709480D02*
X49561714Y-59709480D01*
X49514095Y-60185671D01*
X49561714Y-60138052D01*
X49656952Y-60090433D01*
X49895047Y-60090433D01*
X49990285Y-60138052D01*
X50037904Y-60185671D01*
X50085523Y-60280909D01*
X50085523Y-60519004D01*
X50037904Y-60614242D01*
X49990285Y-60661861D01*
X49895047Y-60709480D01*
X49656952Y-60709480D01*
X49561714Y-60661861D01*
X49514095Y-60614242D01*
%TD*%
M02*
