M48
; DRILL file {KiCad 5.1.6} date Fri Sep  4 20:47:50 2020
; FORMAT={-:-/ absolute / inch / decimal}
; #@! TF.CreationDate,2020-09-04T20:47:50+02:00
; #@! TF.GenerationSoftware,Kicad,Pcbnew,5.1.6
; #@! TF.FileFunction,Plated,1,2,PTH
FMAT,2
INCH
T1C0.0157
T2C0.0394
T3C0.0512
T4C0.0598
T5C0.0787
%
G90
G05
T1
X0.98Y-2.176
X0.99Y-2.436
X1.016Y-1.606
X1.054Y-1.258
X1.07Y-1.8
X1.1058Y-2.1342
X1.16Y-1.4
X1.17Y-1.93
X1.17Y-2.24
X1.2Y-1.0
X1.2Y-2.65
X1.23Y-2.3674
X1.25Y-2.14
X1.27Y-1.558
X1.3Y-2.75
X1.31Y-1.89
X1.31Y-1.93
X1.35Y-2.63
X1.364Y-1.246
X1.3791Y-2.3687
X1.4116Y-2.25
X1.42Y-1.61
X1.43Y-2.43
X1.4324Y-2.01
X1.4532Y-2.07
X1.48Y-2.25
X1.48Y-2.34
X1.49Y-1.82
X1.49Y-2.1882
X1.5Y-2.75
X1.52Y-2.49
X1.57Y-2.63
X1.572Y-1.14
X1.6Y-1.0
X1.6Y-2.2138
X1.61Y-2.28
X1.6125Y-2.3845
X1.63Y-2.45
X1.66Y-2.06
X1.7Y-2.5
X1.7Y-2.75
X1.8Y-2.1
X1.8215Y-2.347
X1.8425Y-2.536
X1.86Y-1.09
X1.88Y-1.59
X1.9Y-2.75
X2.02Y-2.01
X2.049Y-2.407
X2.05Y-2.31
X2.065Y-1.9635
X2.1Y-2.75
X2.15Y-1.0
X2.15Y-2.15
X2.19Y-2.51
X2.19Y-2.57
X2.19Y-2.63
X2.223Y-2.015
X2.3Y-2.75
X2.31Y-1.99
X2.36Y-1.77
X2.46Y-1.61
X2.5Y-1.23
X2.5Y-2.75
X2.7Y-1.3
X2.72Y-1.9
X2.722Y-2.108
X2.726Y-2.482
X2.728Y-2.318
T2
X1.09Y-1.1391
X1.09Y-1.71
X1.1884Y-1.71
X1.2869Y-1.1391
X1.2869Y-1.71
X1.03Y-2.51
X1.13Y-2.51
X1.23Y-2.51
X1.59Y-1.26
X1.59Y-1.36
X1.59Y-1.46
X1.59Y-1.56
X2.375Y-1.1322
X2.375Y-1.27
X1.49Y-1.97
X1.59Y-1.97
X1.69Y-1.97
X1.79Y-1.97
T3
X1.7542Y-1.66
X2.64Y-1.66
T4
X1.79Y-1.26
X1.99Y-1.26
X2.515Y-2.01
X2.515Y-2.21
X2.515Y-2.41
X2.515Y-2.61
T5
G00X0.968Y-1.4246
M15
G01X0.968Y-1.4049
M16
G05
G00X1.4089Y-1.4246
M15
G01X1.4089Y-1.4049
M16
G05
T0
M30
