%TF.GenerationSoftware,KiCad,Pcbnew,5.1.6*%
%TF.CreationDate,2020-09-04T20:47:42+02:00*%
%TF.ProjectId,JBC_Nano_Hardware,4a42435f-4e61-46e6-9f5f-486172647761,rev?*%
%TF.SameCoordinates,Original*%
%TF.FileFunction,Legend,Bot*%
%TF.FilePolarity,Positive*%
%FSLAX46Y46*%
G04 Gerber Fmt 4.6, Leading zero omitted, Abs format (unit mm)*
G04 Created by KiCad (PCBNEW 5.1.6) date 2020-09-04 20:47:42*
%MOMM*%
%LPD*%
G01*
G04 APERTURE LIST*
%ADD10C,0.150000*%
%ADD11C,0.120000*%
G04 APERTURE END LIST*
D10*
X45462700Y-63279400D02*
X45557938Y-63231780D01*
X45700795Y-63231780D01*
X45843652Y-63279400D01*
X45938890Y-63374638D01*
X45986509Y-63469876D01*
X46034128Y-63660352D01*
X46034128Y-63803209D01*
X45986509Y-63993685D01*
X45938890Y-64088923D01*
X45843652Y-64184161D01*
X45700795Y-64231780D01*
X45605557Y-64231780D01*
X45462700Y-64184161D01*
X45415080Y-64136542D01*
X45415080Y-63803209D01*
X45605557Y-63803209D01*
X45034128Y-63946066D02*
X44557938Y-63946066D01*
X45129366Y-64231780D02*
X44796033Y-63231780D01*
X44462700Y-64231780D01*
X44272223Y-63231780D02*
X43700795Y-63231780D01*
X43986509Y-64231780D02*
X43986509Y-63231780D01*
X43367461Y-63707971D02*
X43034128Y-63707971D01*
X42891271Y-64231780D02*
X43367461Y-64231780D01*
X43367461Y-63231780D01*
X42891271Y-63231780D01*
X46227904Y-25154000D02*
X46323142Y-25106380D01*
X46466000Y-25106380D01*
X46608857Y-25154000D01*
X46704095Y-25249238D01*
X46751714Y-25344476D01*
X46799333Y-25534952D01*
X46799333Y-25677809D01*
X46751714Y-25868285D01*
X46704095Y-25963523D01*
X46608857Y-26058761D01*
X46466000Y-26106380D01*
X46370761Y-26106380D01*
X46227904Y-26058761D01*
X46180285Y-26011142D01*
X46180285Y-25677809D01*
X46370761Y-25677809D01*
X45751714Y-26106380D02*
X45751714Y-25106380D01*
X45180285Y-26106380D01*
X45180285Y-25106380D01*
X44704095Y-26106380D02*
X44704095Y-25106380D01*
X44466000Y-25106380D01*
X44323142Y-25154000D01*
X44227904Y-25249238D01*
X44180285Y-25344476D01*
X44132666Y-25534952D01*
X44132666Y-25677809D01*
X44180285Y-25868285D01*
X44227904Y-25963523D01*
X44323142Y-26058761D01*
X44466000Y-26106380D01*
X44704095Y-26106380D01*
X51641238Y-25106380D02*
X51307904Y-26106380D01*
X50974571Y-25106380D01*
X50641238Y-26106380D02*
X50641238Y-25106380D01*
X50165047Y-26106380D02*
X50165047Y-25106380D01*
X49593619Y-26106380D01*
X49593619Y-25106380D01*
X31583142Y-45648571D02*
X31440285Y-45696190D01*
X31392666Y-45743809D01*
X31345047Y-45839047D01*
X31345047Y-45981904D01*
X31392666Y-46077142D01*
X31440285Y-46124761D01*
X31535523Y-46172380D01*
X31916476Y-46172380D01*
X31916476Y-45172380D01*
X31583142Y-45172380D01*
X31487904Y-45220000D01*
X31440285Y-45267619D01*
X31392666Y-45362857D01*
X31392666Y-45458095D01*
X31440285Y-45553333D01*
X31487904Y-45600952D01*
X31583142Y-45648571D01*
X31916476Y-45648571D01*
X30726000Y-45172380D02*
X30535523Y-45172380D01*
X30440285Y-45220000D01*
X30345047Y-45315238D01*
X30297428Y-45505714D01*
X30297428Y-45839047D01*
X30345047Y-46029523D01*
X30440285Y-46124761D01*
X30535523Y-46172380D01*
X30726000Y-46172380D01*
X30821238Y-46124761D01*
X30916476Y-46029523D01*
X30964095Y-45839047D01*
X30964095Y-45505714D01*
X30916476Y-45315238D01*
X30821238Y-45220000D01*
X30726000Y-45172380D01*
X29678380Y-45172380D02*
X29487904Y-45172380D01*
X29392666Y-45220000D01*
X29297428Y-45315238D01*
X29249809Y-45505714D01*
X29249809Y-45839047D01*
X29297428Y-46029523D01*
X29392666Y-46124761D01*
X29487904Y-46172380D01*
X29678380Y-46172380D01*
X29773619Y-46124761D01*
X29868857Y-46029523D01*
X29916476Y-45839047D01*
X29916476Y-45505714D01*
X29868857Y-45315238D01*
X29773619Y-45220000D01*
X29678380Y-45172380D01*
X28964095Y-45172380D02*
X28392666Y-45172380D01*
X28678380Y-46172380D02*
X28678380Y-45172380D01*
X31424380Y-54554380D02*
X31757714Y-54078190D01*
X31995809Y-54554380D02*
X31995809Y-53554380D01*
X31614857Y-53554380D01*
X31519619Y-53602000D01*
X31472000Y-53649619D01*
X31424380Y-53744857D01*
X31424380Y-53887714D01*
X31472000Y-53982952D01*
X31519619Y-54030571D01*
X31614857Y-54078190D01*
X31995809Y-54078190D01*
X30995809Y-54030571D02*
X30662476Y-54030571D01*
X30519619Y-54554380D02*
X30995809Y-54554380D01*
X30995809Y-53554380D01*
X30519619Y-53554380D01*
X30138666Y-54506761D02*
X29995809Y-54554380D01*
X29757714Y-54554380D01*
X29662476Y-54506761D01*
X29614857Y-54459142D01*
X29567238Y-54363904D01*
X29567238Y-54268666D01*
X29614857Y-54173428D01*
X29662476Y-54125809D01*
X29757714Y-54078190D01*
X29948190Y-54030571D01*
X30043428Y-53982952D01*
X30091047Y-53935333D01*
X30138666Y-53840095D01*
X30138666Y-53744857D01*
X30091047Y-53649619D01*
X30043428Y-53602000D01*
X29948190Y-53554380D01*
X29710095Y-53554380D01*
X29567238Y-53602000D01*
X29138666Y-54030571D02*
X28805333Y-54030571D01*
X28662476Y-54554380D02*
X29138666Y-54554380D01*
X29138666Y-53554380D01*
X28662476Y-53554380D01*
X28376761Y-53554380D02*
X27805333Y-53554380D01*
X28091047Y-54554380D02*
X28091047Y-53554380D01*
X51736190Y-59904380D02*
X51402857Y-60904380D01*
X51069523Y-59904380D01*
X50974285Y-60999619D02*
X50212380Y-60999619D01*
X50117142Y-59904380D02*
X49545714Y-59904380D01*
X49831428Y-60904380D02*
X49831428Y-59904380D01*
X48640952Y-60809142D02*
X48688571Y-60856761D01*
X48831428Y-60904380D01*
X48926666Y-60904380D01*
X49069523Y-60856761D01*
X49164761Y-60761523D01*
X49212380Y-60666285D01*
X49260000Y-60475809D01*
X49260000Y-60332952D01*
X49212380Y-60142476D01*
X49164761Y-60047238D01*
X49069523Y-59952000D01*
X48926666Y-59904380D01*
X48831428Y-59904380D01*
X48688571Y-59952000D01*
X48640952Y-59999619D01*
X48450476Y-60999619D02*
X47688571Y-60999619D01*
X47498095Y-60618666D02*
X47021904Y-60618666D01*
X47593333Y-60904380D02*
X47259999Y-59904380D01*
X46926666Y-60904380D01*
X46593333Y-60904380D02*
X46593333Y-59904380D01*
X46259999Y-60618666D01*
X45926666Y-59904380D01*
X45926666Y-60904380D01*
X45450476Y-60904380D02*
X45450476Y-59904380D01*
X45069523Y-59904380D01*
X44974285Y-59952000D01*
X44926666Y-59999619D01*
X44879047Y-60094857D01*
X44879047Y-60237714D01*
X44926666Y-60332952D01*
X44974285Y-60380571D01*
X45069523Y-60428190D01*
X45450476Y-60428190D01*
X25614380Y-59444095D02*
X25614380Y-60015523D01*
X26614380Y-59729809D02*
X25614380Y-59729809D01*
X25614380Y-60253619D02*
X26614380Y-60920285D01*
X25614380Y-60920285D02*
X26614380Y-60253619D01*
X26614380Y-61301238D02*
X25614380Y-61301238D01*
X25614380Y-61539333D01*
X25662000Y-61682190D01*
X25757238Y-61777428D01*
X25852476Y-61825047D01*
X26042952Y-61872666D01*
X26185809Y-61872666D01*
X26376285Y-61825047D01*
X26471523Y-61777428D01*
X26566761Y-61682190D01*
X26614380Y-61539333D01*
X26614380Y-61301238D01*
X29408380Y-60039333D02*
X28932190Y-59706000D01*
X29408380Y-59467904D02*
X28408380Y-59467904D01*
X28408380Y-59848857D01*
X28456000Y-59944095D01*
X28503619Y-59991714D01*
X28598857Y-60039333D01*
X28741714Y-60039333D01*
X28836952Y-59991714D01*
X28884571Y-59944095D01*
X28932190Y-59848857D01*
X28932190Y-59467904D01*
X28408380Y-60372666D02*
X29408380Y-61039333D01*
X28408380Y-61039333D02*
X29408380Y-60372666D01*
X29408380Y-61420285D02*
X28408380Y-61420285D01*
X28408380Y-61658380D01*
X28456000Y-61801238D01*
X28551238Y-61896476D01*
X28646476Y-61944095D01*
X28836952Y-61991714D01*
X28979809Y-61991714D01*
X29170285Y-61944095D01*
X29265523Y-61896476D01*
X29360761Y-61801238D01*
X29408380Y-61658380D01*
X29408380Y-61420285D01*
X30742000Y-59944095D02*
X30694380Y-59848857D01*
X30694380Y-59706000D01*
X30742000Y-59563142D01*
X30837238Y-59467904D01*
X30932476Y-59420285D01*
X31122952Y-59372666D01*
X31265809Y-59372666D01*
X31456285Y-59420285D01*
X31551523Y-59467904D01*
X31646761Y-59563142D01*
X31694380Y-59706000D01*
X31694380Y-59801238D01*
X31646761Y-59944095D01*
X31599142Y-59991714D01*
X31265809Y-59991714D01*
X31265809Y-59801238D01*
X31694380Y-60420285D02*
X30694380Y-60420285D01*
X31694380Y-60991714D01*
X30694380Y-60991714D01*
X31694380Y-61467904D02*
X30694380Y-61467904D01*
X30694380Y-61706000D01*
X30742000Y-61848857D01*
X30837238Y-61944095D01*
X30932476Y-61991714D01*
X31122952Y-62039333D01*
X31265809Y-62039333D01*
X31456285Y-61991714D01*
X31551523Y-61944095D01*
X31646761Y-61848857D01*
X31694380Y-61706000D01*
X31694380Y-61467904D01*
X44918380Y-51847904D02*
X44918380Y-52466952D01*
X45299333Y-52133619D01*
X45299333Y-52276476D01*
X45346952Y-52371714D01*
X45394571Y-52419333D01*
X45489809Y-52466952D01*
X45727904Y-52466952D01*
X45823142Y-52419333D01*
X45870761Y-52371714D01*
X45918380Y-52276476D01*
X45918380Y-51990761D01*
X45870761Y-51895523D01*
X45823142Y-51847904D01*
X44918380Y-52752666D02*
X45918380Y-53086000D01*
X44918380Y-53419333D01*
X44918380Y-53657428D02*
X44918380Y-54276476D01*
X45299333Y-53943142D01*
X45299333Y-54086000D01*
X45346952Y-54181238D01*
X45394571Y-54228857D01*
X45489809Y-54276476D01*
X45727904Y-54276476D01*
X45823142Y-54228857D01*
X45870761Y-54181238D01*
X45918380Y-54086000D01*
X45918380Y-53800285D01*
X45870761Y-53705047D01*
X45823142Y-53657428D01*
X43330761Y-51728952D02*
X43378380Y-51871809D01*
X43378380Y-52109904D01*
X43330761Y-52205142D01*
X43283142Y-52252761D01*
X43187904Y-52300380D01*
X43092666Y-52300380D01*
X42997428Y-52252761D01*
X42949809Y-52205142D01*
X42902190Y-52109904D01*
X42854571Y-51919428D01*
X42806952Y-51824190D01*
X42759333Y-51776571D01*
X42664095Y-51728952D01*
X42568857Y-51728952D01*
X42473619Y-51776571D01*
X42426000Y-51824190D01*
X42378380Y-51919428D01*
X42378380Y-52157523D01*
X42426000Y-52300380D01*
X42378380Y-52633714D02*
X43378380Y-52871809D01*
X42664095Y-53062285D01*
X43378380Y-53252761D01*
X42378380Y-53490857D01*
X43378380Y-53871809D02*
X42378380Y-53871809D01*
X42378380Y-54109904D01*
X42426000Y-54252761D01*
X42521238Y-54348000D01*
X42616476Y-54395619D01*
X42806952Y-54443238D01*
X42949809Y-54443238D01*
X43140285Y-54395619D01*
X43235523Y-54348000D01*
X43330761Y-54252761D01*
X43378380Y-54109904D01*
X43378380Y-53871809D01*
X43378380Y-54871809D02*
X42378380Y-54871809D01*
X42378380Y-55538476D02*
X42378380Y-55728952D01*
X42426000Y-55824190D01*
X42521238Y-55919428D01*
X42711714Y-55967047D01*
X43045047Y-55967047D01*
X43235523Y-55919428D01*
X43330761Y-55824190D01*
X43378380Y-55728952D01*
X43378380Y-55538476D01*
X43330761Y-55443238D01*
X43235523Y-55348000D01*
X43045047Y-55300380D01*
X42711714Y-55300380D01*
X42521238Y-55348000D01*
X42426000Y-55443238D01*
X42378380Y-55538476D01*
X40790761Y-51848095D02*
X40838380Y-51990952D01*
X40838380Y-52229047D01*
X40790761Y-52324285D01*
X40743142Y-52371904D01*
X40647904Y-52419523D01*
X40552666Y-52419523D01*
X40457428Y-52371904D01*
X40409809Y-52324285D01*
X40362190Y-52229047D01*
X40314571Y-52038571D01*
X40266952Y-51943333D01*
X40219333Y-51895714D01*
X40124095Y-51848095D01*
X40028857Y-51848095D01*
X39933619Y-51895714D01*
X39886000Y-51943333D01*
X39838380Y-52038571D01*
X39838380Y-52276666D01*
X39886000Y-52419523D01*
X39838380Y-52752857D02*
X40838380Y-52990952D01*
X40124095Y-53181428D01*
X40838380Y-53371904D01*
X39838380Y-53610000D01*
X40838380Y-53990952D02*
X39838380Y-53990952D01*
X39838380Y-54229047D01*
X39886000Y-54371904D01*
X39981238Y-54467142D01*
X40076476Y-54514761D01*
X40266952Y-54562380D01*
X40409809Y-54562380D01*
X40600285Y-54514761D01*
X40695523Y-54467142D01*
X40790761Y-54371904D01*
X40838380Y-54229047D01*
X40838380Y-53990952D01*
X40743142Y-55562380D02*
X40790761Y-55514761D01*
X40838380Y-55371904D01*
X40838380Y-55276666D01*
X40790761Y-55133809D01*
X40695523Y-55038571D01*
X40600285Y-54990952D01*
X40409809Y-54943333D01*
X40266952Y-54943333D01*
X40076476Y-54990952D01*
X39981238Y-55038571D01*
X39886000Y-55133809D01*
X39838380Y-55276666D01*
X39838380Y-55371904D01*
X39886000Y-55514761D01*
X39933619Y-55562380D01*
X40838380Y-56467142D02*
X40838380Y-55990952D01*
X39838380Y-55990952D01*
X40838380Y-56800476D02*
X39838380Y-56800476D01*
X40838380Y-57371904D02*
X40266952Y-56943333D01*
X39838380Y-57371904D02*
X40409809Y-56800476D01*
X37346000Y-52324095D02*
X37298380Y-52228857D01*
X37298380Y-52086000D01*
X37346000Y-51943142D01*
X37441238Y-51847904D01*
X37536476Y-51800285D01*
X37726952Y-51752666D01*
X37869809Y-51752666D01*
X38060285Y-51800285D01*
X38155523Y-51847904D01*
X38250761Y-51943142D01*
X38298380Y-52086000D01*
X38298380Y-52181238D01*
X38250761Y-52324095D01*
X38203142Y-52371714D01*
X37869809Y-52371714D01*
X37869809Y-52181238D01*
X38298380Y-52800285D02*
X37298380Y-52800285D01*
X38298380Y-53371714D01*
X37298380Y-53371714D01*
X38298380Y-53847904D02*
X37298380Y-53847904D01*
X37298380Y-54086000D01*
X37346000Y-54228857D01*
X37441238Y-54324095D01*
X37536476Y-54371714D01*
X37726952Y-54419333D01*
X37869809Y-54419333D01*
X38060285Y-54371714D01*
X38155523Y-54324095D01*
X38250761Y-54228857D01*
X38298380Y-54086000D01*
X38298380Y-53847904D01*
X70048380Y-63794000D02*
X69048380Y-63794000D01*
X69524571Y-63794000D02*
X69524571Y-64365428D01*
X70048380Y-64365428D02*
X69048380Y-64365428D01*
X69524571Y-64841619D02*
X69524571Y-65174952D01*
X70048380Y-65317809D02*
X70048380Y-64841619D01*
X69048380Y-64841619D01*
X69048380Y-65317809D01*
X69762666Y-65698761D02*
X69762666Y-66174952D01*
X70048380Y-65603523D02*
X69048380Y-65936857D01*
X70048380Y-66270190D01*
X69048380Y-66460666D02*
X69048380Y-67032095D01*
X70048380Y-66746380D02*
X69048380Y-66746380D01*
X69524571Y-67365428D02*
X69524571Y-67698761D01*
X70048380Y-67841619D02*
X70048380Y-67365428D01*
X69048380Y-67365428D01*
X69048380Y-67841619D01*
X70048380Y-68841619D02*
X69572190Y-68508285D01*
X70048380Y-68270190D02*
X69048380Y-68270190D01*
X69048380Y-68651142D01*
X69096000Y-68746380D01*
X69143619Y-68794000D01*
X69238857Y-68841619D01*
X69381714Y-68841619D01*
X69476952Y-68794000D01*
X69524571Y-68746380D01*
X69572190Y-68651142D01*
X69572190Y-68270190D01*
X70000761Y-60356857D02*
X70048380Y-60499714D01*
X70048380Y-60737809D01*
X70000761Y-60833047D01*
X69953142Y-60880666D01*
X69857904Y-60928285D01*
X69762666Y-60928285D01*
X69667428Y-60880666D01*
X69619809Y-60833047D01*
X69572190Y-60737809D01*
X69524571Y-60547333D01*
X69476952Y-60452095D01*
X69429333Y-60404476D01*
X69334095Y-60356857D01*
X69238857Y-60356857D01*
X69143619Y-60404476D01*
X69096000Y-60452095D01*
X69048380Y-60547333D01*
X69048380Y-60785428D01*
X69096000Y-60928285D01*
X69048380Y-61261619D02*
X70048380Y-61499714D01*
X69334095Y-61690190D01*
X70048380Y-61880666D01*
X69048380Y-62118761D01*
X69096000Y-55372095D02*
X69048380Y-55276857D01*
X69048380Y-55134000D01*
X69096000Y-54991142D01*
X69191238Y-54895904D01*
X69286476Y-54848285D01*
X69476952Y-54800666D01*
X69619809Y-54800666D01*
X69810285Y-54848285D01*
X69905523Y-54895904D01*
X70000761Y-54991142D01*
X70048380Y-55134000D01*
X70048380Y-55229238D01*
X70000761Y-55372095D01*
X69953142Y-55419714D01*
X69619809Y-55419714D01*
X69619809Y-55229238D01*
X70048380Y-55848285D02*
X69048380Y-55848285D01*
X70048380Y-56419714D01*
X69048380Y-56419714D01*
X70048380Y-56895904D02*
X69048380Y-56895904D01*
X69048380Y-57134000D01*
X69096000Y-57276857D01*
X69191238Y-57372095D01*
X69286476Y-57419714D01*
X69476952Y-57467333D01*
X69619809Y-57467333D01*
X69810285Y-57419714D01*
X69905523Y-57372095D01*
X70000761Y-57276857D01*
X70048380Y-57134000D01*
X70048380Y-56895904D01*
X69096000Y-50292095D02*
X69048380Y-50196857D01*
X69048380Y-50054000D01*
X69096000Y-49911142D01*
X69191238Y-49815904D01*
X69286476Y-49768285D01*
X69476952Y-49720666D01*
X69619809Y-49720666D01*
X69810285Y-49768285D01*
X69905523Y-49815904D01*
X70000761Y-49911142D01*
X70048380Y-50054000D01*
X70048380Y-50149238D01*
X70000761Y-50292095D01*
X69953142Y-50339714D01*
X69619809Y-50339714D01*
X69619809Y-50149238D01*
X70048380Y-50768285D02*
X69048380Y-50768285D01*
X70048380Y-51339714D01*
X69048380Y-51339714D01*
X70048380Y-51815904D02*
X69048380Y-51815904D01*
X69048380Y-52054000D01*
X69096000Y-52196857D01*
X69191238Y-52292095D01*
X69286476Y-52339714D01*
X69476952Y-52387333D01*
X69619809Y-52387333D01*
X69810285Y-52339714D01*
X69905523Y-52292095D01*
X70000761Y-52196857D01*
X70048380Y-52054000D01*
X70048380Y-51815904D01*
D11*
%TO.C,C9*%
X65445000Y-30508000D02*
G75*
G03*
X65445000Y-30508000I-5120000J0D01*
G01*
X65405000Y-30508000D02*
X55245000Y-30508000D01*
X65405000Y-30468000D02*
X55245000Y-30468000D01*
X65405000Y-30428000D02*
X55245000Y-30428000D01*
X65404000Y-30388000D02*
X55246000Y-30388000D01*
X65403000Y-30348000D02*
X55247000Y-30348000D01*
X65402000Y-30308000D02*
X55248000Y-30308000D01*
X65400000Y-30268000D02*
X55250000Y-30268000D01*
X65398000Y-30228000D02*
X55252000Y-30228000D01*
X65395000Y-30188000D02*
X55255000Y-30188000D01*
X65393000Y-30148000D02*
X55257000Y-30148000D01*
X65390000Y-30108000D02*
X55260000Y-30108000D01*
X65387000Y-30068000D02*
X55263000Y-30068000D01*
X65383000Y-30028000D02*
X55267000Y-30028000D01*
X65379000Y-29988000D02*
X61566000Y-29988000D01*
X59084000Y-29988000D02*
X55271000Y-29988000D01*
X65375000Y-29948000D02*
X61566000Y-29948000D01*
X59084000Y-29948000D02*
X55275000Y-29948000D01*
X65370000Y-29908000D02*
X61566000Y-29908000D01*
X59084000Y-29908000D02*
X55280000Y-29908000D01*
X65365000Y-29868000D02*
X61566000Y-29868000D01*
X59084000Y-29868000D02*
X55285000Y-29868000D01*
X65360000Y-29828000D02*
X61566000Y-29828000D01*
X59084000Y-29828000D02*
X55290000Y-29828000D01*
X65355000Y-29787000D02*
X61566000Y-29787000D01*
X59084000Y-29787000D02*
X55295000Y-29787000D01*
X65349000Y-29747000D02*
X61566000Y-29747000D01*
X59084000Y-29747000D02*
X55301000Y-29747000D01*
X65343000Y-29707000D02*
X61566000Y-29707000D01*
X59084000Y-29707000D02*
X55307000Y-29707000D01*
X65336000Y-29667000D02*
X61566000Y-29667000D01*
X59084000Y-29667000D02*
X55314000Y-29667000D01*
X65329000Y-29627000D02*
X61566000Y-29627000D01*
X59084000Y-29627000D02*
X55321000Y-29627000D01*
X65322000Y-29587000D02*
X61566000Y-29587000D01*
X59084000Y-29587000D02*
X55328000Y-29587000D01*
X65315000Y-29547000D02*
X61566000Y-29547000D01*
X59084000Y-29547000D02*
X55335000Y-29547000D01*
X65307000Y-29507000D02*
X61566000Y-29507000D01*
X59084000Y-29507000D02*
X55343000Y-29507000D01*
X65299000Y-29467000D02*
X61566000Y-29467000D01*
X59084000Y-29467000D02*
X55351000Y-29467000D01*
X65290000Y-29427000D02*
X61566000Y-29427000D01*
X59084000Y-29427000D02*
X55360000Y-29427000D01*
X65281000Y-29387000D02*
X61566000Y-29387000D01*
X59084000Y-29387000D02*
X55369000Y-29387000D01*
X65272000Y-29347000D02*
X61566000Y-29347000D01*
X59084000Y-29347000D02*
X55378000Y-29347000D01*
X65263000Y-29307000D02*
X61566000Y-29307000D01*
X59084000Y-29307000D02*
X55387000Y-29307000D01*
X65253000Y-29267000D02*
X61566000Y-29267000D01*
X59084000Y-29267000D02*
X55397000Y-29267000D01*
X65243000Y-29227000D02*
X61566000Y-29227000D01*
X59084000Y-29227000D02*
X55407000Y-29227000D01*
X65232000Y-29187000D02*
X61566000Y-29187000D01*
X59084000Y-29187000D02*
X55418000Y-29187000D01*
X65222000Y-29147000D02*
X61566000Y-29147000D01*
X59084000Y-29147000D02*
X55428000Y-29147000D01*
X65210000Y-29107000D02*
X61566000Y-29107000D01*
X59084000Y-29107000D02*
X55440000Y-29107000D01*
X65199000Y-29067000D02*
X61566000Y-29067000D01*
X59084000Y-29067000D02*
X55451000Y-29067000D01*
X65187000Y-29027000D02*
X61566000Y-29027000D01*
X59084000Y-29027000D02*
X55463000Y-29027000D01*
X65175000Y-28987000D02*
X61566000Y-28987000D01*
X59084000Y-28987000D02*
X55475000Y-28987000D01*
X65162000Y-28947000D02*
X61566000Y-28947000D01*
X59084000Y-28947000D02*
X55488000Y-28947000D01*
X65149000Y-28907000D02*
X61566000Y-28907000D01*
X59084000Y-28907000D02*
X55501000Y-28907000D01*
X65136000Y-28867000D02*
X61566000Y-28867000D01*
X59084000Y-28867000D02*
X55514000Y-28867000D01*
X65122000Y-28827000D02*
X61566000Y-28827000D01*
X59084000Y-28827000D02*
X55528000Y-28827000D01*
X65108000Y-28787000D02*
X61566000Y-28787000D01*
X59084000Y-28787000D02*
X55542000Y-28787000D01*
X65093000Y-28747000D02*
X61566000Y-28747000D01*
X59084000Y-28747000D02*
X55557000Y-28747000D01*
X65079000Y-28707000D02*
X61566000Y-28707000D01*
X59084000Y-28707000D02*
X55571000Y-28707000D01*
X65063000Y-28667000D02*
X61566000Y-28667000D01*
X59084000Y-28667000D02*
X55587000Y-28667000D01*
X65048000Y-28627000D02*
X61566000Y-28627000D01*
X59084000Y-28627000D02*
X55602000Y-28627000D01*
X65032000Y-28587000D02*
X61566000Y-28587000D01*
X59084000Y-28587000D02*
X55618000Y-28587000D01*
X65015000Y-28547000D02*
X61566000Y-28547000D01*
X59084000Y-28547000D02*
X55635000Y-28547000D01*
X64999000Y-28507000D02*
X61566000Y-28507000D01*
X59084000Y-28507000D02*
X55651000Y-28507000D01*
X64982000Y-28467000D02*
X61566000Y-28467000D01*
X59084000Y-28467000D02*
X55668000Y-28467000D01*
X64964000Y-28427000D02*
X61566000Y-28427000D01*
X59084000Y-28427000D02*
X55686000Y-28427000D01*
X64946000Y-28387000D02*
X61566000Y-28387000D01*
X59084000Y-28387000D02*
X55704000Y-28387000D01*
X64928000Y-28347000D02*
X61566000Y-28347000D01*
X59084000Y-28347000D02*
X55722000Y-28347000D01*
X64909000Y-28307000D02*
X61566000Y-28307000D01*
X59084000Y-28307000D02*
X55741000Y-28307000D01*
X64889000Y-28267000D02*
X61566000Y-28267000D01*
X59084000Y-28267000D02*
X55761000Y-28267000D01*
X64870000Y-28227000D02*
X61566000Y-28227000D01*
X59084000Y-28227000D02*
X55780000Y-28227000D01*
X64850000Y-28187000D02*
X61566000Y-28187000D01*
X59084000Y-28187000D02*
X55800000Y-28187000D01*
X64829000Y-28147000D02*
X61566000Y-28147000D01*
X59084000Y-28147000D02*
X55821000Y-28147000D01*
X64808000Y-28107000D02*
X61566000Y-28107000D01*
X59084000Y-28107000D02*
X55842000Y-28107000D01*
X64787000Y-28067000D02*
X61566000Y-28067000D01*
X59084000Y-28067000D02*
X55863000Y-28067000D01*
X64765000Y-28027000D02*
X61566000Y-28027000D01*
X59084000Y-28027000D02*
X55885000Y-28027000D01*
X64742000Y-27987000D02*
X61566000Y-27987000D01*
X59084000Y-27987000D02*
X55908000Y-27987000D01*
X64720000Y-27947000D02*
X61566000Y-27947000D01*
X59084000Y-27947000D02*
X55930000Y-27947000D01*
X64696000Y-27907000D02*
X61566000Y-27907000D01*
X59084000Y-27907000D02*
X55954000Y-27907000D01*
X64672000Y-27867000D02*
X61566000Y-27867000D01*
X59084000Y-27867000D02*
X55978000Y-27867000D01*
X64648000Y-27827000D02*
X61566000Y-27827000D01*
X59084000Y-27827000D02*
X56002000Y-27827000D01*
X64623000Y-27787000D02*
X61566000Y-27787000D01*
X59084000Y-27787000D02*
X56027000Y-27787000D01*
X64598000Y-27747000D02*
X61566000Y-27747000D01*
X59084000Y-27747000D02*
X56052000Y-27747000D01*
X64572000Y-27707000D02*
X61566000Y-27707000D01*
X59084000Y-27707000D02*
X56078000Y-27707000D01*
X64546000Y-27667000D02*
X61566000Y-27667000D01*
X59084000Y-27667000D02*
X56104000Y-27667000D01*
X64519000Y-27627000D02*
X61566000Y-27627000D01*
X59084000Y-27627000D02*
X56131000Y-27627000D01*
X64491000Y-27587000D02*
X61566000Y-27587000D01*
X59084000Y-27587000D02*
X56159000Y-27587000D01*
X64463000Y-27547000D02*
X61566000Y-27547000D01*
X59084000Y-27547000D02*
X56187000Y-27547000D01*
X64435000Y-27507000D02*
X56215000Y-27507000D01*
X64405000Y-27467000D02*
X56245000Y-27467000D01*
X64375000Y-27427000D02*
X56275000Y-27427000D01*
X64345000Y-27387000D02*
X56305000Y-27387000D01*
X64314000Y-27347000D02*
X56336000Y-27347000D01*
X64282000Y-27307000D02*
X56368000Y-27307000D01*
X64250000Y-27267000D02*
X56400000Y-27267000D01*
X64217000Y-27227000D02*
X56433000Y-27227000D01*
X64183000Y-27187000D02*
X56467000Y-27187000D01*
X64149000Y-27147000D02*
X56501000Y-27147000D01*
X64114000Y-27107000D02*
X56536000Y-27107000D01*
X64078000Y-27067000D02*
X56572000Y-27067000D01*
X64041000Y-27027000D02*
X56609000Y-27027000D01*
X64004000Y-26987000D02*
X56646000Y-26987000D01*
X63965000Y-26947000D02*
X56685000Y-26947000D01*
X63926000Y-26907000D02*
X56724000Y-26907000D01*
X63886000Y-26867000D02*
X56764000Y-26867000D01*
X63845000Y-26827000D02*
X56805000Y-26827000D01*
X63803000Y-26787000D02*
X56847000Y-26787000D01*
X63761000Y-26747000D02*
X56889000Y-26747000D01*
X63717000Y-26707000D02*
X56933000Y-26707000D01*
X63672000Y-26667000D02*
X56978000Y-26667000D01*
X63626000Y-26627000D02*
X57024000Y-26627000D01*
X63579000Y-26587000D02*
X57071000Y-26587000D01*
X63531000Y-26547000D02*
X57119000Y-26547000D01*
X63481000Y-26507000D02*
X57169000Y-26507000D01*
X63431000Y-26467000D02*
X57219000Y-26467000D01*
X63379000Y-26427000D02*
X57271000Y-26427000D01*
X63325000Y-26387000D02*
X57325000Y-26387000D01*
X63270000Y-26347000D02*
X57380000Y-26347000D01*
X63214000Y-26307000D02*
X57436000Y-26307000D01*
X63155000Y-26267000D02*
X57495000Y-26267000D01*
X63095000Y-26227000D02*
X57555000Y-26227000D01*
X63034000Y-26187000D02*
X57616000Y-26187000D01*
X62970000Y-26147000D02*
X57680000Y-26147000D01*
X62904000Y-26107000D02*
X57746000Y-26107000D01*
X62835000Y-26067000D02*
X57815000Y-26067000D01*
X62764000Y-26027000D02*
X57886000Y-26027000D01*
X62690000Y-25987000D02*
X57960000Y-25987000D01*
X62614000Y-25947000D02*
X58036000Y-25947000D01*
X62534000Y-25907000D02*
X58116000Y-25907000D01*
X62450000Y-25867000D02*
X58200000Y-25867000D01*
X62362000Y-25827000D02*
X58288000Y-25827000D01*
X62269000Y-25787000D02*
X58381000Y-25787000D01*
X62171000Y-25747000D02*
X58479000Y-25747000D01*
X62067000Y-25707000D02*
X58583000Y-25707000D01*
X61955000Y-25667000D02*
X58695000Y-25667000D01*
X61835000Y-25627000D02*
X58815000Y-25627000D01*
X61703000Y-25587000D02*
X58947000Y-25587000D01*
X61555000Y-25547000D02*
X59095000Y-25547000D01*
X61387000Y-25507000D02*
X59263000Y-25507000D01*
X61187000Y-25467000D02*
X59463000Y-25467000D01*
X60924000Y-25427000D02*
X59726000Y-25427000D01*
X63200000Y-35987646D02*
X63200000Y-34987646D01*
X63700000Y-35487646D02*
X62700000Y-35487646D01*
%TO.C,F1*%
X44446000Y-47074000D02*
X44446000Y-43914000D01*
X44446000Y-40414000D02*
X44446000Y-37254000D01*
X67166000Y-40414000D02*
X67166000Y-37254000D01*
X67166000Y-37254000D02*
X44446000Y-37254000D01*
X67166000Y-47074000D02*
X44446000Y-47074000D01*
X67166000Y-47074000D02*
X67166000Y-43914000D01*
%TO.C,J1*%
X53086000Y-29464000D02*
X42926000Y-29464000D01*
X53086000Y-28194000D02*
X53086000Y-35814000D01*
X53086000Y-35814000D02*
X42926000Y-35814000D01*
X42926000Y-35814000D02*
X42926000Y-28194000D01*
X42926000Y-28194000D02*
X53086000Y-28194000D01*
%TO.C,J3*%
X46796000Y-48708000D02*
X46796000Y-51368000D01*
X39116000Y-48708000D02*
X46796000Y-48708000D01*
X39116000Y-51368000D02*
X46796000Y-51368000D01*
X39116000Y-48708000D02*
X39116000Y-51368000D01*
X37846000Y-48708000D02*
X36516000Y-48708000D01*
X36516000Y-48708000D02*
X36516000Y-50038000D01*
%TO.C,J4*%
X24832000Y-65084000D02*
X24832000Y-62424000D01*
X29972000Y-65084000D02*
X24832000Y-65084000D01*
X29972000Y-62424000D02*
X24832000Y-62424000D01*
X29972000Y-65084000D02*
X29972000Y-62424000D01*
X31242000Y-65084000D02*
X32572000Y-65084000D01*
X32572000Y-65084000D02*
X32572000Y-63754000D01*
%TO.C,SW2*%
X31876000Y-52962000D02*
X31876000Y-52662000D01*
X28576000Y-52962000D02*
X31876000Y-52962000D01*
X28576000Y-52662000D02*
X28576000Y-52962000D01*
X31876000Y-50162000D02*
X31876000Y-50462000D01*
X28576000Y-50162000D02*
X31876000Y-50162000D01*
X28576000Y-50462000D02*
X28576000Y-50162000D01*
%TO.C,SW3*%
X31876000Y-49106000D02*
X31876000Y-49406000D01*
X31876000Y-49406000D02*
X28576000Y-49406000D01*
X28576000Y-49406000D02*
X28576000Y-49106000D01*
X31876000Y-46906000D02*
X31876000Y-46606000D01*
X31876000Y-46606000D02*
X28576000Y-46606000D01*
X28576000Y-46606000D02*
X28576000Y-46906000D01*
%TO.C,J2*%
X60071000Y-48514000D02*
X67691000Y-48514000D01*
X67691000Y-68834000D02*
X60071000Y-68834000D01*
X66421000Y-68834000D02*
X66421000Y-48514000D01*
X60071000Y-48514000D02*
X60071000Y-68834000D01*
X67691000Y-48514000D02*
X67691000Y-68834000D01*
%TO.C,TP1*%
X49210000Y-58674000D02*
G75*
G03*
X49210000Y-58674000I-950000J0D01*
G01*
%TO.C,TP2*%
X45374600Y-62001400D02*
G75*
G03*
X45374600Y-62001400I-950000J0D01*
G01*
%TO.C,C9*%
D10*
X67159142Y-31075333D02*
X67206761Y-31027714D01*
X67254380Y-30884857D01*
X67254380Y-30789619D01*
X67206761Y-30646761D01*
X67111523Y-30551523D01*
X67016285Y-30503904D01*
X66825809Y-30456285D01*
X66682952Y-30456285D01*
X66492476Y-30503904D01*
X66397238Y-30551523D01*
X66302000Y-30646761D01*
X66254380Y-30789619D01*
X66254380Y-30884857D01*
X66302000Y-31027714D01*
X66349619Y-31075333D01*
X67254380Y-31551523D02*
X67254380Y-31742000D01*
X67206761Y-31837238D01*
X67159142Y-31884857D01*
X67016285Y-31980095D01*
X66825809Y-32027714D01*
X66444857Y-32027714D01*
X66349619Y-31980095D01*
X66302000Y-31932476D01*
X66254380Y-31837238D01*
X66254380Y-31646761D01*
X66302000Y-31551523D01*
X66349619Y-31503904D01*
X66444857Y-31456285D01*
X66682952Y-31456285D01*
X66778190Y-31503904D01*
X66825809Y-31551523D01*
X66873428Y-31646761D01*
X66873428Y-31837238D01*
X66825809Y-31932476D01*
X66778190Y-31980095D01*
X66682952Y-32027714D01*
%TO.C,F1*%
X56139333Y-36092571D02*
X56472666Y-36092571D01*
X56472666Y-36616380D02*
X56472666Y-35616380D01*
X55996476Y-35616380D01*
X55091714Y-36616380D02*
X55663142Y-36616380D01*
X55377428Y-36616380D02*
X55377428Y-35616380D01*
X55472666Y-35759238D01*
X55567904Y-35854476D01*
X55663142Y-35902095D01*
%TO.C,J1*%
X53808380Y-31670666D02*
X54522666Y-31670666D01*
X54665523Y-31623047D01*
X54760761Y-31527809D01*
X54808380Y-31384952D01*
X54808380Y-31289714D01*
X54808380Y-32670666D02*
X54808380Y-32099238D01*
X54808380Y-32384952D02*
X53808380Y-32384952D01*
X53951238Y-32289714D01*
X54046476Y-32194476D01*
X54094095Y-32099238D01*
%TO.C,J3*%
X47204380Y-49704666D02*
X47918666Y-49704666D01*
X48061523Y-49657047D01*
X48156761Y-49561809D01*
X48204380Y-49418952D01*
X48204380Y-49323714D01*
X47204380Y-50085619D02*
X47204380Y-50704666D01*
X47585333Y-50371333D01*
X47585333Y-50514190D01*
X47632952Y-50609428D01*
X47680571Y-50657047D01*
X47775809Y-50704666D01*
X48013904Y-50704666D01*
X48109142Y-50657047D01*
X48156761Y-50609428D01*
X48204380Y-50514190D01*
X48204380Y-50228476D01*
X48156761Y-50133238D01*
X48109142Y-50085619D01*
%TO.C,J4*%
X33024380Y-63420666D02*
X33738666Y-63420666D01*
X33881523Y-63373047D01*
X33976761Y-63277809D01*
X34024380Y-63134952D01*
X34024380Y-63039714D01*
X33357714Y-64325428D02*
X34024380Y-64325428D01*
X32976761Y-64087333D02*
X33691047Y-63849238D01*
X33691047Y-64468285D01*
%TO.C,J2*%
X58533380Y-58320666D02*
X59247666Y-58320666D01*
X59390523Y-58273047D01*
X59485761Y-58177809D01*
X59533380Y-58034952D01*
X59533380Y-57939714D01*
X58628619Y-58749238D02*
X58581000Y-58796857D01*
X58533380Y-58892095D01*
X58533380Y-59130190D01*
X58581000Y-59225428D01*
X58628619Y-59273047D01*
X58723857Y-59320666D01*
X58819095Y-59320666D01*
X58961952Y-59273047D01*
X59533380Y-58701619D01*
X59533380Y-59320666D01*
%TD*%
M02*
