%TF.GenerationSoftware,KiCad,Pcbnew,5.1.6*%
%TF.CreationDate,2020-09-04T20:47:42+02:00*%
%TF.ProjectId,JBC_Nano_Hardware,4a42435f-4e61-46e6-9f5f-486172647761,rev?*%
%TF.SameCoordinates,Original*%
%TF.FileFunction,Soldermask,Top*%
%TF.FilePolarity,Negative*%
%FSLAX46Y46*%
G04 Gerber Fmt 4.6, Leading zero omitted, Abs format (unit mm)*
G04 Created by KiCad (PCBNEW 5.1.6) date 2020-09-04 20:47:42*
%MOMM*%
%LPD*%
G01*
G04 APERTURE LIST*
%ADD10C,2.300000*%
%ADD11R,2.100000X2.100000*%
%ADD12C,2.100000*%
%ADD13C,3.100000*%
%ADD14C,2.800000*%
%ADD15R,3.100000X3.100000*%
%ADD16R,1.800000X1.800000*%
%ADD17O,1.800000X1.800000*%
%ADD18C,0.100000*%
%ADD19R,2.600000X3.100000*%
%ADD20R,1.320000X0.750000*%
%ADD21R,2.000000X1.200000*%
%ADD22R,1.000000X0.900000*%
%ADD23R,1.160000X0.750000*%
%ADD24R,2.100000X3.900000*%
%ADD25R,2.100000X1.600000*%
G04 APERTURE END LIST*
D10*
%TO.C,REF\u002A\u002A*%
X26924000Y-68326000D03*
%TD*%
%TO.C,REF\u002A\u002A*%
X67564000Y-25146000D03*
%TD*%
%TO.C,REF\u002A\u002A*%
X40640000Y-45212000D03*
%TD*%
%TO.C,REF\u002A\u002A*%
X25146000Y-46990000D03*
%TD*%
%TO.C,REF\u002A\u002A*%
X35814000Y-25146000D03*
%TD*%
%TO.C,REF\u002A\u002A*%
X25908000Y-25146000D03*
%TD*%
%TO.C,C1*%
G36*
G01*
X42136750Y-59202500D02*
X42699250Y-59202500D01*
G75*
G02*
X42943000Y-59446250I0J-243750D01*
G01*
X42943000Y-59933750D01*
G75*
G02*
X42699250Y-60177500I-243750J0D01*
G01*
X42136750Y-60177500D01*
G75*
G02*
X41893000Y-59933750I0J243750D01*
G01*
X41893000Y-59446250D01*
G75*
G02*
X42136750Y-59202500I243750J0D01*
G01*
G37*
G36*
G01*
X42136750Y-57627500D02*
X42699250Y-57627500D01*
G75*
G02*
X42943000Y-57871250I0J-243750D01*
G01*
X42943000Y-58358750D01*
G75*
G02*
X42699250Y-58602500I-243750J0D01*
G01*
X42136750Y-58602500D01*
G75*
G02*
X41893000Y-58358750I0J243750D01*
G01*
X41893000Y-57871250D01*
G75*
G02*
X42136750Y-57627500I243750J0D01*
G01*
G37*
%TD*%
%TO.C,C2*%
G36*
G01*
X43660750Y-57627500D02*
X44223250Y-57627500D01*
G75*
G02*
X44467000Y-57871250I0J-243750D01*
G01*
X44467000Y-58358750D01*
G75*
G02*
X44223250Y-58602500I-243750J0D01*
G01*
X43660750Y-58602500D01*
G75*
G02*
X43417000Y-58358750I0J243750D01*
G01*
X43417000Y-57871250D01*
G75*
G02*
X43660750Y-57627500I243750J0D01*
G01*
G37*
G36*
G01*
X43660750Y-59202500D02*
X44223250Y-59202500D01*
G75*
G02*
X44467000Y-59446250I0J-243750D01*
G01*
X44467000Y-59933750D01*
G75*
G02*
X44223250Y-60177500I-243750J0D01*
G01*
X43660750Y-60177500D01*
G75*
G02*
X43417000Y-59933750I0J243750D01*
G01*
X43417000Y-59446250D01*
G75*
G02*
X43660750Y-59202500I243750J0D01*
G01*
G37*
%TD*%
%TO.C,C3*%
G36*
G01*
X31976750Y-51582500D02*
X32539250Y-51582500D01*
G75*
G02*
X32783000Y-51826250I0J-243750D01*
G01*
X32783000Y-52313750D01*
G75*
G02*
X32539250Y-52557500I-243750J0D01*
G01*
X31976750Y-52557500D01*
G75*
G02*
X31733000Y-52313750I0J243750D01*
G01*
X31733000Y-51826250D01*
G75*
G02*
X31976750Y-51582500I243750J0D01*
G01*
G37*
G36*
G01*
X31976750Y-50007500D02*
X32539250Y-50007500D01*
G75*
G02*
X32783000Y-50251250I0J-243750D01*
G01*
X32783000Y-50738750D01*
G75*
G02*
X32539250Y-50982500I-243750J0D01*
G01*
X31976750Y-50982500D01*
G75*
G02*
X31733000Y-50738750I0J243750D01*
G01*
X31733000Y-50251250D01*
G75*
G02*
X31976750Y-50007500I243750J0D01*
G01*
G37*
%TD*%
%TO.C,C4*%
G36*
G01*
X56161250Y-30840500D02*
X55598750Y-30840500D01*
G75*
G02*
X55355000Y-30596750I0J243750D01*
G01*
X55355000Y-30109250D01*
G75*
G02*
X55598750Y-29865500I243750J0D01*
G01*
X56161250Y-29865500D01*
G75*
G02*
X56405000Y-30109250I0J-243750D01*
G01*
X56405000Y-30596750D01*
G75*
G02*
X56161250Y-30840500I-243750J0D01*
G01*
G37*
G36*
G01*
X56161250Y-32415500D02*
X55598750Y-32415500D01*
G75*
G02*
X55355000Y-32171750I0J243750D01*
G01*
X55355000Y-31684250D01*
G75*
G02*
X55598750Y-31440500I243750J0D01*
G01*
X56161250Y-31440500D01*
G75*
G02*
X56405000Y-31684250I0J-243750D01*
G01*
X56405000Y-32171750D01*
G75*
G02*
X56161250Y-32415500I-243750J0D01*
G01*
G37*
%TD*%
%TO.C,C5*%
G36*
G01*
X29436750Y-58135500D02*
X29999250Y-58135500D01*
G75*
G02*
X30243000Y-58379250I0J-243750D01*
G01*
X30243000Y-58866750D01*
G75*
G02*
X29999250Y-59110500I-243750J0D01*
G01*
X29436750Y-59110500D01*
G75*
G02*
X29193000Y-58866750I0J243750D01*
G01*
X29193000Y-58379250D01*
G75*
G02*
X29436750Y-58135500I243750J0D01*
G01*
G37*
G36*
G01*
X29436750Y-59710500D02*
X29999250Y-59710500D01*
G75*
G02*
X30243000Y-59954250I0J-243750D01*
G01*
X30243000Y-60441750D01*
G75*
G02*
X29999250Y-60685500I-243750J0D01*
G01*
X29436750Y-60685500D01*
G75*
G02*
X29193000Y-60441750I0J243750D01*
G01*
X29193000Y-59954250D01*
G75*
G02*
X29436750Y-59710500I243750J0D01*
G01*
G37*
%TD*%
%TO.C,C6*%
G36*
G01*
X24411250Y-52837000D02*
X23848750Y-52837000D01*
G75*
G02*
X23605000Y-52593250I0J243750D01*
G01*
X23605000Y-52105750D01*
G75*
G02*
X23848750Y-51862000I243750J0D01*
G01*
X24411250Y-51862000D01*
G75*
G02*
X24655000Y-52105750I0J-243750D01*
G01*
X24655000Y-52593250D01*
G75*
G02*
X24411250Y-52837000I-243750J0D01*
G01*
G37*
G36*
G01*
X24411250Y-51262000D02*
X23848750Y-51262000D01*
G75*
G02*
X23605000Y-51018250I0J243750D01*
G01*
X23605000Y-50530750D01*
G75*
G02*
X23848750Y-50287000I243750J0D01*
G01*
X24411250Y-50287000D01*
G75*
G02*
X24655000Y-50530750I0J-243750D01*
G01*
X24655000Y-51018250D01*
G75*
G02*
X24411250Y-51262000I-243750J0D01*
G01*
G37*
%TD*%
%TO.C,C7*%
G36*
G01*
X58066250Y-30840500D02*
X57503750Y-30840500D01*
G75*
G02*
X57260000Y-30596750I0J243750D01*
G01*
X57260000Y-30109250D01*
G75*
G02*
X57503750Y-29865500I243750J0D01*
G01*
X58066250Y-29865500D01*
G75*
G02*
X58310000Y-30109250I0J-243750D01*
G01*
X58310000Y-30596750D01*
G75*
G02*
X58066250Y-30840500I-243750J0D01*
G01*
G37*
G36*
G01*
X58066250Y-32415500D02*
X57503750Y-32415500D01*
G75*
G02*
X57260000Y-32171750I0J243750D01*
G01*
X57260000Y-31684250D01*
G75*
G02*
X57503750Y-31440500I243750J0D01*
G01*
X58066250Y-31440500D01*
G75*
G02*
X58310000Y-31684250I0J-243750D01*
G01*
X58310000Y-32171750D01*
G75*
G02*
X58066250Y-32415500I-243750J0D01*
G01*
G37*
%TD*%
%TO.C,C8*%
G36*
G01*
X27912750Y-59710500D02*
X28475250Y-59710500D01*
G75*
G02*
X28719000Y-59954250I0J-243750D01*
G01*
X28719000Y-60441750D01*
G75*
G02*
X28475250Y-60685500I-243750J0D01*
G01*
X27912750Y-60685500D01*
G75*
G02*
X27669000Y-60441750I0J243750D01*
G01*
X27669000Y-59954250D01*
G75*
G02*
X27912750Y-59710500I243750J0D01*
G01*
G37*
G36*
G01*
X27912750Y-58135500D02*
X28475250Y-58135500D01*
G75*
G02*
X28719000Y-58379250I0J-243750D01*
G01*
X28719000Y-58866750D01*
G75*
G02*
X28475250Y-59110500I-243750J0D01*
G01*
X27912750Y-59110500D01*
G75*
G02*
X27669000Y-58866750I0J243750D01*
G01*
X27669000Y-58379250D01*
G75*
G02*
X27912750Y-58135500I243750J0D01*
G01*
G37*
%TD*%
D11*
%TO.C,C9*%
X60325000Y-32258000D03*
D12*
X60325000Y-28758000D03*
%TD*%
%TO.C,C10*%
G36*
G01*
X26388750Y-58135500D02*
X26951250Y-58135500D01*
G75*
G02*
X27195000Y-58379250I0J-243750D01*
G01*
X27195000Y-58866750D01*
G75*
G02*
X26951250Y-59110500I-243750J0D01*
G01*
X26388750Y-59110500D01*
G75*
G02*
X26145000Y-58866750I0J243750D01*
G01*
X26145000Y-58379250D01*
G75*
G02*
X26388750Y-58135500I243750J0D01*
G01*
G37*
G36*
G01*
X26388750Y-59710500D02*
X26951250Y-59710500D01*
G75*
G02*
X27195000Y-59954250I0J-243750D01*
G01*
X27195000Y-60441750D01*
G75*
G02*
X26951250Y-60685500I-243750J0D01*
G01*
X26388750Y-60685500D01*
G75*
G02*
X26145000Y-60441750I0J243750D01*
G01*
X26145000Y-59954250D01*
G75*
G02*
X26388750Y-59710500I243750J0D01*
G01*
G37*
%TD*%
%TO.C,C11*%
G36*
G01*
X44630000Y-46684750D02*
X44630000Y-47247250D01*
G75*
G02*
X44386250Y-47491000I-243750J0D01*
G01*
X43898750Y-47491000D01*
G75*
G02*
X43655000Y-47247250I0J243750D01*
G01*
X43655000Y-46684750D01*
G75*
G02*
X43898750Y-46441000I243750J0D01*
G01*
X44386250Y-46441000D01*
G75*
G02*
X44630000Y-46684750I0J-243750D01*
G01*
G37*
G36*
G01*
X46205000Y-46684750D02*
X46205000Y-47247250D01*
G75*
G02*
X45961250Y-47491000I-243750J0D01*
G01*
X45473750Y-47491000D01*
G75*
G02*
X45230000Y-47247250I0J243750D01*
G01*
X45230000Y-46684750D01*
G75*
G02*
X45473750Y-46441000I243750J0D01*
G01*
X45961250Y-46441000D01*
G75*
G02*
X46205000Y-46684750I0J-243750D01*
G01*
G37*
%TD*%
%TO.C,C12*%
G36*
G01*
X46205000Y-45160750D02*
X46205000Y-45723250D01*
G75*
G02*
X45961250Y-45967000I-243750J0D01*
G01*
X45473750Y-45967000D01*
G75*
G02*
X45230000Y-45723250I0J243750D01*
G01*
X45230000Y-45160750D01*
G75*
G02*
X45473750Y-44917000I243750J0D01*
G01*
X45961250Y-44917000D01*
G75*
G02*
X46205000Y-45160750I0J-243750D01*
G01*
G37*
G36*
G01*
X44630000Y-45160750D02*
X44630000Y-45723250D01*
G75*
G02*
X44386250Y-45967000I-243750J0D01*
G01*
X43898750Y-45967000D01*
G75*
G02*
X43655000Y-45723250I0J243750D01*
G01*
X43655000Y-45160750D01*
G75*
G02*
X43898750Y-44917000I243750J0D01*
G01*
X44386250Y-44917000D01*
G75*
G02*
X44630000Y-45160750I0J-243750D01*
G01*
G37*
%TD*%
%TO.C,C14*%
G36*
G01*
X46512500Y-62456750D02*
X46512500Y-63019250D01*
G75*
G02*
X46268750Y-63263000I-243750J0D01*
G01*
X45781250Y-63263000D01*
G75*
G02*
X45537500Y-63019250I0J243750D01*
G01*
X45537500Y-62456750D01*
G75*
G02*
X45781250Y-62213000I243750J0D01*
G01*
X46268750Y-62213000D01*
G75*
G02*
X46512500Y-62456750I0J-243750D01*
G01*
G37*
G36*
G01*
X44937500Y-62456750D02*
X44937500Y-63019250D01*
G75*
G02*
X44693750Y-63263000I-243750J0D01*
G01*
X44206250Y-63263000D01*
G75*
G02*
X43962500Y-63019250I0J243750D01*
G01*
X43962500Y-62456750D01*
G75*
G02*
X44206250Y-62213000I243750J0D01*
G01*
X44693750Y-62213000D01*
G75*
G02*
X44937500Y-62456750I0J-243750D01*
G01*
G37*
%TD*%
%TO.C,C15*%
G36*
G01*
X53345000Y-55852750D02*
X53345000Y-56415250D01*
G75*
G02*
X53101250Y-56659000I-243750J0D01*
G01*
X52613750Y-56659000D01*
G75*
G02*
X52370000Y-56415250I0J243750D01*
G01*
X52370000Y-55852750D01*
G75*
G02*
X52613750Y-55609000I243750J0D01*
G01*
X53101250Y-55609000D01*
G75*
G02*
X53345000Y-55852750I0J-243750D01*
G01*
G37*
G36*
G01*
X51770000Y-55852750D02*
X51770000Y-56415250D01*
G75*
G02*
X51526250Y-56659000I-243750J0D01*
G01*
X51038750Y-56659000D01*
G75*
G02*
X50795000Y-56415250I0J243750D01*
G01*
X50795000Y-55852750D01*
G75*
G02*
X51038750Y-55609000I243750J0D01*
G01*
X51526250Y-55609000D01*
G75*
G02*
X51770000Y-55852750I0J-243750D01*
G01*
G37*
%TD*%
%TO.C,C16*%
G36*
G01*
X51770000Y-54328750D02*
X51770000Y-54891250D01*
G75*
G02*
X51526250Y-55135000I-243750J0D01*
G01*
X51038750Y-55135000D01*
G75*
G02*
X50795000Y-54891250I0J243750D01*
G01*
X50795000Y-54328750D01*
G75*
G02*
X51038750Y-54085000I243750J0D01*
G01*
X51526250Y-54085000D01*
G75*
G02*
X51770000Y-54328750I0J-243750D01*
G01*
G37*
G36*
G01*
X53345000Y-54328750D02*
X53345000Y-54891250D01*
G75*
G02*
X53101250Y-55135000I-243750J0D01*
G01*
X52613750Y-55135000D01*
G75*
G02*
X52370000Y-54891250I0J243750D01*
G01*
X52370000Y-54328750D01*
G75*
G02*
X52613750Y-54085000I243750J0D01*
G01*
X53101250Y-54085000D01*
G75*
G02*
X53345000Y-54328750I0J-243750D01*
G01*
G37*
%TD*%
%TO.C,C13*%
G36*
G01*
X36342500Y-65051250D02*
X36342500Y-64488750D01*
G75*
G02*
X36586250Y-64245000I243750J0D01*
G01*
X37073750Y-64245000D01*
G75*
G02*
X37317500Y-64488750I0J-243750D01*
G01*
X37317500Y-65051250D01*
G75*
G02*
X37073750Y-65295000I-243750J0D01*
G01*
X36586250Y-65295000D01*
G75*
G02*
X36342500Y-65051250I0J243750D01*
G01*
G37*
G36*
G01*
X37917500Y-65051250D02*
X37917500Y-64488750D01*
G75*
G02*
X38161250Y-64245000I243750J0D01*
G01*
X38648750Y-64245000D01*
G75*
G02*
X38892500Y-64488750I0J-243750D01*
G01*
X38892500Y-65051250D01*
G75*
G02*
X38648750Y-65295000I-243750J0D01*
G01*
X38161250Y-65295000D01*
G75*
G02*
X37917500Y-65051250I0J243750D01*
G01*
G37*
%TD*%
%TO.C,D1*%
G36*
G01*
X58138750Y-55341500D02*
X58701250Y-55341500D01*
G75*
G02*
X58945000Y-55585250I0J-243750D01*
G01*
X58945000Y-56072750D01*
G75*
G02*
X58701250Y-56316500I-243750J0D01*
G01*
X58138750Y-56316500D01*
G75*
G02*
X57895000Y-56072750I0J243750D01*
G01*
X57895000Y-55585250D01*
G75*
G02*
X58138750Y-55341500I243750J0D01*
G01*
G37*
G36*
G01*
X58138750Y-56916500D02*
X58701250Y-56916500D01*
G75*
G02*
X58945000Y-57160250I0J-243750D01*
G01*
X58945000Y-57647750D01*
G75*
G02*
X58701250Y-57891500I-243750J0D01*
G01*
X58138750Y-57891500D01*
G75*
G02*
X57895000Y-57647750I0J243750D01*
G01*
X57895000Y-57160250D01*
G75*
G02*
X58138750Y-56916500I243750J0D01*
G01*
G37*
%TD*%
D13*
%TO.C,F1*%
X67056000Y-42164000D03*
X44556000Y-42164000D03*
D14*
X55806000Y-42164000D03*
%TD*%
D15*
%TO.C,J1*%
X45466000Y-32004000D03*
D13*
X50546000Y-32004000D03*
%TD*%
D16*
%TO.C,J3*%
X37846000Y-50038000D03*
D17*
X40386000Y-50038000D03*
X42926000Y-50038000D03*
X45466000Y-50038000D03*
%TD*%
D16*
%TO.C,J4*%
X31242000Y-63754000D03*
D17*
X28702000Y-63754000D03*
X26162000Y-63754000D03*
%TD*%
D16*
%TO.C,J5*%
X40386000Y-32004000D03*
D17*
X40386000Y-34544000D03*
X40386000Y-37084000D03*
X40386000Y-39624000D03*
%TD*%
D18*
%TO.C,JP1*%
G36*
X43217039Y-66803755D02*
G01*
X43214194Y-66813134D01*
X43209573Y-66821779D01*
X43203355Y-66829355D01*
X43195779Y-66835573D01*
X43187134Y-66840194D01*
X43177755Y-66843039D01*
X43168000Y-66844000D01*
X41668000Y-66844000D01*
X41658245Y-66843039D01*
X41648866Y-66840194D01*
X41640221Y-66835573D01*
X41632645Y-66829355D01*
X41626427Y-66821779D01*
X41621806Y-66813134D01*
X41618961Y-66803755D01*
X41618000Y-66794000D01*
X41618000Y-65644000D01*
X41618961Y-65634245D01*
X41621806Y-65624866D01*
X41626427Y-65616221D01*
X41632645Y-65608645D01*
X41640221Y-65602427D01*
X41648866Y-65597806D01*
X41658245Y-65594961D01*
X41668000Y-65594000D01*
X41677755Y-65594961D01*
X41687134Y-65597806D01*
X41695735Y-65602397D01*
X42418000Y-66083907D01*
X43140265Y-65602397D01*
X43148914Y-65597786D01*
X43158297Y-65594951D01*
X43168052Y-65594000D01*
X43177806Y-65594971D01*
X43187182Y-65597826D01*
X43195822Y-65602456D01*
X43203392Y-65608682D01*
X43209603Y-65616265D01*
X43214214Y-65624914D01*
X43217049Y-65634297D01*
X43218000Y-65644000D01*
X43218000Y-66794000D01*
X43217039Y-66803755D01*
G37*
G36*
X43217039Y-65353755D02*
G01*
X43214194Y-65363134D01*
X43209573Y-65371779D01*
X43203355Y-65379355D01*
X43195735Y-65385603D01*
X42445735Y-65885603D01*
X42437086Y-65890214D01*
X42427703Y-65893049D01*
X42417948Y-65894000D01*
X42408194Y-65893029D01*
X42398818Y-65890174D01*
X42390265Y-65885603D01*
X41640265Y-65385603D01*
X41632682Y-65379392D01*
X41626456Y-65371822D01*
X41621826Y-65363182D01*
X41618971Y-65353806D01*
X41618000Y-65344000D01*
X41618000Y-64344000D01*
X41618961Y-64334245D01*
X41621806Y-64324866D01*
X41626427Y-64316221D01*
X41632645Y-64308645D01*
X41640221Y-64302427D01*
X41648866Y-64297806D01*
X41658245Y-64294961D01*
X41668000Y-64294000D01*
X43168000Y-64294000D01*
X43177755Y-64294961D01*
X43187134Y-64297806D01*
X43195779Y-64302427D01*
X43203355Y-64308645D01*
X43209573Y-64316221D01*
X43214194Y-64324866D01*
X43217039Y-64334245D01*
X43218000Y-64344000D01*
X43218000Y-65344000D01*
X43217039Y-65353755D01*
G37*
%TD*%
%TO.C,JP2*%
G36*
X49745245Y-67093039D02*
G01*
X49735866Y-67090194D01*
X49727221Y-67085573D01*
X49719645Y-67079355D01*
X49713397Y-67071735D01*
X49213397Y-66321735D01*
X49208786Y-66313086D01*
X49205951Y-66303703D01*
X49205000Y-66293948D01*
X49205971Y-66284194D01*
X49208826Y-66274818D01*
X49213397Y-66266265D01*
X49713397Y-65516265D01*
X49719608Y-65508682D01*
X49727178Y-65502456D01*
X49735818Y-65497826D01*
X49745194Y-65494971D01*
X49755000Y-65494000D01*
X50755000Y-65494000D01*
X50764755Y-65494961D01*
X50774134Y-65497806D01*
X50782779Y-65502427D01*
X50790355Y-65508645D01*
X50796573Y-65516221D01*
X50801194Y-65524866D01*
X50804039Y-65534245D01*
X50805000Y-65544000D01*
X50805000Y-67044000D01*
X50804039Y-67053755D01*
X50801194Y-67063134D01*
X50796573Y-67071779D01*
X50790355Y-67079355D01*
X50782779Y-67085573D01*
X50774134Y-67090194D01*
X50764755Y-67093039D01*
X50755000Y-67094000D01*
X49755000Y-67094000D01*
X49745245Y-67093039D01*
G37*
G36*
X48295245Y-67093039D02*
G01*
X48285866Y-67090194D01*
X48277221Y-67085573D01*
X48269645Y-67079355D01*
X48263427Y-67071779D01*
X48258806Y-67063134D01*
X48255961Y-67053755D01*
X48255000Y-67044000D01*
X48255000Y-65544000D01*
X48255961Y-65534245D01*
X48258806Y-65524866D01*
X48263427Y-65516221D01*
X48269645Y-65508645D01*
X48277221Y-65502427D01*
X48285866Y-65497806D01*
X48295245Y-65494961D01*
X48305000Y-65494000D01*
X49455000Y-65494000D01*
X49464755Y-65494961D01*
X49474134Y-65497806D01*
X49482779Y-65502427D01*
X49490355Y-65508645D01*
X49496573Y-65516221D01*
X49501194Y-65524866D01*
X49504039Y-65534245D01*
X49505000Y-65544000D01*
X49504039Y-65553755D01*
X49501194Y-65563134D01*
X49496603Y-65571735D01*
X49015093Y-66294000D01*
X49496603Y-67016265D01*
X49501214Y-67024914D01*
X49504049Y-67034297D01*
X49505000Y-67044052D01*
X49504029Y-67053806D01*
X49501174Y-67063182D01*
X49496544Y-67071822D01*
X49490318Y-67079392D01*
X49482735Y-67085603D01*
X49474086Y-67090214D01*
X49464703Y-67093049D01*
X49455000Y-67094000D01*
X48305000Y-67094000D01*
X48295245Y-67093039D01*
G37*
%TD*%
%TO.C,L1*%
G36*
G01*
X26188750Y-56612500D02*
X27151250Y-56612500D01*
G75*
G02*
X27420000Y-56881250I0J-268750D01*
G01*
X27420000Y-57418750D01*
G75*
G02*
X27151250Y-57687500I-268750J0D01*
G01*
X26188750Y-57687500D01*
G75*
G02*
X25920000Y-57418750I0J268750D01*
G01*
X25920000Y-56881250D01*
G75*
G02*
X26188750Y-56612500I268750J0D01*
G01*
G37*
G36*
G01*
X26188750Y-54737500D02*
X27151250Y-54737500D01*
G75*
G02*
X27420000Y-55006250I0J-268750D01*
G01*
X27420000Y-55543750D01*
G75*
G02*
X27151250Y-55812500I-268750J0D01*
G01*
X26188750Y-55812500D01*
G75*
G02*
X25920000Y-55543750I0J268750D01*
G01*
X25920000Y-55006250D01*
G75*
G02*
X26188750Y-54737500I268750J0D01*
G01*
G37*
%TD*%
%TO.C,Q1*%
G36*
G01*
X59380000Y-66754000D02*
X59380000Y-67104000D01*
G75*
G02*
X59205000Y-67279000I-175000J0D01*
G01*
X57505000Y-67279000D01*
G75*
G02*
X57330000Y-67104000I0J175000D01*
G01*
X57330000Y-66754000D01*
G75*
G02*
X57505000Y-66579000I175000J0D01*
G01*
X59205000Y-66579000D01*
G75*
G02*
X59380000Y-66754000I0J-175000D01*
G01*
G37*
G36*
G01*
X59380000Y-65484000D02*
X59380000Y-65834000D01*
G75*
G02*
X59205000Y-66009000I-175000J0D01*
G01*
X57505000Y-66009000D01*
G75*
G02*
X57330000Y-65834000I0J175000D01*
G01*
X57330000Y-65484000D01*
G75*
G02*
X57505000Y-65309000I175000J0D01*
G01*
X59205000Y-65309000D01*
G75*
G02*
X59380000Y-65484000I0J-175000D01*
G01*
G37*
G36*
G01*
X59380000Y-64214000D02*
X59380000Y-64564000D01*
G75*
G02*
X59205000Y-64739000I-175000J0D01*
G01*
X57505000Y-64739000D01*
G75*
G02*
X57330000Y-64564000I0J175000D01*
G01*
X57330000Y-64214000D01*
G75*
G02*
X57505000Y-64039000I175000J0D01*
G01*
X59205000Y-64039000D01*
G75*
G02*
X59380000Y-64214000I0J-175000D01*
G01*
G37*
G36*
G01*
X59380000Y-62944000D02*
X59380000Y-63294000D01*
G75*
G02*
X59205000Y-63469000I-175000J0D01*
G01*
X57505000Y-63469000D01*
G75*
G02*
X57330000Y-63294000I0J175000D01*
G01*
X57330000Y-62944000D01*
G75*
G02*
X57505000Y-62769000I175000J0D01*
G01*
X59205000Y-62769000D01*
G75*
G02*
X59380000Y-62944000I0J-175000D01*
G01*
G37*
G36*
G01*
X54430000Y-62944000D02*
X54430000Y-63294000D01*
G75*
G02*
X54255000Y-63469000I-175000J0D01*
G01*
X52555000Y-63469000D01*
G75*
G02*
X52380000Y-63294000I0J175000D01*
G01*
X52380000Y-62944000D01*
G75*
G02*
X52555000Y-62769000I175000J0D01*
G01*
X54255000Y-62769000D01*
G75*
G02*
X54430000Y-62944000I0J-175000D01*
G01*
G37*
G36*
G01*
X54430000Y-64214000D02*
X54430000Y-64564000D01*
G75*
G02*
X54255000Y-64739000I-175000J0D01*
G01*
X52555000Y-64739000D01*
G75*
G02*
X52380000Y-64564000I0J175000D01*
G01*
X52380000Y-64214000D01*
G75*
G02*
X52555000Y-64039000I175000J0D01*
G01*
X54255000Y-64039000D01*
G75*
G02*
X54430000Y-64214000I0J-175000D01*
G01*
G37*
G36*
G01*
X54430000Y-65484000D02*
X54430000Y-65834000D01*
G75*
G02*
X54255000Y-66009000I-175000J0D01*
G01*
X52555000Y-66009000D01*
G75*
G02*
X52380000Y-65834000I0J175000D01*
G01*
X52380000Y-65484000D01*
G75*
G02*
X52555000Y-65309000I175000J0D01*
G01*
X54255000Y-65309000D01*
G75*
G02*
X54430000Y-65484000I0J-175000D01*
G01*
G37*
G36*
G01*
X54430000Y-66754000D02*
X54430000Y-67104000D01*
G75*
G02*
X54255000Y-67279000I-175000J0D01*
G01*
X52555000Y-67279000D01*
G75*
G02*
X52380000Y-67104000I0J175000D01*
G01*
X52380000Y-66754000D01*
G75*
G02*
X52555000Y-66579000I175000J0D01*
G01*
X54255000Y-66579000D01*
G75*
G02*
X54430000Y-66754000I0J-175000D01*
G01*
G37*
%TD*%
%TO.C,R1*%
G36*
G01*
X60043750Y-64206500D02*
X60606250Y-64206500D01*
G75*
G02*
X60850000Y-64450250I0J-243750D01*
G01*
X60850000Y-64937750D01*
G75*
G02*
X60606250Y-65181500I-243750J0D01*
G01*
X60043750Y-65181500D01*
G75*
G02*
X59800000Y-64937750I0J243750D01*
G01*
X59800000Y-64450250D01*
G75*
G02*
X60043750Y-64206500I243750J0D01*
G01*
G37*
G36*
G01*
X60043750Y-62631500D02*
X60606250Y-62631500D01*
G75*
G02*
X60850000Y-62875250I0J-243750D01*
G01*
X60850000Y-63362750D01*
G75*
G02*
X60606250Y-63606500I-243750J0D01*
G01*
X60043750Y-63606500D01*
G75*
G02*
X59800000Y-63362750I0J243750D01*
G01*
X59800000Y-62875250D01*
G75*
G02*
X60043750Y-62631500I243750J0D01*
G01*
G37*
%TD*%
%TO.C,R3*%
G36*
G01*
X58138750Y-59151500D02*
X58701250Y-59151500D01*
G75*
G02*
X58945000Y-59395250I0J-243750D01*
G01*
X58945000Y-59882750D01*
G75*
G02*
X58701250Y-60126500I-243750J0D01*
G01*
X58138750Y-60126500D01*
G75*
G02*
X57895000Y-59882750I0J243750D01*
G01*
X57895000Y-59395250D01*
G75*
G02*
X58138750Y-59151500I243750J0D01*
G01*
G37*
G36*
G01*
X58138750Y-60726500D02*
X58701250Y-60726500D01*
G75*
G02*
X58945000Y-60970250I0J-243750D01*
G01*
X58945000Y-61457750D01*
G75*
G02*
X58701250Y-61701500I-243750J0D01*
G01*
X58138750Y-61701500D01*
G75*
G02*
X57895000Y-61457750I0J243750D01*
G01*
X57895000Y-60970250D01*
G75*
G02*
X58138750Y-60726500I243750J0D01*
G01*
G37*
%TD*%
%TO.C,R5*%
G36*
G01*
X54836750Y-58974000D02*
X55399250Y-58974000D01*
G75*
G02*
X55643000Y-59217750I0J-243750D01*
G01*
X55643000Y-59705250D01*
G75*
G02*
X55399250Y-59949000I-243750J0D01*
G01*
X54836750Y-59949000D01*
G75*
G02*
X54593000Y-59705250I0J243750D01*
G01*
X54593000Y-59217750D01*
G75*
G02*
X54836750Y-58974000I243750J0D01*
G01*
G37*
G36*
G01*
X54836750Y-57399000D02*
X55399250Y-57399000D01*
G75*
G02*
X55643000Y-57642750I0J-243750D01*
G01*
X55643000Y-58130250D01*
G75*
G02*
X55399250Y-58374000I-243750J0D01*
G01*
X54836750Y-58374000D01*
G75*
G02*
X54593000Y-58130250I0J243750D01*
G01*
X54593000Y-57642750D01*
G75*
G02*
X54836750Y-57399000I243750J0D01*
G01*
G37*
%TD*%
%TO.C,R6*%
G36*
G01*
X56923250Y-59949000D02*
X56360750Y-59949000D01*
G75*
G02*
X56117000Y-59705250I0J243750D01*
G01*
X56117000Y-59217750D01*
G75*
G02*
X56360750Y-58974000I243750J0D01*
G01*
X56923250Y-58974000D01*
G75*
G02*
X57167000Y-59217750I0J-243750D01*
G01*
X57167000Y-59705250D01*
G75*
G02*
X56923250Y-59949000I-243750J0D01*
G01*
G37*
G36*
G01*
X56923250Y-58374000D02*
X56360750Y-58374000D01*
G75*
G02*
X56117000Y-58130250I0J243750D01*
G01*
X56117000Y-57642750D01*
G75*
G02*
X56360750Y-57399000I243750J0D01*
G01*
X56923250Y-57399000D01*
G75*
G02*
X57167000Y-57642750I0J-243750D01*
G01*
X57167000Y-58130250D01*
G75*
G02*
X56923250Y-58374000I-243750J0D01*
G01*
G37*
%TD*%
%TO.C,R2*%
G36*
G01*
X36342500Y-66575250D02*
X36342500Y-66012750D01*
G75*
G02*
X36586250Y-65769000I243750J0D01*
G01*
X37073750Y-65769000D01*
G75*
G02*
X37317500Y-66012750I0J-243750D01*
G01*
X37317500Y-66575250D01*
G75*
G02*
X37073750Y-66819000I-243750J0D01*
G01*
X36586250Y-66819000D01*
G75*
G02*
X36342500Y-66575250I0J243750D01*
G01*
G37*
G36*
G01*
X37917500Y-66575250D02*
X37917500Y-66012750D01*
G75*
G02*
X38161250Y-65769000I243750J0D01*
G01*
X38648750Y-65769000D01*
G75*
G02*
X38892500Y-66012750I0J-243750D01*
G01*
X38892500Y-66575250D01*
G75*
G02*
X38648750Y-66819000I-243750J0D01*
G01*
X38161250Y-66819000D01*
G75*
G02*
X37917500Y-66575250I0J243750D01*
G01*
G37*
%TD*%
%TO.C,R7*%
G36*
G01*
X58447250Y-49560500D02*
X57884750Y-49560500D01*
G75*
G02*
X57641000Y-49316750I0J243750D01*
G01*
X57641000Y-48829250D01*
G75*
G02*
X57884750Y-48585500I243750J0D01*
G01*
X58447250Y-48585500D01*
G75*
G02*
X58691000Y-48829250I0J-243750D01*
G01*
X58691000Y-49316750D01*
G75*
G02*
X58447250Y-49560500I-243750J0D01*
G01*
G37*
G36*
G01*
X58447250Y-47985500D02*
X57884750Y-47985500D01*
G75*
G02*
X57641000Y-47741750I0J243750D01*
G01*
X57641000Y-47254250D01*
G75*
G02*
X57884750Y-47010500I243750J0D01*
G01*
X58447250Y-47010500D01*
G75*
G02*
X58691000Y-47254250I0J-243750D01*
G01*
X58691000Y-47741750D01*
G75*
G02*
X58447250Y-47985500I-243750J0D01*
G01*
G37*
%TD*%
%TO.C,R8*%
G36*
G01*
X60777500Y-47779250D02*
X60777500Y-47216750D01*
G75*
G02*
X61021250Y-46973000I243750J0D01*
G01*
X61508750Y-46973000D01*
G75*
G02*
X61752500Y-47216750I0J-243750D01*
G01*
X61752500Y-47779250D01*
G75*
G02*
X61508750Y-48023000I-243750J0D01*
G01*
X61021250Y-48023000D01*
G75*
G02*
X60777500Y-47779250I0J243750D01*
G01*
G37*
G36*
G01*
X59202500Y-47779250D02*
X59202500Y-47216750D01*
G75*
G02*
X59446250Y-46973000I243750J0D01*
G01*
X59933750Y-46973000D01*
G75*
G02*
X60177500Y-47216750I0J-243750D01*
G01*
X60177500Y-47779250D01*
G75*
G02*
X59933750Y-48023000I-243750J0D01*
G01*
X59446250Y-48023000D01*
G75*
G02*
X59202500Y-47779250I0J243750D01*
G01*
G37*
%TD*%
%TO.C,R9*%
G36*
G01*
X31468750Y-47061500D02*
X32031250Y-47061500D01*
G75*
G02*
X32275000Y-47305250I0J-243750D01*
G01*
X32275000Y-47792750D01*
G75*
G02*
X32031250Y-48036500I-243750J0D01*
G01*
X31468750Y-48036500D01*
G75*
G02*
X31225000Y-47792750I0J243750D01*
G01*
X31225000Y-47305250D01*
G75*
G02*
X31468750Y-47061500I243750J0D01*
G01*
G37*
G36*
G01*
X31468750Y-45486500D02*
X32031250Y-45486500D01*
G75*
G02*
X32275000Y-45730250I0J-243750D01*
G01*
X32275000Y-46217750D01*
G75*
G02*
X32031250Y-46461500I-243750J0D01*
G01*
X31468750Y-46461500D01*
G75*
G02*
X31225000Y-46217750I0J243750D01*
G01*
X31225000Y-45730250D01*
G75*
G02*
X31468750Y-45486500I243750J0D01*
G01*
G37*
%TD*%
%TO.C,R10*%
G36*
G01*
X30507250Y-47985500D02*
X29944750Y-47985500D01*
G75*
G02*
X29701000Y-47741750I0J243750D01*
G01*
X29701000Y-47254250D01*
G75*
G02*
X29944750Y-47010500I243750J0D01*
G01*
X30507250Y-47010500D01*
G75*
G02*
X30751000Y-47254250I0J-243750D01*
G01*
X30751000Y-47741750D01*
G75*
G02*
X30507250Y-47985500I-243750J0D01*
G01*
G37*
G36*
G01*
X30507250Y-46410500D02*
X29944750Y-46410500D01*
G75*
G02*
X29701000Y-46166750I0J243750D01*
G01*
X29701000Y-45679250D01*
G75*
G02*
X29944750Y-45435500I243750J0D01*
G01*
X30507250Y-45435500D01*
G75*
G02*
X30751000Y-45679250I0J-243750D01*
G01*
X30751000Y-46166750D01*
G75*
G02*
X30507250Y-46410500I-243750J0D01*
G01*
G37*
%TD*%
D12*
%TO.C,SW1*%
X32686000Y-28934000D03*
X27686000Y-28934000D03*
D19*
X35786000Y-35934000D03*
X24586000Y-35934000D03*
D12*
X32686000Y-43434000D03*
X30186000Y-43434000D03*
D11*
X27686000Y-43434000D03*
%TD*%
%TO.C,U1*%
G36*
G01*
X32672000Y-56382000D02*
X32672000Y-56132000D01*
G75*
G02*
X32797000Y-56007000I125000J0D01*
G01*
X34122000Y-56007000D01*
G75*
G02*
X34247000Y-56132000I0J-125000D01*
G01*
X34247000Y-56382000D01*
G75*
G02*
X34122000Y-56507000I-125000J0D01*
G01*
X32797000Y-56507000D01*
G75*
G02*
X32672000Y-56382000I0J125000D01*
G01*
G37*
G36*
G01*
X32672000Y-57032000D02*
X32672000Y-56782000D01*
G75*
G02*
X32797000Y-56657000I125000J0D01*
G01*
X34122000Y-56657000D01*
G75*
G02*
X34247000Y-56782000I0J-125000D01*
G01*
X34247000Y-57032000D01*
G75*
G02*
X34122000Y-57157000I-125000J0D01*
G01*
X32797000Y-57157000D01*
G75*
G02*
X32672000Y-57032000I0J125000D01*
G01*
G37*
G36*
G01*
X32672000Y-57682000D02*
X32672000Y-57432000D01*
G75*
G02*
X32797000Y-57307000I125000J0D01*
G01*
X34122000Y-57307000D01*
G75*
G02*
X34247000Y-57432000I0J-125000D01*
G01*
X34247000Y-57682000D01*
G75*
G02*
X34122000Y-57807000I-125000J0D01*
G01*
X32797000Y-57807000D01*
G75*
G02*
X32672000Y-57682000I0J125000D01*
G01*
G37*
G36*
G01*
X32672000Y-58332000D02*
X32672000Y-58082000D01*
G75*
G02*
X32797000Y-57957000I125000J0D01*
G01*
X34122000Y-57957000D01*
G75*
G02*
X34247000Y-58082000I0J-125000D01*
G01*
X34247000Y-58332000D01*
G75*
G02*
X34122000Y-58457000I-125000J0D01*
G01*
X32797000Y-58457000D01*
G75*
G02*
X32672000Y-58332000I0J125000D01*
G01*
G37*
G36*
G01*
X32672000Y-58982000D02*
X32672000Y-58732000D01*
G75*
G02*
X32797000Y-58607000I125000J0D01*
G01*
X34122000Y-58607000D01*
G75*
G02*
X34247000Y-58732000I0J-125000D01*
G01*
X34247000Y-58982000D01*
G75*
G02*
X34122000Y-59107000I-125000J0D01*
G01*
X32797000Y-59107000D01*
G75*
G02*
X32672000Y-58982000I0J125000D01*
G01*
G37*
G36*
G01*
X32672000Y-59632000D02*
X32672000Y-59382000D01*
G75*
G02*
X32797000Y-59257000I125000J0D01*
G01*
X34122000Y-59257000D01*
G75*
G02*
X34247000Y-59382000I0J-125000D01*
G01*
X34247000Y-59632000D01*
G75*
G02*
X34122000Y-59757000I-125000J0D01*
G01*
X32797000Y-59757000D01*
G75*
G02*
X32672000Y-59632000I0J125000D01*
G01*
G37*
G36*
G01*
X32672000Y-60282000D02*
X32672000Y-60032000D01*
G75*
G02*
X32797000Y-59907000I125000J0D01*
G01*
X34122000Y-59907000D01*
G75*
G02*
X34247000Y-60032000I0J-125000D01*
G01*
X34247000Y-60282000D01*
G75*
G02*
X34122000Y-60407000I-125000J0D01*
G01*
X32797000Y-60407000D01*
G75*
G02*
X32672000Y-60282000I0J125000D01*
G01*
G37*
G36*
G01*
X32672000Y-60932000D02*
X32672000Y-60682000D01*
G75*
G02*
X32797000Y-60557000I125000J0D01*
G01*
X34122000Y-60557000D01*
G75*
G02*
X34247000Y-60682000I0J-125000D01*
G01*
X34247000Y-60932000D01*
G75*
G02*
X34122000Y-61057000I-125000J0D01*
G01*
X32797000Y-61057000D01*
G75*
G02*
X32672000Y-60932000I0J125000D01*
G01*
G37*
G36*
G01*
X32672000Y-61582000D02*
X32672000Y-61332000D01*
G75*
G02*
X32797000Y-61207000I125000J0D01*
G01*
X34122000Y-61207000D01*
G75*
G02*
X34247000Y-61332000I0J-125000D01*
G01*
X34247000Y-61582000D01*
G75*
G02*
X34122000Y-61707000I-125000J0D01*
G01*
X32797000Y-61707000D01*
G75*
G02*
X32672000Y-61582000I0J125000D01*
G01*
G37*
G36*
G01*
X32672000Y-62232000D02*
X32672000Y-61982000D01*
G75*
G02*
X32797000Y-61857000I125000J0D01*
G01*
X34122000Y-61857000D01*
G75*
G02*
X34247000Y-61982000I0J-125000D01*
G01*
X34247000Y-62232000D01*
G75*
G02*
X34122000Y-62357000I-125000J0D01*
G01*
X32797000Y-62357000D01*
G75*
G02*
X32672000Y-62232000I0J125000D01*
G01*
G37*
G36*
G01*
X38397000Y-62232000D02*
X38397000Y-61982000D01*
G75*
G02*
X38522000Y-61857000I125000J0D01*
G01*
X39847000Y-61857000D01*
G75*
G02*
X39972000Y-61982000I0J-125000D01*
G01*
X39972000Y-62232000D01*
G75*
G02*
X39847000Y-62357000I-125000J0D01*
G01*
X38522000Y-62357000D01*
G75*
G02*
X38397000Y-62232000I0J125000D01*
G01*
G37*
G36*
G01*
X38397000Y-61582000D02*
X38397000Y-61332000D01*
G75*
G02*
X38522000Y-61207000I125000J0D01*
G01*
X39847000Y-61207000D01*
G75*
G02*
X39972000Y-61332000I0J-125000D01*
G01*
X39972000Y-61582000D01*
G75*
G02*
X39847000Y-61707000I-125000J0D01*
G01*
X38522000Y-61707000D01*
G75*
G02*
X38397000Y-61582000I0J125000D01*
G01*
G37*
G36*
G01*
X38397000Y-60932000D02*
X38397000Y-60682000D01*
G75*
G02*
X38522000Y-60557000I125000J0D01*
G01*
X39847000Y-60557000D01*
G75*
G02*
X39972000Y-60682000I0J-125000D01*
G01*
X39972000Y-60932000D01*
G75*
G02*
X39847000Y-61057000I-125000J0D01*
G01*
X38522000Y-61057000D01*
G75*
G02*
X38397000Y-60932000I0J125000D01*
G01*
G37*
G36*
G01*
X38397000Y-60282000D02*
X38397000Y-60032000D01*
G75*
G02*
X38522000Y-59907000I125000J0D01*
G01*
X39847000Y-59907000D01*
G75*
G02*
X39972000Y-60032000I0J-125000D01*
G01*
X39972000Y-60282000D01*
G75*
G02*
X39847000Y-60407000I-125000J0D01*
G01*
X38522000Y-60407000D01*
G75*
G02*
X38397000Y-60282000I0J125000D01*
G01*
G37*
G36*
G01*
X38397000Y-59632000D02*
X38397000Y-59382000D01*
G75*
G02*
X38522000Y-59257000I125000J0D01*
G01*
X39847000Y-59257000D01*
G75*
G02*
X39972000Y-59382000I0J-125000D01*
G01*
X39972000Y-59632000D01*
G75*
G02*
X39847000Y-59757000I-125000J0D01*
G01*
X38522000Y-59757000D01*
G75*
G02*
X38397000Y-59632000I0J125000D01*
G01*
G37*
G36*
G01*
X38397000Y-58982000D02*
X38397000Y-58732000D01*
G75*
G02*
X38522000Y-58607000I125000J0D01*
G01*
X39847000Y-58607000D01*
G75*
G02*
X39972000Y-58732000I0J-125000D01*
G01*
X39972000Y-58982000D01*
G75*
G02*
X39847000Y-59107000I-125000J0D01*
G01*
X38522000Y-59107000D01*
G75*
G02*
X38397000Y-58982000I0J125000D01*
G01*
G37*
G36*
G01*
X38397000Y-58332000D02*
X38397000Y-58082000D01*
G75*
G02*
X38522000Y-57957000I125000J0D01*
G01*
X39847000Y-57957000D01*
G75*
G02*
X39972000Y-58082000I0J-125000D01*
G01*
X39972000Y-58332000D01*
G75*
G02*
X39847000Y-58457000I-125000J0D01*
G01*
X38522000Y-58457000D01*
G75*
G02*
X38397000Y-58332000I0J125000D01*
G01*
G37*
G36*
G01*
X38397000Y-57682000D02*
X38397000Y-57432000D01*
G75*
G02*
X38522000Y-57307000I125000J0D01*
G01*
X39847000Y-57307000D01*
G75*
G02*
X39972000Y-57432000I0J-125000D01*
G01*
X39972000Y-57682000D01*
G75*
G02*
X39847000Y-57807000I-125000J0D01*
G01*
X38522000Y-57807000D01*
G75*
G02*
X38397000Y-57682000I0J125000D01*
G01*
G37*
G36*
G01*
X38397000Y-57032000D02*
X38397000Y-56782000D01*
G75*
G02*
X38522000Y-56657000I125000J0D01*
G01*
X39847000Y-56657000D01*
G75*
G02*
X39972000Y-56782000I0J-125000D01*
G01*
X39972000Y-57032000D01*
G75*
G02*
X39847000Y-57157000I-125000J0D01*
G01*
X38522000Y-57157000D01*
G75*
G02*
X38397000Y-57032000I0J125000D01*
G01*
G37*
G36*
G01*
X38397000Y-56382000D02*
X38397000Y-56132000D01*
G75*
G02*
X38522000Y-56007000I125000J0D01*
G01*
X39847000Y-56007000D01*
G75*
G02*
X39972000Y-56132000I0J-125000D01*
G01*
X39972000Y-56382000D01*
G75*
G02*
X39847000Y-56507000I-125000J0D01*
G01*
X38522000Y-56507000D01*
G75*
G02*
X38397000Y-56382000I0J125000D01*
G01*
G37*
%TD*%
D20*
%TO.C,U4*%
X50760000Y-57724000D03*
X50760000Y-58674000D03*
X50760000Y-59624000D03*
X53380000Y-59624000D03*
X53380000Y-57724000D03*
%TD*%
D21*
%TO.C,Y1*%
X30044000Y-50412000D03*
X26344000Y-50412000D03*
X26344000Y-52712000D03*
X30044000Y-52712000D03*
%TD*%
D13*
%TO.C,J2*%
X63881000Y-56134000D03*
X63881000Y-61214000D03*
D15*
X63881000Y-51054000D03*
D13*
X63881000Y-66294000D03*
%TD*%
D22*
%TO.C,U3*%
X44482000Y-64836000D03*
X44482000Y-66736000D03*
X46482000Y-65786000D03*
%TD*%
D23*
%TO.C,U6*%
X38100000Y-52644000D03*
X38100000Y-53594000D03*
X38100000Y-54544000D03*
X40300000Y-54544000D03*
X40300000Y-52644000D03*
%TD*%
%TO.C,D2*%
G36*
G01*
X49602500Y-37573000D02*
X50077500Y-37573000D01*
G75*
G02*
X50315000Y-37810500I0J-237500D01*
G01*
X50315000Y-38660500D01*
G75*
G02*
X50077500Y-38898000I-237500J0D01*
G01*
X49602500Y-38898000D01*
G75*
G02*
X49365000Y-38660500I0J237500D01*
G01*
X49365000Y-37810500D01*
G75*
G02*
X49602500Y-37573000I237500J0D01*
G01*
G37*
G36*
G01*
X49602500Y-39198000D02*
X50077500Y-39198000D01*
G75*
G02*
X50315000Y-39435500I0J-237500D01*
G01*
X50315000Y-40285500D01*
G75*
G02*
X50077500Y-40523000I-237500J0D01*
G01*
X49602500Y-40523000D01*
G75*
G02*
X49365000Y-40285500I0J237500D01*
G01*
X49365000Y-39435500D01*
G75*
G02*
X49602500Y-39198000I237500J0D01*
G01*
G37*
%TD*%
%TO.C,R4*%
G36*
G01*
X50121250Y-43535500D02*
X49558750Y-43535500D01*
G75*
G02*
X49315000Y-43291750I0J243750D01*
G01*
X49315000Y-42804250D01*
G75*
G02*
X49558750Y-42560500I243750J0D01*
G01*
X50121250Y-42560500D01*
G75*
G02*
X50365000Y-42804250I0J-243750D01*
G01*
X50365000Y-43291750D01*
G75*
G02*
X50121250Y-43535500I-243750J0D01*
G01*
G37*
G36*
G01*
X50121250Y-41960500D02*
X49558750Y-41960500D01*
G75*
G02*
X49315000Y-41716750I0J243750D01*
G01*
X49315000Y-41229250D01*
G75*
G02*
X49558750Y-40985500I243750J0D01*
G01*
X50121250Y-40985500D01*
G75*
G02*
X50365000Y-41229250I0J-243750D01*
G01*
X50365000Y-41716750D01*
G75*
G02*
X50121250Y-41960500I-243750J0D01*
G01*
G37*
%TD*%
D24*
%TO.C,U2*%
X48550000Y-48900000D03*
D25*
X54850000Y-48900000D03*
X54850000Y-46600000D03*
X54850000Y-51200000D03*
%TD*%
%TO.C,C17*%
G36*
G01*
X42136750Y-36571000D02*
X42699250Y-36571000D01*
G75*
G02*
X42943000Y-36814750I0J-243750D01*
G01*
X42943000Y-37302250D01*
G75*
G02*
X42699250Y-37546000I-243750J0D01*
G01*
X42136750Y-37546000D01*
G75*
G02*
X41893000Y-37302250I0J243750D01*
G01*
X41893000Y-36814750D01*
G75*
G02*
X42136750Y-36571000I243750J0D01*
G01*
G37*
G36*
G01*
X42136750Y-38146000D02*
X42699250Y-38146000D01*
G75*
G02*
X42943000Y-38389750I0J-243750D01*
G01*
X42943000Y-38877250D01*
G75*
G02*
X42699250Y-39121000I-243750J0D01*
G01*
X42136750Y-39121000D01*
G75*
G02*
X41893000Y-38877250I0J243750D01*
G01*
X41893000Y-38389750D01*
G75*
G02*
X42136750Y-38146000I243750J0D01*
G01*
G37*
%TD*%
D23*
%TO.C,U5*%
X48176000Y-62207100D03*
X48176000Y-63157100D03*
X48176000Y-64107100D03*
X50376000Y-64107100D03*
X50376000Y-62207100D03*
%TD*%
M02*
