%TF.GenerationSoftware,KiCad,Pcbnew,5.1.6*%
%TF.CreationDate,2020-09-04T20:47:42+02:00*%
%TF.ProjectId,JBC_Nano_Hardware,4a42435f-4e61-46e6-9f5f-486172647761,rev?*%
%TF.SameCoordinates,Original*%
%TF.FileFunction,Copper,L1,Top*%
%TF.FilePolarity,Positive*%
%FSLAX46Y46*%
G04 Gerber Fmt 4.6, Leading zero omitted, Abs format (unit mm)*
G04 Created by KiCad (PCBNEW 5.1.6) date 2020-09-04 20:47:42*
%MOMM*%
%LPD*%
G01*
G04 APERTURE LIST*
%TA.AperFunction,ComponentPad*%
%ADD10R,2.000000X2.000000*%
%TD*%
%TA.AperFunction,ComponentPad*%
%ADD11C,2.000000*%
%TD*%
%TA.AperFunction,ComponentPad*%
%ADD12C,3.000000*%
%TD*%
%TA.AperFunction,ComponentPad*%
%ADD13R,3.000000X3.000000*%
%TD*%
%TA.AperFunction,ComponentPad*%
%ADD14R,1.700000X1.700000*%
%TD*%
%TA.AperFunction,ComponentPad*%
%ADD15O,1.700000X1.700000*%
%TD*%
%TA.AperFunction,SMDPad,CuDef*%
%ADD16C,0.100000*%
%TD*%
%TA.AperFunction,ComponentPad*%
%ADD17R,2.500000X3.000000*%
%TD*%
%TA.AperFunction,SMDPad,CuDef*%
%ADD18R,1.220000X0.650000*%
%TD*%
%TA.AperFunction,SMDPad,CuDef*%
%ADD19R,1.900000X1.100000*%
%TD*%
%TA.AperFunction,SMDPad,CuDef*%
%ADD20R,0.900000X0.800000*%
%TD*%
%TA.AperFunction,SMDPad,CuDef*%
%ADD21R,1.060000X0.650000*%
%TD*%
%TA.AperFunction,SMDPad,CuDef*%
%ADD22R,2.000000X3.800000*%
%TD*%
%TA.AperFunction,SMDPad,CuDef*%
%ADD23R,2.000000X1.500000*%
%TD*%
%TA.AperFunction,ViaPad*%
%ADD24C,0.800000*%
%TD*%
%TA.AperFunction,Conductor*%
%ADD25C,1.000000*%
%TD*%
%TA.AperFunction,Conductor*%
%ADD26C,2.000000*%
%TD*%
%TA.AperFunction,Conductor*%
%ADD27C,1.500000*%
%TD*%
%TA.AperFunction,Conductor*%
%ADD28C,0.250000*%
%TD*%
%TA.AperFunction,Conductor*%
%ADD29C,0.500000*%
%TD*%
%TA.AperFunction,Conductor*%
%ADD30C,0.152400*%
%TD*%
%TA.AperFunction,Conductor*%
%ADD31C,0.254000*%
%TD*%
G04 APERTURE END LIST*
%TO.P,C1,2*%
%TO.N,GND*%
%TA.AperFunction,SMDPad,CuDef*%
G36*
G01*
X42161750Y-59252500D02*
X42674250Y-59252500D01*
G75*
G02*
X42893000Y-59471250I0J-218750D01*
G01*
X42893000Y-59908750D01*
G75*
G02*
X42674250Y-60127500I-218750J0D01*
G01*
X42161750Y-60127500D01*
G75*
G02*
X41943000Y-59908750I0J218750D01*
G01*
X41943000Y-59471250D01*
G75*
G02*
X42161750Y-59252500I218750J0D01*
G01*
G37*
%TD.AperFunction*%
%TO.P,C1,1*%
%TO.N,+3V3*%
%TA.AperFunction,SMDPad,CuDef*%
G36*
G01*
X42161750Y-57677500D02*
X42674250Y-57677500D01*
G75*
G02*
X42893000Y-57896250I0J-218750D01*
G01*
X42893000Y-58333750D01*
G75*
G02*
X42674250Y-58552500I-218750J0D01*
G01*
X42161750Y-58552500D01*
G75*
G02*
X41943000Y-58333750I0J218750D01*
G01*
X41943000Y-57896250D01*
G75*
G02*
X42161750Y-57677500I218750J0D01*
G01*
G37*
%TD.AperFunction*%
%TD*%
%TO.P,C2,1*%
%TO.N,+3V3*%
%TA.AperFunction,SMDPad,CuDef*%
G36*
G01*
X43685750Y-57677500D02*
X44198250Y-57677500D01*
G75*
G02*
X44417000Y-57896250I0J-218750D01*
G01*
X44417000Y-58333750D01*
G75*
G02*
X44198250Y-58552500I-218750J0D01*
G01*
X43685750Y-58552500D01*
G75*
G02*
X43467000Y-58333750I0J218750D01*
G01*
X43467000Y-57896250D01*
G75*
G02*
X43685750Y-57677500I218750J0D01*
G01*
G37*
%TD.AperFunction*%
%TO.P,C2,2*%
%TO.N,GND*%
%TA.AperFunction,SMDPad,CuDef*%
G36*
G01*
X43685750Y-59252500D02*
X44198250Y-59252500D01*
G75*
G02*
X44417000Y-59471250I0J-218750D01*
G01*
X44417000Y-59908750D01*
G75*
G02*
X44198250Y-60127500I-218750J0D01*
G01*
X43685750Y-60127500D01*
G75*
G02*
X43467000Y-59908750I0J218750D01*
G01*
X43467000Y-59471250D01*
G75*
G02*
X43685750Y-59252500I218750J0D01*
G01*
G37*
%TD.AperFunction*%
%TD*%
%TO.P,C3,2*%
%TO.N,GND*%
%TA.AperFunction,SMDPad,CuDef*%
G36*
G01*
X32001750Y-51632500D02*
X32514250Y-51632500D01*
G75*
G02*
X32733000Y-51851250I0J-218750D01*
G01*
X32733000Y-52288750D01*
G75*
G02*
X32514250Y-52507500I-218750J0D01*
G01*
X32001750Y-52507500D01*
G75*
G02*
X31783000Y-52288750I0J218750D01*
G01*
X31783000Y-51851250D01*
G75*
G02*
X32001750Y-51632500I218750J0D01*
G01*
G37*
%TD.AperFunction*%
%TO.P,C3,1*%
%TO.N,Net-(C3-Pad1)*%
%TA.AperFunction,SMDPad,CuDef*%
G36*
G01*
X32001750Y-50057500D02*
X32514250Y-50057500D01*
G75*
G02*
X32733000Y-50276250I0J-218750D01*
G01*
X32733000Y-50713750D01*
G75*
G02*
X32514250Y-50932500I-218750J0D01*
G01*
X32001750Y-50932500D01*
G75*
G02*
X31783000Y-50713750I0J218750D01*
G01*
X31783000Y-50276250D01*
G75*
G02*
X32001750Y-50057500I218750J0D01*
G01*
G37*
%TD.AperFunction*%
%TD*%
%TO.P,C4,2*%
%TO.N,GND*%
%TA.AperFunction,SMDPad,CuDef*%
G36*
G01*
X56136250Y-30790500D02*
X55623750Y-30790500D01*
G75*
G02*
X55405000Y-30571750I0J218750D01*
G01*
X55405000Y-30134250D01*
G75*
G02*
X55623750Y-29915500I218750J0D01*
G01*
X56136250Y-29915500D01*
G75*
G02*
X56355000Y-30134250I0J-218750D01*
G01*
X56355000Y-30571750D01*
G75*
G02*
X56136250Y-30790500I-218750J0D01*
G01*
G37*
%TD.AperFunction*%
%TO.P,C4,1*%
%TO.N,VDC*%
%TA.AperFunction,SMDPad,CuDef*%
G36*
G01*
X56136250Y-32365500D02*
X55623750Y-32365500D01*
G75*
G02*
X55405000Y-32146750I0J218750D01*
G01*
X55405000Y-31709250D01*
G75*
G02*
X55623750Y-31490500I218750J0D01*
G01*
X56136250Y-31490500D01*
G75*
G02*
X56355000Y-31709250I0J-218750D01*
G01*
X56355000Y-32146750D01*
G75*
G02*
X56136250Y-32365500I-218750J0D01*
G01*
G37*
%TD.AperFunction*%
%TD*%
%TO.P,C5,1*%
%TO.N,VDDA*%
%TA.AperFunction,SMDPad,CuDef*%
G36*
G01*
X29461750Y-58185500D02*
X29974250Y-58185500D01*
G75*
G02*
X30193000Y-58404250I0J-218750D01*
G01*
X30193000Y-58841750D01*
G75*
G02*
X29974250Y-59060500I-218750J0D01*
G01*
X29461750Y-59060500D01*
G75*
G02*
X29243000Y-58841750I0J218750D01*
G01*
X29243000Y-58404250D01*
G75*
G02*
X29461750Y-58185500I218750J0D01*
G01*
G37*
%TD.AperFunction*%
%TO.P,C5,2*%
%TO.N,GND*%
%TA.AperFunction,SMDPad,CuDef*%
G36*
G01*
X29461750Y-59760500D02*
X29974250Y-59760500D01*
G75*
G02*
X30193000Y-59979250I0J-218750D01*
G01*
X30193000Y-60416750D01*
G75*
G02*
X29974250Y-60635500I-218750J0D01*
G01*
X29461750Y-60635500D01*
G75*
G02*
X29243000Y-60416750I0J218750D01*
G01*
X29243000Y-59979250D01*
G75*
G02*
X29461750Y-59760500I218750J0D01*
G01*
G37*
%TD.AperFunction*%
%TD*%
%TO.P,C6,1*%
%TO.N,Net-(C6-Pad1)*%
%TA.AperFunction,SMDPad,CuDef*%
G36*
G01*
X24386250Y-52787000D02*
X23873750Y-52787000D01*
G75*
G02*
X23655000Y-52568250I0J218750D01*
G01*
X23655000Y-52130750D01*
G75*
G02*
X23873750Y-51912000I218750J0D01*
G01*
X24386250Y-51912000D01*
G75*
G02*
X24605000Y-52130750I0J-218750D01*
G01*
X24605000Y-52568250D01*
G75*
G02*
X24386250Y-52787000I-218750J0D01*
G01*
G37*
%TD.AperFunction*%
%TO.P,C6,2*%
%TO.N,GND*%
%TA.AperFunction,SMDPad,CuDef*%
G36*
G01*
X24386250Y-51212000D02*
X23873750Y-51212000D01*
G75*
G02*
X23655000Y-50993250I0J218750D01*
G01*
X23655000Y-50555750D01*
G75*
G02*
X23873750Y-50337000I218750J0D01*
G01*
X24386250Y-50337000D01*
G75*
G02*
X24605000Y-50555750I0J-218750D01*
G01*
X24605000Y-50993250D01*
G75*
G02*
X24386250Y-51212000I-218750J0D01*
G01*
G37*
%TD.AperFunction*%
%TD*%
%TO.P,C7,2*%
%TO.N,GND*%
%TA.AperFunction,SMDPad,CuDef*%
G36*
G01*
X58041250Y-30790500D02*
X57528750Y-30790500D01*
G75*
G02*
X57310000Y-30571750I0J218750D01*
G01*
X57310000Y-30134250D01*
G75*
G02*
X57528750Y-29915500I218750J0D01*
G01*
X58041250Y-29915500D01*
G75*
G02*
X58260000Y-30134250I0J-218750D01*
G01*
X58260000Y-30571750D01*
G75*
G02*
X58041250Y-30790500I-218750J0D01*
G01*
G37*
%TD.AperFunction*%
%TO.P,C7,1*%
%TO.N,VDC*%
%TA.AperFunction,SMDPad,CuDef*%
G36*
G01*
X58041250Y-32365500D02*
X57528750Y-32365500D01*
G75*
G02*
X57310000Y-32146750I0J218750D01*
G01*
X57310000Y-31709250D01*
G75*
G02*
X57528750Y-31490500I218750J0D01*
G01*
X58041250Y-31490500D01*
G75*
G02*
X58260000Y-31709250I0J-218750D01*
G01*
X58260000Y-32146750D01*
G75*
G02*
X58041250Y-32365500I-218750J0D01*
G01*
G37*
%TD.AperFunction*%
%TD*%
%TO.P,C8,2*%
%TO.N,GND*%
%TA.AperFunction,SMDPad,CuDef*%
G36*
G01*
X27937750Y-59760500D02*
X28450250Y-59760500D01*
G75*
G02*
X28669000Y-59979250I0J-218750D01*
G01*
X28669000Y-60416750D01*
G75*
G02*
X28450250Y-60635500I-218750J0D01*
G01*
X27937750Y-60635500D01*
G75*
G02*
X27719000Y-60416750I0J218750D01*
G01*
X27719000Y-59979250D01*
G75*
G02*
X27937750Y-59760500I218750J0D01*
G01*
G37*
%TD.AperFunction*%
%TO.P,C8,1*%
%TO.N,VDDA*%
%TA.AperFunction,SMDPad,CuDef*%
G36*
G01*
X27937750Y-58185500D02*
X28450250Y-58185500D01*
G75*
G02*
X28669000Y-58404250I0J-218750D01*
G01*
X28669000Y-58841750D01*
G75*
G02*
X28450250Y-59060500I-218750J0D01*
G01*
X27937750Y-59060500D01*
G75*
G02*
X27719000Y-58841750I0J218750D01*
G01*
X27719000Y-58404250D01*
G75*
G02*
X27937750Y-58185500I218750J0D01*
G01*
G37*
%TD.AperFunction*%
%TD*%
D10*
%TO.P,C9,1*%
%TO.N,VDC*%
X60325000Y-32258000D03*
D11*
%TO.P,C9,2*%
%TO.N,GND*%
X60325000Y-28758000D03*
%TD*%
%TO.P,C10,1*%
%TO.N,VDDA*%
%TA.AperFunction,SMDPad,CuDef*%
G36*
G01*
X26413750Y-58185500D02*
X26926250Y-58185500D01*
G75*
G02*
X27145000Y-58404250I0J-218750D01*
G01*
X27145000Y-58841750D01*
G75*
G02*
X26926250Y-59060500I-218750J0D01*
G01*
X26413750Y-59060500D01*
G75*
G02*
X26195000Y-58841750I0J218750D01*
G01*
X26195000Y-58404250D01*
G75*
G02*
X26413750Y-58185500I218750J0D01*
G01*
G37*
%TD.AperFunction*%
%TO.P,C10,2*%
%TO.N,GND*%
%TA.AperFunction,SMDPad,CuDef*%
G36*
G01*
X26413750Y-59760500D02*
X26926250Y-59760500D01*
G75*
G02*
X27145000Y-59979250I0J-218750D01*
G01*
X27145000Y-60416750D01*
G75*
G02*
X26926250Y-60635500I-218750J0D01*
G01*
X26413750Y-60635500D01*
G75*
G02*
X26195000Y-60416750I0J218750D01*
G01*
X26195000Y-59979250D01*
G75*
G02*
X26413750Y-59760500I218750J0D01*
G01*
G37*
%TD.AperFunction*%
%TD*%
%TO.P,C11,2*%
%TO.N,GND*%
%TA.AperFunction,SMDPad,CuDef*%
G36*
G01*
X44580000Y-46709750D02*
X44580000Y-47222250D01*
G75*
G02*
X44361250Y-47441000I-218750J0D01*
G01*
X43923750Y-47441000D01*
G75*
G02*
X43705000Y-47222250I0J218750D01*
G01*
X43705000Y-46709750D01*
G75*
G02*
X43923750Y-46491000I218750J0D01*
G01*
X44361250Y-46491000D01*
G75*
G02*
X44580000Y-46709750I0J-218750D01*
G01*
G37*
%TD.AperFunction*%
%TO.P,C11,1*%
%TO.N,+3V3*%
%TA.AperFunction,SMDPad,CuDef*%
G36*
G01*
X46155000Y-46709750D02*
X46155000Y-47222250D01*
G75*
G02*
X45936250Y-47441000I-218750J0D01*
G01*
X45498750Y-47441000D01*
G75*
G02*
X45280000Y-47222250I0J218750D01*
G01*
X45280000Y-46709750D01*
G75*
G02*
X45498750Y-46491000I218750J0D01*
G01*
X45936250Y-46491000D01*
G75*
G02*
X46155000Y-46709750I0J-218750D01*
G01*
G37*
%TD.AperFunction*%
%TD*%
%TO.P,C12,1*%
%TO.N,+3V3*%
%TA.AperFunction,SMDPad,CuDef*%
G36*
G01*
X46155000Y-45185750D02*
X46155000Y-45698250D01*
G75*
G02*
X45936250Y-45917000I-218750J0D01*
G01*
X45498750Y-45917000D01*
G75*
G02*
X45280000Y-45698250I0J218750D01*
G01*
X45280000Y-45185750D01*
G75*
G02*
X45498750Y-44967000I218750J0D01*
G01*
X45936250Y-44967000D01*
G75*
G02*
X46155000Y-45185750I0J-218750D01*
G01*
G37*
%TD.AperFunction*%
%TO.P,C12,2*%
%TO.N,GND*%
%TA.AperFunction,SMDPad,CuDef*%
G36*
G01*
X44580000Y-45185750D02*
X44580000Y-45698250D01*
G75*
G02*
X44361250Y-45917000I-218750J0D01*
G01*
X43923750Y-45917000D01*
G75*
G02*
X43705000Y-45698250I0J218750D01*
G01*
X43705000Y-45185750D01*
G75*
G02*
X43923750Y-44967000I218750J0D01*
G01*
X44361250Y-44967000D01*
G75*
G02*
X44580000Y-45185750I0J-218750D01*
G01*
G37*
%TD.AperFunction*%
%TD*%
%TO.P,C14,1*%
%TO.N,Net-(C14-Pad1)*%
%TA.AperFunction,SMDPad,CuDef*%
G36*
G01*
X46462500Y-62481750D02*
X46462500Y-62994250D01*
G75*
G02*
X46243750Y-63213000I-218750J0D01*
G01*
X45806250Y-63213000D01*
G75*
G02*
X45587500Y-62994250I0J218750D01*
G01*
X45587500Y-62481750D01*
G75*
G02*
X45806250Y-62263000I218750J0D01*
G01*
X46243750Y-62263000D01*
G75*
G02*
X46462500Y-62481750I0J-218750D01*
G01*
G37*
%TD.AperFunction*%
%TO.P,C14,2*%
%TO.N,GND*%
%TA.AperFunction,SMDPad,CuDef*%
G36*
G01*
X44887500Y-62481750D02*
X44887500Y-62994250D01*
G75*
G02*
X44668750Y-63213000I-218750J0D01*
G01*
X44231250Y-63213000D01*
G75*
G02*
X44012500Y-62994250I0J218750D01*
G01*
X44012500Y-62481750D01*
G75*
G02*
X44231250Y-62263000I218750J0D01*
G01*
X44668750Y-62263000D01*
G75*
G02*
X44887500Y-62481750I0J-218750D01*
G01*
G37*
%TD.AperFunction*%
%TD*%
%TO.P,C15,1*%
%TO.N,+3V3*%
%TA.AperFunction,SMDPad,CuDef*%
G36*
G01*
X53295000Y-55877750D02*
X53295000Y-56390250D01*
G75*
G02*
X53076250Y-56609000I-218750J0D01*
G01*
X52638750Y-56609000D01*
G75*
G02*
X52420000Y-56390250I0J218750D01*
G01*
X52420000Y-55877750D01*
G75*
G02*
X52638750Y-55659000I218750J0D01*
G01*
X53076250Y-55659000D01*
G75*
G02*
X53295000Y-55877750I0J-218750D01*
G01*
G37*
%TD.AperFunction*%
%TO.P,C15,2*%
%TO.N,GND*%
%TA.AperFunction,SMDPad,CuDef*%
G36*
G01*
X51720000Y-55877750D02*
X51720000Y-56390250D01*
G75*
G02*
X51501250Y-56609000I-218750J0D01*
G01*
X51063750Y-56609000D01*
G75*
G02*
X50845000Y-56390250I0J218750D01*
G01*
X50845000Y-55877750D01*
G75*
G02*
X51063750Y-55659000I218750J0D01*
G01*
X51501250Y-55659000D01*
G75*
G02*
X51720000Y-55877750I0J-218750D01*
G01*
G37*
%TD.AperFunction*%
%TD*%
%TO.P,C16,2*%
%TO.N,GND*%
%TA.AperFunction,SMDPad,CuDef*%
G36*
G01*
X51720000Y-54353750D02*
X51720000Y-54866250D01*
G75*
G02*
X51501250Y-55085000I-218750J0D01*
G01*
X51063750Y-55085000D01*
G75*
G02*
X50845000Y-54866250I0J218750D01*
G01*
X50845000Y-54353750D01*
G75*
G02*
X51063750Y-54135000I218750J0D01*
G01*
X51501250Y-54135000D01*
G75*
G02*
X51720000Y-54353750I0J-218750D01*
G01*
G37*
%TD.AperFunction*%
%TO.P,C16,1*%
%TO.N,+3V3*%
%TA.AperFunction,SMDPad,CuDef*%
G36*
G01*
X53295000Y-54353750D02*
X53295000Y-54866250D01*
G75*
G02*
X53076250Y-55085000I-218750J0D01*
G01*
X52638750Y-55085000D01*
G75*
G02*
X52420000Y-54866250I0J218750D01*
G01*
X52420000Y-54353750D01*
G75*
G02*
X52638750Y-54135000I218750J0D01*
G01*
X53076250Y-54135000D01*
G75*
G02*
X53295000Y-54353750I0J-218750D01*
G01*
G37*
%TD.AperFunction*%
%TD*%
%TO.P,C13,1*%
%TO.N,/IDLE_SW*%
%TA.AperFunction,SMDPad,CuDef*%
G36*
G01*
X36392500Y-65026250D02*
X36392500Y-64513750D01*
G75*
G02*
X36611250Y-64295000I218750J0D01*
G01*
X37048750Y-64295000D01*
G75*
G02*
X37267500Y-64513750I0J-218750D01*
G01*
X37267500Y-65026250D01*
G75*
G02*
X37048750Y-65245000I-218750J0D01*
G01*
X36611250Y-65245000D01*
G75*
G02*
X36392500Y-65026250I0J218750D01*
G01*
G37*
%TD.AperFunction*%
%TO.P,C13,2*%
%TO.N,GND*%
%TA.AperFunction,SMDPad,CuDef*%
G36*
G01*
X37967500Y-65026250D02*
X37967500Y-64513750D01*
G75*
G02*
X38186250Y-64295000I218750J0D01*
G01*
X38623750Y-64295000D01*
G75*
G02*
X38842500Y-64513750I0J-218750D01*
G01*
X38842500Y-65026250D01*
G75*
G02*
X38623750Y-65245000I-218750J0D01*
G01*
X38186250Y-65245000D01*
G75*
G02*
X37967500Y-65026250I0J218750D01*
G01*
G37*
%TD.AperFunction*%
%TD*%
%TO.P,D1,1*%
%TO.N,GND*%
%TA.AperFunction,SMDPad,CuDef*%
G36*
G01*
X58163750Y-55391500D02*
X58676250Y-55391500D01*
G75*
G02*
X58895000Y-55610250I0J-218750D01*
G01*
X58895000Y-56047750D01*
G75*
G02*
X58676250Y-56266500I-218750J0D01*
G01*
X58163750Y-56266500D01*
G75*
G02*
X57945000Y-56047750I0J218750D01*
G01*
X57945000Y-55610250D01*
G75*
G02*
X58163750Y-55391500I218750J0D01*
G01*
G37*
%TD.AperFunction*%
%TO.P,D1,2*%
%TO.N,Net-(D1-Pad2)*%
%TA.AperFunction,SMDPad,CuDef*%
G36*
G01*
X58163750Y-56966500D02*
X58676250Y-56966500D01*
G75*
G02*
X58895000Y-57185250I0J-218750D01*
G01*
X58895000Y-57622750D01*
G75*
G02*
X58676250Y-57841500I-218750J0D01*
G01*
X58163750Y-57841500D01*
G75*
G02*
X57945000Y-57622750I0J218750D01*
G01*
X57945000Y-57185250D01*
G75*
G02*
X58163750Y-56966500I218750J0D01*
G01*
G37*
%TD.AperFunction*%
%TD*%
D12*
%TO.P,F1,1*%
%TO.N,VDC*%
X67056000Y-42164000D03*
%TO.P,F1,2*%
%TO.N,Net-(F1-Pad2)*%
X44556000Y-42164000D03*
%TD*%
D13*
%TO.P,J1,1*%
%TO.N,GND*%
X45466000Y-32004000D03*
D12*
%TO.P,J1,2*%
%TO.N,Net-(F1-Pad2)*%
X50546000Y-32004000D03*
%TD*%
D14*
%TO.P,J3,1*%
%TO.N,GND*%
X37846000Y-50038000D03*
D15*
%TO.P,J3,2*%
%TO.N,/SWDCLK*%
X40386000Y-50038000D03*
%TO.P,J3,3*%
%TO.N,/SWDIO*%
X42926000Y-50038000D03*
%TO.P,J3,4*%
%TO.N,+3V3*%
X45466000Y-50038000D03*
%TD*%
D14*
%TO.P,J4,1*%
%TO.N,GND*%
X31242000Y-63754000D03*
D15*
%TO.P,J4,2*%
%TO.N,/UART_RX*%
X28702000Y-63754000D03*
%TO.P,J4,3*%
%TO.N,/UART_TX*%
X26162000Y-63754000D03*
%TD*%
D14*
%TO.P,J5,1*%
%TO.N,/I2C_SDA*%
X40386000Y-32004000D03*
D15*
%TO.P,J5,2*%
%TO.N,/I2C_SCL*%
X40386000Y-34544000D03*
%TO.P,J5,3*%
%TO.N,+3V3*%
X40386000Y-37084000D03*
%TO.P,J5,4*%
%TO.N,GND*%
X40386000Y-39624000D03*
%TD*%
%TA.AperFunction,SMDPad,CuDef*%
D16*
%TO.P,JP1,2*%
%TO.N,Net-(C14-Pad1)*%
G36*
X41668000Y-66794000D02*
G01*
X41668000Y-65644000D01*
X42418000Y-66144000D01*
X43168000Y-65644000D01*
X43168000Y-66794000D01*
X41668000Y-66794000D01*
G37*
%TD.AperFunction*%
%TA.AperFunction,SMDPad,CuDef*%
%TO.P,JP1,1*%
%TO.N,VDC*%
G36*
X42418000Y-65844000D02*
G01*
X41668000Y-65344000D01*
X41668000Y-64344000D01*
X43168000Y-64344000D01*
X43168000Y-65344000D01*
X42418000Y-65844000D01*
G37*
%TD.AperFunction*%
%TD*%
%TA.AperFunction,SMDPad,CuDef*%
%TO.P,JP2,1*%
%TO.N,/HEATER_GATE*%
G36*
X49255000Y-66294000D02*
G01*
X49755000Y-65544000D01*
X50755000Y-65544000D01*
X50755000Y-67044000D01*
X49755000Y-67044000D01*
X49255000Y-66294000D01*
G37*
%TD.AperFunction*%
%TA.AperFunction,SMDPad,CuDef*%
%TO.P,JP2,2*%
%TO.N,/HEATER_ON*%
G36*
X48305000Y-65544000D02*
G01*
X49455000Y-65544000D01*
X48955000Y-66294000D01*
X49455000Y-67044000D01*
X48305000Y-67044000D01*
X48305000Y-65544000D01*
G37*
%TD.AperFunction*%
%TD*%
%TO.P,L1,2*%
%TO.N,VDDA*%
%TA.AperFunction,SMDPad,CuDef*%
G36*
G01*
X26213750Y-56662500D02*
X27126250Y-56662500D01*
G75*
G02*
X27370000Y-56906250I0J-243750D01*
G01*
X27370000Y-57393750D01*
G75*
G02*
X27126250Y-57637500I-243750J0D01*
G01*
X26213750Y-57637500D01*
G75*
G02*
X25970000Y-57393750I0J243750D01*
G01*
X25970000Y-56906250D01*
G75*
G02*
X26213750Y-56662500I243750J0D01*
G01*
G37*
%TD.AperFunction*%
%TO.P,L1,1*%
%TO.N,+3V3*%
%TA.AperFunction,SMDPad,CuDef*%
G36*
G01*
X26213750Y-54787500D02*
X27126250Y-54787500D01*
G75*
G02*
X27370000Y-55031250I0J-243750D01*
G01*
X27370000Y-55518750D01*
G75*
G02*
X27126250Y-55762500I-243750J0D01*
G01*
X26213750Y-55762500D01*
G75*
G02*
X25970000Y-55518750I0J243750D01*
G01*
X25970000Y-55031250D01*
G75*
G02*
X26213750Y-54787500I243750J0D01*
G01*
G37*
%TD.AperFunction*%
%TD*%
%TO.P,Q1,1*%
%TO.N,Net-(J2-Pad4)*%
%TA.AperFunction,SMDPad,CuDef*%
G36*
G01*
X59330000Y-66779000D02*
X59330000Y-67079000D01*
G75*
G02*
X59180000Y-67229000I-150000J0D01*
G01*
X57530000Y-67229000D01*
G75*
G02*
X57380000Y-67079000I0J150000D01*
G01*
X57380000Y-66779000D01*
G75*
G02*
X57530000Y-66629000I150000J0D01*
G01*
X59180000Y-66629000D01*
G75*
G02*
X59330000Y-66779000I0J-150000D01*
G01*
G37*
%TD.AperFunction*%
%TO.P,Q1,2*%
%TA.AperFunction,SMDPad,CuDef*%
G36*
G01*
X59330000Y-65509000D02*
X59330000Y-65809000D01*
G75*
G02*
X59180000Y-65959000I-150000J0D01*
G01*
X57530000Y-65959000D01*
G75*
G02*
X57380000Y-65809000I0J150000D01*
G01*
X57380000Y-65509000D01*
G75*
G02*
X57530000Y-65359000I150000J0D01*
G01*
X59180000Y-65359000D01*
G75*
G02*
X59330000Y-65509000I0J-150000D01*
G01*
G37*
%TD.AperFunction*%
%TO.P,Q1,3*%
%TA.AperFunction,SMDPad,CuDef*%
G36*
G01*
X59330000Y-64239000D02*
X59330000Y-64539000D01*
G75*
G02*
X59180000Y-64689000I-150000J0D01*
G01*
X57530000Y-64689000D01*
G75*
G02*
X57380000Y-64539000I0J150000D01*
G01*
X57380000Y-64239000D01*
G75*
G02*
X57530000Y-64089000I150000J0D01*
G01*
X59180000Y-64089000D01*
G75*
G02*
X59330000Y-64239000I0J-150000D01*
G01*
G37*
%TD.AperFunction*%
%TO.P,Q1,4*%
%TO.N,/HEATER_GATE*%
%TA.AperFunction,SMDPad,CuDef*%
G36*
G01*
X59330000Y-62969000D02*
X59330000Y-63269000D01*
G75*
G02*
X59180000Y-63419000I-150000J0D01*
G01*
X57530000Y-63419000D01*
G75*
G02*
X57380000Y-63269000I0J150000D01*
G01*
X57380000Y-62969000D01*
G75*
G02*
X57530000Y-62819000I150000J0D01*
G01*
X59180000Y-62819000D01*
G75*
G02*
X59330000Y-62969000I0J-150000D01*
G01*
G37*
%TD.AperFunction*%
%TO.P,Q1,5*%
%TO.N,VDC*%
%TA.AperFunction,SMDPad,CuDef*%
G36*
G01*
X54380000Y-62969000D02*
X54380000Y-63269000D01*
G75*
G02*
X54230000Y-63419000I-150000J0D01*
G01*
X52580000Y-63419000D01*
G75*
G02*
X52430000Y-63269000I0J150000D01*
G01*
X52430000Y-62969000D01*
G75*
G02*
X52580000Y-62819000I150000J0D01*
G01*
X54230000Y-62819000D01*
G75*
G02*
X54380000Y-62969000I0J-150000D01*
G01*
G37*
%TD.AperFunction*%
%TO.P,Q1,6*%
%TA.AperFunction,SMDPad,CuDef*%
G36*
G01*
X54380000Y-64239000D02*
X54380000Y-64539000D01*
G75*
G02*
X54230000Y-64689000I-150000J0D01*
G01*
X52580000Y-64689000D01*
G75*
G02*
X52430000Y-64539000I0J150000D01*
G01*
X52430000Y-64239000D01*
G75*
G02*
X52580000Y-64089000I150000J0D01*
G01*
X54230000Y-64089000D01*
G75*
G02*
X54380000Y-64239000I0J-150000D01*
G01*
G37*
%TD.AperFunction*%
%TO.P,Q1,7*%
%TA.AperFunction,SMDPad,CuDef*%
G36*
G01*
X54380000Y-65509000D02*
X54380000Y-65809000D01*
G75*
G02*
X54230000Y-65959000I-150000J0D01*
G01*
X52580000Y-65959000D01*
G75*
G02*
X52430000Y-65809000I0J150000D01*
G01*
X52430000Y-65509000D01*
G75*
G02*
X52580000Y-65359000I150000J0D01*
G01*
X54230000Y-65359000D01*
G75*
G02*
X54380000Y-65509000I0J-150000D01*
G01*
G37*
%TD.AperFunction*%
%TO.P,Q1,8*%
%TA.AperFunction,SMDPad,CuDef*%
G36*
G01*
X54380000Y-66779000D02*
X54380000Y-67079000D01*
G75*
G02*
X54230000Y-67229000I-150000J0D01*
G01*
X52580000Y-67229000D01*
G75*
G02*
X52430000Y-67079000I0J150000D01*
G01*
X52430000Y-66779000D01*
G75*
G02*
X52580000Y-66629000I150000J0D01*
G01*
X54230000Y-66629000D01*
G75*
G02*
X54380000Y-66779000I0J-150000D01*
G01*
G37*
%TD.AperFunction*%
%TD*%
%TO.P,R1,2*%
%TO.N,Net-(J2-Pad4)*%
%TA.AperFunction,SMDPad,CuDef*%
G36*
G01*
X60068750Y-64256500D02*
X60581250Y-64256500D01*
G75*
G02*
X60800000Y-64475250I0J-218750D01*
G01*
X60800000Y-64912750D01*
G75*
G02*
X60581250Y-65131500I-218750J0D01*
G01*
X60068750Y-65131500D01*
G75*
G02*
X59850000Y-64912750I0J218750D01*
G01*
X59850000Y-64475250D01*
G75*
G02*
X60068750Y-64256500I218750J0D01*
G01*
G37*
%TD.AperFunction*%
%TO.P,R1,1*%
%TO.N,/HEATER_GATE*%
%TA.AperFunction,SMDPad,CuDef*%
G36*
G01*
X60068750Y-62681500D02*
X60581250Y-62681500D01*
G75*
G02*
X60800000Y-62900250I0J-218750D01*
G01*
X60800000Y-63337750D01*
G75*
G02*
X60581250Y-63556500I-218750J0D01*
G01*
X60068750Y-63556500D01*
G75*
G02*
X59850000Y-63337750I0J218750D01*
G01*
X59850000Y-62900250D01*
G75*
G02*
X60068750Y-62681500I218750J0D01*
G01*
G37*
%TD.AperFunction*%
%TD*%
%TO.P,R3,1*%
%TO.N,Net-(D1-Pad2)*%
%TA.AperFunction,SMDPad,CuDef*%
G36*
G01*
X58163750Y-59201500D02*
X58676250Y-59201500D01*
G75*
G02*
X58895000Y-59420250I0J-218750D01*
G01*
X58895000Y-59857750D01*
G75*
G02*
X58676250Y-60076500I-218750J0D01*
G01*
X58163750Y-60076500D01*
G75*
G02*
X57945000Y-59857750I0J218750D01*
G01*
X57945000Y-59420250D01*
G75*
G02*
X58163750Y-59201500I218750J0D01*
G01*
G37*
%TD.AperFunction*%
%TO.P,R3,2*%
%TO.N,Net-(J2-Pad4)*%
%TA.AperFunction,SMDPad,CuDef*%
G36*
G01*
X58163750Y-60776500D02*
X58676250Y-60776500D01*
G75*
G02*
X58895000Y-60995250I0J-218750D01*
G01*
X58895000Y-61432750D01*
G75*
G02*
X58676250Y-61651500I-218750J0D01*
G01*
X58163750Y-61651500D01*
G75*
G02*
X57945000Y-61432750I0J218750D01*
G01*
X57945000Y-60995250D01*
G75*
G02*
X58163750Y-60776500I218750J0D01*
G01*
G37*
%TD.AperFunction*%
%TD*%
%TO.P,R5,2*%
%TO.N,Net-(R5-Pad2)*%
%TA.AperFunction,SMDPad,CuDef*%
G36*
G01*
X54861750Y-59024000D02*
X55374250Y-59024000D01*
G75*
G02*
X55593000Y-59242750I0J-218750D01*
G01*
X55593000Y-59680250D01*
G75*
G02*
X55374250Y-59899000I-218750J0D01*
G01*
X54861750Y-59899000D01*
G75*
G02*
X54643000Y-59680250I0J218750D01*
G01*
X54643000Y-59242750D01*
G75*
G02*
X54861750Y-59024000I218750J0D01*
G01*
G37*
%TD.AperFunction*%
%TO.P,R5,1*%
%TO.N,/V_TC_AMP*%
%TA.AperFunction,SMDPad,CuDef*%
G36*
G01*
X54861750Y-57449000D02*
X55374250Y-57449000D01*
G75*
G02*
X55593000Y-57667750I0J-218750D01*
G01*
X55593000Y-58105250D01*
G75*
G02*
X55374250Y-58324000I-218750J0D01*
G01*
X54861750Y-58324000D01*
G75*
G02*
X54643000Y-58105250I0J218750D01*
G01*
X54643000Y-57667750D01*
G75*
G02*
X54861750Y-57449000I218750J0D01*
G01*
G37*
%TD.AperFunction*%
%TD*%
%TO.P,R6,1*%
%TO.N,Net-(R5-Pad2)*%
%TA.AperFunction,SMDPad,CuDef*%
G36*
G01*
X56898250Y-59899000D02*
X56385750Y-59899000D01*
G75*
G02*
X56167000Y-59680250I0J218750D01*
G01*
X56167000Y-59242750D01*
G75*
G02*
X56385750Y-59024000I218750J0D01*
G01*
X56898250Y-59024000D01*
G75*
G02*
X57117000Y-59242750I0J-218750D01*
G01*
X57117000Y-59680250D01*
G75*
G02*
X56898250Y-59899000I-218750J0D01*
G01*
G37*
%TD.AperFunction*%
%TO.P,R6,2*%
%TO.N,GND*%
%TA.AperFunction,SMDPad,CuDef*%
G36*
G01*
X56898250Y-58324000D02*
X56385750Y-58324000D01*
G75*
G02*
X56167000Y-58105250I0J218750D01*
G01*
X56167000Y-57667750D01*
G75*
G02*
X56385750Y-57449000I218750J0D01*
G01*
X56898250Y-57449000D01*
G75*
G02*
X57117000Y-57667750I0J-218750D01*
G01*
X57117000Y-58105250D01*
G75*
G02*
X56898250Y-58324000I-218750J0D01*
G01*
G37*
%TD.AperFunction*%
%TD*%
%TO.P,R2,1*%
%TO.N,/IDLE_SW*%
%TA.AperFunction,SMDPad,CuDef*%
G36*
G01*
X36392500Y-66550250D02*
X36392500Y-66037750D01*
G75*
G02*
X36611250Y-65819000I218750J0D01*
G01*
X37048750Y-65819000D01*
G75*
G02*
X37267500Y-66037750I0J-218750D01*
G01*
X37267500Y-66550250D01*
G75*
G02*
X37048750Y-66769000I-218750J0D01*
G01*
X36611250Y-66769000D01*
G75*
G02*
X36392500Y-66550250I0J218750D01*
G01*
G37*
%TD.AperFunction*%
%TO.P,R2,2*%
%TO.N,Net-(J2-Pad3)*%
%TA.AperFunction,SMDPad,CuDef*%
G36*
G01*
X37967500Y-66550250D02*
X37967500Y-66037750D01*
G75*
G02*
X38186250Y-65819000I218750J0D01*
G01*
X38623750Y-65819000D01*
G75*
G02*
X38842500Y-66037750I0J-218750D01*
G01*
X38842500Y-66550250D01*
G75*
G02*
X38623750Y-66769000I-218750J0D01*
G01*
X38186250Y-66769000D01*
G75*
G02*
X37967500Y-66550250I0J218750D01*
G01*
G37*
%TD.AperFunction*%
%TD*%
%TO.P,R7,1*%
%TO.N,VDC*%
%TA.AperFunction,SMDPad,CuDef*%
G36*
G01*
X58422250Y-49510500D02*
X57909750Y-49510500D01*
G75*
G02*
X57691000Y-49291750I0J218750D01*
G01*
X57691000Y-48854250D01*
G75*
G02*
X57909750Y-48635500I218750J0D01*
G01*
X58422250Y-48635500D01*
G75*
G02*
X58641000Y-48854250I0J-218750D01*
G01*
X58641000Y-49291750D01*
G75*
G02*
X58422250Y-49510500I-218750J0D01*
G01*
G37*
%TD.AperFunction*%
%TO.P,R7,2*%
%TO.N,/VDC_SENSE*%
%TA.AperFunction,SMDPad,CuDef*%
G36*
G01*
X58422250Y-47935500D02*
X57909750Y-47935500D01*
G75*
G02*
X57691000Y-47716750I0J218750D01*
G01*
X57691000Y-47279250D01*
G75*
G02*
X57909750Y-47060500I218750J0D01*
G01*
X58422250Y-47060500D01*
G75*
G02*
X58641000Y-47279250I0J-218750D01*
G01*
X58641000Y-47716750D01*
G75*
G02*
X58422250Y-47935500I-218750J0D01*
G01*
G37*
%TD.AperFunction*%
%TD*%
%TO.P,R8,2*%
%TO.N,GND*%
%TA.AperFunction,SMDPad,CuDef*%
G36*
G01*
X60827500Y-47754250D02*
X60827500Y-47241750D01*
G75*
G02*
X61046250Y-47023000I218750J0D01*
G01*
X61483750Y-47023000D01*
G75*
G02*
X61702500Y-47241750I0J-218750D01*
G01*
X61702500Y-47754250D01*
G75*
G02*
X61483750Y-47973000I-218750J0D01*
G01*
X61046250Y-47973000D01*
G75*
G02*
X60827500Y-47754250I0J218750D01*
G01*
G37*
%TD.AperFunction*%
%TO.P,R8,1*%
%TO.N,/VDC_SENSE*%
%TA.AperFunction,SMDPad,CuDef*%
G36*
G01*
X59252500Y-47754250D02*
X59252500Y-47241750D01*
G75*
G02*
X59471250Y-47023000I218750J0D01*
G01*
X59908750Y-47023000D01*
G75*
G02*
X60127500Y-47241750I0J-218750D01*
G01*
X60127500Y-47754250D01*
G75*
G02*
X59908750Y-47973000I-218750J0D01*
G01*
X59471250Y-47973000D01*
G75*
G02*
X59252500Y-47754250I0J218750D01*
G01*
G37*
%TD.AperFunction*%
%TD*%
%TO.P,R9,2*%
%TO.N,/UC_RST*%
%TA.AperFunction,SMDPad,CuDef*%
G36*
G01*
X31493750Y-47111500D02*
X32006250Y-47111500D01*
G75*
G02*
X32225000Y-47330250I0J-218750D01*
G01*
X32225000Y-47767750D01*
G75*
G02*
X32006250Y-47986500I-218750J0D01*
G01*
X31493750Y-47986500D01*
G75*
G02*
X31275000Y-47767750I0J218750D01*
G01*
X31275000Y-47330250D01*
G75*
G02*
X31493750Y-47111500I218750J0D01*
G01*
G37*
%TD.AperFunction*%
%TO.P,R9,1*%
%TO.N,+3V3*%
%TA.AperFunction,SMDPad,CuDef*%
G36*
G01*
X31493750Y-45536500D02*
X32006250Y-45536500D01*
G75*
G02*
X32225000Y-45755250I0J-218750D01*
G01*
X32225000Y-46192750D01*
G75*
G02*
X32006250Y-46411500I-218750J0D01*
G01*
X31493750Y-46411500D01*
G75*
G02*
X31275000Y-46192750I0J218750D01*
G01*
X31275000Y-45755250D01*
G75*
G02*
X31493750Y-45536500I218750J0D01*
G01*
G37*
%TD.AperFunction*%
%TD*%
%TO.P,R10,1*%
%TO.N,/UC_BOOT*%
%TA.AperFunction,SMDPad,CuDef*%
G36*
G01*
X30482250Y-47935500D02*
X29969750Y-47935500D01*
G75*
G02*
X29751000Y-47716750I0J218750D01*
G01*
X29751000Y-47279250D01*
G75*
G02*
X29969750Y-47060500I218750J0D01*
G01*
X30482250Y-47060500D01*
G75*
G02*
X30701000Y-47279250I0J-218750D01*
G01*
X30701000Y-47716750D01*
G75*
G02*
X30482250Y-47935500I-218750J0D01*
G01*
G37*
%TD.AperFunction*%
%TO.P,R10,2*%
%TO.N,GND*%
%TA.AperFunction,SMDPad,CuDef*%
G36*
G01*
X30482250Y-46360500D02*
X29969750Y-46360500D01*
G75*
G02*
X29751000Y-46141750I0J218750D01*
G01*
X29751000Y-45704250D01*
G75*
G02*
X29969750Y-45485500I218750J0D01*
G01*
X30482250Y-45485500D01*
G75*
G02*
X30701000Y-45704250I0J-218750D01*
G01*
X30701000Y-46141750D01*
G75*
G02*
X30482250Y-46360500I-218750J0D01*
G01*
G37*
%TD.AperFunction*%
%TD*%
D11*
%TO.P,SW1,S2*%
%TO.N,GND*%
X32686000Y-28934000D03*
%TO.P,SW1,S1*%
%TO.N,/ENCODER_SW*%
X27686000Y-28934000D03*
D17*
%TO.P,SW1,MP*%
%TO.N,N/C*%
X35786000Y-35934000D03*
X24586000Y-35934000D03*
D11*
%TO.P,SW1,B*%
%TO.N,/ENCODER_B*%
X32686000Y-43434000D03*
%TO.P,SW1,C*%
%TO.N,GND*%
X30186000Y-43434000D03*
D10*
%TO.P,SW1,A*%
%TO.N,/ENCODER_A*%
X27686000Y-43434000D03*
%TD*%
%TO.P,U1,1*%
%TO.N,/UC_BOOT*%
%TA.AperFunction,SMDPad,CuDef*%
G36*
G01*
X32722000Y-56357000D02*
X32722000Y-56157000D01*
G75*
G02*
X32822000Y-56057000I100000J0D01*
G01*
X34097000Y-56057000D01*
G75*
G02*
X34197000Y-56157000I0J-100000D01*
G01*
X34197000Y-56357000D01*
G75*
G02*
X34097000Y-56457000I-100000J0D01*
G01*
X32822000Y-56457000D01*
G75*
G02*
X32722000Y-56357000I0J100000D01*
G01*
G37*
%TD.AperFunction*%
%TO.P,U1,2*%
%TO.N,Net-(C3-Pad1)*%
%TA.AperFunction,SMDPad,CuDef*%
G36*
G01*
X32722000Y-57007000D02*
X32722000Y-56807000D01*
G75*
G02*
X32822000Y-56707000I100000J0D01*
G01*
X34097000Y-56707000D01*
G75*
G02*
X34197000Y-56807000I0J-100000D01*
G01*
X34197000Y-57007000D01*
G75*
G02*
X34097000Y-57107000I-100000J0D01*
G01*
X32822000Y-57107000D01*
G75*
G02*
X32722000Y-57007000I0J100000D01*
G01*
G37*
%TD.AperFunction*%
%TO.P,U1,3*%
%TO.N,Net-(C6-Pad1)*%
%TA.AperFunction,SMDPad,CuDef*%
G36*
G01*
X32722000Y-57657000D02*
X32722000Y-57457000D01*
G75*
G02*
X32822000Y-57357000I100000J0D01*
G01*
X34097000Y-57357000D01*
G75*
G02*
X34197000Y-57457000I0J-100000D01*
G01*
X34197000Y-57657000D01*
G75*
G02*
X34097000Y-57757000I-100000J0D01*
G01*
X32822000Y-57757000D01*
G75*
G02*
X32722000Y-57657000I0J100000D01*
G01*
G37*
%TD.AperFunction*%
%TO.P,U1,4*%
%TO.N,/UC_RST*%
%TA.AperFunction,SMDPad,CuDef*%
G36*
G01*
X32722000Y-58307000D02*
X32722000Y-58107000D01*
G75*
G02*
X32822000Y-58007000I100000J0D01*
G01*
X34097000Y-58007000D01*
G75*
G02*
X34197000Y-58107000I0J-100000D01*
G01*
X34197000Y-58307000D01*
G75*
G02*
X34097000Y-58407000I-100000J0D01*
G01*
X32822000Y-58407000D01*
G75*
G02*
X32722000Y-58307000I0J100000D01*
G01*
G37*
%TD.AperFunction*%
%TO.P,U1,5*%
%TO.N,VDDA*%
%TA.AperFunction,SMDPad,CuDef*%
G36*
G01*
X32722000Y-58957000D02*
X32722000Y-58757000D01*
G75*
G02*
X32822000Y-58657000I100000J0D01*
G01*
X34097000Y-58657000D01*
G75*
G02*
X34197000Y-58757000I0J-100000D01*
G01*
X34197000Y-58957000D01*
G75*
G02*
X34097000Y-59057000I-100000J0D01*
G01*
X32822000Y-59057000D01*
G75*
G02*
X32722000Y-58957000I0J100000D01*
G01*
G37*
%TD.AperFunction*%
%TO.P,U1,6*%
%TO.N,/V_TC_AMP*%
%TA.AperFunction,SMDPad,CuDef*%
G36*
G01*
X32722000Y-59607000D02*
X32722000Y-59407000D01*
G75*
G02*
X32822000Y-59307000I100000J0D01*
G01*
X34097000Y-59307000D01*
G75*
G02*
X34197000Y-59407000I0J-100000D01*
G01*
X34197000Y-59607000D01*
G75*
G02*
X34097000Y-59707000I-100000J0D01*
G01*
X32822000Y-59707000D01*
G75*
G02*
X32722000Y-59607000I0J100000D01*
G01*
G37*
%TD.AperFunction*%
%TO.P,U1,7*%
%TO.N,/VDC_SENSE*%
%TA.AperFunction,SMDPad,CuDef*%
G36*
G01*
X32722000Y-60257000D02*
X32722000Y-60057000D01*
G75*
G02*
X32822000Y-59957000I100000J0D01*
G01*
X34097000Y-59957000D01*
G75*
G02*
X34197000Y-60057000I0J-100000D01*
G01*
X34197000Y-60257000D01*
G75*
G02*
X34097000Y-60357000I-100000J0D01*
G01*
X32822000Y-60357000D01*
G75*
G02*
X32722000Y-60257000I0J100000D01*
G01*
G37*
%TD.AperFunction*%
%TO.P,U1,8*%
%TO.N,/UART_TX*%
%TA.AperFunction,SMDPad,CuDef*%
G36*
G01*
X32722000Y-60907000D02*
X32722000Y-60707000D01*
G75*
G02*
X32822000Y-60607000I100000J0D01*
G01*
X34097000Y-60607000D01*
G75*
G02*
X34197000Y-60707000I0J-100000D01*
G01*
X34197000Y-60907000D01*
G75*
G02*
X34097000Y-61007000I-100000J0D01*
G01*
X32822000Y-61007000D01*
G75*
G02*
X32722000Y-60907000I0J100000D01*
G01*
G37*
%TD.AperFunction*%
%TO.P,U1,9*%
%TO.N,/UART_RX*%
%TA.AperFunction,SMDPad,CuDef*%
G36*
G01*
X32722000Y-61557000D02*
X32722000Y-61357000D01*
G75*
G02*
X32822000Y-61257000I100000J0D01*
G01*
X34097000Y-61257000D01*
G75*
G02*
X34197000Y-61357000I0J-100000D01*
G01*
X34197000Y-61557000D01*
G75*
G02*
X34097000Y-61657000I-100000J0D01*
G01*
X32822000Y-61657000D01*
G75*
G02*
X32722000Y-61557000I0J100000D01*
G01*
G37*
%TD.AperFunction*%
%TO.P,U1,10*%
%TO.N,/ENCODER_A*%
%TA.AperFunction,SMDPad,CuDef*%
G36*
G01*
X32722000Y-62207000D02*
X32722000Y-62007000D01*
G75*
G02*
X32822000Y-61907000I100000J0D01*
G01*
X34097000Y-61907000D01*
G75*
G02*
X34197000Y-62007000I0J-100000D01*
G01*
X34197000Y-62207000D01*
G75*
G02*
X34097000Y-62307000I-100000J0D01*
G01*
X32822000Y-62307000D01*
G75*
G02*
X32722000Y-62207000I0J100000D01*
G01*
G37*
%TD.AperFunction*%
%TO.P,U1,11*%
%TO.N,/ENCODER_B*%
%TA.AperFunction,SMDPad,CuDef*%
G36*
G01*
X38447000Y-62207000D02*
X38447000Y-62007000D01*
G75*
G02*
X38547000Y-61907000I100000J0D01*
G01*
X39822000Y-61907000D01*
G75*
G02*
X39922000Y-62007000I0J-100000D01*
G01*
X39922000Y-62207000D01*
G75*
G02*
X39822000Y-62307000I-100000J0D01*
G01*
X38547000Y-62307000D01*
G75*
G02*
X38447000Y-62207000I0J100000D01*
G01*
G37*
%TD.AperFunction*%
%TO.P,U1,12*%
%TO.N,/ENCODER_SW*%
%TA.AperFunction,SMDPad,CuDef*%
G36*
G01*
X38447000Y-61557000D02*
X38447000Y-61357000D01*
G75*
G02*
X38547000Y-61257000I100000J0D01*
G01*
X39822000Y-61257000D01*
G75*
G02*
X39922000Y-61357000I0J-100000D01*
G01*
X39922000Y-61557000D01*
G75*
G02*
X39822000Y-61657000I-100000J0D01*
G01*
X38547000Y-61657000D01*
G75*
G02*
X38447000Y-61557000I0J100000D01*
G01*
G37*
%TD.AperFunction*%
%TO.P,U1,13*%
%TO.N,/IDLE_SW*%
%TA.AperFunction,SMDPad,CuDef*%
G36*
G01*
X38447000Y-60907000D02*
X38447000Y-60707000D01*
G75*
G02*
X38547000Y-60607000I100000J0D01*
G01*
X39822000Y-60607000D01*
G75*
G02*
X39922000Y-60707000I0J-100000D01*
G01*
X39922000Y-60907000D01*
G75*
G02*
X39822000Y-61007000I-100000J0D01*
G01*
X38547000Y-61007000D01*
G75*
G02*
X38447000Y-60907000I0J100000D01*
G01*
G37*
%TD.AperFunction*%
%TO.P,U1,14*%
%TO.N,/HEATER_ON*%
%TA.AperFunction,SMDPad,CuDef*%
G36*
G01*
X38447000Y-60257000D02*
X38447000Y-60057000D01*
G75*
G02*
X38547000Y-59957000I100000J0D01*
G01*
X39822000Y-59957000D01*
G75*
G02*
X39922000Y-60057000I0J-100000D01*
G01*
X39922000Y-60257000D01*
G75*
G02*
X39822000Y-60357000I-100000J0D01*
G01*
X38547000Y-60357000D01*
G75*
G02*
X38447000Y-60257000I0J100000D01*
G01*
G37*
%TD.AperFunction*%
%TO.P,U1,15*%
%TO.N,GND*%
%TA.AperFunction,SMDPad,CuDef*%
G36*
G01*
X38447000Y-59607000D02*
X38447000Y-59407000D01*
G75*
G02*
X38547000Y-59307000I100000J0D01*
G01*
X39822000Y-59307000D01*
G75*
G02*
X39922000Y-59407000I0J-100000D01*
G01*
X39922000Y-59607000D01*
G75*
G02*
X39822000Y-59707000I-100000J0D01*
G01*
X38547000Y-59707000D01*
G75*
G02*
X38447000Y-59607000I0J100000D01*
G01*
G37*
%TD.AperFunction*%
%TO.P,U1,16*%
%TO.N,+3V3*%
%TA.AperFunction,SMDPad,CuDef*%
G36*
G01*
X38447000Y-58957000D02*
X38447000Y-58757000D01*
G75*
G02*
X38547000Y-58657000I100000J0D01*
G01*
X39822000Y-58657000D01*
G75*
G02*
X39922000Y-58757000I0J-100000D01*
G01*
X39922000Y-58957000D01*
G75*
G02*
X39822000Y-59057000I-100000J0D01*
G01*
X38547000Y-59057000D01*
G75*
G02*
X38447000Y-58957000I0J100000D01*
G01*
G37*
%TD.AperFunction*%
%TO.P,U1,17*%
%TO.N,/I2C_SCL*%
%TA.AperFunction,SMDPad,CuDef*%
G36*
G01*
X38447000Y-58307000D02*
X38447000Y-58107000D01*
G75*
G02*
X38547000Y-58007000I100000J0D01*
G01*
X39822000Y-58007000D01*
G75*
G02*
X39922000Y-58107000I0J-100000D01*
G01*
X39922000Y-58307000D01*
G75*
G02*
X39822000Y-58407000I-100000J0D01*
G01*
X38547000Y-58407000D01*
G75*
G02*
X38447000Y-58307000I0J100000D01*
G01*
G37*
%TD.AperFunction*%
%TO.P,U1,18*%
%TO.N,/I2C_SDA*%
%TA.AperFunction,SMDPad,CuDef*%
G36*
G01*
X38447000Y-57657000D02*
X38447000Y-57457000D01*
G75*
G02*
X38547000Y-57357000I100000J0D01*
G01*
X39822000Y-57357000D01*
G75*
G02*
X39922000Y-57457000I0J-100000D01*
G01*
X39922000Y-57657000D01*
G75*
G02*
X39822000Y-57757000I-100000J0D01*
G01*
X38547000Y-57757000D01*
G75*
G02*
X38447000Y-57657000I0J100000D01*
G01*
G37*
%TD.AperFunction*%
%TO.P,U1,19*%
%TO.N,/SWDIO*%
%TA.AperFunction,SMDPad,CuDef*%
G36*
G01*
X38447000Y-57007000D02*
X38447000Y-56807000D01*
G75*
G02*
X38547000Y-56707000I100000J0D01*
G01*
X39822000Y-56707000D01*
G75*
G02*
X39922000Y-56807000I0J-100000D01*
G01*
X39922000Y-57007000D01*
G75*
G02*
X39822000Y-57107000I-100000J0D01*
G01*
X38547000Y-57107000D01*
G75*
G02*
X38447000Y-57007000I0J100000D01*
G01*
G37*
%TD.AperFunction*%
%TO.P,U1,20*%
%TO.N,/SWDCLK*%
%TA.AperFunction,SMDPad,CuDef*%
G36*
G01*
X38447000Y-56357000D02*
X38447000Y-56157000D01*
G75*
G02*
X38547000Y-56057000I100000J0D01*
G01*
X39822000Y-56057000D01*
G75*
G02*
X39922000Y-56157000I0J-100000D01*
G01*
X39922000Y-56357000D01*
G75*
G02*
X39822000Y-56457000I-100000J0D01*
G01*
X38547000Y-56457000D01*
G75*
G02*
X38447000Y-56357000I0J100000D01*
G01*
G37*
%TD.AperFunction*%
%TD*%
D18*
%TO.P,U4,1*%
%TO.N,/V_TC_AMP*%
X50760000Y-57724000D03*
%TO.P,U4,2*%
%TO.N,GND*%
X50760000Y-58674000D03*
%TO.P,U4,3*%
%TO.N,Net-(D1-Pad2)*%
X50760000Y-59624000D03*
%TO.P,U4,4*%
%TO.N,Net-(R5-Pad2)*%
X53380000Y-59624000D03*
%TO.P,U4,5*%
%TO.N,+3V3*%
X53380000Y-57724000D03*
%TD*%
D19*
%TO.P,Y1,1*%
%TO.N,Net-(C3-Pad1)*%
X30044000Y-50412000D03*
%TO.P,Y1,2*%
%TO.N,GND*%
X26344000Y-50412000D03*
%TO.P,Y1,3*%
%TO.N,Net-(C6-Pad1)*%
X26344000Y-52712000D03*
%TO.P,Y1,4*%
%TO.N,GND*%
X30044000Y-52712000D03*
%TD*%
D12*
%TO.P,J2,2*%
%TO.N,GND*%
X63881000Y-56134000D03*
%TO.P,J2,3*%
%TO.N,Net-(J2-Pad3)*%
X63881000Y-61214000D03*
D13*
%TO.P,J2,1*%
%TO.N,GND*%
X63881000Y-51054000D03*
D12*
%TO.P,J2,4*%
%TO.N,Net-(J2-Pad4)*%
X63881000Y-66294000D03*
%TD*%
D20*
%TO.P,U3,1*%
%TO.N,GND*%
X44482000Y-64836000D03*
%TO.P,U3,2*%
%TO.N,Net-(C14-Pad1)*%
X44482000Y-66736000D03*
%TO.P,U3,3*%
%TO.N,VDC*%
X46482000Y-65786000D03*
%TD*%
D21*
%TO.P,U6,1*%
%TO.N,/I2C_SCL*%
X38100000Y-52644000D03*
%TO.P,U6,2*%
%TO.N,GND*%
X38100000Y-53594000D03*
%TO.P,U6,3*%
%TO.N,/I2C_SDA*%
X38100000Y-54544000D03*
%TO.P,U6,4*%
%TO.N,+3V3*%
X40300000Y-54544000D03*
%TO.P,U6,5*%
%TO.N,GND*%
X40300000Y-52644000D03*
%TD*%
%TO.P,D2,1*%
%TO.N,GND*%
%TA.AperFunction,SMDPad,CuDef*%
G36*
G01*
X49627500Y-37623000D02*
X50052500Y-37623000D01*
G75*
G02*
X50265000Y-37835500I0J-212500D01*
G01*
X50265000Y-38635500D01*
G75*
G02*
X50052500Y-38848000I-212500J0D01*
G01*
X49627500Y-38848000D01*
G75*
G02*
X49415000Y-38635500I0J212500D01*
G01*
X49415000Y-37835500D01*
G75*
G02*
X49627500Y-37623000I212500J0D01*
G01*
G37*
%TD.AperFunction*%
%TO.P,D2,2*%
%TO.N,Net-(D2-Pad2)*%
%TA.AperFunction,SMDPad,CuDef*%
G36*
G01*
X49627500Y-39248000D02*
X50052500Y-39248000D01*
G75*
G02*
X50265000Y-39460500I0J-212500D01*
G01*
X50265000Y-40260500D01*
G75*
G02*
X50052500Y-40473000I-212500J0D01*
G01*
X49627500Y-40473000D01*
G75*
G02*
X49415000Y-40260500I0J212500D01*
G01*
X49415000Y-39460500D01*
G75*
G02*
X49627500Y-39248000I212500J0D01*
G01*
G37*
%TD.AperFunction*%
%TD*%
%TO.P,R4,1*%
%TO.N,+3V3*%
%TA.AperFunction,SMDPad,CuDef*%
G36*
G01*
X50096250Y-43485500D02*
X49583750Y-43485500D01*
G75*
G02*
X49365000Y-43266750I0J218750D01*
G01*
X49365000Y-42829250D01*
G75*
G02*
X49583750Y-42610500I218750J0D01*
G01*
X50096250Y-42610500D01*
G75*
G02*
X50315000Y-42829250I0J-218750D01*
G01*
X50315000Y-43266750D01*
G75*
G02*
X50096250Y-43485500I-218750J0D01*
G01*
G37*
%TD.AperFunction*%
%TO.P,R4,2*%
%TO.N,Net-(D2-Pad2)*%
%TA.AperFunction,SMDPad,CuDef*%
G36*
G01*
X50096250Y-41910500D02*
X49583750Y-41910500D01*
G75*
G02*
X49365000Y-41691750I0J218750D01*
G01*
X49365000Y-41254250D01*
G75*
G02*
X49583750Y-41035500I218750J0D01*
G01*
X50096250Y-41035500D01*
G75*
G02*
X50315000Y-41254250I0J-218750D01*
G01*
X50315000Y-41691750D01*
G75*
G02*
X50096250Y-41910500I-218750J0D01*
G01*
G37*
%TD.AperFunction*%
%TD*%
D22*
%TO.P,U2,2*%
%TO.N,+3V3*%
X48550000Y-48900000D03*
D23*
X54850000Y-48900000D03*
%TO.P,U2,3*%
%TO.N,VDC*%
X54850000Y-46600000D03*
%TO.P,U2,1*%
%TO.N,GND*%
X54850000Y-51200000D03*
%TD*%
%TO.P,C17,1*%
%TO.N,+3V3*%
%TA.AperFunction,SMDPad,CuDef*%
G36*
G01*
X42161750Y-36621000D02*
X42674250Y-36621000D01*
G75*
G02*
X42893000Y-36839750I0J-218750D01*
G01*
X42893000Y-37277250D01*
G75*
G02*
X42674250Y-37496000I-218750J0D01*
G01*
X42161750Y-37496000D01*
G75*
G02*
X41943000Y-37277250I0J218750D01*
G01*
X41943000Y-36839750D01*
G75*
G02*
X42161750Y-36621000I218750J0D01*
G01*
G37*
%TD.AperFunction*%
%TO.P,C17,2*%
%TO.N,GND*%
%TA.AperFunction,SMDPad,CuDef*%
G36*
G01*
X42161750Y-38196000D02*
X42674250Y-38196000D01*
G75*
G02*
X42893000Y-38414750I0J-218750D01*
G01*
X42893000Y-38852250D01*
G75*
G02*
X42674250Y-39071000I-218750J0D01*
G01*
X42161750Y-39071000D01*
G75*
G02*
X41943000Y-38852250I0J218750D01*
G01*
X41943000Y-38414750D01*
G75*
G02*
X42161750Y-38196000I218750J0D01*
G01*
G37*
%TD.AperFunction*%
%TD*%
D21*
%TO.P,U5,1*%
%TO.N,Net-(C14-Pad1)*%
X48176000Y-62207100D03*
%TO.P,U5,2*%
%TO.N,GND*%
X48176000Y-63157100D03*
%TO.P,U5,3*%
%TO.N,/HEATER_ON*%
X48176000Y-64107100D03*
%TO.P,U5,4*%
%TO.N,GND*%
X50376000Y-64107100D03*
%TO.P,U5,5*%
%TO.N,/HEATER_GATE*%
X50376000Y-62207100D03*
%TD*%
D24*
%TO.N,GND*%
X37846000Y-46228000D03*
X31750000Y-54356000D03*
X27178000Y-45720000D03*
X31242000Y-60130800D03*
X37592000Y-59436000D03*
X43180000Y-63500000D03*
X38608000Y-63246000D03*
X45720000Y-53340000D03*
X36068000Y-40894000D03*
X69291200Y-58877200D03*
X69138800Y-53543200D03*
X69240400Y-63042800D03*
X39928800Y-28956000D03*
X26771600Y-31953200D03*
X32258000Y-39573200D03*
X25806400Y-40792400D03*
X34645600Y-31648400D03*
X25146000Y-61874400D03*
X24892000Y-55270400D03*
X62484000Y-40894000D03*
X69088000Y-48260000D03*
X59944000Y-44958000D03*
X34290000Y-66802000D03*
X29464000Y-35560000D03*
X63500000Y-31242000D03*
X42164000Y-52324000D03*
X63500000Y-69850000D03*
X58420000Y-69850000D03*
X53340000Y-69850000D03*
X48260000Y-69850000D03*
X43180000Y-69850000D03*
X38100000Y-69850000D03*
X33020000Y-69850000D03*
X30480000Y-67310000D03*
X54610000Y-25400000D03*
X47244000Y-27686000D03*
X40640000Y-25400000D03*
X30480000Y-25400000D03*
X68580000Y-33020000D03*
X51308000Y-51054000D03*
X56464200Y-51181000D03*
X52451000Y-49872900D03*
X52044600Y-61137800D03*
X46266100Y-59613800D03*
%TO.N,+3V3*%
X54610000Y-54610000D03*
X33274000Y-48006000D03*
X40894000Y-57912000D03*
X40640000Y-56230800D03*
X29718000Y-56896000D03*
X47752000Y-40386000D03*
%TO.N,VDC*%
X55626000Y-65278000D03*
X55626000Y-63754000D03*
X55626000Y-66802000D03*
X58674000Y-50546000D03*
%TO.N,Net-(J2-Pad3)*%
X39878000Y-66802000D03*
%TO.N,/HEATER_ON*%
X46799500Y-64414400D03*
X40957500Y-60566300D03*
%TO.N,/V_TC_AMP*%
X52070000Y-58674000D03*
X35028361Y-60165071D03*
%TO.N,/VDC_SENSE*%
X41402000Y-62230000D03*
X36322000Y-61722000D03*
%TO.N,/UC_RST*%
X28088082Y-54207918D03*
X33274000Y-49022000D03*
%TO.N,/UC_BOOT*%
X29718000Y-49022000D03*
%TO.N,/I2C_SDA*%
X35854230Y-57150000D03*
X37592000Y-57150000D03*
X37846000Y-55580800D03*
%TO.N,/I2C_SCL*%
X36911460Y-52578000D03*
X36382583Y-51053125D03*
%TD*%
D25*
%TO.N,GND*%
X55880000Y-30353000D02*
X57785000Y-30353000D01*
X58730000Y-30353000D02*
X60325000Y-28758000D01*
X57785000Y-30353000D02*
X58730000Y-30353000D01*
D26*
X63881000Y-51054000D02*
X63881000Y-56134000D01*
D27*
X60325000Y-28758000D02*
X58618000Y-28758000D01*
X58618000Y-28758000D02*
X57658000Y-29718000D01*
D28*
X44142500Y-45442000D02*
X44142500Y-46966000D01*
X44450000Y-64804000D02*
X44482000Y-64836000D01*
X44450000Y-62738000D02*
X44450000Y-64804000D01*
X39873058Y-59507000D02*
X39184500Y-59507000D01*
X40056058Y-59690000D02*
X39873058Y-59507000D01*
X42418000Y-59690000D02*
X40056058Y-59690000D01*
X43942000Y-59690000D02*
X42418000Y-59690000D01*
X26670000Y-60198000D02*
X28194000Y-60198000D01*
X28194000Y-60198000D02*
X29718000Y-60198000D01*
X51282500Y-54610000D02*
X51282500Y-56134000D01*
X56642000Y-57607000D02*
X58420000Y-55829000D01*
X56642000Y-57886500D02*
X56642000Y-57607000D01*
D29*
X58420000Y-55829000D02*
X58420000Y-55880000D01*
X58674000Y-56134000D02*
X63881000Y-56134000D01*
X58420000Y-55880000D02*
X58674000Y-56134000D01*
X52207510Y-53684990D02*
X51282500Y-54610000D01*
X56275990Y-53684990D02*
X52207510Y-53684990D01*
X58420000Y-55829000D02*
X56275990Y-53684990D01*
D28*
X50829998Y-56134000D02*
X51282500Y-56134000D01*
X49824999Y-57138999D02*
X50829998Y-56134000D01*
X49824999Y-58309001D02*
X49824999Y-57138999D01*
X50189998Y-58674000D02*
X49824999Y-58309001D01*
X50760000Y-58674000D02*
X50189998Y-58674000D01*
D30*
X25981500Y-50774500D02*
X26344000Y-50412000D01*
X24130000Y-50774500D02*
X25981500Y-50774500D01*
X31616000Y-52712000D02*
X32258000Y-52070000D01*
X30044000Y-52712000D02*
X31616000Y-52712000D01*
D28*
X37846000Y-46228000D02*
X37846000Y-50038000D01*
X26344000Y-49805000D02*
X26344000Y-50412000D01*
X30226000Y-45923000D02*
X26344000Y-49805000D01*
X30106000Y-52712000D02*
X31750000Y-54356000D01*
X30044000Y-52712000D02*
X30106000Y-52712000D01*
X27381000Y-45923000D02*
X27178000Y-45720000D01*
X30226000Y-45923000D02*
X27381000Y-45923000D01*
X31174800Y-60198000D02*
X31242000Y-60130800D01*
X29718000Y-60198000D02*
X31174800Y-60198000D01*
X39113500Y-59436000D02*
X39184500Y-59507000D01*
X37592000Y-59436000D02*
X39113500Y-59436000D01*
X43942000Y-62738000D02*
X43180000Y-63500000D01*
X44450000Y-62738000D02*
X43942000Y-62738000D01*
X38608000Y-64567000D02*
X38405000Y-64770000D01*
X38608000Y-63246000D02*
X38608000Y-64567000D01*
X45720000Y-57580994D02*
X45720000Y-53340000D01*
X43942000Y-59358994D02*
X45720000Y-57580994D01*
X43942000Y-59690000D02*
X43942000Y-59358994D01*
D26*
X63881000Y-51054000D02*
X63881000Y-44323000D01*
D30*
X38100000Y-63754000D02*
X38608000Y-63246000D01*
X31242000Y-63754000D02*
X38100000Y-63754000D01*
D26*
X48712000Y-28758000D02*
X60325000Y-28758000D01*
X45466000Y-32004000D02*
X48712000Y-28758000D01*
X60985002Y-28758000D02*
X60325000Y-28758000D01*
X63881000Y-31653998D02*
X60985002Y-28758000D01*
D30*
X41844000Y-52644000D02*
X42164000Y-52324000D01*
X40300000Y-52644000D02*
X41844000Y-52644000D01*
X39350000Y-53594000D02*
X40300000Y-52644000D01*
X38100000Y-53594000D02*
X39350000Y-53594000D01*
D26*
X63881000Y-38881000D02*
X63881000Y-31653998D01*
X63881000Y-44323000D02*
X63881000Y-38881000D01*
D28*
X51454000Y-51200000D02*
X51308000Y-51054000D01*
X54850000Y-51200000D02*
X51454000Y-51200000D01*
X41427500Y-39624000D02*
X42418000Y-38633500D01*
X40386000Y-39624000D02*
X41427500Y-39624000D01*
X41750999Y-35719001D02*
X45466000Y-32004000D01*
X40011997Y-35719001D02*
X41750999Y-35719001D01*
X39210999Y-36519999D02*
X40011997Y-35719001D01*
X39210999Y-38448999D02*
X39210999Y-36519999D01*
X40386000Y-39624000D02*
X39210999Y-38448999D01*
X49426000Y-63157100D02*
X48176000Y-63157100D01*
X50376000Y-64107100D02*
X49426000Y-63157100D01*
X45250010Y-63538010D02*
X44450000Y-62738000D01*
X46468984Y-63538010D02*
X45250010Y-63538010D01*
X46849894Y-63157100D02*
X46468984Y-63538010D01*
X48176000Y-63157100D02*
X46849894Y-63157100D01*
D29*
X54869000Y-51181000D02*
X54850000Y-51200000D01*
X56464200Y-51181000D02*
X54869000Y-51181000D01*
D28*
%TO.N,+3V3*%
X45717500Y-45442000D02*
X45717500Y-46966000D01*
X41676000Y-58857000D02*
X39184500Y-58857000D01*
X42418000Y-58115000D02*
X41676000Y-58857000D01*
X43942000Y-58115000D02*
X42418000Y-58115000D01*
X52857500Y-54610000D02*
X52857500Y-56134000D01*
X52857500Y-57201500D02*
X53380000Y-57724000D01*
X52857500Y-56134000D02*
X52857500Y-57201500D01*
X43942000Y-51562000D02*
X45466000Y-50038000D01*
X43942000Y-55118000D02*
X43942000Y-51562000D01*
X43942000Y-58115000D02*
X43942000Y-55118000D01*
X52857500Y-54610000D02*
X54610000Y-54610000D01*
D30*
X33274000Y-47498000D02*
X33274000Y-48006000D01*
X31750000Y-45974000D02*
X33274000Y-47498000D01*
D28*
X42215000Y-57912000D02*
X42418000Y-58115000D01*
X40894000Y-57912000D02*
X42215000Y-57912000D01*
D30*
X40300000Y-55890800D02*
X40640000Y-56230800D01*
X40300000Y-54544000D02*
X40300000Y-55890800D01*
D28*
X26670000Y-55275000D02*
X28097000Y-55275000D01*
X28097000Y-55275000D02*
X29718000Y-56896000D01*
X46616000Y-46966000D02*
X48550000Y-48900000D01*
X45717500Y-46966000D02*
X46616000Y-46966000D01*
X45466000Y-47217500D02*
X45717500Y-46966000D01*
X45466000Y-50038000D02*
X45466000Y-47217500D01*
X48550000Y-48900000D02*
X54850000Y-48900000D01*
X48111500Y-43048000D02*
X45717500Y-45442000D01*
X49840000Y-43048000D02*
X48111500Y-43048000D01*
X47752000Y-40960000D02*
X47752000Y-40386000D01*
X49840000Y-43048000D02*
X47752000Y-40960000D01*
X40411500Y-37058500D02*
X40386000Y-37084000D01*
X42418000Y-37058500D02*
X40411500Y-37058500D01*
D27*
X45466000Y-50038000D02*
X46850300Y-48653700D01*
X48303700Y-48653700D02*
X48550000Y-48900000D01*
X46850300Y-48653700D02*
X48303700Y-48653700D01*
X46850300Y-48653700D02*
X46850300Y-48399700D01*
X46850300Y-48653700D02*
X46850300Y-48387000D01*
X46850300Y-48387000D02*
X46215300Y-47752000D01*
D29*
X45707300Y-49796700D02*
X45466000Y-50038000D01*
X45707300Y-48260000D02*
X45707300Y-49796700D01*
X46215300Y-47752000D02*
X45707300Y-48260000D01*
X45466000Y-50038000D02*
X46761400Y-50038000D01*
X47899400Y-48900000D02*
X48550000Y-48900000D01*
X46761400Y-50038000D02*
X47899400Y-48900000D01*
D30*
%TO.N,Net-(C3-Pad1)*%
X32175000Y-50412000D02*
X32258000Y-50495000D01*
X30044000Y-50412000D02*
X32175000Y-50412000D01*
X32241838Y-56907000D02*
X33459500Y-56907000D01*
X28817799Y-53482961D02*
X32241838Y-56907000D01*
X28817799Y-51638201D02*
X28817799Y-53482961D01*
X30044000Y-50412000D02*
X28817799Y-51638201D01*
D25*
%TO.N,VDC*%
X58115000Y-32258000D02*
X57785000Y-31928000D01*
X60325000Y-32258000D02*
X58115000Y-32258000D01*
X57785000Y-31928000D02*
X55880000Y-31928000D01*
D26*
X55626000Y-65278000D02*
X53594000Y-65278000D01*
D27*
X53405000Y-63119000D02*
X53405000Y-66929000D01*
X53467000Y-63119000D02*
X55626000Y-65278000D01*
X53405000Y-63119000D02*
X53467000Y-63119000D01*
X53975000Y-66929000D02*
X55626000Y-65278000D01*
X53405000Y-66929000D02*
X53975000Y-66929000D01*
X54102000Y-63754000D02*
X53467000Y-63119000D01*
X55626000Y-63754000D02*
X54102000Y-63754000D01*
X53532000Y-66802000D02*
X53405000Y-66929000D01*
X55626000Y-66802000D02*
X53532000Y-66802000D01*
D28*
X48065010Y-67369010D02*
X46482000Y-65786000D01*
X51694990Y-67369010D02*
X48065010Y-67369010D01*
X53405000Y-65659000D02*
X51694990Y-67369010D01*
X42827636Y-64844000D02*
X42418000Y-64844000D01*
X43769636Y-65786000D02*
X42827636Y-64844000D01*
X46482000Y-65786000D02*
X43769636Y-65786000D01*
D30*
X58166000Y-50038000D02*
X58674000Y-50546000D01*
X58166000Y-49073000D02*
X58166000Y-50038000D01*
D28*
X54850000Y-46600000D02*
X54220000Y-46600000D01*
X54220000Y-46600000D02*
X52070000Y-44450000D01*
X52070000Y-35738000D02*
X55880000Y-31928000D01*
X52070000Y-44450000D02*
X52070000Y-35738000D01*
%TO.N,VDDA*%
X26670000Y-58623000D02*
X29718000Y-58623000D01*
X26670000Y-58623000D02*
X26670000Y-57150000D01*
X29718000Y-58623000D02*
X32536942Y-58623000D01*
X32536942Y-58623000D02*
X32770942Y-58857000D01*
X32770942Y-58857000D02*
X33459500Y-58857000D01*
D30*
%TO.N,Net-(C6-Pad1)*%
X25981500Y-52349500D02*
X26344000Y-52712000D01*
X24130000Y-52349500D02*
X25981500Y-52349500D01*
X26344000Y-52712000D02*
X27548456Y-52712000D01*
X32393456Y-57557000D02*
X33459500Y-57557000D01*
X27548456Y-52712000D02*
X32393456Y-57557000D01*
%TO.N,/IDLE_SW*%
X36830000Y-66294000D02*
X36830000Y-64770000D01*
X39922000Y-60807000D02*
X39184500Y-60807000D01*
X40198210Y-61083210D02*
X39922000Y-60807000D01*
X40198210Y-64151772D02*
X40198210Y-61083210D01*
X38828772Y-65521210D02*
X40198210Y-64151772D01*
X37581210Y-65521210D02*
X38828772Y-65521210D01*
X36830000Y-64770000D02*
X37581210Y-65521210D01*
%TO.N,Net-(D1-Pad2)*%
X58420000Y-57404000D02*
X58420000Y-59639000D01*
X57833799Y-60225201D02*
X58420000Y-59639000D01*
X51361201Y-60225201D02*
X57833799Y-60225201D01*
X50760000Y-59624000D02*
X51361201Y-60225201D01*
D26*
%TO.N,Net-(F1-Pad2)*%
X44556000Y-42164000D02*
X44556000Y-38248000D01*
X50546000Y-32258000D02*
X50546000Y-32004000D01*
X44556000Y-38248000D02*
X50546000Y-32258000D01*
D30*
%TO.N,Net-(J2-Pad3)*%
X39370000Y-66294000D02*
X38405000Y-66294000D01*
X39878000Y-66802000D02*
X39370000Y-66294000D01*
%TO.N,/SWDCLK*%
X36953000Y-56257000D02*
X39184500Y-56257000D01*
X36235260Y-52156740D02*
X36235260Y-55539260D01*
X37084000Y-51308000D02*
X36235260Y-52156740D01*
X36235260Y-55539260D02*
X36953000Y-56257000D01*
X39116000Y-51308000D02*
X37084000Y-51308000D01*
X40386000Y-50038000D02*
X39116000Y-51308000D01*
%TO.N,/SWDIO*%
X42926000Y-50800000D02*
X43540790Y-51414790D01*
X42926000Y-50038000D02*
X42926000Y-50800000D01*
X43540790Y-51414790D02*
X43540790Y-56281210D01*
X42915000Y-56907000D02*
X39184500Y-56907000D01*
X43540790Y-56281210D02*
X42915000Y-56907000D01*
%TO.N,/UART_RX*%
X30999000Y-61457000D02*
X33459500Y-61457000D01*
X28702000Y-63754000D02*
X30999000Y-61457000D01*
%TO.N,/UART_TX*%
X29464000Y-62484000D02*
X27432000Y-62484000D01*
X31036290Y-60911710D02*
X29464000Y-62484000D01*
X27432000Y-62484000D02*
X26162000Y-63754000D01*
X33354790Y-60911710D02*
X31036290Y-60911710D01*
X33459500Y-60807000D02*
X33354790Y-60911710D01*
%TO.N,/HEATER_ON*%
X48805000Y-64736100D02*
X48176000Y-64107100D01*
X48805000Y-66294000D02*
X48805000Y-64736100D01*
X47106800Y-64107100D02*
X46799500Y-64414400D01*
X48176000Y-64107100D02*
X47106800Y-64107100D01*
X40548200Y-60157000D02*
X39184500Y-60157000D01*
X40957500Y-60566300D02*
X40548200Y-60157000D01*
D28*
%TO.N,/HEATER_GATE*%
X58355000Y-63119000D02*
X60325000Y-63119000D01*
D30*
X51182201Y-63013301D02*
X50376000Y-62207100D01*
X51182201Y-65366799D02*
X51182201Y-63013301D01*
X50255000Y-66294000D02*
X51182201Y-65366799D01*
D28*
X50539110Y-62043990D02*
X50376000Y-62207100D01*
X57279990Y-62043990D02*
X50539110Y-62043990D01*
X58355000Y-63119000D02*
X57279990Y-62043990D01*
D30*
%TO.N,/V_TC_AMP*%
X54679299Y-58325201D02*
X55118000Y-57886500D01*
X52123601Y-58325201D02*
X54679299Y-58325201D01*
X51522400Y-57724000D02*
X52123601Y-58325201D01*
X50760000Y-57724000D02*
X51522400Y-57724000D01*
X52070000Y-58271600D02*
X52070000Y-58674000D01*
X51522400Y-57724000D02*
X52070000Y-58271600D01*
X34370290Y-59507000D02*
X35028361Y-60165071D01*
X33459500Y-59507000D02*
X34370290Y-59507000D01*
%TO.N,/VDC_SENSE*%
X34473210Y-60551166D02*
X34079044Y-60157000D01*
X36322000Y-61722000D02*
X35504180Y-61722000D01*
X35504180Y-61722000D02*
X34473210Y-60691031D01*
X34473210Y-60691031D02*
X34473210Y-60551166D01*
X34079044Y-60157000D02*
X33459500Y-60157000D01*
X44693210Y-60113772D02*
X42576982Y-62230000D01*
X44693210Y-59700790D02*
X44693210Y-60113772D01*
X51435000Y-52959000D02*
X44693210Y-59700790D01*
X57150000Y-52324000D02*
X56515000Y-52959000D01*
X57150000Y-48514000D02*
X57150000Y-52324000D01*
X42576982Y-62230000D02*
X41402000Y-62230000D01*
X56515000Y-52959000D02*
X51435000Y-52959000D01*
X58166000Y-47498000D02*
X57150000Y-48514000D01*
X58166000Y-47498000D02*
X59690000Y-47498000D01*
%TO.N,/UC_RST*%
X32087164Y-58207000D02*
X28088082Y-54207918D01*
X33459500Y-58207000D02*
X32087164Y-58207000D01*
X31801000Y-47549000D02*
X31750000Y-47549000D01*
X33274000Y-49022000D02*
X31801000Y-47549000D01*
%TO.N,/UC_BOOT*%
X30226000Y-48514000D02*
X29718000Y-49022000D01*
X30226000Y-47498000D02*
X30226000Y-48514000D01*
X33459500Y-50521518D02*
X31959982Y-49022000D01*
X31959982Y-49022000D02*
X29718000Y-49022000D01*
X33459500Y-56257000D02*
X33459500Y-50521518D01*
%TO.N,/ENCODER_SW*%
X33962201Y-44211818D02*
X35178030Y-45427647D01*
X33962201Y-35210201D02*
X33962201Y-44211818D01*
X27686000Y-28934000D02*
X33962201Y-35210201D01*
X38447000Y-61457000D02*
X39184500Y-61457000D01*
X35178030Y-58188030D02*
X38447000Y-61457000D01*
X35178030Y-45427647D02*
X35178030Y-58188030D01*
%TO.N,/ENCODER_B*%
X38391166Y-61933210D02*
X34825620Y-58367664D01*
X39073210Y-61933210D02*
X38391166Y-61933210D01*
X39184500Y-62044500D02*
X39073210Y-61933210D01*
X39184500Y-62107000D02*
X39184500Y-62044500D01*
X34825620Y-45573620D02*
X32686000Y-43434000D01*
X34825620Y-58367664D02*
X34825620Y-45573620D01*
%TO.N,/ENCODER_A*%
X36646577Y-62398201D02*
X33950201Y-62398201D01*
X36998201Y-62046577D02*
X36646577Y-62398201D01*
X36998201Y-61134133D02*
X36998201Y-62046577D01*
X34473210Y-58609142D02*
X36998201Y-61134133D01*
X34473210Y-47173210D02*
X34473210Y-58609142D01*
X32010201Y-44710201D02*
X34473210Y-47173210D01*
X28962201Y-44710201D02*
X32010201Y-44710201D01*
X27686000Y-43434000D02*
X28962201Y-44710201D01*
X33659000Y-62107000D02*
X33459500Y-62107000D01*
X33950201Y-62398201D02*
X33659000Y-62107000D01*
D26*
%TO.N,Net-(J2-Pad4)*%
X63881000Y-66294000D02*
X58674000Y-66294000D01*
X58674000Y-66294000D02*
X58674000Y-65278000D01*
D28*
X60020000Y-64389000D02*
X60325000Y-64694000D01*
X58355000Y-64389000D02*
X60020000Y-64389000D01*
D30*
X60922320Y-61214000D02*
X63881000Y-64172680D01*
X63881000Y-64172680D02*
X63881000Y-66294000D01*
X58420000Y-61214000D02*
X60922320Y-61214000D01*
%TO.N,/I2C_SDA*%
X37999000Y-57557000D02*
X39184500Y-57557000D01*
X37592000Y-57150000D02*
X37999000Y-57557000D01*
X35530440Y-56826210D02*
X35854230Y-57150000D01*
X35530440Y-45495560D02*
X35530440Y-56826210D01*
X37747589Y-43278411D02*
X35530440Y-45495560D01*
X37747589Y-34910011D02*
X37747589Y-43278411D01*
X40386000Y-32271600D02*
X37747589Y-34910011D01*
X40386000Y-32004000D02*
X40386000Y-32271600D01*
X38100000Y-55326800D02*
X37846000Y-55580800D01*
X38100000Y-54544000D02*
X38100000Y-55326800D01*
%TO.N,/I2C_SCL*%
X37648222Y-58207000D02*
X39184500Y-58207000D01*
X36915799Y-57474577D02*
X37648222Y-58207000D01*
X36915799Y-57210791D02*
X36915799Y-57474577D01*
X35882850Y-56177842D02*
X36915799Y-57210791D01*
X38100000Y-43434000D02*
X35882850Y-45651150D01*
X38862000Y-34544000D02*
X38100000Y-35306000D01*
X38100000Y-35306000D02*
X38100000Y-43434000D01*
X40386000Y-34544000D02*
X38862000Y-34544000D01*
X36977460Y-52644000D02*
X36911460Y-52578000D01*
X38100000Y-52644000D02*
X36977460Y-52644000D01*
X36382583Y-51053125D02*
X35950825Y-51053125D01*
X35950825Y-51053125D02*
X35882850Y-50985150D01*
X35882850Y-50985150D02*
X35882850Y-56177842D01*
X35882850Y-45651150D02*
X35882850Y-50985150D01*
D28*
%TO.N,Net-(C14-Pad1)*%
X44040000Y-66294000D02*
X44482000Y-66736000D01*
X42418000Y-66294000D02*
X44040000Y-66294000D01*
X45224990Y-61937990D02*
X46025000Y-62738000D01*
X43614374Y-61937990D02*
X45224990Y-61937990D01*
X41342990Y-64209374D02*
X43614374Y-61937990D01*
X41342990Y-65968990D02*
X41342990Y-64209374D01*
X41668000Y-66294000D02*
X41342990Y-65968990D01*
X42418000Y-66294000D02*
X41668000Y-66294000D01*
X46555900Y-62207100D02*
X48176000Y-62207100D01*
X46025000Y-62738000D02*
X46555900Y-62207100D01*
D30*
%TO.N,Net-(R5-Pad2)*%
X54955500Y-59624000D02*
X55118000Y-59461500D01*
X53380000Y-59624000D02*
X54955500Y-59624000D01*
X55118000Y-59461500D02*
X56642000Y-59461500D01*
%TO.N,Net-(D2-Pad2)*%
X49840000Y-41473000D02*
X49840000Y-39860500D01*
%TD*%
D31*
%TO.N,GND*%
G36*
X70156001Y-70918000D02*
G01*
X23570000Y-70918000D01*
X23570000Y-68155117D01*
X25189000Y-68155117D01*
X25189000Y-68496883D01*
X25255675Y-68832081D01*
X25386463Y-69147831D01*
X25576337Y-69431998D01*
X25818002Y-69673663D01*
X26102169Y-69863537D01*
X26417919Y-69994325D01*
X26753117Y-70061000D01*
X27094883Y-70061000D01*
X27430081Y-69994325D01*
X27745831Y-69863537D01*
X28029998Y-69673663D01*
X28271663Y-69431998D01*
X28461537Y-69147831D01*
X28592325Y-68832081D01*
X28659000Y-68496883D01*
X28659000Y-68155117D01*
X28592325Y-67819919D01*
X28461537Y-67504169D01*
X28271663Y-67220002D01*
X28029998Y-66978337D01*
X27745831Y-66788463D01*
X27430081Y-66657675D01*
X27094883Y-66591000D01*
X26753117Y-66591000D01*
X26417919Y-66657675D01*
X26102169Y-66788463D01*
X25818002Y-66978337D01*
X25576337Y-67220002D01*
X25386463Y-67504169D01*
X25255675Y-67819919D01*
X25189000Y-68155117D01*
X23570000Y-68155117D01*
X23570000Y-53367173D01*
X23706592Y-53408608D01*
X23873750Y-53425072D01*
X24386250Y-53425072D01*
X24553408Y-53408608D01*
X24714142Y-53359850D01*
X24762993Y-53333738D01*
X24768188Y-53386482D01*
X24804498Y-53506180D01*
X24863463Y-53616494D01*
X24942815Y-53713185D01*
X25039506Y-53792537D01*
X25149820Y-53851502D01*
X25269518Y-53887812D01*
X25394000Y-53900072D01*
X27095320Y-53900072D01*
X27092856Y-53906020D01*
X27053082Y-54105979D01*
X27053082Y-54149428D01*
X26213750Y-54149428D01*
X26041715Y-54166372D01*
X25876291Y-54216553D01*
X25723836Y-54298042D01*
X25590208Y-54407708D01*
X25480542Y-54541336D01*
X25399053Y-54693791D01*
X25348872Y-54859215D01*
X25331928Y-55031250D01*
X25331928Y-55518750D01*
X25348872Y-55690785D01*
X25399053Y-55856209D01*
X25480542Y-56008664D01*
X25590208Y-56142292D01*
X25675756Y-56212500D01*
X25590208Y-56282708D01*
X25480542Y-56416336D01*
X25399053Y-56568791D01*
X25348872Y-56734215D01*
X25331928Y-56906250D01*
X25331928Y-57393750D01*
X25348872Y-57565785D01*
X25399053Y-57731209D01*
X25480542Y-57883664D01*
X25590208Y-58017292D01*
X25634356Y-58053523D01*
X25622150Y-58076358D01*
X25573392Y-58237092D01*
X25556928Y-58404250D01*
X25556928Y-58841750D01*
X25573392Y-59008908D01*
X25622150Y-59169642D01*
X25701329Y-59317775D01*
X25807885Y-59447615D01*
X25937725Y-59554171D01*
X26085858Y-59633350D01*
X26246592Y-59682108D01*
X26413750Y-59698572D01*
X26926250Y-59698572D01*
X27093408Y-59682108D01*
X27254142Y-59633350D01*
X27402275Y-59554171D01*
X27432000Y-59529777D01*
X27461725Y-59554171D01*
X27609858Y-59633350D01*
X27770592Y-59682108D01*
X27937750Y-59698572D01*
X28450250Y-59698572D01*
X28617408Y-59682108D01*
X28778142Y-59633350D01*
X28926275Y-59554171D01*
X28956000Y-59529777D01*
X28985725Y-59554171D01*
X29133858Y-59633350D01*
X29294592Y-59682108D01*
X29461750Y-59698572D01*
X29974250Y-59698572D01*
X30141408Y-59682108D01*
X30302142Y-59633350D01*
X30450275Y-59554171D01*
X30580115Y-59447615D01*
X30633143Y-59383000D01*
X32086292Y-59383000D01*
X32083928Y-59407000D01*
X32083928Y-59607000D01*
X32098110Y-59750991D01*
X32122684Y-59832000D01*
X32098110Y-59913009D01*
X32083928Y-60057000D01*
X32083928Y-60200510D01*
X31071218Y-60200510D01*
X31036290Y-60197070D01*
X31001361Y-60200510D01*
X31001354Y-60200510D01*
X30896870Y-60210801D01*
X30762809Y-60251468D01*
X30639257Y-60317508D01*
X30530963Y-60406383D01*
X30508693Y-60433519D01*
X29169413Y-61772800D01*
X27466925Y-61772800D01*
X27431999Y-61769360D01*
X27397073Y-61772800D01*
X27397064Y-61772800D01*
X27292580Y-61783091D01*
X27158519Y-61823758D01*
X27049369Y-61882100D01*
X27034967Y-61889798D01*
X26953808Y-61956403D01*
X26953804Y-61956407D01*
X26926673Y-61978673D01*
X26904407Y-62005804D01*
X26585971Y-62324241D01*
X26308260Y-62269000D01*
X26015740Y-62269000D01*
X25728842Y-62326068D01*
X25458589Y-62438010D01*
X25215368Y-62600525D01*
X25008525Y-62807368D01*
X24846010Y-63050589D01*
X24734068Y-63320842D01*
X24677000Y-63607740D01*
X24677000Y-63900260D01*
X24734068Y-64187158D01*
X24846010Y-64457411D01*
X25008525Y-64700632D01*
X25215368Y-64907475D01*
X25458589Y-65069990D01*
X25728842Y-65181932D01*
X26015740Y-65239000D01*
X26308260Y-65239000D01*
X26595158Y-65181932D01*
X26865411Y-65069990D01*
X27108632Y-64907475D01*
X27315475Y-64700632D01*
X27432000Y-64526240D01*
X27548525Y-64700632D01*
X27755368Y-64907475D01*
X27998589Y-65069990D01*
X28268842Y-65181932D01*
X28555740Y-65239000D01*
X28848260Y-65239000D01*
X29135158Y-65181932D01*
X29405411Y-65069990D01*
X29648632Y-64907475D01*
X29855475Y-64700632D01*
X30017990Y-64457411D01*
X30129932Y-64187158D01*
X30187000Y-63900260D01*
X30187000Y-63607740D01*
X30131759Y-63330028D01*
X31293589Y-62168200D01*
X32083928Y-62168200D01*
X32083928Y-62207000D01*
X32098110Y-62350991D01*
X32140110Y-62489448D01*
X32208316Y-62617051D01*
X32300104Y-62728896D01*
X32411949Y-62820684D01*
X32539552Y-62888890D01*
X32678009Y-62930890D01*
X32822000Y-62945072D01*
X33495495Y-62945072D01*
X33553168Y-62992403D01*
X33676720Y-63058443D01*
X33810781Y-63099110D01*
X33915265Y-63109401D01*
X33915274Y-63109401D01*
X33950200Y-63112841D01*
X33985126Y-63109401D01*
X36611651Y-63109401D01*
X36646577Y-63112841D01*
X36681503Y-63109401D01*
X36681513Y-63109401D01*
X36785997Y-63099110D01*
X36920058Y-63058443D01*
X37043610Y-62992403D01*
X37151904Y-62903528D01*
X37174178Y-62876387D01*
X37476391Y-62574175D01*
X37503528Y-62551904D01*
X37592403Y-62443610D01*
X37658443Y-62320058D01*
X37684925Y-62232758D01*
X37831798Y-62379631D01*
X37865110Y-62489448D01*
X37933316Y-62617051D01*
X38025104Y-62728896D01*
X38136949Y-62820684D01*
X38264552Y-62888890D01*
X38403009Y-62930890D01*
X38547000Y-62945072D01*
X39487010Y-62945072D01*
X39487010Y-63857184D01*
X38534185Y-64810010D01*
X37905572Y-64810010D01*
X37905572Y-64513750D01*
X37889108Y-64346592D01*
X37840350Y-64185858D01*
X37761171Y-64037725D01*
X37654615Y-63907885D01*
X37524775Y-63801329D01*
X37376642Y-63722150D01*
X37215908Y-63673392D01*
X37048750Y-63656928D01*
X36611250Y-63656928D01*
X36444092Y-63673392D01*
X36283358Y-63722150D01*
X36135225Y-63801329D01*
X36005385Y-63907885D01*
X35898829Y-64037725D01*
X35819650Y-64185858D01*
X35770892Y-64346592D01*
X35754428Y-64513750D01*
X35754428Y-65026250D01*
X35770892Y-65193408D01*
X35819650Y-65354142D01*
X35898829Y-65502275D01*
X35923223Y-65532000D01*
X35898829Y-65561725D01*
X35819650Y-65709858D01*
X35770892Y-65870592D01*
X35754428Y-66037750D01*
X35754428Y-66550250D01*
X35770892Y-66717408D01*
X35819650Y-66878142D01*
X35898829Y-67026275D01*
X36005385Y-67156115D01*
X36135225Y-67262671D01*
X36283358Y-67341850D01*
X36444092Y-67390608D01*
X36611250Y-67407072D01*
X37048750Y-67407072D01*
X37215908Y-67390608D01*
X37376642Y-67341850D01*
X37524775Y-67262671D01*
X37617500Y-67186574D01*
X37710225Y-67262671D01*
X37858358Y-67341850D01*
X38019092Y-67390608D01*
X38186250Y-67407072D01*
X38623750Y-67407072D01*
X38790908Y-67390608D01*
X38951642Y-67341850D01*
X38982803Y-67325194D01*
X39074063Y-67461774D01*
X39218226Y-67605937D01*
X39387744Y-67719205D01*
X39576102Y-67797226D01*
X39776061Y-67837000D01*
X39979939Y-67837000D01*
X40179898Y-67797226D01*
X40368256Y-67719205D01*
X40537774Y-67605937D01*
X40681937Y-67461774D01*
X40795205Y-67292256D01*
X40873226Y-67103898D01*
X40913000Y-66903939D01*
X40913000Y-66700061D01*
X40891582Y-66592383D01*
X41029928Y-66730729D01*
X41029928Y-66794000D01*
X41042188Y-66918482D01*
X41078498Y-67038180D01*
X41137463Y-67148494D01*
X41216815Y-67245185D01*
X41313506Y-67324537D01*
X41423820Y-67383502D01*
X41543518Y-67419812D01*
X41668000Y-67432072D01*
X43168000Y-67432072D01*
X43292482Y-67419812D01*
X43412180Y-67383502D01*
X43439135Y-67369094D01*
X43442498Y-67380180D01*
X43501463Y-67490494D01*
X43580815Y-67587185D01*
X43677506Y-67666537D01*
X43787820Y-67725502D01*
X43907518Y-67761812D01*
X44032000Y-67774072D01*
X44932000Y-67774072D01*
X45056482Y-67761812D01*
X45176180Y-67725502D01*
X45286494Y-67666537D01*
X45383185Y-67587185D01*
X45462537Y-67490494D01*
X45521502Y-67380180D01*
X45557812Y-67260482D01*
X45570072Y-67136000D01*
X45570072Y-66624095D01*
X45580815Y-66637185D01*
X45677506Y-66716537D01*
X45787820Y-66775502D01*
X45907518Y-66811812D01*
X46032000Y-66824072D01*
X46445271Y-66824072D01*
X47501211Y-67880013D01*
X47525009Y-67909011D01*
X47640734Y-68003984D01*
X47772763Y-68074556D01*
X47916024Y-68118013D01*
X48027677Y-68129010D01*
X48027686Y-68129010D01*
X48065009Y-68132686D01*
X48102332Y-68129010D01*
X51657668Y-68129010D01*
X51694990Y-68132686D01*
X51732312Y-68129010D01*
X51732323Y-68129010D01*
X51843976Y-68118013D01*
X51987237Y-68074556D01*
X52119266Y-68003984D01*
X52234991Y-67909011D01*
X52258794Y-67880007D01*
X52319312Y-67819489D01*
X52352329Y-67829504D01*
X52420919Y-67913081D01*
X52631812Y-68086157D01*
X52872419Y-68214764D01*
X53133493Y-68293960D01*
X53336963Y-68314000D01*
X53336964Y-68314000D01*
X53405000Y-68320701D01*
X53473037Y-68314000D01*
X53906971Y-68314000D01*
X53975000Y-68320700D01*
X54043029Y-68314000D01*
X54043037Y-68314000D01*
X54246507Y-68293960D01*
X54507581Y-68214764D01*
X54559524Y-68187000D01*
X55694037Y-68187000D01*
X55897507Y-68166960D01*
X56158581Y-68087764D01*
X56399188Y-67959157D01*
X56610081Y-67786081D01*
X56783157Y-67575188D01*
X56844546Y-67460337D01*
X56874742Y-67516829D01*
X56972749Y-67636251D01*
X57092171Y-67734258D01*
X57228418Y-67807084D01*
X57376255Y-67851929D01*
X57530000Y-67867072D01*
X58227321Y-67867072D01*
X58353484Y-67905343D01*
X58674000Y-67936911D01*
X58754322Y-67929000D01*
X62496654Y-67929000D01*
X62520017Y-67952363D01*
X62869698Y-68186012D01*
X63258244Y-68346953D01*
X63670721Y-68429000D01*
X64091279Y-68429000D01*
X64503756Y-68346953D01*
X64892302Y-68186012D01*
X65241983Y-67952363D01*
X65539363Y-67654983D01*
X65773012Y-67305302D01*
X65933953Y-66916756D01*
X66016000Y-66504279D01*
X66016000Y-66083721D01*
X65933953Y-65671244D01*
X65773012Y-65282698D01*
X65539363Y-64933017D01*
X65241983Y-64635637D01*
X64892302Y-64401988D01*
X64592200Y-64277682D01*
X64592200Y-64207605D01*
X64595640Y-64172679D01*
X64592200Y-64137753D01*
X64592200Y-64137744D01*
X64581909Y-64033260D01*
X64541242Y-63899199D01*
X64475202Y-63775647D01*
X64408597Y-63694488D01*
X64408588Y-63694479D01*
X64386326Y-63667353D01*
X64359201Y-63645092D01*
X64063109Y-63349000D01*
X64091279Y-63349000D01*
X64503756Y-63266953D01*
X64892302Y-63106012D01*
X65241983Y-62872363D01*
X65539363Y-62574983D01*
X65773012Y-62225302D01*
X65933953Y-61836756D01*
X66016000Y-61424279D01*
X66016000Y-61003721D01*
X65933953Y-60591244D01*
X65773012Y-60202698D01*
X65539363Y-59853017D01*
X65241983Y-59555637D01*
X64892302Y-59321988D01*
X64503756Y-59161047D01*
X64091279Y-59079000D01*
X63670721Y-59079000D01*
X63258244Y-59161047D01*
X62869698Y-59321988D01*
X62520017Y-59555637D01*
X62222637Y-59853017D01*
X61988988Y-60202698D01*
X61828047Y-60591244D01*
X61746000Y-61003721D01*
X61746000Y-61031893D01*
X61449922Y-60735815D01*
X61427647Y-60708673D01*
X61319353Y-60619798D01*
X61195801Y-60553758D01*
X61061740Y-60513091D01*
X60957256Y-60502800D01*
X60957246Y-60502800D01*
X60922320Y-60499360D01*
X60887394Y-60502800D01*
X59375191Y-60502800D01*
X59312574Y-60426500D01*
X59388671Y-60333775D01*
X59393361Y-60325000D01*
X59436000Y-60325000D01*
X59460776Y-60322560D01*
X59484601Y-60315333D01*
X59506557Y-60303597D01*
X59525803Y-60287803D01*
X59541597Y-60268557D01*
X59553333Y-60246601D01*
X59560560Y-60222776D01*
X59563000Y-60198000D01*
X59563000Y-53340000D01*
X59560560Y-53315224D01*
X59553333Y-53291399D01*
X59541597Y-53269443D01*
X59525803Y-53250197D01*
X59506557Y-53234403D01*
X59484601Y-53222667D01*
X59460776Y-53215440D01*
X59436000Y-53213000D01*
X57266788Y-53213000D01*
X57628196Y-52851593D01*
X57655327Y-52829327D01*
X57677593Y-52802196D01*
X57677598Y-52802191D01*
X57744202Y-52721033D01*
X57810242Y-52597482D01*
X57850909Y-52463420D01*
X57853355Y-52438581D01*
X57861200Y-52358936D01*
X57861200Y-52358929D01*
X57864640Y-52324000D01*
X57861200Y-52289072D01*
X57861200Y-51192510D01*
X57870063Y-51205774D01*
X58014226Y-51349937D01*
X58183744Y-51463205D01*
X58372102Y-51541226D01*
X58572061Y-51581000D01*
X58775939Y-51581000D01*
X58975898Y-51541226D01*
X59164256Y-51463205D01*
X59333774Y-51349937D01*
X59477937Y-51205774D01*
X59591205Y-51036256D01*
X59669226Y-50847898D01*
X59709000Y-50647939D01*
X59709000Y-50444061D01*
X59669226Y-50244102D01*
X59591205Y-50055744D01*
X59477937Y-49886226D01*
X59333774Y-49742063D01*
X59197194Y-49650803D01*
X59213850Y-49619642D01*
X59262608Y-49458908D01*
X59279072Y-49291750D01*
X59279072Y-48854250D01*
X59262608Y-48687092D01*
X59227506Y-48571376D01*
X59304092Y-48594608D01*
X59471250Y-48611072D01*
X59908750Y-48611072D01*
X60075908Y-48594608D01*
X60236642Y-48545850D01*
X60384775Y-48466671D01*
X60514615Y-48360115D01*
X60621171Y-48230275D01*
X60700350Y-48082142D01*
X60749108Y-47921408D01*
X60765572Y-47754250D01*
X60765572Y-47241750D01*
X60749108Y-47074592D01*
X60700350Y-46913858D01*
X60621171Y-46765725D01*
X60514615Y-46635885D01*
X60384775Y-46529329D01*
X60236642Y-46450150D01*
X60075908Y-46401392D01*
X59908750Y-46384928D01*
X59471250Y-46384928D01*
X59304092Y-46401392D01*
X59143358Y-46450150D01*
X58995225Y-46529329D01*
X58923903Y-46587861D01*
X58898275Y-46566829D01*
X58750142Y-46487650D01*
X58589408Y-46438892D01*
X58422250Y-46422428D01*
X57909750Y-46422428D01*
X57742592Y-46438892D01*
X57581858Y-46487650D01*
X57433725Y-46566829D01*
X57303885Y-46673385D01*
X57197329Y-46803225D01*
X57118150Y-46951358D01*
X57069392Y-47112092D01*
X57052928Y-47279250D01*
X57052928Y-47605285D01*
X56671810Y-47986403D01*
X56644673Y-48008674D01*
X56555798Y-48116968D01*
X56489758Y-48240520D01*
X56488072Y-48246078D01*
X56488072Y-48150000D01*
X56475812Y-48025518D01*
X56439502Y-47905820D01*
X56380537Y-47795506D01*
X56343191Y-47750000D01*
X56380537Y-47704494D01*
X56439502Y-47594180D01*
X56475812Y-47474482D01*
X56488072Y-47350000D01*
X56488072Y-45850000D01*
X56475812Y-45725518D01*
X56439502Y-45605820D01*
X56380537Y-45495506D01*
X56301185Y-45398815D01*
X56204494Y-45319463D01*
X56094180Y-45260498D01*
X55974482Y-45224188D01*
X55850000Y-45211928D01*
X53906730Y-45211928D01*
X52830000Y-44135199D01*
X52830000Y-41968495D01*
X53821000Y-41968495D01*
X53821000Y-42359505D01*
X53897282Y-42743003D01*
X54046915Y-43104250D01*
X54264149Y-43429364D01*
X54540636Y-43705851D01*
X54865750Y-43923085D01*
X55226997Y-44072718D01*
X55610495Y-44149000D01*
X56001505Y-44149000D01*
X56385003Y-44072718D01*
X56746250Y-43923085D01*
X57071364Y-43705851D01*
X57347851Y-43429364D01*
X57565085Y-43104250D01*
X57714718Y-42743003D01*
X57791000Y-42359505D01*
X57791000Y-41968495D01*
X57788062Y-41953721D01*
X64921000Y-41953721D01*
X64921000Y-42374279D01*
X65003047Y-42786756D01*
X65163988Y-43175302D01*
X65397637Y-43524983D01*
X65695017Y-43822363D01*
X66044698Y-44056012D01*
X66433244Y-44216953D01*
X66845721Y-44299000D01*
X67266279Y-44299000D01*
X67678756Y-44216953D01*
X68067302Y-44056012D01*
X68416983Y-43822363D01*
X68714363Y-43524983D01*
X68948012Y-43175302D01*
X69108953Y-42786756D01*
X69191000Y-42374279D01*
X69191000Y-41953721D01*
X69108953Y-41541244D01*
X68948012Y-41152698D01*
X68714363Y-40803017D01*
X68416983Y-40505637D01*
X68067302Y-40271988D01*
X67678756Y-40111047D01*
X67266279Y-40029000D01*
X66845721Y-40029000D01*
X66433244Y-40111047D01*
X66044698Y-40271988D01*
X65695017Y-40505637D01*
X65397637Y-40803017D01*
X65163988Y-41152698D01*
X65003047Y-41541244D01*
X64921000Y-41953721D01*
X57788062Y-41953721D01*
X57714718Y-41584997D01*
X57565085Y-41223750D01*
X57347851Y-40898636D01*
X57071364Y-40622149D01*
X56746250Y-40404915D01*
X56385003Y-40255282D01*
X56001505Y-40179000D01*
X55610495Y-40179000D01*
X55226997Y-40255282D01*
X54865750Y-40404915D01*
X54540636Y-40622149D01*
X54264149Y-40898636D01*
X54046915Y-41223750D01*
X53897282Y-41584997D01*
X53821000Y-41968495D01*
X52830000Y-41968495D01*
X52830000Y-36052801D01*
X55820200Y-33062601D01*
X55824248Y-33063000D01*
X57307362Y-33063000D01*
X57308551Y-33064449D01*
X57481377Y-33206284D01*
X57678553Y-33311676D01*
X57892501Y-33376577D01*
X58059248Y-33393000D01*
X58059257Y-33393000D01*
X58114999Y-33398490D01*
X58170741Y-33393000D01*
X58702379Y-33393000D01*
X58735498Y-33502180D01*
X58794463Y-33612494D01*
X58873815Y-33709185D01*
X58970506Y-33788537D01*
X59080820Y-33847502D01*
X59200518Y-33883812D01*
X59325000Y-33896072D01*
X61325000Y-33896072D01*
X61449482Y-33883812D01*
X61569180Y-33847502D01*
X61679494Y-33788537D01*
X61776185Y-33709185D01*
X61855537Y-33612494D01*
X61914502Y-33502180D01*
X61950812Y-33382482D01*
X61963072Y-33258000D01*
X61963072Y-31258000D01*
X61950812Y-31133518D01*
X61914502Y-31013820D01*
X61855537Y-30903506D01*
X61776185Y-30806815D01*
X61679494Y-30727463D01*
X61569180Y-30668498D01*
X61449482Y-30632188D01*
X61325000Y-30619928D01*
X59325000Y-30619928D01*
X59200518Y-30632188D01*
X59080820Y-30668498D01*
X58970506Y-30727463D01*
X58873815Y-30806815D01*
X58794463Y-30903506D01*
X58735498Y-31013820D01*
X58702379Y-31123000D01*
X58663212Y-31123000D01*
X58647115Y-31103385D01*
X58517275Y-30996829D01*
X58369142Y-30917650D01*
X58208408Y-30868892D01*
X58201200Y-30868182D01*
X58007499Y-30809423D01*
X57840752Y-30793000D01*
X57840751Y-30793000D01*
X57785000Y-30787509D01*
X57729249Y-30793000D01*
X55824248Y-30793000D01*
X55657501Y-30809423D01*
X55463800Y-30868182D01*
X55456592Y-30868892D01*
X55295858Y-30917650D01*
X55147725Y-30996829D01*
X55017885Y-31103385D01*
X54911329Y-31233225D01*
X54832150Y-31381358D01*
X54783392Y-31542092D01*
X54770122Y-31676826D01*
X54761423Y-31705501D01*
X54739509Y-31928000D01*
X54745399Y-31987799D01*
X51558998Y-35174201D01*
X51530000Y-35197999D01*
X51506202Y-35226997D01*
X51506201Y-35226998D01*
X51435026Y-35313724D01*
X51364454Y-35445754D01*
X51334180Y-35545558D01*
X51320998Y-35589014D01*
X51319204Y-35607233D01*
X51306324Y-35738000D01*
X51310001Y-35775332D01*
X51310000Y-44412678D01*
X51306324Y-44450000D01*
X51310000Y-44487322D01*
X51310000Y-44487332D01*
X51320997Y-44598985D01*
X51355584Y-44713006D01*
X51364454Y-44742246D01*
X51435026Y-44874276D01*
X51457252Y-44901358D01*
X51529999Y-44990001D01*
X51559003Y-45013804D01*
X53211928Y-46666730D01*
X53211928Y-47350000D01*
X53224188Y-47474482D01*
X53260498Y-47594180D01*
X53319463Y-47704494D01*
X53356809Y-47750000D01*
X53319463Y-47795506D01*
X53260498Y-47905820D01*
X53224188Y-48025518D01*
X53212913Y-48140000D01*
X50188072Y-48140000D01*
X50188072Y-47000000D01*
X50175812Y-46875518D01*
X50139502Y-46755820D01*
X50080537Y-46645506D01*
X50001185Y-46548815D01*
X49904494Y-46469463D01*
X49794180Y-46410498D01*
X49674482Y-46374188D01*
X49550000Y-46361928D01*
X47550000Y-46361928D01*
X47425518Y-46374188D01*
X47305820Y-46410498D01*
X47195506Y-46469463D01*
X47194824Y-46470023D01*
X47179804Y-46455003D01*
X47156001Y-46425999D01*
X47040276Y-46331026D01*
X46908247Y-46260454D01*
X46764986Y-46216997D01*
X46653333Y-46206000D01*
X46653322Y-46206000D01*
X46624930Y-46203204D01*
X46648671Y-46174275D01*
X46727850Y-46026142D01*
X46776608Y-45865408D01*
X46793072Y-45698250D01*
X46793072Y-45441229D01*
X48426302Y-43808000D01*
X48924857Y-43808000D01*
X48977885Y-43872615D01*
X49107725Y-43979171D01*
X49255858Y-44058350D01*
X49416592Y-44107108D01*
X49583750Y-44123572D01*
X50096250Y-44123572D01*
X50263408Y-44107108D01*
X50424142Y-44058350D01*
X50572275Y-43979171D01*
X50702115Y-43872615D01*
X50808671Y-43742775D01*
X50887850Y-43594642D01*
X50936608Y-43433908D01*
X50953072Y-43266750D01*
X50953072Y-42829250D01*
X50936608Y-42662092D01*
X50887850Y-42501358D01*
X50808671Y-42353225D01*
X50732574Y-42260500D01*
X50808671Y-42167775D01*
X50887850Y-42019642D01*
X50936608Y-41858908D01*
X50953072Y-41691750D01*
X50953072Y-41254250D01*
X50936608Y-41087092D01*
X50887850Y-40926358D01*
X50808671Y-40778225D01*
X50764408Y-40724290D01*
X50838326Y-40586000D01*
X50886728Y-40426438D01*
X50903072Y-40260500D01*
X50903072Y-39460500D01*
X50886728Y-39294562D01*
X50838326Y-39135000D01*
X50759725Y-38987948D01*
X50653945Y-38859055D01*
X50525052Y-38753275D01*
X50378000Y-38674674D01*
X50218438Y-38626272D01*
X50052500Y-38609928D01*
X49627500Y-38609928D01*
X49461562Y-38626272D01*
X49302000Y-38674674D01*
X49154948Y-38753275D01*
X49026055Y-38859055D01*
X48920275Y-38987948D01*
X48841674Y-39135000D01*
X48793272Y-39294562D01*
X48776928Y-39460500D01*
X48776928Y-40233425D01*
X48747226Y-40084102D01*
X48669205Y-39895744D01*
X48555937Y-39726226D01*
X48411774Y-39582063D01*
X48242256Y-39468795D01*
X48053898Y-39390774D01*
X47853939Y-39351000D01*
X47650061Y-39351000D01*
X47450102Y-39390774D01*
X47261744Y-39468795D01*
X47092226Y-39582063D01*
X46948063Y-39726226D01*
X46834795Y-39895744D01*
X46756774Y-40084102D01*
X46717000Y-40284061D01*
X46717000Y-40487939D01*
X46756774Y-40687898D01*
X46834795Y-40876256D01*
X46948063Y-41045774D01*
X47002093Y-41099804D01*
X47002997Y-41108985D01*
X47037810Y-41223750D01*
X47046454Y-41252246D01*
X47117026Y-41384276D01*
X47147165Y-41421000D01*
X47211999Y-41500001D01*
X47241003Y-41523804D01*
X48011382Y-42294184D01*
X47962514Y-42298997D01*
X47819253Y-42342454D01*
X47687224Y-42413026D01*
X47571499Y-42507999D01*
X47547701Y-42536997D01*
X45755771Y-44328928D01*
X45498750Y-44328928D01*
X45331592Y-44345392D01*
X45170858Y-44394150D01*
X45022725Y-44473329D01*
X44892885Y-44579885D01*
X44786329Y-44709725D01*
X44707150Y-44857858D01*
X44658392Y-45018592D01*
X44641928Y-45185750D01*
X44641928Y-45698250D01*
X44658392Y-45865408D01*
X44707150Y-46026142D01*
X44786329Y-46174275D01*
X44810723Y-46204000D01*
X44786329Y-46233725D01*
X44707150Y-46381858D01*
X44658392Y-46542592D01*
X44641928Y-46709750D01*
X44641928Y-47222250D01*
X44658392Y-47389408D01*
X44706001Y-47546354D01*
X44706000Y-48759821D01*
X44519368Y-48884525D01*
X44312525Y-49091368D01*
X44196000Y-49265760D01*
X44079475Y-49091368D01*
X43872632Y-48884525D01*
X43629411Y-48722010D01*
X43359158Y-48610068D01*
X43072260Y-48553000D01*
X42779740Y-48553000D01*
X42492842Y-48610068D01*
X42222589Y-48722010D01*
X41979368Y-48884525D01*
X41772525Y-49091368D01*
X41656000Y-49265760D01*
X41539475Y-49091368D01*
X41332632Y-48884525D01*
X41089411Y-48722010D01*
X40819158Y-48610068D01*
X40532260Y-48553000D01*
X40239740Y-48553000D01*
X39952842Y-48610068D01*
X39682589Y-48722010D01*
X39439368Y-48884525D01*
X39232525Y-49091368D01*
X39070010Y-49334589D01*
X38958068Y-49604842D01*
X38901000Y-49891740D01*
X38901000Y-50184260D01*
X38956241Y-50461972D01*
X38821413Y-50596800D01*
X37313843Y-50596800D01*
X37299788Y-50562869D01*
X37186520Y-50393351D01*
X37042357Y-50249188D01*
X36872839Y-50135920D01*
X36684481Y-50057899D01*
X36594050Y-50039911D01*
X36594050Y-45945737D01*
X37498670Y-45041117D01*
X38905000Y-45041117D01*
X38905000Y-45382883D01*
X38971675Y-45718081D01*
X39102463Y-46033831D01*
X39292337Y-46317998D01*
X39534002Y-46559663D01*
X39818169Y-46749537D01*
X40133919Y-46880325D01*
X40469117Y-46947000D01*
X40810883Y-46947000D01*
X41146081Y-46880325D01*
X41461831Y-46749537D01*
X41745998Y-46559663D01*
X41987663Y-46317998D01*
X42177537Y-46033831D01*
X42308325Y-45718081D01*
X42375000Y-45382883D01*
X42375000Y-45041117D01*
X42308325Y-44705919D01*
X42177537Y-44390169D01*
X41987663Y-44106002D01*
X41745998Y-43864337D01*
X41461831Y-43674463D01*
X41146081Y-43543675D01*
X40810883Y-43477000D01*
X40469117Y-43477000D01*
X40133919Y-43543675D01*
X39818169Y-43674463D01*
X39534002Y-43864337D01*
X39292337Y-44106002D01*
X39102463Y-44390169D01*
X38971675Y-44705919D01*
X38905000Y-45041117D01*
X37498670Y-45041117D01*
X38578196Y-43961593D01*
X38605327Y-43939327D01*
X38627593Y-43912196D01*
X38627598Y-43912191D01*
X38694202Y-43831033D01*
X38760242Y-43707482D01*
X38800909Y-43573420D01*
X38803060Y-43551577D01*
X38811200Y-43468936D01*
X38811200Y-43468929D01*
X38814640Y-43434000D01*
X38811200Y-43399072D01*
X38811200Y-35600588D01*
X39107808Y-35303980D01*
X39232525Y-35490632D01*
X39439368Y-35697475D01*
X39613760Y-35814000D01*
X39439368Y-35930525D01*
X39232525Y-36137368D01*
X39070010Y-36380589D01*
X38958068Y-36650842D01*
X38901000Y-36937740D01*
X38901000Y-37230260D01*
X38958068Y-37517158D01*
X39070010Y-37787411D01*
X39232525Y-38030632D01*
X39439368Y-38237475D01*
X39682589Y-38399990D01*
X39952842Y-38511932D01*
X40239740Y-38569000D01*
X40532260Y-38569000D01*
X40819158Y-38511932D01*
X41089411Y-38399990D01*
X41332632Y-38237475D01*
X41539475Y-38030632D01*
X41608946Y-37926661D01*
X41685725Y-37989671D01*
X41833858Y-38068850D01*
X41994592Y-38117608D01*
X42161750Y-38134072D01*
X42674250Y-38134072D01*
X42841408Y-38117608D01*
X42928535Y-38091178D01*
X42913089Y-38248000D01*
X42921001Y-38328329D01*
X42921000Y-40779654D01*
X42897637Y-40803017D01*
X42663988Y-41152698D01*
X42503047Y-41541244D01*
X42421000Y-41953721D01*
X42421000Y-42374279D01*
X42503047Y-42786756D01*
X42663988Y-43175302D01*
X42897637Y-43524983D01*
X43195017Y-43822363D01*
X43544698Y-44056012D01*
X43933244Y-44216953D01*
X44345721Y-44299000D01*
X44766279Y-44299000D01*
X45178756Y-44216953D01*
X45567302Y-44056012D01*
X45916983Y-43822363D01*
X46214363Y-43524983D01*
X46448012Y-43175302D01*
X46608953Y-42786756D01*
X46691000Y-42374279D01*
X46691000Y-41953721D01*
X46608953Y-41541244D01*
X46448012Y-41152698D01*
X46214363Y-40803017D01*
X46191000Y-40779654D01*
X46191000Y-38925238D01*
X51032104Y-34084135D01*
X51168756Y-34056953D01*
X51557302Y-33896012D01*
X51906983Y-33662363D01*
X52204363Y-33364983D01*
X52438012Y-33015302D01*
X52598953Y-32626756D01*
X52681000Y-32214279D01*
X52681000Y-31793721D01*
X52598953Y-31381244D01*
X52438012Y-30992698D01*
X52204363Y-30643017D01*
X51906983Y-30345637D01*
X51557302Y-30111988D01*
X51168756Y-29951047D01*
X50756279Y-29869000D01*
X50335721Y-29869000D01*
X49923244Y-29951047D01*
X49534698Y-30111988D01*
X49185017Y-30345637D01*
X48887637Y-30643017D01*
X48653988Y-30992698D01*
X48493047Y-31381244D01*
X48411000Y-31793721D01*
X48411000Y-32080761D01*
X43531072Y-36960690D01*
X43531072Y-36839750D01*
X43514608Y-36672592D01*
X43465850Y-36511858D01*
X43386671Y-36363725D01*
X43280115Y-36233885D01*
X43150275Y-36127329D01*
X43002142Y-36048150D01*
X42841408Y-35999392D01*
X42674250Y-35982928D01*
X42161750Y-35982928D01*
X41994592Y-35999392D01*
X41833858Y-36048150D01*
X41685725Y-36127329D01*
X41586938Y-36208401D01*
X41539475Y-36137368D01*
X41332632Y-35930525D01*
X41158240Y-35814000D01*
X41332632Y-35697475D01*
X41539475Y-35490632D01*
X41701990Y-35247411D01*
X41813932Y-34977158D01*
X41871000Y-34690260D01*
X41871000Y-34397740D01*
X41813932Y-34110842D01*
X41701990Y-33840589D01*
X41539475Y-33597368D01*
X41407620Y-33465513D01*
X41480180Y-33443502D01*
X41590494Y-33384537D01*
X41687185Y-33305185D01*
X41766537Y-33208494D01*
X41825502Y-33098180D01*
X41861812Y-32978482D01*
X41874072Y-32854000D01*
X41874072Y-31154000D01*
X41861812Y-31029518D01*
X41825502Y-30909820D01*
X41766537Y-30799506D01*
X41687185Y-30702815D01*
X41590494Y-30623463D01*
X41480180Y-30564498D01*
X41360482Y-30528188D01*
X41236000Y-30515928D01*
X39536000Y-30515928D01*
X39411518Y-30528188D01*
X39291820Y-30564498D01*
X39181506Y-30623463D01*
X39084815Y-30702815D01*
X39005463Y-30799506D01*
X38946498Y-30909820D01*
X38910188Y-31029518D01*
X38897928Y-31154000D01*
X38897928Y-32753884D01*
X37568547Y-34083266D01*
X37566537Y-34079506D01*
X37487185Y-33982815D01*
X37390494Y-33903463D01*
X37280180Y-33844498D01*
X37160482Y-33808188D01*
X37036000Y-33795928D01*
X34536000Y-33795928D01*
X34411518Y-33808188D01*
X34291820Y-33844498D01*
X34181506Y-33903463D01*
X34084815Y-33982815D01*
X34005463Y-34079506D01*
X33946885Y-34189096D01*
X29231963Y-29474176D01*
X29258168Y-29410912D01*
X29321000Y-29095033D01*
X29321000Y-28772967D01*
X29258168Y-28457088D01*
X29134918Y-28159537D01*
X28955987Y-27891748D01*
X28728252Y-27664013D01*
X28460463Y-27485082D01*
X28162912Y-27361832D01*
X27847033Y-27299000D01*
X27524967Y-27299000D01*
X27209088Y-27361832D01*
X26911537Y-27485082D01*
X26643748Y-27664013D01*
X26416013Y-27891748D01*
X26237082Y-28159537D01*
X26113832Y-28457088D01*
X26051000Y-28772967D01*
X26051000Y-29095033D01*
X26113832Y-29410912D01*
X26237082Y-29708463D01*
X26416013Y-29976252D01*
X26643748Y-30203987D01*
X26911537Y-30382918D01*
X27209088Y-30506168D01*
X27524967Y-30569000D01*
X27847033Y-30569000D01*
X28162912Y-30506168D01*
X28226176Y-30479963D01*
X33251001Y-35504790D01*
X33251002Y-41898320D01*
X33162912Y-41861832D01*
X32847033Y-41799000D01*
X32524967Y-41799000D01*
X32209088Y-41861832D01*
X31911537Y-41985082D01*
X31643748Y-42164013D01*
X31416013Y-42391748D01*
X31237082Y-42659537D01*
X31113832Y-42957088D01*
X31051000Y-43272967D01*
X31051000Y-43595033D01*
X31113832Y-43910912D01*
X31150320Y-43999001D01*
X29324072Y-43999001D01*
X29324072Y-42434000D01*
X29311812Y-42309518D01*
X29275502Y-42189820D01*
X29216537Y-42079506D01*
X29137185Y-41982815D01*
X29040494Y-41903463D01*
X28930180Y-41844498D01*
X28810482Y-41808188D01*
X28686000Y-41795928D01*
X26686000Y-41795928D01*
X26561518Y-41808188D01*
X26441820Y-41844498D01*
X26331506Y-41903463D01*
X26234815Y-41982815D01*
X26155463Y-42079506D01*
X26096498Y-42189820D01*
X26060188Y-42309518D01*
X26047928Y-42434000D01*
X26047928Y-44434000D01*
X26060188Y-44558482D01*
X26096498Y-44678180D01*
X26155463Y-44788494D01*
X26234815Y-44885185D01*
X26331506Y-44964537D01*
X26441820Y-45023502D01*
X26561518Y-45059812D01*
X26686000Y-45072072D01*
X28318284Y-45072072D01*
X28434603Y-45188391D01*
X28456874Y-45215528D01*
X28484010Y-45237798D01*
X28565168Y-45304403D01*
X28688719Y-45370443D01*
X28822781Y-45411110D01*
X28927265Y-45421401D01*
X28927272Y-45421401D01*
X28962201Y-45424841D01*
X28997129Y-45421401D01*
X30705334Y-45421401D01*
X30702150Y-45427358D01*
X30653392Y-45588092D01*
X30636928Y-45755250D01*
X30636928Y-46192750D01*
X30653392Y-46359908D01*
X30680183Y-46448228D01*
X30649408Y-46438892D01*
X30482250Y-46422428D01*
X29969750Y-46422428D01*
X29802592Y-46438892D01*
X29641858Y-46487650D01*
X29493725Y-46566829D01*
X29363885Y-46673385D01*
X29257329Y-46803225D01*
X29178150Y-46951358D01*
X29129392Y-47112092D01*
X29112928Y-47279250D01*
X29112928Y-47716750D01*
X29129392Y-47883908D01*
X29178150Y-48044642D01*
X29214892Y-48113382D01*
X29058226Y-48218063D01*
X28914063Y-48362226D01*
X28800795Y-48531744D01*
X28722774Y-48720102D01*
X28683000Y-48920061D01*
X28683000Y-49123939D01*
X28722774Y-49323898D01*
X28729357Y-49339792D01*
X28642815Y-49410815D01*
X28563463Y-49507506D01*
X28504498Y-49617820D01*
X28468188Y-49737518D01*
X28455928Y-49862000D01*
X28455928Y-50962000D01*
X28458823Y-50991390D01*
X28339609Y-51110604D01*
X28312472Y-51132875D01*
X28223597Y-51241169D01*
X28157557Y-51364721D01*
X28116890Y-51498782D01*
X28106599Y-51603266D01*
X28106599Y-51603275D01*
X28103159Y-51638201D01*
X28106599Y-51673127D01*
X28106599Y-52264356D01*
X28076058Y-52233815D01*
X28053783Y-52206673D01*
X27945489Y-52117798D01*
X27926731Y-52107772D01*
X27919812Y-52037518D01*
X27883502Y-51917820D01*
X27824537Y-51807506D01*
X27745185Y-51710815D01*
X27648494Y-51631463D01*
X27538180Y-51572498D01*
X27418482Y-51536188D01*
X27294000Y-51523928D01*
X25394000Y-51523928D01*
X25269518Y-51536188D01*
X25149820Y-51572498D01*
X25067361Y-51616574D01*
X24992115Y-51524885D01*
X24862275Y-51418329D01*
X24714142Y-51339150D01*
X24553408Y-51290392D01*
X24386250Y-51273928D01*
X23873750Y-51273928D01*
X23706592Y-51290392D01*
X23570000Y-51331827D01*
X23570000Y-47718973D01*
X23608463Y-47811831D01*
X23798337Y-48095998D01*
X24040002Y-48337663D01*
X24324169Y-48527537D01*
X24639919Y-48658325D01*
X24975117Y-48725000D01*
X25316883Y-48725000D01*
X25652081Y-48658325D01*
X25967831Y-48527537D01*
X26251998Y-48337663D01*
X26493663Y-48095998D01*
X26683537Y-47811831D01*
X26814325Y-47496081D01*
X26881000Y-47160883D01*
X26881000Y-46819117D01*
X26814325Y-46483919D01*
X26683537Y-46168169D01*
X26493663Y-45884002D01*
X26251998Y-45642337D01*
X25967831Y-45452463D01*
X25652081Y-45321675D01*
X25316883Y-45255000D01*
X24975117Y-45255000D01*
X24639919Y-45321675D01*
X24324169Y-45452463D01*
X24040002Y-45642337D01*
X23798337Y-45884002D01*
X23608463Y-46168169D01*
X23570000Y-46261027D01*
X23570000Y-38072072D01*
X25836000Y-38072072D01*
X25960482Y-38059812D01*
X26080180Y-38023502D01*
X26190494Y-37964537D01*
X26287185Y-37885185D01*
X26366537Y-37788494D01*
X26425502Y-37678180D01*
X26461812Y-37558482D01*
X26474072Y-37434000D01*
X26474072Y-34434000D01*
X26461812Y-34309518D01*
X26425502Y-34189820D01*
X26366537Y-34079506D01*
X26287185Y-33982815D01*
X26190494Y-33903463D01*
X26080180Y-33844498D01*
X25960482Y-33808188D01*
X25836000Y-33795928D01*
X23570000Y-33795928D01*
X23570000Y-24975117D01*
X24173000Y-24975117D01*
X24173000Y-25316883D01*
X24239675Y-25652081D01*
X24370463Y-25967831D01*
X24560337Y-26251998D01*
X24802002Y-26493663D01*
X25086169Y-26683537D01*
X25401919Y-26814325D01*
X25737117Y-26881000D01*
X26078883Y-26881000D01*
X26414081Y-26814325D01*
X26729831Y-26683537D01*
X27013998Y-26493663D01*
X27255663Y-26251998D01*
X27445537Y-25967831D01*
X27576325Y-25652081D01*
X27643000Y-25316883D01*
X27643000Y-24975117D01*
X34079000Y-24975117D01*
X34079000Y-25316883D01*
X34145675Y-25652081D01*
X34276463Y-25967831D01*
X34466337Y-26251998D01*
X34708002Y-26493663D01*
X34992169Y-26683537D01*
X35307919Y-26814325D01*
X35643117Y-26881000D01*
X35984883Y-26881000D01*
X36320081Y-26814325D01*
X36635831Y-26683537D01*
X36919998Y-26493663D01*
X37161663Y-26251998D01*
X37351537Y-25967831D01*
X37482325Y-25652081D01*
X37549000Y-25316883D01*
X37549000Y-24975117D01*
X65829000Y-24975117D01*
X65829000Y-25316883D01*
X65895675Y-25652081D01*
X66026463Y-25967831D01*
X66216337Y-26251998D01*
X66458002Y-26493663D01*
X66742169Y-26683537D01*
X67057919Y-26814325D01*
X67393117Y-26881000D01*
X67734883Y-26881000D01*
X68070081Y-26814325D01*
X68385831Y-26683537D01*
X68669998Y-26493663D01*
X68911663Y-26251998D01*
X69101537Y-25967831D01*
X69232325Y-25652081D01*
X69299000Y-25316883D01*
X69299000Y-24975117D01*
X69232325Y-24639919D01*
X69101537Y-24324169D01*
X68911663Y-24040002D01*
X68669998Y-23798337D01*
X68385831Y-23608463D01*
X68070081Y-23477675D01*
X67734883Y-23411000D01*
X67393117Y-23411000D01*
X67057919Y-23477675D01*
X66742169Y-23608463D01*
X66458002Y-23798337D01*
X66216337Y-24040002D01*
X66026463Y-24324169D01*
X65895675Y-24639919D01*
X65829000Y-24975117D01*
X37549000Y-24975117D01*
X37482325Y-24639919D01*
X37351537Y-24324169D01*
X37161663Y-24040002D01*
X36919998Y-23798337D01*
X36635831Y-23608463D01*
X36320081Y-23477675D01*
X35984883Y-23411000D01*
X35643117Y-23411000D01*
X35307919Y-23477675D01*
X34992169Y-23608463D01*
X34708002Y-23798337D01*
X34466337Y-24040002D01*
X34276463Y-24324169D01*
X34145675Y-24639919D01*
X34079000Y-24975117D01*
X27643000Y-24975117D01*
X27576325Y-24639919D01*
X27445537Y-24324169D01*
X27255663Y-24040002D01*
X27013998Y-23798337D01*
X26729831Y-23608463D01*
X26414081Y-23477675D01*
X26078883Y-23411000D01*
X25737117Y-23411000D01*
X25401919Y-23477675D01*
X25086169Y-23608463D01*
X24802002Y-23798337D01*
X24560337Y-24040002D01*
X24370463Y-24324169D01*
X24239675Y-24639919D01*
X24173000Y-24975117D01*
X23570000Y-24975117D01*
X23570000Y-23316000D01*
X70156000Y-23316000D01*
X70156001Y-70918000D01*
G37*
X70156001Y-70918000D02*
X23570000Y-70918000D01*
X23570000Y-68155117D01*
X25189000Y-68155117D01*
X25189000Y-68496883D01*
X25255675Y-68832081D01*
X25386463Y-69147831D01*
X25576337Y-69431998D01*
X25818002Y-69673663D01*
X26102169Y-69863537D01*
X26417919Y-69994325D01*
X26753117Y-70061000D01*
X27094883Y-70061000D01*
X27430081Y-69994325D01*
X27745831Y-69863537D01*
X28029998Y-69673663D01*
X28271663Y-69431998D01*
X28461537Y-69147831D01*
X28592325Y-68832081D01*
X28659000Y-68496883D01*
X28659000Y-68155117D01*
X28592325Y-67819919D01*
X28461537Y-67504169D01*
X28271663Y-67220002D01*
X28029998Y-66978337D01*
X27745831Y-66788463D01*
X27430081Y-66657675D01*
X27094883Y-66591000D01*
X26753117Y-66591000D01*
X26417919Y-66657675D01*
X26102169Y-66788463D01*
X25818002Y-66978337D01*
X25576337Y-67220002D01*
X25386463Y-67504169D01*
X25255675Y-67819919D01*
X25189000Y-68155117D01*
X23570000Y-68155117D01*
X23570000Y-53367173D01*
X23706592Y-53408608D01*
X23873750Y-53425072D01*
X24386250Y-53425072D01*
X24553408Y-53408608D01*
X24714142Y-53359850D01*
X24762993Y-53333738D01*
X24768188Y-53386482D01*
X24804498Y-53506180D01*
X24863463Y-53616494D01*
X24942815Y-53713185D01*
X25039506Y-53792537D01*
X25149820Y-53851502D01*
X25269518Y-53887812D01*
X25394000Y-53900072D01*
X27095320Y-53900072D01*
X27092856Y-53906020D01*
X27053082Y-54105979D01*
X27053082Y-54149428D01*
X26213750Y-54149428D01*
X26041715Y-54166372D01*
X25876291Y-54216553D01*
X25723836Y-54298042D01*
X25590208Y-54407708D01*
X25480542Y-54541336D01*
X25399053Y-54693791D01*
X25348872Y-54859215D01*
X25331928Y-55031250D01*
X25331928Y-55518750D01*
X25348872Y-55690785D01*
X25399053Y-55856209D01*
X25480542Y-56008664D01*
X25590208Y-56142292D01*
X25675756Y-56212500D01*
X25590208Y-56282708D01*
X25480542Y-56416336D01*
X25399053Y-56568791D01*
X25348872Y-56734215D01*
X25331928Y-56906250D01*
X25331928Y-57393750D01*
X25348872Y-57565785D01*
X25399053Y-57731209D01*
X25480542Y-57883664D01*
X25590208Y-58017292D01*
X25634356Y-58053523D01*
X25622150Y-58076358D01*
X25573392Y-58237092D01*
X25556928Y-58404250D01*
X25556928Y-58841750D01*
X25573392Y-59008908D01*
X25622150Y-59169642D01*
X25701329Y-59317775D01*
X25807885Y-59447615D01*
X25937725Y-59554171D01*
X26085858Y-59633350D01*
X26246592Y-59682108D01*
X26413750Y-59698572D01*
X26926250Y-59698572D01*
X27093408Y-59682108D01*
X27254142Y-59633350D01*
X27402275Y-59554171D01*
X27432000Y-59529777D01*
X27461725Y-59554171D01*
X27609858Y-59633350D01*
X27770592Y-59682108D01*
X27937750Y-59698572D01*
X28450250Y-59698572D01*
X28617408Y-59682108D01*
X28778142Y-59633350D01*
X28926275Y-59554171D01*
X28956000Y-59529777D01*
X28985725Y-59554171D01*
X29133858Y-59633350D01*
X29294592Y-59682108D01*
X29461750Y-59698572D01*
X29974250Y-59698572D01*
X30141408Y-59682108D01*
X30302142Y-59633350D01*
X30450275Y-59554171D01*
X30580115Y-59447615D01*
X30633143Y-59383000D01*
X32086292Y-59383000D01*
X32083928Y-59407000D01*
X32083928Y-59607000D01*
X32098110Y-59750991D01*
X32122684Y-59832000D01*
X32098110Y-59913009D01*
X32083928Y-60057000D01*
X32083928Y-60200510D01*
X31071218Y-60200510D01*
X31036290Y-60197070D01*
X31001361Y-60200510D01*
X31001354Y-60200510D01*
X30896870Y-60210801D01*
X30762809Y-60251468D01*
X30639257Y-60317508D01*
X30530963Y-60406383D01*
X30508693Y-60433519D01*
X29169413Y-61772800D01*
X27466925Y-61772800D01*
X27431999Y-61769360D01*
X27397073Y-61772800D01*
X27397064Y-61772800D01*
X27292580Y-61783091D01*
X27158519Y-61823758D01*
X27049369Y-61882100D01*
X27034967Y-61889798D01*
X26953808Y-61956403D01*
X26953804Y-61956407D01*
X26926673Y-61978673D01*
X26904407Y-62005804D01*
X26585971Y-62324241D01*
X26308260Y-62269000D01*
X26015740Y-62269000D01*
X25728842Y-62326068D01*
X25458589Y-62438010D01*
X25215368Y-62600525D01*
X25008525Y-62807368D01*
X24846010Y-63050589D01*
X24734068Y-63320842D01*
X24677000Y-63607740D01*
X24677000Y-63900260D01*
X24734068Y-64187158D01*
X24846010Y-64457411D01*
X25008525Y-64700632D01*
X25215368Y-64907475D01*
X25458589Y-65069990D01*
X25728842Y-65181932D01*
X26015740Y-65239000D01*
X26308260Y-65239000D01*
X26595158Y-65181932D01*
X26865411Y-65069990D01*
X27108632Y-64907475D01*
X27315475Y-64700632D01*
X27432000Y-64526240D01*
X27548525Y-64700632D01*
X27755368Y-64907475D01*
X27998589Y-65069990D01*
X28268842Y-65181932D01*
X28555740Y-65239000D01*
X28848260Y-65239000D01*
X29135158Y-65181932D01*
X29405411Y-65069990D01*
X29648632Y-64907475D01*
X29855475Y-64700632D01*
X30017990Y-64457411D01*
X30129932Y-64187158D01*
X30187000Y-63900260D01*
X30187000Y-63607740D01*
X30131759Y-63330028D01*
X31293589Y-62168200D01*
X32083928Y-62168200D01*
X32083928Y-62207000D01*
X32098110Y-62350991D01*
X32140110Y-62489448D01*
X32208316Y-62617051D01*
X32300104Y-62728896D01*
X32411949Y-62820684D01*
X32539552Y-62888890D01*
X32678009Y-62930890D01*
X32822000Y-62945072D01*
X33495495Y-62945072D01*
X33553168Y-62992403D01*
X33676720Y-63058443D01*
X33810781Y-63099110D01*
X33915265Y-63109401D01*
X33915274Y-63109401D01*
X33950200Y-63112841D01*
X33985126Y-63109401D01*
X36611651Y-63109401D01*
X36646577Y-63112841D01*
X36681503Y-63109401D01*
X36681513Y-63109401D01*
X36785997Y-63099110D01*
X36920058Y-63058443D01*
X37043610Y-62992403D01*
X37151904Y-62903528D01*
X37174178Y-62876387D01*
X37476391Y-62574175D01*
X37503528Y-62551904D01*
X37592403Y-62443610D01*
X37658443Y-62320058D01*
X37684925Y-62232758D01*
X37831798Y-62379631D01*
X37865110Y-62489448D01*
X37933316Y-62617051D01*
X38025104Y-62728896D01*
X38136949Y-62820684D01*
X38264552Y-62888890D01*
X38403009Y-62930890D01*
X38547000Y-62945072D01*
X39487010Y-62945072D01*
X39487010Y-63857184D01*
X38534185Y-64810010D01*
X37905572Y-64810010D01*
X37905572Y-64513750D01*
X37889108Y-64346592D01*
X37840350Y-64185858D01*
X37761171Y-64037725D01*
X37654615Y-63907885D01*
X37524775Y-63801329D01*
X37376642Y-63722150D01*
X37215908Y-63673392D01*
X37048750Y-63656928D01*
X36611250Y-63656928D01*
X36444092Y-63673392D01*
X36283358Y-63722150D01*
X36135225Y-63801329D01*
X36005385Y-63907885D01*
X35898829Y-64037725D01*
X35819650Y-64185858D01*
X35770892Y-64346592D01*
X35754428Y-64513750D01*
X35754428Y-65026250D01*
X35770892Y-65193408D01*
X35819650Y-65354142D01*
X35898829Y-65502275D01*
X35923223Y-65532000D01*
X35898829Y-65561725D01*
X35819650Y-65709858D01*
X35770892Y-65870592D01*
X35754428Y-66037750D01*
X35754428Y-66550250D01*
X35770892Y-66717408D01*
X35819650Y-66878142D01*
X35898829Y-67026275D01*
X36005385Y-67156115D01*
X36135225Y-67262671D01*
X36283358Y-67341850D01*
X36444092Y-67390608D01*
X36611250Y-67407072D01*
X37048750Y-67407072D01*
X37215908Y-67390608D01*
X37376642Y-67341850D01*
X37524775Y-67262671D01*
X37617500Y-67186574D01*
X37710225Y-67262671D01*
X37858358Y-67341850D01*
X38019092Y-67390608D01*
X38186250Y-67407072D01*
X38623750Y-67407072D01*
X38790908Y-67390608D01*
X38951642Y-67341850D01*
X38982803Y-67325194D01*
X39074063Y-67461774D01*
X39218226Y-67605937D01*
X39387744Y-67719205D01*
X39576102Y-67797226D01*
X39776061Y-67837000D01*
X39979939Y-67837000D01*
X40179898Y-67797226D01*
X40368256Y-67719205D01*
X40537774Y-67605937D01*
X40681937Y-67461774D01*
X40795205Y-67292256D01*
X40873226Y-67103898D01*
X40913000Y-66903939D01*
X40913000Y-66700061D01*
X40891582Y-66592383D01*
X41029928Y-66730729D01*
X41029928Y-66794000D01*
X41042188Y-66918482D01*
X41078498Y-67038180D01*
X41137463Y-67148494D01*
X41216815Y-67245185D01*
X41313506Y-67324537D01*
X41423820Y-67383502D01*
X41543518Y-67419812D01*
X41668000Y-67432072D01*
X43168000Y-67432072D01*
X43292482Y-67419812D01*
X43412180Y-67383502D01*
X43439135Y-67369094D01*
X43442498Y-67380180D01*
X43501463Y-67490494D01*
X43580815Y-67587185D01*
X43677506Y-67666537D01*
X43787820Y-67725502D01*
X43907518Y-67761812D01*
X44032000Y-67774072D01*
X44932000Y-67774072D01*
X45056482Y-67761812D01*
X45176180Y-67725502D01*
X45286494Y-67666537D01*
X45383185Y-67587185D01*
X45462537Y-67490494D01*
X45521502Y-67380180D01*
X45557812Y-67260482D01*
X45570072Y-67136000D01*
X45570072Y-66624095D01*
X45580815Y-66637185D01*
X45677506Y-66716537D01*
X45787820Y-66775502D01*
X45907518Y-66811812D01*
X46032000Y-66824072D01*
X46445271Y-66824072D01*
X47501211Y-67880013D01*
X47525009Y-67909011D01*
X47640734Y-68003984D01*
X47772763Y-68074556D01*
X47916024Y-68118013D01*
X48027677Y-68129010D01*
X48027686Y-68129010D01*
X48065009Y-68132686D01*
X48102332Y-68129010D01*
X51657668Y-68129010D01*
X51694990Y-68132686D01*
X51732312Y-68129010D01*
X51732323Y-68129010D01*
X51843976Y-68118013D01*
X51987237Y-68074556D01*
X52119266Y-68003984D01*
X52234991Y-67909011D01*
X52258794Y-67880007D01*
X52319312Y-67819489D01*
X52352329Y-67829504D01*
X52420919Y-67913081D01*
X52631812Y-68086157D01*
X52872419Y-68214764D01*
X53133493Y-68293960D01*
X53336963Y-68314000D01*
X53336964Y-68314000D01*
X53405000Y-68320701D01*
X53473037Y-68314000D01*
X53906971Y-68314000D01*
X53975000Y-68320700D01*
X54043029Y-68314000D01*
X54043037Y-68314000D01*
X54246507Y-68293960D01*
X54507581Y-68214764D01*
X54559524Y-68187000D01*
X55694037Y-68187000D01*
X55897507Y-68166960D01*
X56158581Y-68087764D01*
X56399188Y-67959157D01*
X56610081Y-67786081D01*
X56783157Y-67575188D01*
X56844546Y-67460337D01*
X56874742Y-67516829D01*
X56972749Y-67636251D01*
X57092171Y-67734258D01*
X57228418Y-67807084D01*
X57376255Y-67851929D01*
X57530000Y-67867072D01*
X58227321Y-67867072D01*
X58353484Y-67905343D01*
X58674000Y-67936911D01*
X58754322Y-67929000D01*
X62496654Y-67929000D01*
X62520017Y-67952363D01*
X62869698Y-68186012D01*
X63258244Y-68346953D01*
X63670721Y-68429000D01*
X64091279Y-68429000D01*
X64503756Y-68346953D01*
X64892302Y-68186012D01*
X65241983Y-67952363D01*
X65539363Y-67654983D01*
X65773012Y-67305302D01*
X65933953Y-66916756D01*
X66016000Y-66504279D01*
X66016000Y-66083721D01*
X65933953Y-65671244D01*
X65773012Y-65282698D01*
X65539363Y-64933017D01*
X65241983Y-64635637D01*
X64892302Y-64401988D01*
X64592200Y-64277682D01*
X64592200Y-64207605D01*
X64595640Y-64172679D01*
X64592200Y-64137753D01*
X64592200Y-64137744D01*
X64581909Y-64033260D01*
X64541242Y-63899199D01*
X64475202Y-63775647D01*
X64408597Y-63694488D01*
X64408588Y-63694479D01*
X64386326Y-63667353D01*
X64359201Y-63645092D01*
X64063109Y-63349000D01*
X64091279Y-63349000D01*
X64503756Y-63266953D01*
X64892302Y-63106012D01*
X65241983Y-62872363D01*
X65539363Y-62574983D01*
X65773012Y-62225302D01*
X65933953Y-61836756D01*
X66016000Y-61424279D01*
X66016000Y-61003721D01*
X65933953Y-60591244D01*
X65773012Y-60202698D01*
X65539363Y-59853017D01*
X65241983Y-59555637D01*
X64892302Y-59321988D01*
X64503756Y-59161047D01*
X64091279Y-59079000D01*
X63670721Y-59079000D01*
X63258244Y-59161047D01*
X62869698Y-59321988D01*
X62520017Y-59555637D01*
X62222637Y-59853017D01*
X61988988Y-60202698D01*
X61828047Y-60591244D01*
X61746000Y-61003721D01*
X61746000Y-61031893D01*
X61449922Y-60735815D01*
X61427647Y-60708673D01*
X61319353Y-60619798D01*
X61195801Y-60553758D01*
X61061740Y-60513091D01*
X60957256Y-60502800D01*
X60957246Y-60502800D01*
X60922320Y-60499360D01*
X60887394Y-60502800D01*
X59375191Y-60502800D01*
X59312574Y-60426500D01*
X59388671Y-60333775D01*
X59393361Y-60325000D01*
X59436000Y-60325000D01*
X59460776Y-60322560D01*
X59484601Y-60315333D01*
X59506557Y-60303597D01*
X59525803Y-60287803D01*
X59541597Y-60268557D01*
X59553333Y-60246601D01*
X59560560Y-60222776D01*
X59563000Y-60198000D01*
X59563000Y-53340000D01*
X59560560Y-53315224D01*
X59553333Y-53291399D01*
X59541597Y-53269443D01*
X59525803Y-53250197D01*
X59506557Y-53234403D01*
X59484601Y-53222667D01*
X59460776Y-53215440D01*
X59436000Y-53213000D01*
X57266788Y-53213000D01*
X57628196Y-52851593D01*
X57655327Y-52829327D01*
X57677593Y-52802196D01*
X57677598Y-52802191D01*
X57744202Y-52721033D01*
X57810242Y-52597482D01*
X57850909Y-52463420D01*
X57853355Y-52438581D01*
X57861200Y-52358936D01*
X57861200Y-52358929D01*
X57864640Y-52324000D01*
X57861200Y-52289072D01*
X57861200Y-51192510D01*
X57870063Y-51205774D01*
X58014226Y-51349937D01*
X58183744Y-51463205D01*
X58372102Y-51541226D01*
X58572061Y-51581000D01*
X58775939Y-51581000D01*
X58975898Y-51541226D01*
X59164256Y-51463205D01*
X59333774Y-51349937D01*
X59477937Y-51205774D01*
X59591205Y-51036256D01*
X59669226Y-50847898D01*
X59709000Y-50647939D01*
X59709000Y-50444061D01*
X59669226Y-50244102D01*
X59591205Y-50055744D01*
X59477937Y-49886226D01*
X59333774Y-49742063D01*
X59197194Y-49650803D01*
X59213850Y-49619642D01*
X59262608Y-49458908D01*
X59279072Y-49291750D01*
X59279072Y-48854250D01*
X59262608Y-48687092D01*
X59227506Y-48571376D01*
X59304092Y-48594608D01*
X59471250Y-48611072D01*
X59908750Y-48611072D01*
X60075908Y-48594608D01*
X60236642Y-48545850D01*
X60384775Y-48466671D01*
X60514615Y-48360115D01*
X60621171Y-48230275D01*
X60700350Y-48082142D01*
X60749108Y-47921408D01*
X60765572Y-47754250D01*
X60765572Y-47241750D01*
X60749108Y-47074592D01*
X60700350Y-46913858D01*
X60621171Y-46765725D01*
X60514615Y-46635885D01*
X60384775Y-46529329D01*
X60236642Y-46450150D01*
X60075908Y-46401392D01*
X59908750Y-46384928D01*
X59471250Y-46384928D01*
X59304092Y-46401392D01*
X59143358Y-46450150D01*
X58995225Y-46529329D01*
X58923903Y-46587861D01*
X58898275Y-46566829D01*
X58750142Y-46487650D01*
X58589408Y-46438892D01*
X58422250Y-46422428D01*
X57909750Y-46422428D01*
X57742592Y-46438892D01*
X57581858Y-46487650D01*
X57433725Y-46566829D01*
X57303885Y-46673385D01*
X57197329Y-46803225D01*
X57118150Y-46951358D01*
X57069392Y-47112092D01*
X57052928Y-47279250D01*
X57052928Y-47605285D01*
X56671810Y-47986403D01*
X56644673Y-48008674D01*
X56555798Y-48116968D01*
X56489758Y-48240520D01*
X56488072Y-48246078D01*
X56488072Y-48150000D01*
X56475812Y-48025518D01*
X56439502Y-47905820D01*
X56380537Y-47795506D01*
X56343191Y-47750000D01*
X56380537Y-47704494D01*
X56439502Y-47594180D01*
X56475812Y-47474482D01*
X56488072Y-47350000D01*
X56488072Y-45850000D01*
X56475812Y-45725518D01*
X56439502Y-45605820D01*
X56380537Y-45495506D01*
X56301185Y-45398815D01*
X56204494Y-45319463D01*
X56094180Y-45260498D01*
X55974482Y-45224188D01*
X55850000Y-45211928D01*
X53906730Y-45211928D01*
X52830000Y-44135199D01*
X52830000Y-41968495D01*
X53821000Y-41968495D01*
X53821000Y-42359505D01*
X53897282Y-42743003D01*
X54046915Y-43104250D01*
X54264149Y-43429364D01*
X54540636Y-43705851D01*
X54865750Y-43923085D01*
X55226997Y-44072718D01*
X55610495Y-44149000D01*
X56001505Y-44149000D01*
X56385003Y-44072718D01*
X56746250Y-43923085D01*
X57071364Y-43705851D01*
X57347851Y-43429364D01*
X57565085Y-43104250D01*
X57714718Y-42743003D01*
X57791000Y-42359505D01*
X57791000Y-41968495D01*
X57788062Y-41953721D01*
X64921000Y-41953721D01*
X64921000Y-42374279D01*
X65003047Y-42786756D01*
X65163988Y-43175302D01*
X65397637Y-43524983D01*
X65695017Y-43822363D01*
X66044698Y-44056012D01*
X66433244Y-44216953D01*
X66845721Y-44299000D01*
X67266279Y-44299000D01*
X67678756Y-44216953D01*
X68067302Y-44056012D01*
X68416983Y-43822363D01*
X68714363Y-43524983D01*
X68948012Y-43175302D01*
X69108953Y-42786756D01*
X69191000Y-42374279D01*
X69191000Y-41953721D01*
X69108953Y-41541244D01*
X68948012Y-41152698D01*
X68714363Y-40803017D01*
X68416983Y-40505637D01*
X68067302Y-40271988D01*
X67678756Y-40111047D01*
X67266279Y-40029000D01*
X66845721Y-40029000D01*
X66433244Y-40111047D01*
X66044698Y-40271988D01*
X65695017Y-40505637D01*
X65397637Y-40803017D01*
X65163988Y-41152698D01*
X65003047Y-41541244D01*
X64921000Y-41953721D01*
X57788062Y-41953721D01*
X57714718Y-41584997D01*
X57565085Y-41223750D01*
X57347851Y-40898636D01*
X57071364Y-40622149D01*
X56746250Y-40404915D01*
X56385003Y-40255282D01*
X56001505Y-40179000D01*
X55610495Y-40179000D01*
X55226997Y-40255282D01*
X54865750Y-40404915D01*
X54540636Y-40622149D01*
X54264149Y-40898636D01*
X54046915Y-41223750D01*
X53897282Y-41584997D01*
X53821000Y-41968495D01*
X52830000Y-41968495D01*
X52830000Y-36052801D01*
X55820200Y-33062601D01*
X55824248Y-33063000D01*
X57307362Y-33063000D01*
X57308551Y-33064449D01*
X57481377Y-33206284D01*
X57678553Y-33311676D01*
X57892501Y-33376577D01*
X58059248Y-33393000D01*
X58059257Y-33393000D01*
X58114999Y-33398490D01*
X58170741Y-33393000D01*
X58702379Y-33393000D01*
X58735498Y-33502180D01*
X58794463Y-33612494D01*
X58873815Y-33709185D01*
X58970506Y-33788537D01*
X59080820Y-33847502D01*
X59200518Y-33883812D01*
X59325000Y-33896072D01*
X61325000Y-33896072D01*
X61449482Y-33883812D01*
X61569180Y-33847502D01*
X61679494Y-33788537D01*
X61776185Y-33709185D01*
X61855537Y-33612494D01*
X61914502Y-33502180D01*
X61950812Y-33382482D01*
X61963072Y-33258000D01*
X61963072Y-31258000D01*
X61950812Y-31133518D01*
X61914502Y-31013820D01*
X61855537Y-30903506D01*
X61776185Y-30806815D01*
X61679494Y-30727463D01*
X61569180Y-30668498D01*
X61449482Y-30632188D01*
X61325000Y-30619928D01*
X59325000Y-30619928D01*
X59200518Y-30632188D01*
X59080820Y-30668498D01*
X58970506Y-30727463D01*
X58873815Y-30806815D01*
X58794463Y-30903506D01*
X58735498Y-31013820D01*
X58702379Y-31123000D01*
X58663212Y-31123000D01*
X58647115Y-31103385D01*
X58517275Y-30996829D01*
X58369142Y-30917650D01*
X58208408Y-30868892D01*
X58201200Y-30868182D01*
X58007499Y-30809423D01*
X57840752Y-30793000D01*
X57840751Y-30793000D01*
X57785000Y-30787509D01*
X57729249Y-30793000D01*
X55824248Y-30793000D01*
X55657501Y-30809423D01*
X55463800Y-30868182D01*
X55456592Y-30868892D01*
X55295858Y-30917650D01*
X55147725Y-30996829D01*
X55017885Y-31103385D01*
X54911329Y-31233225D01*
X54832150Y-31381358D01*
X54783392Y-31542092D01*
X54770122Y-31676826D01*
X54761423Y-31705501D01*
X54739509Y-31928000D01*
X54745399Y-31987799D01*
X51558998Y-35174201D01*
X51530000Y-35197999D01*
X51506202Y-35226997D01*
X51506201Y-35226998D01*
X51435026Y-35313724D01*
X51364454Y-35445754D01*
X51334180Y-35545558D01*
X51320998Y-35589014D01*
X51319204Y-35607233D01*
X51306324Y-35738000D01*
X51310001Y-35775332D01*
X51310000Y-44412678D01*
X51306324Y-44450000D01*
X51310000Y-44487322D01*
X51310000Y-44487332D01*
X51320997Y-44598985D01*
X51355584Y-44713006D01*
X51364454Y-44742246D01*
X51435026Y-44874276D01*
X51457252Y-44901358D01*
X51529999Y-44990001D01*
X51559003Y-45013804D01*
X53211928Y-46666730D01*
X53211928Y-47350000D01*
X53224188Y-47474482D01*
X53260498Y-47594180D01*
X53319463Y-47704494D01*
X53356809Y-47750000D01*
X53319463Y-47795506D01*
X53260498Y-47905820D01*
X53224188Y-48025518D01*
X53212913Y-48140000D01*
X50188072Y-48140000D01*
X50188072Y-47000000D01*
X50175812Y-46875518D01*
X50139502Y-46755820D01*
X50080537Y-46645506D01*
X50001185Y-46548815D01*
X49904494Y-46469463D01*
X49794180Y-46410498D01*
X49674482Y-46374188D01*
X49550000Y-46361928D01*
X47550000Y-46361928D01*
X47425518Y-46374188D01*
X47305820Y-46410498D01*
X47195506Y-46469463D01*
X47194824Y-46470023D01*
X47179804Y-46455003D01*
X47156001Y-46425999D01*
X47040276Y-46331026D01*
X46908247Y-46260454D01*
X46764986Y-46216997D01*
X46653333Y-46206000D01*
X46653322Y-46206000D01*
X46624930Y-46203204D01*
X46648671Y-46174275D01*
X46727850Y-46026142D01*
X46776608Y-45865408D01*
X46793072Y-45698250D01*
X46793072Y-45441229D01*
X48426302Y-43808000D01*
X48924857Y-43808000D01*
X48977885Y-43872615D01*
X49107725Y-43979171D01*
X49255858Y-44058350D01*
X49416592Y-44107108D01*
X49583750Y-44123572D01*
X50096250Y-44123572D01*
X50263408Y-44107108D01*
X50424142Y-44058350D01*
X50572275Y-43979171D01*
X50702115Y-43872615D01*
X50808671Y-43742775D01*
X50887850Y-43594642D01*
X50936608Y-43433908D01*
X50953072Y-43266750D01*
X50953072Y-42829250D01*
X50936608Y-42662092D01*
X50887850Y-42501358D01*
X50808671Y-42353225D01*
X50732574Y-42260500D01*
X50808671Y-42167775D01*
X50887850Y-42019642D01*
X50936608Y-41858908D01*
X50953072Y-41691750D01*
X50953072Y-41254250D01*
X50936608Y-41087092D01*
X50887850Y-40926358D01*
X50808671Y-40778225D01*
X50764408Y-40724290D01*
X50838326Y-40586000D01*
X50886728Y-40426438D01*
X50903072Y-40260500D01*
X50903072Y-39460500D01*
X50886728Y-39294562D01*
X50838326Y-39135000D01*
X50759725Y-38987948D01*
X50653945Y-38859055D01*
X50525052Y-38753275D01*
X50378000Y-38674674D01*
X50218438Y-38626272D01*
X50052500Y-38609928D01*
X49627500Y-38609928D01*
X49461562Y-38626272D01*
X49302000Y-38674674D01*
X49154948Y-38753275D01*
X49026055Y-38859055D01*
X48920275Y-38987948D01*
X48841674Y-39135000D01*
X48793272Y-39294562D01*
X48776928Y-39460500D01*
X48776928Y-40233425D01*
X48747226Y-40084102D01*
X48669205Y-39895744D01*
X48555937Y-39726226D01*
X48411774Y-39582063D01*
X48242256Y-39468795D01*
X48053898Y-39390774D01*
X47853939Y-39351000D01*
X47650061Y-39351000D01*
X47450102Y-39390774D01*
X47261744Y-39468795D01*
X47092226Y-39582063D01*
X46948063Y-39726226D01*
X46834795Y-39895744D01*
X46756774Y-40084102D01*
X46717000Y-40284061D01*
X46717000Y-40487939D01*
X46756774Y-40687898D01*
X46834795Y-40876256D01*
X46948063Y-41045774D01*
X47002093Y-41099804D01*
X47002997Y-41108985D01*
X47037810Y-41223750D01*
X47046454Y-41252246D01*
X47117026Y-41384276D01*
X47147165Y-41421000D01*
X47211999Y-41500001D01*
X47241003Y-41523804D01*
X48011382Y-42294184D01*
X47962514Y-42298997D01*
X47819253Y-42342454D01*
X47687224Y-42413026D01*
X47571499Y-42507999D01*
X47547701Y-42536997D01*
X45755771Y-44328928D01*
X45498750Y-44328928D01*
X45331592Y-44345392D01*
X45170858Y-44394150D01*
X45022725Y-44473329D01*
X44892885Y-44579885D01*
X44786329Y-44709725D01*
X44707150Y-44857858D01*
X44658392Y-45018592D01*
X44641928Y-45185750D01*
X44641928Y-45698250D01*
X44658392Y-45865408D01*
X44707150Y-46026142D01*
X44786329Y-46174275D01*
X44810723Y-46204000D01*
X44786329Y-46233725D01*
X44707150Y-46381858D01*
X44658392Y-46542592D01*
X44641928Y-46709750D01*
X44641928Y-47222250D01*
X44658392Y-47389408D01*
X44706001Y-47546354D01*
X44706000Y-48759821D01*
X44519368Y-48884525D01*
X44312525Y-49091368D01*
X44196000Y-49265760D01*
X44079475Y-49091368D01*
X43872632Y-48884525D01*
X43629411Y-48722010D01*
X43359158Y-48610068D01*
X43072260Y-48553000D01*
X42779740Y-48553000D01*
X42492842Y-48610068D01*
X42222589Y-48722010D01*
X41979368Y-48884525D01*
X41772525Y-49091368D01*
X41656000Y-49265760D01*
X41539475Y-49091368D01*
X41332632Y-48884525D01*
X41089411Y-48722010D01*
X40819158Y-48610068D01*
X40532260Y-48553000D01*
X40239740Y-48553000D01*
X39952842Y-48610068D01*
X39682589Y-48722010D01*
X39439368Y-48884525D01*
X39232525Y-49091368D01*
X39070010Y-49334589D01*
X38958068Y-49604842D01*
X38901000Y-49891740D01*
X38901000Y-50184260D01*
X38956241Y-50461972D01*
X38821413Y-50596800D01*
X37313843Y-50596800D01*
X37299788Y-50562869D01*
X37186520Y-50393351D01*
X37042357Y-50249188D01*
X36872839Y-50135920D01*
X36684481Y-50057899D01*
X36594050Y-50039911D01*
X36594050Y-45945737D01*
X37498670Y-45041117D01*
X38905000Y-45041117D01*
X38905000Y-45382883D01*
X38971675Y-45718081D01*
X39102463Y-46033831D01*
X39292337Y-46317998D01*
X39534002Y-46559663D01*
X39818169Y-46749537D01*
X40133919Y-46880325D01*
X40469117Y-46947000D01*
X40810883Y-46947000D01*
X41146081Y-46880325D01*
X41461831Y-46749537D01*
X41745998Y-46559663D01*
X41987663Y-46317998D01*
X42177537Y-46033831D01*
X42308325Y-45718081D01*
X42375000Y-45382883D01*
X42375000Y-45041117D01*
X42308325Y-44705919D01*
X42177537Y-44390169D01*
X41987663Y-44106002D01*
X41745998Y-43864337D01*
X41461831Y-43674463D01*
X41146081Y-43543675D01*
X40810883Y-43477000D01*
X40469117Y-43477000D01*
X40133919Y-43543675D01*
X39818169Y-43674463D01*
X39534002Y-43864337D01*
X39292337Y-44106002D01*
X39102463Y-44390169D01*
X38971675Y-44705919D01*
X38905000Y-45041117D01*
X37498670Y-45041117D01*
X38578196Y-43961593D01*
X38605327Y-43939327D01*
X38627593Y-43912196D01*
X38627598Y-43912191D01*
X38694202Y-43831033D01*
X38760242Y-43707482D01*
X38800909Y-43573420D01*
X38803060Y-43551577D01*
X38811200Y-43468936D01*
X38811200Y-43468929D01*
X38814640Y-43434000D01*
X38811200Y-43399072D01*
X38811200Y-35600588D01*
X39107808Y-35303980D01*
X39232525Y-35490632D01*
X39439368Y-35697475D01*
X39613760Y-35814000D01*
X39439368Y-35930525D01*
X39232525Y-36137368D01*
X39070010Y-36380589D01*
X38958068Y-36650842D01*
X38901000Y-36937740D01*
X38901000Y-37230260D01*
X38958068Y-37517158D01*
X39070010Y-37787411D01*
X39232525Y-38030632D01*
X39439368Y-38237475D01*
X39682589Y-38399990D01*
X39952842Y-38511932D01*
X40239740Y-38569000D01*
X40532260Y-38569000D01*
X40819158Y-38511932D01*
X41089411Y-38399990D01*
X41332632Y-38237475D01*
X41539475Y-38030632D01*
X41608946Y-37926661D01*
X41685725Y-37989671D01*
X41833858Y-38068850D01*
X41994592Y-38117608D01*
X42161750Y-38134072D01*
X42674250Y-38134072D01*
X42841408Y-38117608D01*
X42928535Y-38091178D01*
X42913089Y-38248000D01*
X42921001Y-38328329D01*
X42921000Y-40779654D01*
X42897637Y-40803017D01*
X42663988Y-41152698D01*
X42503047Y-41541244D01*
X42421000Y-41953721D01*
X42421000Y-42374279D01*
X42503047Y-42786756D01*
X42663988Y-43175302D01*
X42897637Y-43524983D01*
X43195017Y-43822363D01*
X43544698Y-44056012D01*
X43933244Y-44216953D01*
X44345721Y-44299000D01*
X44766279Y-44299000D01*
X45178756Y-44216953D01*
X45567302Y-44056012D01*
X45916983Y-43822363D01*
X46214363Y-43524983D01*
X46448012Y-43175302D01*
X46608953Y-42786756D01*
X46691000Y-42374279D01*
X46691000Y-41953721D01*
X46608953Y-41541244D01*
X46448012Y-41152698D01*
X46214363Y-40803017D01*
X46191000Y-40779654D01*
X46191000Y-38925238D01*
X51032104Y-34084135D01*
X51168756Y-34056953D01*
X51557302Y-33896012D01*
X51906983Y-33662363D01*
X52204363Y-33364983D01*
X52438012Y-33015302D01*
X52598953Y-32626756D01*
X52681000Y-32214279D01*
X52681000Y-31793721D01*
X52598953Y-31381244D01*
X52438012Y-30992698D01*
X52204363Y-30643017D01*
X51906983Y-30345637D01*
X51557302Y-30111988D01*
X51168756Y-29951047D01*
X50756279Y-29869000D01*
X50335721Y-29869000D01*
X49923244Y-29951047D01*
X49534698Y-30111988D01*
X49185017Y-30345637D01*
X48887637Y-30643017D01*
X48653988Y-30992698D01*
X48493047Y-31381244D01*
X48411000Y-31793721D01*
X48411000Y-32080761D01*
X43531072Y-36960690D01*
X43531072Y-36839750D01*
X43514608Y-36672592D01*
X43465850Y-36511858D01*
X43386671Y-36363725D01*
X43280115Y-36233885D01*
X43150275Y-36127329D01*
X43002142Y-36048150D01*
X42841408Y-35999392D01*
X42674250Y-35982928D01*
X42161750Y-35982928D01*
X41994592Y-35999392D01*
X41833858Y-36048150D01*
X41685725Y-36127329D01*
X41586938Y-36208401D01*
X41539475Y-36137368D01*
X41332632Y-35930525D01*
X41158240Y-35814000D01*
X41332632Y-35697475D01*
X41539475Y-35490632D01*
X41701990Y-35247411D01*
X41813932Y-34977158D01*
X41871000Y-34690260D01*
X41871000Y-34397740D01*
X41813932Y-34110842D01*
X41701990Y-33840589D01*
X41539475Y-33597368D01*
X41407620Y-33465513D01*
X41480180Y-33443502D01*
X41590494Y-33384537D01*
X41687185Y-33305185D01*
X41766537Y-33208494D01*
X41825502Y-33098180D01*
X41861812Y-32978482D01*
X41874072Y-32854000D01*
X41874072Y-31154000D01*
X41861812Y-31029518D01*
X41825502Y-30909820D01*
X41766537Y-30799506D01*
X41687185Y-30702815D01*
X41590494Y-30623463D01*
X41480180Y-30564498D01*
X41360482Y-30528188D01*
X41236000Y-30515928D01*
X39536000Y-30515928D01*
X39411518Y-30528188D01*
X39291820Y-30564498D01*
X39181506Y-30623463D01*
X39084815Y-30702815D01*
X39005463Y-30799506D01*
X38946498Y-30909820D01*
X38910188Y-31029518D01*
X38897928Y-31154000D01*
X38897928Y-32753884D01*
X37568547Y-34083266D01*
X37566537Y-34079506D01*
X37487185Y-33982815D01*
X37390494Y-33903463D01*
X37280180Y-33844498D01*
X37160482Y-33808188D01*
X37036000Y-33795928D01*
X34536000Y-33795928D01*
X34411518Y-33808188D01*
X34291820Y-33844498D01*
X34181506Y-33903463D01*
X34084815Y-33982815D01*
X34005463Y-34079506D01*
X33946885Y-34189096D01*
X29231963Y-29474176D01*
X29258168Y-29410912D01*
X29321000Y-29095033D01*
X29321000Y-28772967D01*
X29258168Y-28457088D01*
X29134918Y-28159537D01*
X28955987Y-27891748D01*
X28728252Y-27664013D01*
X28460463Y-27485082D01*
X28162912Y-27361832D01*
X27847033Y-27299000D01*
X27524967Y-27299000D01*
X27209088Y-27361832D01*
X26911537Y-27485082D01*
X26643748Y-27664013D01*
X26416013Y-27891748D01*
X26237082Y-28159537D01*
X26113832Y-28457088D01*
X26051000Y-28772967D01*
X26051000Y-29095033D01*
X26113832Y-29410912D01*
X26237082Y-29708463D01*
X26416013Y-29976252D01*
X26643748Y-30203987D01*
X26911537Y-30382918D01*
X27209088Y-30506168D01*
X27524967Y-30569000D01*
X27847033Y-30569000D01*
X28162912Y-30506168D01*
X28226176Y-30479963D01*
X33251001Y-35504790D01*
X33251002Y-41898320D01*
X33162912Y-41861832D01*
X32847033Y-41799000D01*
X32524967Y-41799000D01*
X32209088Y-41861832D01*
X31911537Y-41985082D01*
X31643748Y-42164013D01*
X31416013Y-42391748D01*
X31237082Y-42659537D01*
X31113832Y-42957088D01*
X31051000Y-43272967D01*
X31051000Y-43595033D01*
X31113832Y-43910912D01*
X31150320Y-43999001D01*
X29324072Y-43999001D01*
X29324072Y-42434000D01*
X29311812Y-42309518D01*
X29275502Y-42189820D01*
X29216537Y-42079506D01*
X29137185Y-41982815D01*
X29040494Y-41903463D01*
X28930180Y-41844498D01*
X28810482Y-41808188D01*
X28686000Y-41795928D01*
X26686000Y-41795928D01*
X26561518Y-41808188D01*
X26441820Y-41844498D01*
X26331506Y-41903463D01*
X26234815Y-41982815D01*
X26155463Y-42079506D01*
X26096498Y-42189820D01*
X26060188Y-42309518D01*
X26047928Y-42434000D01*
X26047928Y-44434000D01*
X26060188Y-44558482D01*
X26096498Y-44678180D01*
X26155463Y-44788494D01*
X26234815Y-44885185D01*
X26331506Y-44964537D01*
X26441820Y-45023502D01*
X26561518Y-45059812D01*
X26686000Y-45072072D01*
X28318284Y-45072072D01*
X28434603Y-45188391D01*
X28456874Y-45215528D01*
X28484010Y-45237798D01*
X28565168Y-45304403D01*
X28688719Y-45370443D01*
X28822781Y-45411110D01*
X28927265Y-45421401D01*
X28927272Y-45421401D01*
X28962201Y-45424841D01*
X28997129Y-45421401D01*
X30705334Y-45421401D01*
X30702150Y-45427358D01*
X30653392Y-45588092D01*
X30636928Y-45755250D01*
X30636928Y-46192750D01*
X30653392Y-46359908D01*
X30680183Y-46448228D01*
X30649408Y-46438892D01*
X30482250Y-46422428D01*
X29969750Y-46422428D01*
X29802592Y-46438892D01*
X29641858Y-46487650D01*
X29493725Y-46566829D01*
X29363885Y-46673385D01*
X29257329Y-46803225D01*
X29178150Y-46951358D01*
X29129392Y-47112092D01*
X29112928Y-47279250D01*
X29112928Y-47716750D01*
X29129392Y-47883908D01*
X29178150Y-48044642D01*
X29214892Y-48113382D01*
X29058226Y-48218063D01*
X28914063Y-48362226D01*
X28800795Y-48531744D01*
X28722774Y-48720102D01*
X28683000Y-48920061D01*
X28683000Y-49123939D01*
X28722774Y-49323898D01*
X28729357Y-49339792D01*
X28642815Y-49410815D01*
X28563463Y-49507506D01*
X28504498Y-49617820D01*
X28468188Y-49737518D01*
X28455928Y-49862000D01*
X28455928Y-50962000D01*
X28458823Y-50991390D01*
X28339609Y-51110604D01*
X28312472Y-51132875D01*
X28223597Y-51241169D01*
X28157557Y-51364721D01*
X28116890Y-51498782D01*
X28106599Y-51603266D01*
X28106599Y-51603275D01*
X28103159Y-51638201D01*
X28106599Y-51673127D01*
X28106599Y-52264356D01*
X28076058Y-52233815D01*
X28053783Y-52206673D01*
X27945489Y-52117798D01*
X27926731Y-52107772D01*
X27919812Y-52037518D01*
X27883502Y-51917820D01*
X27824537Y-51807506D01*
X27745185Y-51710815D01*
X27648494Y-51631463D01*
X27538180Y-51572498D01*
X27418482Y-51536188D01*
X27294000Y-51523928D01*
X25394000Y-51523928D01*
X25269518Y-51536188D01*
X25149820Y-51572498D01*
X25067361Y-51616574D01*
X24992115Y-51524885D01*
X24862275Y-51418329D01*
X24714142Y-51339150D01*
X24553408Y-51290392D01*
X24386250Y-51273928D01*
X23873750Y-51273928D01*
X23706592Y-51290392D01*
X23570000Y-51331827D01*
X23570000Y-47718973D01*
X23608463Y-47811831D01*
X23798337Y-48095998D01*
X24040002Y-48337663D01*
X24324169Y-48527537D01*
X24639919Y-48658325D01*
X24975117Y-48725000D01*
X25316883Y-48725000D01*
X25652081Y-48658325D01*
X25967831Y-48527537D01*
X26251998Y-48337663D01*
X26493663Y-48095998D01*
X26683537Y-47811831D01*
X26814325Y-47496081D01*
X26881000Y-47160883D01*
X26881000Y-46819117D01*
X26814325Y-46483919D01*
X26683537Y-46168169D01*
X26493663Y-45884002D01*
X26251998Y-45642337D01*
X25967831Y-45452463D01*
X25652081Y-45321675D01*
X25316883Y-45255000D01*
X24975117Y-45255000D01*
X24639919Y-45321675D01*
X24324169Y-45452463D01*
X24040002Y-45642337D01*
X23798337Y-45884002D01*
X23608463Y-46168169D01*
X23570000Y-46261027D01*
X23570000Y-38072072D01*
X25836000Y-38072072D01*
X25960482Y-38059812D01*
X26080180Y-38023502D01*
X26190494Y-37964537D01*
X26287185Y-37885185D01*
X26366537Y-37788494D01*
X26425502Y-37678180D01*
X26461812Y-37558482D01*
X26474072Y-37434000D01*
X26474072Y-34434000D01*
X26461812Y-34309518D01*
X26425502Y-34189820D01*
X26366537Y-34079506D01*
X26287185Y-33982815D01*
X26190494Y-33903463D01*
X26080180Y-33844498D01*
X25960482Y-33808188D01*
X25836000Y-33795928D01*
X23570000Y-33795928D01*
X23570000Y-24975117D01*
X24173000Y-24975117D01*
X24173000Y-25316883D01*
X24239675Y-25652081D01*
X24370463Y-25967831D01*
X24560337Y-26251998D01*
X24802002Y-26493663D01*
X25086169Y-26683537D01*
X25401919Y-26814325D01*
X25737117Y-26881000D01*
X26078883Y-26881000D01*
X26414081Y-26814325D01*
X26729831Y-26683537D01*
X27013998Y-26493663D01*
X27255663Y-26251998D01*
X27445537Y-25967831D01*
X27576325Y-25652081D01*
X27643000Y-25316883D01*
X27643000Y-24975117D01*
X34079000Y-24975117D01*
X34079000Y-25316883D01*
X34145675Y-25652081D01*
X34276463Y-25967831D01*
X34466337Y-26251998D01*
X34708002Y-26493663D01*
X34992169Y-26683537D01*
X35307919Y-26814325D01*
X35643117Y-26881000D01*
X35984883Y-26881000D01*
X36320081Y-26814325D01*
X36635831Y-26683537D01*
X36919998Y-26493663D01*
X37161663Y-26251998D01*
X37351537Y-25967831D01*
X37482325Y-25652081D01*
X37549000Y-25316883D01*
X37549000Y-24975117D01*
X65829000Y-24975117D01*
X65829000Y-25316883D01*
X65895675Y-25652081D01*
X66026463Y-25967831D01*
X66216337Y-26251998D01*
X66458002Y-26493663D01*
X66742169Y-26683537D01*
X67057919Y-26814325D01*
X67393117Y-26881000D01*
X67734883Y-26881000D01*
X68070081Y-26814325D01*
X68385831Y-26683537D01*
X68669998Y-26493663D01*
X68911663Y-26251998D01*
X69101537Y-25967831D01*
X69232325Y-25652081D01*
X69299000Y-25316883D01*
X69299000Y-24975117D01*
X69232325Y-24639919D01*
X69101537Y-24324169D01*
X68911663Y-24040002D01*
X68669998Y-23798337D01*
X68385831Y-23608463D01*
X68070081Y-23477675D01*
X67734883Y-23411000D01*
X67393117Y-23411000D01*
X67057919Y-23477675D01*
X66742169Y-23608463D01*
X66458002Y-23798337D01*
X66216337Y-24040002D01*
X66026463Y-24324169D01*
X65895675Y-24639919D01*
X65829000Y-24975117D01*
X37549000Y-24975117D01*
X37482325Y-24639919D01*
X37351537Y-24324169D01*
X37161663Y-24040002D01*
X36919998Y-23798337D01*
X36635831Y-23608463D01*
X36320081Y-23477675D01*
X35984883Y-23411000D01*
X35643117Y-23411000D01*
X35307919Y-23477675D01*
X34992169Y-23608463D01*
X34708002Y-23798337D01*
X34466337Y-24040002D01*
X34276463Y-24324169D01*
X34145675Y-24639919D01*
X34079000Y-24975117D01*
X27643000Y-24975117D01*
X27576325Y-24639919D01*
X27445537Y-24324169D01*
X27255663Y-24040002D01*
X27013998Y-23798337D01*
X26729831Y-23608463D01*
X26414081Y-23477675D01*
X26078883Y-23411000D01*
X25737117Y-23411000D01*
X25401919Y-23477675D01*
X25086169Y-23608463D01*
X24802002Y-23798337D01*
X24560337Y-24040002D01*
X24370463Y-24324169D01*
X24239675Y-24639919D01*
X24173000Y-24975117D01*
X23570000Y-24975117D01*
X23570000Y-23316000D01*
X70156000Y-23316000D01*
X70156001Y-70918000D01*
G36*
X44949428Y-62737229D02*
G01*
X44949428Y-62994250D01*
X44965892Y-63161408D01*
X45014650Y-63322142D01*
X45093829Y-63470275D01*
X45200385Y-63600115D01*
X45330225Y-63706671D01*
X45478358Y-63785850D01*
X45639092Y-63834608D01*
X45806250Y-63851072D01*
X45931120Y-63851072D01*
X45882295Y-63924144D01*
X45804274Y-64112502D01*
X45764500Y-64312461D01*
X45764500Y-64516339D01*
X45804274Y-64716298D01*
X45831949Y-64783112D01*
X45787820Y-64796498D01*
X45677506Y-64855463D01*
X45580815Y-64934815D01*
X45505982Y-65026000D01*
X44084438Y-65026000D01*
X43806072Y-64747635D01*
X43806072Y-64344000D01*
X43793812Y-64219518D01*
X43757502Y-64099820D01*
X43698537Y-63989506D01*
X43619185Y-63892815D01*
X43522494Y-63813463D01*
X43412180Y-63754498D01*
X43292482Y-63718188D01*
X43168000Y-63705928D01*
X42921237Y-63705928D01*
X43929176Y-62697990D01*
X44910189Y-62697990D01*
X44949428Y-62737229D01*
G37*
X44949428Y-62737229D02*
X44949428Y-62994250D01*
X44965892Y-63161408D01*
X45014650Y-63322142D01*
X45093829Y-63470275D01*
X45200385Y-63600115D01*
X45330225Y-63706671D01*
X45478358Y-63785850D01*
X45639092Y-63834608D01*
X45806250Y-63851072D01*
X45931120Y-63851072D01*
X45882295Y-63924144D01*
X45804274Y-64112502D01*
X45764500Y-64312461D01*
X45764500Y-64516339D01*
X45804274Y-64716298D01*
X45831949Y-64783112D01*
X45787820Y-64796498D01*
X45677506Y-64855463D01*
X45580815Y-64934815D01*
X45505982Y-65026000D01*
X44084438Y-65026000D01*
X43806072Y-64747635D01*
X43806072Y-64344000D01*
X43793812Y-64219518D01*
X43757502Y-64099820D01*
X43698537Y-63989506D01*
X43619185Y-63892815D01*
X43522494Y-63813463D01*
X43412180Y-63754498D01*
X43292482Y-63718188D01*
X43168000Y-63705928D01*
X42921237Y-63705928D01*
X43929176Y-62697990D01*
X44910189Y-62697990D01*
X44949428Y-62737229D01*
G36*
X49315463Y-62886594D02*
G01*
X49394815Y-62983285D01*
X49491506Y-63062637D01*
X49601820Y-63121602D01*
X49721518Y-63157912D01*
X49846000Y-63170172D01*
X50333284Y-63170172D01*
X50471002Y-63307890D01*
X50471001Y-64905928D01*
X49755000Y-64905928D01*
X49629864Y-64918319D01*
X49604936Y-64925909D01*
X49579482Y-64918188D01*
X49516200Y-64911955D01*
X49516200Y-64771025D01*
X49519640Y-64736099D01*
X49516200Y-64701173D01*
X49516200Y-64701164D01*
X49505909Y-64596680D01*
X49465242Y-64462619D01*
X49399202Y-64339067D01*
X49377070Y-64312099D01*
X49344072Y-64271890D01*
X49344072Y-63782100D01*
X49331812Y-63657618D01*
X49295502Y-63537920D01*
X49236537Y-63427606D01*
X49157185Y-63330915D01*
X49060494Y-63251563D01*
X48950180Y-63192598D01*
X48833159Y-63157100D01*
X48950180Y-63121602D01*
X49060494Y-63062637D01*
X49157185Y-62983285D01*
X49236537Y-62886594D01*
X49276000Y-62812765D01*
X49315463Y-62886594D01*
G37*
X49315463Y-62886594D02*
X49394815Y-62983285D01*
X49491506Y-63062637D01*
X49601820Y-63121602D01*
X49721518Y-63157912D01*
X49846000Y-63170172D01*
X50333284Y-63170172D01*
X50471002Y-63307890D01*
X50471001Y-64905928D01*
X49755000Y-64905928D01*
X49629864Y-64918319D01*
X49604936Y-64925909D01*
X49579482Y-64918188D01*
X49516200Y-64911955D01*
X49516200Y-64771025D01*
X49519640Y-64736099D01*
X49516200Y-64701173D01*
X49516200Y-64701164D01*
X49505909Y-64596680D01*
X49465242Y-64462619D01*
X49399202Y-64339067D01*
X49377070Y-64312099D01*
X49344072Y-64271890D01*
X49344072Y-63782100D01*
X49331812Y-63657618D01*
X49295502Y-63537920D01*
X49236537Y-63427606D01*
X49157185Y-63330915D01*
X49060494Y-63251563D01*
X48950180Y-63192598D01*
X48833159Y-63157100D01*
X48950180Y-63121602D01*
X49060494Y-63062637D01*
X49157185Y-62983285D01*
X49236537Y-62886594D01*
X49276000Y-62812765D01*
X49315463Y-62886594D01*
G36*
X49149000Y-60198000D02*
G01*
X49151440Y-60222776D01*
X49158667Y-60246601D01*
X49170403Y-60268557D01*
X49186197Y-60287803D01*
X49205443Y-60303597D01*
X49227399Y-60315333D01*
X49251224Y-60322560D01*
X49276000Y-60325000D01*
X49637112Y-60325000D01*
X49698815Y-60400185D01*
X49795506Y-60479537D01*
X49905820Y-60538502D01*
X50025518Y-60574812D01*
X50150000Y-60587072D01*
X50717284Y-60587072D01*
X50833608Y-60703396D01*
X50855874Y-60730528D01*
X50883005Y-60752794D01*
X50883010Y-60752799D01*
X50964168Y-60819403D01*
X51087719Y-60885443D01*
X51221778Y-60926109D01*
X51221781Y-60926110D01*
X51326265Y-60936401D01*
X51326272Y-60936401D01*
X51361201Y-60939841D01*
X51396129Y-60936401D01*
X57312724Y-60936401D01*
X57306928Y-60995250D01*
X57306928Y-61282967D01*
X57279990Y-61280314D01*
X57242668Y-61283990D01*
X51121803Y-61283990D01*
X51030482Y-61256288D01*
X50906000Y-61244028D01*
X49846000Y-61244028D01*
X49721518Y-61256288D01*
X49601820Y-61292598D01*
X49491506Y-61351563D01*
X49394815Y-61430915D01*
X49315463Y-61527606D01*
X49276000Y-61601435D01*
X49236537Y-61527606D01*
X49157185Y-61430915D01*
X49060494Y-61351563D01*
X48950180Y-61292598D01*
X48830482Y-61256288D01*
X48706000Y-61244028D01*
X47646000Y-61244028D01*
X47521518Y-61256288D01*
X47401820Y-61292598D01*
X47291506Y-61351563D01*
X47194815Y-61430915D01*
X47181532Y-61447100D01*
X46593222Y-61447100D01*
X46555900Y-61443424D01*
X46518577Y-61447100D01*
X46518567Y-61447100D01*
X46406914Y-61458097D01*
X46263653Y-61501554D01*
X46131623Y-61572126D01*
X46067284Y-61624928D01*
X45986729Y-61624928D01*
X45788793Y-61426992D01*
X45764991Y-61397989D01*
X45649266Y-61303016D01*
X45517237Y-61232444D01*
X45373976Y-61188987D01*
X45262323Y-61177990D01*
X45262312Y-61177990D01*
X45224990Y-61174314D01*
X45187668Y-61177990D01*
X44634780Y-61177990D01*
X45171406Y-60641365D01*
X45198537Y-60619099D01*
X45220803Y-60591968D01*
X45220807Y-60591964D01*
X45287412Y-60510805D01*
X45312237Y-60464361D01*
X45353452Y-60387253D01*
X45394119Y-60253192D01*
X45404410Y-60148707D01*
X45404410Y-60148699D01*
X45407850Y-60113773D01*
X45404410Y-60078847D01*
X45404410Y-59995377D01*
X49149000Y-56250788D01*
X49149000Y-60198000D01*
G37*
X49149000Y-60198000D02*
X49151440Y-60222776D01*
X49158667Y-60246601D01*
X49170403Y-60268557D01*
X49186197Y-60287803D01*
X49205443Y-60303597D01*
X49227399Y-60315333D01*
X49251224Y-60322560D01*
X49276000Y-60325000D01*
X49637112Y-60325000D01*
X49698815Y-60400185D01*
X49795506Y-60479537D01*
X49905820Y-60538502D01*
X50025518Y-60574812D01*
X50150000Y-60587072D01*
X50717284Y-60587072D01*
X50833608Y-60703396D01*
X50855874Y-60730528D01*
X50883005Y-60752794D01*
X50883010Y-60752799D01*
X50964168Y-60819403D01*
X51087719Y-60885443D01*
X51221778Y-60926109D01*
X51221781Y-60926110D01*
X51326265Y-60936401D01*
X51326272Y-60936401D01*
X51361201Y-60939841D01*
X51396129Y-60936401D01*
X57312724Y-60936401D01*
X57306928Y-60995250D01*
X57306928Y-61282967D01*
X57279990Y-61280314D01*
X57242668Y-61283990D01*
X51121803Y-61283990D01*
X51030482Y-61256288D01*
X50906000Y-61244028D01*
X49846000Y-61244028D01*
X49721518Y-61256288D01*
X49601820Y-61292598D01*
X49491506Y-61351563D01*
X49394815Y-61430915D01*
X49315463Y-61527606D01*
X49276000Y-61601435D01*
X49236537Y-61527606D01*
X49157185Y-61430915D01*
X49060494Y-61351563D01*
X48950180Y-61292598D01*
X48830482Y-61256288D01*
X48706000Y-61244028D01*
X47646000Y-61244028D01*
X47521518Y-61256288D01*
X47401820Y-61292598D01*
X47291506Y-61351563D01*
X47194815Y-61430915D01*
X47181532Y-61447100D01*
X46593222Y-61447100D01*
X46555900Y-61443424D01*
X46518577Y-61447100D01*
X46518567Y-61447100D01*
X46406914Y-61458097D01*
X46263653Y-61501554D01*
X46131623Y-61572126D01*
X46067284Y-61624928D01*
X45986729Y-61624928D01*
X45788793Y-61426992D01*
X45764991Y-61397989D01*
X45649266Y-61303016D01*
X45517237Y-61232444D01*
X45373976Y-61188987D01*
X45262323Y-61177990D01*
X45262312Y-61177990D01*
X45224990Y-61174314D01*
X45187668Y-61177990D01*
X44634780Y-61177990D01*
X45171406Y-60641365D01*
X45198537Y-60619099D01*
X45220803Y-60591968D01*
X45220807Y-60591964D01*
X45287412Y-60510805D01*
X45312237Y-60464361D01*
X45353452Y-60387253D01*
X45394119Y-60253192D01*
X45404410Y-60148707D01*
X45404410Y-60148699D01*
X45407850Y-60113773D01*
X45404410Y-60078847D01*
X45404410Y-59995377D01*
X49149000Y-56250788D01*
X49149000Y-60198000D01*
G36*
X43209725Y-59046171D02*
G01*
X43357858Y-59125350D01*
X43518592Y-59174108D01*
X43685750Y-59190572D01*
X44193844Y-59190572D01*
X44187883Y-59195464D01*
X44099008Y-59303758D01*
X44032968Y-59427310D01*
X43992301Y-59561371D01*
X43982010Y-59665855D01*
X43982010Y-59665864D01*
X43978570Y-59700790D01*
X43982010Y-59735716D01*
X43982010Y-59819183D01*
X42282395Y-61518800D01*
X42154511Y-61518800D01*
X42061774Y-61426063D01*
X41892256Y-61312795D01*
X41738432Y-61249079D01*
X41761437Y-61226074D01*
X41874705Y-61056556D01*
X41952726Y-60868198D01*
X41992500Y-60668239D01*
X41992500Y-60464361D01*
X41952726Y-60264402D01*
X41874705Y-60076044D01*
X41761437Y-59906526D01*
X41617274Y-59762363D01*
X41447756Y-59649095D01*
X41370272Y-59617000D01*
X41638678Y-59617000D01*
X41676000Y-59620676D01*
X41713322Y-59617000D01*
X41713333Y-59617000D01*
X41824986Y-59606003D01*
X41968247Y-59562546D01*
X42100276Y-59491974D01*
X42216001Y-59397001D01*
X42239803Y-59367998D01*
X42417230Y-59190572D01*
X42674250Y-59190572D01*
X42841408Y-59174108D01*
X43002142Y-59125350D01*
X43150275Y-59046171D01*
X43180000Y-59021777D01*
X43209725Y-59046171D01*
G37*
X43209725Y-59046171D02*
X43357858Y-59125350D01*
X43518592Y-59174108D01*
X43685750Y-59190572D01*
X44193844Y-59190572D01*
X44187883Y-59195464D01*
X44099008Y-59303758D01*
X44032968Y-59427310D01*
X43992301Y-59561371D01*
X43982010Y-59665855D01*
X43982010Y-59665864D01*
X43978570Y-59700790D01*
X43982010Y-59735716D01*
X43982010Y-59819183D01*
X42282395Y-61518800D01*
X42154511Y-61518800D01*
X42061774Y-61426063D01*
X41892256Y-61312795D01*
X41738432Y-61249079D01*
X41761437Y-61226074D01*
X41874705Y-61056556D01*
X41952726Y-60868198D01*
X41992500Y-60668239D01*
X41992500Y-60464361D01*
X41952726Y-60264402D01*
X41874705Y-60076044D01*
X41761437Y-59906526D01*
X41617274Y-59762363D01*
X41447756Y-59649095D01*
X41370272Y-59617000D01*
X41638678Y-59617000D01*
X41676000Y-59620676D01*
X41713322Y-59617000D01*
X41713333Y-59617000D01*
X41824986Y-59606003D01*
X41968247Y-59562546D01*
X42100276Y-59491974D01*
X42216001Y-59397001D01*
X42239803Y-59367998D01*
X42417230Y-59190572D01*
X42674250Y-59190572D01*
X42841408Y-59174108D01*
X43002142Y-59125350D01*
X43150275Y-59046171D01*
X43180000Y-59021777D01*
X43209725Y-59046171D01*
G36*
X37120629Y-58685196D02*
G01*
X37142895Y-58712327D01*
X37170026Y-58734593D01*
X37170031Y-58734598D01*
X37251189Y-58801202D01*
X37374740Y-58867242D01*
X37425445Y-58882623D01*
X37508802Y-58907909D01*
X37613286Y-58918200D01*
X37613293Y-58918200D01*
X37648222Y-58921640D01*
X37683150Y-58918200D01*
X37808928Y-58918200D01*
X37808928Y-58957000D01*
X37823110Y-59100991D01*
X37865110Y-59239448D01*
X37933316Y-59367051D01*
X38025104Y-59478896D01*
X38059349Y-59507000D01*
X38025104Y-59535104D01*
X37933316Y-59646949D01*
X37865110Y-59774552D01*
X37843053Y-59847265D01*
X36143521Y-58147734D01*
X36156128Y-58145226D01*
X36344486Y-58067205D01*
X36439292Y-58003858D01*
X37120629Y-58685196D01*
G37*
X37120629Y-58685196D02*
X37142895Y-58712327D01*
X37170026Y-58734593D01*
X37170031Y-58734598D01*
X37251189Y-58801202D01*
X37374740Y-58867242D01*
X37425445Y-58882623D01*
X37508802Y-58907909D01*
X37613286Y-58918200D01*
X37613293Y-58918200D01*
X37648222Y-58921640D01*
X37683150Y-58918200D01*
X37808928Y-58918200D01*
X37808928Y-58957000D01*
X37823110Y-59100991D01*
X37865110Y-59239448D01*
X37933316Y-59367051D01*
X38025104Y-59478896D01*
X38059349Y-59507000D01*
X38025104Y-59535104D01*
X37933316Y-59646949D01*
X37865110Y-59774552D01*
X37843053Y-59847265D01*
X36143521Y-58147734D01*
X36156128Y-58145226D01*
X36344486Y-58067205D01*
X36439292Y-58003858D01*
X37120629Y-58685196D01*
G36*
X53224188Y-49774482D02*
G01*
X53260498Y-49894180D01*
X53319463Y-50004494D01*
X53398815Y-50101185D01*
X53495506Y-50180537D01*
X53605820Y-50239502D01*
X53725518Y-50275812D01*
X53850000Y-50288072D01*
X55850000Y-50288072D01*
X55974482Y-50275812D01*
X56094180Y-50239502D01*
X56204494Y-50180537D01*
X56301185Y-50101185D01*
X56380537Y-50004494D01*
X56438800Y-49895493D01*
X56438801Y-52029411D01*
X56220412Y-52247800D01*
X51469928Y-52247800D01*
X51435000Y-52244360D01*
X51400071Y-52247800D01*
X51400064Y-52247800D01*
X51295580Y-52258091D01*
X51161519Y-52298758D01*
X51037967Y-52364798D01*
X50929673Y-52453673D01*
X50907403Y-52480809D01*
X45055072Y-58333141D01*
X45055072Y-57896250D01*
X45038608Y-57729092D01*
X44989850Y-57568358D01*
X44910671Y-57420225D01*
X44804115Y-57290385D01*
X44702000Y-57206582D01*
X44702000Y-51876801D01*
X45099592Y-51479210D01*
X45319740Y-51523000D01*
X45612260Y-51523000D01*
X45899158Y-51465932D01*
X46169411Y-51353990D01*
X46412632Y-51191475D01*
X46619475Y-50984632D01*
X46660656Y-50923000D01*
X46717931Y-50923000D01*
X46761400Y-50927281D01*
X46804869Y-50923000D01*
X46804877Y-50923000D01*
X46922897Y-50911376D01*
X46924188Y-50924482D01*
X46960498Y-51044180D01*
X47019463Y-51154494D01*
X47098815Y-51251185D01*
X47195506Y-51330537D01*
X47305820Y-51389502D01*
X47425518Y-51425812D01*
X47550000Y-51438072D01*
X49550000Y-51438072D01*
X49674482Y-51425812D01*
X49794180Y-51389502D01*
X49904494Y-51330537D01*
X50001185Y-51251185D01*
X50080537Y-51154494D01*
X50139502Y-51044180D01*
X50175812Y-50924482D01*
X50188072Y-50800000D01*
X50188072Y-49660000D01*
X53212913Y-49660000D01*
X53224188Y-49774482D01*
G37*
X53224188Y-49774482D02*
X53260498Y-49894180D01*
X53319463Y-50004494D01*
X53398815Y-50101185D01*
X53495506Y-50180537D01*
X53605820Y-50239502D01*
X53725518Y-50275812D01*
X53850000Y-50288072D01*
X55850000Y-50288072D01*
X55974482Y-50275812D01*
X56094180Y-50239502D01*
X56204494Y-50180537D01*
X56301185Y-50101185D01*
X56380537Y-50004494D01*
X56438800Y-49895493D01*
X56438801Y-52029411D01*
X56220412Y-52247800D01*
X51469928Y-52247800D01*
X51435000Y-52244360D01*
X51400071Y-52247800D01*
X51400064Y-52247800D01*
X51295580Y-52258091D01*
X51161519Y-52298758D01*
X51037967Y-52364798D01*
X50929673Y-52453673D01*
X50907403Y-52480809D01*
X45055072Y-58333141D01*
X45055072Y-57896250D01*
X45038608Y-57729092D01*
X44989850Y-57568358D01*
X44910671Y-57420225D01*
X44804115Y-57290385D01*
X44702000Y-57206582D01*
X44702000Y-51876801D01*
X45099592Y-51479210D01*
X45319740Y-51523000D01*
X45612260Y-51523000D01*
X45899158Y-51465932D01*
X46169411Y-51353990D01*
X46412632Y-51191475D01*
X46619475Y-50984632D01*
X46660656Y-50923000D01*
X46717931Y-50923000D01*
X46761400Y-50927281D01*
X46804869Y-50923000D01*
X46804877Y-50923000D01*
X46922897Y-50911376D01*
X46924188Y-50924482D01*
X46960498Y-51044180D01*
X47019463Y-51154494D01*
X47098815Y-51251185D01*
X47195506Y-51330537D01*
X47305820Y-51389502D01*
X47425518Y-51425812D01*
X47550000Y-51438072D01*
X49550000Y-51438072D01*
X49674482Y-51425812D01*
X49794180Y-51389502D01*
X49904494Y-51330537D01*
X50001185Y-51251185D01*
X50080537Y-51154494D01*
X50139502Y-51044180D01*
X50175812Y-50924482D01*
X50188072Y-50800000D01*
X50188072Y-49660000D01*
X53212913Y-49660000D01*
X53224188Y-49774482D01*
G36*
X41772525Y-50984632D02*
G01*
X41979368Y-51191475D01*
X42222589Y-51353990D01*
X42492842Y-51465932D01*
X42609312Y-51489099D01*
X42829590Y-51709378D01*
X42829591Y-55986621D01*
X42620412Y-56195800D01*
X41675000Y-56195800D01*
X41675000Y-56128861D01*
X41635226Y-55928902D01*
X41557205Y-55740544D01*
X41443937Y-55571026D01*
X41299774Y-55426863D01*
X41217876Y-55372141D01*
X41281185Y-55320185D01*
X41360537Y-55223494D01*
X41419502Y-55113180D01*
X41455812Y-54993482D01*
X41468072Y-54869000D01*
X41468072Y-54219000D01*
X41455812Y-54094518D01*
X41419502Y-53974820D01*
X41360537Y-53864506D01*
X41281185Y-53767815D01*
X41184494Y-53688463D01*
X41074180Y-53629498D01*
X40954482Y-53593188D01*
X40830000Y-53580928D01*
X39770000Y-53580928D01*
X39645518Y-53593188D01*
X39525820Y-53629498D01*
X39415506Y-53688463D01*
X39318815Y-53767815D01*
X39239463Y-53864506D01*
X39200000Y-53938335D01*
X39160537Y-53864506D01*
X39081185Y-53767815D01*
X38984494Y-53688463D01*
X38874180Y-53629498D01*
X38757159Y-53594000D01*
X38874180Y-53558502D01*
X38984494Y-53499537D01*
X39081185Y-53420185D01*
X39160537Y-53323494D01*
X39219502Y-53213180D01*
X39255812Y-53093482D01*
X39268072Y-52969000D01*
X39268072Y-52319000D01*
X39255812Y-52194518D01*
X39219502Y-52074820D01*
X39187830Y-52015566D01*
X39255420Y-52008909D01*
X39389481Y-51968242D01*
X39513033Y-51902202D01*
X39621327Y-51813327D01*
X39643601Y-51786186D01*
X39962028Y-51467759D01*
X40239740Y-51523000D01*
X40532260Y-51523000D01*
X40819158Y-51465932D01*
X41089411Y-51353990D01*
X41332632Y-51191475D01*
X41539475Y-50984632D01*
X41656000Y-50810240D01*
X41772525Y-50984632D01*
G37*
X41772525Y-50984632D02*
X41979368Y-51191475D01*
X42222589Y-51353990D01*
X42492842Y-51465932D01*
X42609312Y-51489099D01*
X42829590Y-51709378D01*
X42829591Y-55986621D01*
X42620412Y-56195800D01*
X41675000Y-56195800D01*
X41675000Y-56128861D01*
X41635226Y-55928902D01*
X41557205Y-55740544D01*
X41443937Y-55571026D01*
X41299774Y-55426863D01*
X41217876Y-55372141D01*
X41281185Y-55320185D01*
X41360537Y-55223494D01*
X41419502Y-55113180D01*
X41455812Y-54993482D01*
X41468072Y-54869000D01*
X41468072Y-54219000D01*
X41455812Y-54094518D01*
X41419502Y-53974820D01*
X41360537Y-53864506D01*
X41281185Y-53767815D01*
X41184494Y-53688463D01*
X41074180Y-53629498D01*
X40954482Y-53593188D01*
X40830000Y-53580928D01*
X39770000Y-53580928D01*
X39645518Y-53593188D01*
X39525820Y-53629498D01*
X39415506Y-53688463D01*
X39318815Y-53767815D01*
X39239463Y-53864506D01*
X39200000Y-53938335D01*
X39160537Y-53864506D01*
X39081185Y-53767815D01*
X38984494Y-53688463D01*
X38874180Y-53629498D01*
X38757159Y-53594000D01*
X38874180Y-53558502D01*
X38984494Y-53499537D01*
X39081185Y-53420185D01*
X39160537Y-53323494D01*
X39219502Y-53213180D01*
X39255812Y-53093482D01*
X39268072Y-52969000D01*
X39268072Y-52319000D01*
X39255812Y-52194518D01*
X39219502Y-52074820D01*
X39187830Y-52015566D01*
X39255420Y-52008909D01*
X39389481Y-51968242D01*
X39513033Y-51902202D01*
X39621327Y-51813327D01*
X39643601Y-51786186D01*
X39962028Y-51467759D01*
X40239740Y-51523000D01*
X40532260Y-51523000D01*
X40819158Y-51465932D01*
X41089411Y-51353990D01*
X41332632Y-51191475D01*
X41539475Y-50984632D01*
X41656000Y-50810240D01*
X41772525Y-50984632D01*
G36*
X31525725Y-51426171D02*
G01*
X31673858Y-51505350D01*
X31834592Y-51554108D01*
X32001750Y-51570572D01*
X32514250Y-51570572D01*
X32681408Y-51554108D01*
X32748301Y-51533816D01*
X32748300Y-55426187D01*
X32678009Y-55433110D01*
X32539552Y-55475110D01*
X32411949Y-55543316D01*
X32300104Y-55635104D01*
X32208316Y-55746949D01*
X32166259Y-55825632D01*
X29528999Y-53188374D01*
X29528999Y-51932788D01*
X29861715Y-51600072D01*
X30994000Y-51600072D01*
X31118482Y-51587812D01*
X31238180Y-51551502D01*
X31348494Y-51492537D01*
X31445185Y-51413185D01*
X31471230Y-51381449D01*
X31525725Y-51426171D01*
G37*
X31525725Y-51426171D02*
X31673858Y-51505350D01*
X31834592Y-51554108D01*
X32001750Y-51570572D01*
X32514250Y-51570572D01*
X32681408Y-51554108D01*
X32748301Y-51533816D01*
X32748300Y-55426187D01*
X32678009Y-55433110D01*
X32539552Y-55475110D01*
X32411949Y-55543316D01*
X32300104Y-55635104D01*
X32208316Y-55746949D01*
X32166259Y-55825632D01*
X29528999Y-53188374D01*
X29528999Y-51932788D01*
X29861715Y-51600072D01*
X30994000Y-51600072D01*
X31118482Y-51587812D01*
X31238180Y-51551502D01*
X31348494Y-51492537D01*
X31445185Y-51413185D01*
X31471230Y-51381449D01*
X31525725Y-51426171D01*
G36*
X37036390Y-42983822D02*
G01*
X35388192Y-44632021D01*
X34673401Y-43917231D01*
X34673401Y-38072072D01*
X37036000Y-38072072D01*
X37036389Y-38072034D01*
X37036390Y-42983822D01*
G37*
X37036390Y-42983822D02*
X35388192Y-44632021D01*
X34673401Y-43917231D01*
X34673401Y-38072072D01*
X37036000Y-38072072D01*
X37036389Y-38072034D01*
X37036390Y-42983822D01*
%TD*%
M02*
