%TF.GenerationSoftware,KiCad,Pcbnew,5.1.6*%
%TF.CreationDate,2020-09-04T20:47:42+02:00*%
%TF.ProjectId,JBC_Nano_Hardware,4a42435f-4e61-46e6-9f5f-486172647761,rev?*%
%TF.SameCoordinates,Original*%
%TF.FileFunction,Paste,Top*%
%TF.FilePolarity,Positive*%
%FSLAX46Y46*%
G04 Gerber Fmt 4.6, Leading zero omitted, Abs format (unit mm)*
G04 Created by KiCad (PCBNEW 5.1.6) date 2020-09-04 20:47:42*
%MOMM*%
%LPD*%
G01*
G04 APERTURE LIST*
%ADD10R,1.220000X0.650000*%
%ADD11R,1.900000X1.100000*%
%ADD12R,0.900000X0.800000*%
%ADD13R,1.060000X0.650000*%
%ADD14R,2.000000X3.800000*%
%ADD15R,2.000000X1.500000*%
G04 APERTURE END LIST*
%TO.C,C1*%
G36*
G01*
X42161750Y-59252500D02*
X42674250Y-59252500D01*
G75*
G02*
X42893000Y-59471250I0J-218750D01*
G01*
X42893000Y-59908750D01*
G75*
G02*
X42674250Y-60127500I-218750J0D01*
G01*
X42161750Y-60127500D01*
G75*
G02*
X41943000Y-59908750I0J218750D01*
G01*
X41943000Y-59471250D01*
G75*
G02*
X42161750Y-59252500I218750J0D01*
G01*
G37*
G36*
G01*
X42161750Y-57677500D02*
X42674250Y-57677500D01*
G75*
G02*
X42893000Y-57896250I0J-218750D01*
G01*
X42893000Y-58333750D01*
G75*
G02*
X42674250Y-58552500I-218750J0D01*
G01*
X42161750Y-58552500D01*
G75*
G02*
X41943000Y-58333750I0J218750D01*
G01*
X41943000Y-57896250D01*
G75*
G02*
X42161750Y-57677500I218750J0D01*
G01*
G37*
%TD*%
%TO.C,C2*%
G36*
G01*
X43685750Y-57677500D02*
X44198250Y-57677500D01*
G75*
G02*
X44417000Y-57896250I0J-218750D01*
G01*
X44417000Y-58333750D01*
G75*
G02*
X44198250Y-58552500I-218750J0D01*
G01*
X43685750Y-58552500D01*
G75*
G02*
X43467000Y-58333750I0J218750D01*
G01*
X43467000Y-57896250D01*
G75*
G02*
X43685750Y-57677500I218750J0D01*
G01*
G37*
G36*
G01*
X43685750Y-59252500D02*
X44198250Y-59252500D01*
G75*
G02*
X44417000Y-59471250I0J-218750D01*
G01*
X44417000Y-59908750D01*
G75*
G02*
X44198250Y-60127500I-218750J0D01*
G01*
X43685750Y-60127500D01*
G75*
G02*
X43467000Y-59908750I0J218750D01*
G01*
X43467000Y-59471250D01*
G75*
G02*
X43685750Y-59252500I218750J0D01*
G01*
G37*
%TD*%
%TO.C,C3*%
G36*
G01*
X32001750Y-51632500D02*
X32514250Y-51632500D01*
G75*
G02*
X32733000Y-51851250I0J-218750D01*
G01*
X32733000Y-52288750D01*
G75*
G02*
X32514250Y-52507500I-218750J0D01*
G01*
X32001750Y-52507500D01*
G75*
G02*
X31783000Y-52288750I0J218750D01*
G01*
X31783000Y-51851250D01*
G75*
G02*
X32001750Y-51632500I218750J0D01*
G01*
G37*
G36*
G01*
X32001750Y-50057500D02*
X32514250Y-50057500D01*
G75*
G02*
X32733000Y-50276250I0J-218750D01*
G01*
X32733000Y-50713750D01*
G75*
G02*
X32514250Y-50932500I-218750J0D01*
G01*
X32001750Y-50932500D01*
G75*
G02*
X31783000Y-50713750I0J218750D01*
G01*
X31783000Y-50276250D01*
G75*
G02*
X32001750Y-50057500I218750J0D01*
G01*
G37*
%TD*%
%TO.C,C4*%
G36*
G01*
X56136250Y-30790500D02*
X55623750Y-30790500D01*
G75*
G02*
X55405000Y-30571750I0J218750D01*
G01*
X55405000Y-30134250D01*
G75*
G02*
X55623750Y-29915500I218750J0D01*
G01*
X56136250Y-29915500D01*
G75*
G02*
X56355000Y-30134250I0J-218750D01*
G01*
X56355000Y-30571750D01*
G75*
G02*
X56136250Y-30790500I-218750J0D01*
G01*
G37*
G36*
G01*
X56136250Y-32365500D02*
X55623750Y-32365500D01*
G75*
G02*
X55405000Y-32146750I0J218750D01*
G01*
X55405000Y-31709250D01*
G75*
G02*
X55623750Y-31490500I218750J0D01*
G01*
X56136250Y-31490500D01*
G75*
G02*
X56355000Y-31709250I0J-218750D01*
G01*
X56355000Y-32146750D01*
G75*
G02*
X56136250Y-32365500I-218750J0D01*
G01*
G37*
%TD*%
%TO.C,C5*%
G36*
G01*
X29461750Y-58185500D02*
X29974250Y-58185500D01*
G75*
G02*
X30193000Y-58404250I0J-218750D01*
G01*
X30193000Y-58841750D01*
G75*
G02*
X29974250Y-59060500I-218750J0D01*
G01*
X29461750Y-59060500D01*
G75*
G02*
X29243000Y-58841750I0J218750D01*
G01*
X29243000Y-58404250D01*
G75*
G02*
X29461750Y-58185500I218750J0D01*
G01*
G37*
G36*
G01*
X29461750Y-59760500D02*
X29974250Y-59760500D01*
G75*
G02*
X30193000Y-59979250I0J-218750D01*
G01*
X30193000Y-60416750D01*
G75*
G02*
X29974250Y-60635500I-218750J0D01*
G01*
X29461750Y-60635500D01*
G75*
G02*
X29243000Y-60416750I0J218750D01*
G01*
X29243000Y-59979250D01*
G75*
G02*
X29461750Y-59760500I218750J0D01*
G01*
G37*
%TD*%
%TO.C,C6*%
G36*
G01*
X24386250Y-52787000D02*
X23873750Y-52787000D01*
G75*
G02*
X23655000Y-52568250I0J218750D01*
G01*
X23655000Y-52130750D01*
G75*
G02*
X23873750Y-51912000I218750J0D01*
G01*
X24386250Y-51912000D01*
G75*
G02*
X24605000Y-52130750I0J-218750D01*
G01*
X24605000Y-52568250D01*
G75*
G02*
X24386250Y-52787000I-218750J0D01*
G01*
G37*
G36*
G01*
X24386250Y-51212000D02*
X23873750Y-51212000D01*
G75*
G02*
X23655000Y-50993250I0J218750D01*
G01*
X23655000Y-50555750D01*
G75*
G02*
X23873750Y-50337000I218750J0D01*
G01*
X24386250Y-50337000D01*
G75*
G02*
X24605000Y-50555750I0J-218750D01*
G01*
X24605000Y-50993250D01*
G75*
G02*
X24386250Y-51212000I-218750J0D01*
G01*
G37*
%TD*%
%TO.C,C7*%
G36*
G01*
X58041250Y-30790500D02*
X57528750Y-30790500D01*
G75*
G02*
X57310000Y-30571750I0J218750D01*
G01*
X57310000Y-30134250D01*
G75*
G02*
X57528750Y-29915500I218750J0D01*
G01*
X58041250Y-29915500D01*
G75*
G02*
X58260000Y-30134250I0J-218750D01*
G01*
X58260000Y-30571750D01*
G75*
G02*
X58041250Y-30790500I-218750J0D01*
G01*
G37*
G36*
G01*
X58041250Y-32365500D02*
X57528750Y-32365500D01*
G75*
G02*
X57310000Y-32146750I0J218750D01*
G01*
X57310000Y-31709250D01*
G75*
G02*
X57528750Y-31490500I218750J0D01*
G01*
X58041250Y-31490500D01*
G75*
G02*
X58260000Y-31709250I0J-218750D01*
G01*
X58260000Y-32146750D01*
G75*
G02*
X58041250Y-32365500I-218750J0D01*
G01*
G37*
%TD*%
%TO.C,C8*%
G36*
G01*
X27937750Y-59760500D02*
X28450250Y-59760500D01*
G75*
G02*
X28669000Y-59979250I0J-218750D01*
G01*
X28669000Y-60416750D01*
G75*
G02*
X28450250Y-60635500I-218750J0D01*
G01*
X27937750Y-60635500D01*
G75*
G02*
X27719000Y-60416750I0J218750D01*
G01*
X27719000Y-59979250D01*
G75*
G02*
X27937750Y-59760500I218750J0D01*
G01*
G37*
G36*
G01*
X27937750Y-58185500D02*
X28450250Y-58185500D01*
G75*
G02*
X28669000Y-58404250I0J-218750D01*
G01*
X28669000Y-58841750D01*
G75*
G02*
X28450250Y-59060500I-218750J0D01*
G01*
X27937750Y-59060500D01*
G75*
G02*
X27719000Y-58841750I0J218750D01*
G01*
X27719000Y-58404250D01*
G75*
G02*
X27937750Y-58185500I218750J0D01*
G01*
G37*
%TD*%
%TO.C,C10*%
G36*
G01*
X26413750Y-58185500D02*
X26926250Y-58185500D01*
G75*
G02*
X27145000Y-58404250I0J-218750D01*
G01*
X27145000Y-58841750D01*
G75*
G02*
X26926250Y-59060500I-218750J0D01*
G01*
X26413750Y-59060500D01*
G75*
G02*
X26195000Y-58841750I0J218750D01*
G01*
X26195000Y-58404250D01*
G75*
G02*
X26413750Y-58185500I218750J0D01*
G01*
G37*
G36*
G01*
X26413750Y-59760500D02*
X26926250Y-59760500D01*
G75*
G02*
X27145000Y-59979250I0J-218750D01*
G01*
X27145000Y-60416750D01*
G75*
G02*
X26926250Y-60635500I-218750J0D01*
G01*
X26413750Y-60635500D01*
G75*
G02*
X26195000Y-60416750I0J218750D01*
G01*
X26195000Y-59979250D01*
G75*
G02*
X26413750Y-59760500I218750J0D01*
G01*
G37*
%TD*%
%TO.C,C11*%
G36*
G01*
X44580000Y-46709750D02*
X44580000Y-47222250D01*
G75*
G02*
X44361250Y-47441000I-218750J0D01*
G01*
X43923750Y-47441000D01*
G75*
G02*
X43705000Y-47222250I0J218750D01*
G01*
X43705000Y-46709750D01*
G75*
G02*
X43923750Y-46491000I218750J0D01*
G01*
X44361250Y-46491000D01*
G75*
G02*
X44580000Y-46709750I0J-218750D01*
G01*
G37*
G36*
G01*
X46155000Y-46709750D02*
X46155000Y-47222250D01*
G75*
G02*
X45936250Y-47441000I-218750J0D01*
G01*
X45498750Y-47441000D01*
G75*
G02*
X45280000Y-47222250I0J218750D01*
G01*
X45280000Y-46709750D01*
G75*
G02*
X45498750Y-46491000I218750J0D01*
G01*
X45936250Y-46491000D01*
G75*
G02*
X46155000Y-46709750I0J-218750D01*
G01*
G37*
%TD*%
%TO.C,C12*%
G36*
G01*
X46155000Y-45185750D02*
X46155000Y-45698250D01*
G75*
G02*
X45936250Y-45917000I-218750J0D01*
G01*
X45498750Y-45917000D01*
G75*
G02*
X45280000Y-45698250I0J218750D01*
G01*
X45280000Y-45185750D01*
G75*
G02*
X45498750Y-44967000I218750J0D01*
G01*
X45936250Y-44967000D01*
G75*
G02*
X46155000Y-45185750I0J-218750D01*
G01*
G37*
G36*
G01*
X44580000Y-45185750D02*
X44580000Y-45698250D01*
G75*
G02*
X44361250Y-45917000I-218750J0D01*
G01*
X43923750Y-45917000D01*
G75*
G02*
X43705000Y-45698250I0J218750D01*
G01*
X43705000Y-45185750D01*
G75*
G02*
X43923750Y-44967000I218750J0D01*
G01*
X44361250Y-44967000D01*
G75*
G02*
X44580000Y-45185750I0J-218750D01*
G01*
G37*
%TD*%
%TO.C,C14*%
G36*
G01*
X46462500Y-62481750D02*
X46462500Y-62994250D01*
G75*
G02*
X46243750Y-63213000I-218750J0D01*
G01*
X45806250Y-63213000D01*
G75*
G02*
X45587500Y-62994250I0J218750D01*
G01*
X45587500Y-62481750D01*
G75*
G02*
X45806250Y-62263000I218750J0D01*
G01*
X46243750Y-62263000D01*
G75*
G02*
X46462500Y-62481750I0J-218750D01*
G01*
G37*
G36*
G01*
X44887500Y-62481750D02*
X44887500Y-62994250D01*
G75*
G02*
X44668750Y-63213000I-218750J0D01*
G01*
X44231250Y-63213000D01*
G75*
G02*
X44012500Y-62994250I0J218750D01*
G01*
X44012500Y-62481750D01*
G75*
G02*
X44231250Y-62263000I218750J0D01*
G01*
X44668750Y-62263000D01*
G75*
G02*
X44887500Y-62481750I0J-218750D01*
G01*
G37*
%TD*%
%TO.C,C15*%
G36*
G01*
X53295000Y-55877750D02*
X53295000Y-56390250D01*
G75*
G02*
X53076250Y-56609000I-218750J0D01*
G01*
X52638750Y-56609000D01*
G75*
G02*
X52420000Y-56390250I0J218750D01*
G01*
X52420000Y-55877750D01*
G75*
G02*
X52638750Y-55659000I218750J0D01*
G01*
X53076250Y-55659000D01*
G75*
G02*
X53295000Y-55877750I0J-218750D01*
G01*
G37*
G36*
G01*
X51720000Y-55877750D02*
X51720000Y-56390250D01*
G75*
G02*
X51501250Y-56609000I-218750J0D01*
G01*
X51063750Y-56609000D01*
G75*
G02*
X50845000Y-56390250I0J218750D01*
G01*
X50845000Y-55877750D01*
G75*
G02*
X51063750Y-55659000I218750J0D01*
G01*
X51501250Y-55659000D01*
G75*
G02*
X51720000Y-55877750I0J-218750D01*
G01*
G37*
%TD*%
%TO.C,C16*%
G36*
G01*
X51720000Y-54353750D02*
X51720000Y-54866250D01*
G75*
G02*
X51501250Y-55085000I-218750J0D01*
G01*
X51063750Y-55085000D01*
G75*
G02*
X50845000Y-54866250I0J218750D01*
G01*
X50845000Y-54353750D01*
G75*
G02*
X51063750Y-54135000I218750J0D01*
G01*
X51501250Y-54135000D01*
G75*
G02*
X51720000Y-54353750I0J-218750D01*
G01*
G37*
G36*
G01*
X53295000Y-54353750D02*
X53295000Y-54866250D01*
G75*
G02*
X53076250Y-55085000I-218750J0D01*
G01*
X52638750Y-55085000D01*
G75*
G02*
X52420000Y-54866250I0J218750D01*
G01*
X52420000Y-54353750D01*
G75*
G02*
X52638750Y-54135000I218750J0D01*
G01*
X53076250Y-54135000D01*
G75*
G02*
X53295000Y-54353750I0J-218750D01*
G01*
G37*
%TD*%
%TO.C,C13*%
G36*
G01*
X36392500Y-65026250D02*
X36392500Y-64513750D01*
G75*
G02*
X36611250Y-64295000I218750J0D01*
G01*
X37048750Y-64295000D01*
G75*
G02*
X37267500Y-64513750I0J-218750D01*
G01*
X37267500Y-65026250D01*
G75*
G02*
X37048750Y-65245000I-218750J0D01*
G01*
X36611250Y-65245000D01*
G75*
G02*
X36392500Y-65026250I0J218750D01*
G01*
G37*
G36*
G01*
X37967500Y-65026250D02*
X37967500Y-64513750D01*
G75*
G02*
X38186250Y-64295000I218750J0D01*
G01*
X38623750Y-64295000D01*
G75*
G02*
X38842500Y-64513750I0J-218750D01*
G01*
X38842500Y-65026250D01*
G75*
G02*
X38623750Y-65245000I-218750J0D01*
G01*
X38186250Y-65245000D01*
G75*
G02*
X37967500Y-65026250I0J218750D01*
G01*
G37*
%TD*%
%TO.C,D1*%
G36*
G01*
X58163750Y-55391500D02*
X58676250Y-55391500D01*
G75*
G02*
X58895000Y-55610250I0J-218750D01*
G01*
X58895000Y-56047750D01*
G75*
G02*
X58676250Y-56266500I-218750J0D01*
G01*
X58163750Y-56266500D01*
G75*
G02*
X57945000Y-56047750I0J218750D01*
G01*
X57945000Y-55610250D01*
G75*
G02*
X58163750Y-55391500I218750J0D01*
G01*
G37*
G36*
G01*
X58163750Y-56966500D02*
X58676250Y-56966500D01*
G75*
G02*
X58895000Y-57185250I0J-218750D01*
G01*
X58895000Y-57622750D01*
G75*
G02*
X58676250Y-57841500I-218750J0D01*
G01*
X58163750Y-57841500D01*
G75*
G02*
X57945000Y-57622750I0J218750D01*
G01*
X57945000Y-57185250D01*
G75*
G02*
X58163750Y-56966500I218750J0D01*
G01*
G37*
%TD*%
%TO.C,L1*%
G36*
G01*
X26213750Y-56662500D02*
X27126250Y-56662500D01*
G75*
G02*
X27370000Y-56906250I0J-243750D01*
G01*
X27370000Y-57393750D01*
G75*
G02*
X27126250Y-57637500I-243750J0D01*
G01*
X26213750Y-57637500D01*
G75*
G02*
X25970000Y-57393750I0J243750D01*
G01*
X25970000Y-56906250D01*
G75*
G02*
X26213750Y-56662500I243750J0D01*
G01*
G37*
G36*
G01*
X26213750Y-54787500D02*
X27126250Y-54787500D01*
G75*
G02*
X27370000Y-55031250I0J-243750D01*
G01*
X27370000Y-55518750D01*
G75*
G02*
X27126250Y-55762500I-243750J0D01*
G01*
X26213750Y-55762500D01*
G75*
G02*
X25970000Y-55518750I0J243750D01*
G01*
X25970000Y-55031250D01*
G75*
G02*
X26213750Y-54787500I243750J0D01*
G01*
G37*
%TD*%
%TO.C,Q1*%
G36*
G01*
X59330000Y-66779000D02*
X59330000Y-67079000D01*
G75*
G02*
X59180000Y-67229000I-150000J0D01*
G01*
X57530000Y-67229000D01*
G75*
G02*
X57380000Y-67079000I0J150000D01*
G01*
X57380000Y-66779000D01*
G75*
G02*
X57530000Y-66629000I150000J0D01*
G01*
X59180000Y-66629000D01*
G75*
G02*
X59330000Y-66779000I0J-150000D01*
G01*
G37*
G36*
G01*
X59330000Y-65509000D02*
X59330000Y-65809000D01*
G75*
G02*
X59180000Y-65959000I-150000J0D01*
G01*
X57530000Y-65959000D01*
G75*
G02*
X57380000Y-65809000I0J150000D01*
G01*
X57380000Y-65509000D01*
G75*
G02*
X57530000Y-65359000I150000J0D01*
G01*
X59180000Y-65359000D01*
G75*
G02*
X59330000Y-65509000I0J-150000D01*
G01*
G37*
G36*
G01*
X59330000Y-64239000D02*
X59330000Y-64539000D01*
G75*
G02*
X59180000Y-64689000I-150000J0D01*
G01*
X57530000Y-64689000D01*
G75*
G02*
X57380000Y-64539000I0J150000D01*
G01*
X57380000Y-64239000D01*
G75*
G02*
X57530000Y-64089000I150000J0D01*
G01*
X59180000Y-64089000D01*
G75*
G02*
X59330000Y-64239000I0J-150000D01*
G01*
G37*
G36*
G01*
X59330000Y-62969000D02*
X59330000Y-63269000D01*
G75*
G02*
X59180000Y-63419000I-150000J0D01*
G01*
X57530000Y-63419000D01*
G75*
G02*
X57380000Y-63269000I0J150000D01*
G01*
X57380000Y-62969000D01*
G75*
G02*
X57530000Y-62819000I150000J0D01*
G01*
X59180000Y-62819000D01*
G75*
G02*
X59330000Y-62969000I0J-150000D01*
G01*
G37*
G36*
G01*
X54380000Y-62969000D02*
X54380000Y-63269000D01*
G75*
G02*
X54230000Y-63419000I-150000J0D01*
G01*
X52580000Y-63419000D01*
G75*
G02*
X52430000Y-63269000I0J150000D01*
G01*
X52430000Y-62969000D01*
G75*
G02*
X52580000Y-62819000I150000J0D01*
G01*
X54230000Y-62819000D01*
G75*
G02*
X54380000Y-62969000I0J-150000D01*
G01*
G37*
G36*
G01*
X54380000Y-64239000D02*
X54380000Y-64539000D01*
G75*
G02*
X54230000Y-64689000I-150000J0D01*
G01*
X52580000Y-64689000D01*
G75*
G02*
X52430000Y-64539000I0J150000D01*
G01*
X52430000Y-64239000D01*
G75*
G02*
X52580000Y-64089000I150000J0D01*
G01*
X54230000Y-64089000D01*
G75*
G02*
X54380000Y-64239000I0J-150000D01*
G01*
G37*
G36*
G01*
X54380000Y-65509000D02*
X54380000Y-65809000D01*
G75*
G02*
X54230000Y-65959000I-150000J0D01*
G01*
X52580000Y-65959000D01*
G75*
G02*
X52430000Y-65809000I0J150000D01*
G01*
X52430000Y-65509000D01*
G75*
G02*
X52580000Y-65359000I150000J0D01*
G01*
X54230000Y-65359000D01*
G75*
G02*
X54380000Y-65509000I0J-150000D01*
G01*
G37*
G36*
G01*
X54380000Y-66779000D02*
X54380000Y-67079000D01*
G75*
G02*
X54230000Y-67229000I-150000J0D01*
G01*
X52580000Y-67229000D01*
G75*
G02*
X52430000Y-67079000I0J150000D01*
G01*
X52430000Y-66779000D01*
G75*
G02*
X52580000Y-66629000I150000J0D01*
G01*
X54230000Y-66629000D01*
G75*
G02*
X54380000Y-66779000I0J-150000D01*
G01*
G37*
%TD*%
%TO.C,R1*%
G36*
G01*
X60068750Y-64256500D02*
X60581250Y-64256500D01*
G75*
G02*
X60800000Y-64475250I0J-218750D01*
G01*
X60800000Y-64912750D01*
G75*
G02*
X60581250Y-65131500I-218750J0D01*
G01*
X60068750Y-65131500D01*
G75*
G02*
X59850000Y-64912750I0J218750D01*
G01*
X59850000Y-64475250D01*
G75*
G02*
X60068750Y-64256500I218750J0D01*
G01*
G37*
G36*
G01*
X60068750Y-62681500D02*
X60581250Y-62681500D01*
G75*
G02*
X60800000Y-62900250I0J-218750D01*
G01*
X60800000Y-63337750D01*
G75*
G02*
X60581250Y-63556500I-218750J0D01*
G01*
X60068750Y-63556500D01*
G75*
G02*
X59850000Y-63337750I0J218750D01*
G01*
X59850000Y-62900250D01*
G75*
G02*
X60068750Y-62681500I218750J0D01*
G01*
G37*
%TD*%
%TO.C,R3*%
G36*
G01*
X58163750Y-59201500D02*
X58676250Y-59201500D01*
G75*
G02*
X58895000Y-59420250I0J-218750D01*
G01*
X58895000Y-59857750D01*
G75*
G02*
X58676250Y-60076500I-218750J0D01*
G01*
X58163750Y-60076500D01*
G75*
G02*
X57945000Y-59857750I0J218750D01*
G01*
X57945000Y-59420250D01*
G75*
G02*
X58163750Y-59201500I218750J0D01*
G01*
G37*
G36*
G01*
X58163750Y-60776500D02*
X58676250Y-60776500D01*
G75*
G02*
X58895000Y-60995250I0J-218750D01*
G01*
X58895000Y-61432750D01*
G75*
G02*
X58676250Y-61651500I-218750J0D01*
G01*
X58163750Y-61651500D01*
G75*
G02*
X57945000Y-61432750I0J218750D01*
G01*
X57945000Y-60995250D01*
G75*
G02*
X58163750Y-60776500I218750J0D01*
G01*
G37*
%TD*%
%TO.C,R5*%
G36*
G01*
X54861750Y-59024000D02*
X55374250Y-59024000D01*
G75*
G02*
X55593000Y-59242750I0J-218750D01*
G01*
X55593000Y-59680250D01*
G75*
G02*
X55374250Y-59899000I-218750J0D01*
G01*
X54861750Y-59899000D01*
G75*
G02*
X54643000Y-59680250I0J218750D01*
G01*
X54643000Y-59242750D01*
G75*
G02*
X54861750Y-59024000I218750J0D01*
G01*
G37*
G36*
G01*
X54861750Y-57449000D02*
X55374250Y-57449000D01*
G75*
G02*
X55593000Y-57667750I0J-218750D01*
G01*
X55593000Y-58105250D01*
G75*
G02*
X55374250Y-58324000I-218750J0D01*
G01*
X54861750Y-58324000D01*
G75*
G02*
X54643000Y-58105250I0J218750D01*
G01*
X54643000Y-57667750D01*
G75*
G02*
X54861750Y-57449000I218750J0D01*
G01*
G37*
%TD*%
%TO.C,R6*%
G36*
G01*
X56898250Y-59899000D02*
X56385750Y-59899000D01*
G75*
G02*
X56167000Y-59680250I0J218750D01*
G01*
X56167000Y-59242750D01*
G75*
G02*
X56385750Y-59024000I218750J0D01*
G01*
X56898250Y-59024000D01*
G75*
G02*
X57117000Y-59242750I0J-218750D01*
G01*
X57117000Y-59680250D01*
G75*
G02*
X56898250Y-59899000I-218750J0D01*
G01*
G37*
G36*
G01*
X56898250Y-58324000D02*
X56385750Y-58324000D01*
G75*
G02*
X56167000Y-58105250I0J218750D01*
G01*
X56167000Y-57667750D01*
G75*
G02*
X56385750Y-57449000I218750J0D01*
G01*
X56898250Y-57449000D01*
G75*
G02*
X57117000Y-57667750I0J-218750D01*
G01*
X57117000Y-58105250D01*
G75*
G02*
X56898250Y-58324000I-218750J0D01*
G01*
G37*
%TD*%
%TO.C,R2*%
G36*
G01*
X36392500Y-66550250D02*
X36392500Y-66037750D01*
G75*
G02*
X36611250Y-65819000I218750J0D01*
G01*
X37048750Y-65819000D01*
G75*
G02*
X37267500Y-66037750I0J-218750D01*
G01*
X37267500Y-66550250D01*
G75*
G02*
X37048750Y-66769000I-218750J0D01*
G01*
X36611250Y-66769000D01*
G75*
G02*
X36392500Y-66550250I0J218750D01*
G01*
G37*
G36*
G01*
X37967500Y-66550250D02*
X37967500Y-66037750D01*
G75*
G02*
X38186250Y-65819000I218750J0D01*
G01*
X38623750Y-65819000D01*
G75*
G02*
X38842500Y-66037750I0J-218750D01*
G01*
X38842500Y-66550250D01*
G75*
G02*
X38623750Y-66769000I-218750J0D01*
G01*
X38186250Y-66769000D01*
G75*
G02*
X37967500Y-66550250I0J218750D01*
G01*
G37*
%TD*%
%TO.C,R7*%
G36*
G01*
X58422250Y-49510500D02*
X57909750Y-49510500D01*
G75*
G02*
X57691000Y-49291750I0J218750D01*
G01*
X57691000Y-48854250D01*
G75*
G02*
X57909750Y-48635500I218750J0D01*
G01*
X58422250Y-48635500D01*
G75*
G02*
X58641000Y-48854250I0J-218750D01*
G01*
X58641000Y-49291750D01*
G75*
G02*
X58422250Y-49510500I-218750J0D01*
G01*
G37*
G36*
G01*
X58422250Y-47935500D02*
X57909750Y-47935500D01*
G75*
G02*
X57691000Y-47716750I0J218750D01*
G01*
X57691000Y-47279250D01*
G75*
G02*
X57909750Y-47060500I218750J0D01*
G01*
X58422250Y-47060500D01*
G75*
G02*
X58641000Y-47279250I0J-218750D01*
G01*
X58641000Y-47716750D01*
G75*
G02*
X58422250Y-47935500I-218750J0D01*
G01*
G37*
%TD*%
%TO.C,R8*%
G36*
G01*
X60827500Y-47754250D02*
X60827500Y-47241750D01*
G75*
G02*
X61046250Y-47023000I218750J0D01*
G01*
X61483750Y-47023000D01*
G75*
G02*
X61702500Y-47241750I0J-218750D01*
G01*
X61702500Y-47754250D01*
G75*
G02*
X61483750Y-47973000I-218750J0D01*
G01*
X61046250Y-47973000D01*
G75*
G02*
X60827500Y-47754250I0J218750D01*
G01*
G37*
G36*
G01*
X59252500Y-47754250D02*
X59252500Y-47241750D01*
G75*
G02*
X59471250Y-47023000I218750J0D01*
G01*
X59908750Y-47023000D01*
G75*
G02*
X60127500Y-47241750I0J-218750D01*
G01*
X60127500Y-47754250D01*
G75*
G02*
X59908750Y-47973000I-218750J0D01*
G01*
X59471250Y-47973000D01*
G75*
G02*
X59252500Y-47754250I0J218750D01*
G01*
G37*
%TD*%
%TO.C,R9*%
G36*
G01*
X31493750Y-47111500D02*
X32006250Y-47111500D01*
G75*
G02*
X32225000Y-47330250I0J-218750D01*
G01*
X32225000Y-47767750D01*
G75*
G02*
X32006250Y-47986500I-218750J0D01*
G01*
X31493750Y-47986500D01*
G75*
G02*
X31275000Y-47767750I0J218750D01*
G01*
X31275000Y-47330250D01*
G75*
G02*
X31493750Y-47111500I218750J0D01*
G01*
G37*
G36*
G01*
X31493750Y-45536500D02*
X32006250Y-45536500D01*
G75*
G02*
X32225000Y-45755250I0J-218750D01*
G01*
X32225000Y-46192750D01*
G75*
G02*
X32006250Y-46411500I-218750J0D01*
G01*
X31493750Y-46411500D01*
G75*
G02*
X31275000Y-46192750I0J218750D01*
G01*
X31275000Y-45755250D01*
G75*
G02*
X31493750Y-45536500I218750J0D01*
G01*
G37*
%TD*%
%TO.C,R10*%
G36*
G01*
X30482250Y-47935500D02*
X29969750Y-47935500D01*
G75*
G02*
X29751000Y-47716750I0J218750D01*
G01*
X29751000Y-47279250D01*
G75*
G02*
X29969750Y-47060500I218750J0D01*
G01*
X30482250Y-47060500D01*
G75*
G02*
X30701000Y-47279250I0J-218750D01*
G01*
X30701000Y-47716750D01*
G75*
G02*
X30482250Y-47935500I-218750J0D01*
G01*
G37*
G36*
G01*
X30482250Y-46360500D02*
X29969750Y-46360500D01*
G75*
G02*
X29751000Y-46141750I0J218750D01*
G01*
X29751000Y-45704250D01*
G75*
G02*
X29969750Y-45485500I218750J0D01*
G01*
X30482250Y-45485500D01*
G75*
G02*
X30701000Y-45704250I0J-218750D01*
G01*
X30701000Y-46141750D01*
G75*
G02*
X30482250Y-46360500I-218750J0D01*
G01*
G37*
%TD*%
%TO.C,U1*%
G36*
G01*
X32722000Y-56357000D02*
X32722000Y-56157000D01*
G75*
G02*
X32822000Y-56057000I100000J0D01*
G01*
X34097000Y-56057000D01*
G75*
G02*
X34197000Y-56157000I0J-100000D01*
G01*
X34197000Y-56357000D01*
G75*
G02*
X34097000Y-56457000I-100000J0D01*
G01*
X32822000Y-56457000D01*
G75*
G02*
X32722000Y-56357000I0J100000D01*
G01*
G37*
G36*
G01*
X32722000Y-57007000D02*
X32722000Y-56807000D01*
G75*
G02*
X32822000Y-56707000I100000J0D01*
G01*
X34097000Y-56707000D01*
G75*
G02*
X34197000Y-56807000I0J-100000D01*
G01*
X34197000Y-57007000D01*
G75*
G02*
X34097000Y-57107000I-100000J0D01*
G01*
X32822000Y-57107000D01*
G75*
G02*
X32722000Y-57007000I0J100000D01*
G01*
G37*
G36*
G01*
X32722000Y-57657000D02*
X32722000Y-57457000D01*
G75*
G02*
X32822000Y-57357000I100000J0D01*
G01*
X34097000Y-57357000D01*
G75*
G02*
X34197000Y-57457000I0J-100000D01*
G01*
X34197000Y-57657000D01*
G75*
G02*
X34097000Y-57757000I-100000J0D01*
G01*
X32822000Y-57757000D01*
G75*
G02*
X32722000Y-57657000I0J100000D01*
G01*
G37*
G36*
G01*
X32722000Y-58307000D02*
X32722000Y-58107000D01*
G75*
G02*
X32822000Y-58007000I100000J0D01*
G01*
X34097000Y-58007000D01*
G75*
G02*
X34197000Y-58107000I0J-100000D01*
G01*
X34197000Y-58307000D01*
G75*
G02*
X34097000Y-58407000I-100000J0D01*
G01*
X32822000Y-58407000D01*
G75*
G02*
X32722000Y-58307000I0J100000D01*
G01*
G37*
G36*
G01*
X32722000Y-58957000D02*
X32722000Y-58757000D01*
G75*
G02*
X32822000Y-58657000I100000J0D01*
G01*
X34097000Y-58657000D01*
G75*
G02*
X34197000Y-58757000I0J-100000D01*
G01*
X34197000Y-58957000D01*
G75*
G02*
X34097000Y-59057000I-100000J0D01*
G01*
X32822000Y-59057000D01*
G75*
G02*
X32722000Y-58957000I0J100000D01*
G01*
G37*
G36*
G01*
X32722000Y-59607000D02*
X32722000Y-59407000D01*
G75*
G02*
X32822000Y-59307000I100000J0D01*
G01*
X34097000Y-59307000D01*
G75*
G02*
X34197000Y-59407000I0J-100000D01*
G01*
X34197000Y-59607000D01*
G75*
G02*
X34097000Y-59707000I-100000J0D01*
G01*
X32822000Y-59707000D01*
G75*
G02*
X32722000Y-59607000I0J100000D01*
G01*
G37*
G36*
G01*
X32722000Y-60257000D02*
X32722000Y-60057000D01*
G75*
G02*
X32822000Y-59957000I100000J0D01*
G01*
X34097000Y-59957000D01*
G75*
G02*
X34197000Y-60057000I0J-100000D01*
G01*
X34197000Y-60257000D01*
G75*
G02*
X34097000Y-60357000I-100000J0D01*
G01*
X32822000Y-60357000D01*
G75*
G02*
X32722000Y-60257000I0J100000D01*
G01*
G37*
G36*
G01*
X32722000Y-60907000D02*
X32722000Y-60707000D01*
G75*
G02*
X32822000Y-60607000I100000J0D01*
G01*
X34097000Y-60607000D01*
G75*
G02*
X34197000Y-60707000I0J-100000D01*
G01*
X34197000Y-60907000D01*
G75*
G02*
X34097000Y-61007000I-100000J0D01*
G01*
X32822000Y-61007000D01*
G75*
G02*
X32722000Y-60907000I0J100000D01*
G01*
G37*
G36*
G01*
X32722000Y-61557000D02*
X32722000Y-61357000D01*
G75*
G02*
X32822000Y-61257000I100000J0D01*
G01*
X34097000Y-61257000D01*
G75*
G02*
X34197000Y-61357000I0J-100000D01*
G01*
X34197000Y-61557000D01*
G75*
G02*
X34097000Y-61657000I-100000J0D01*
G01*
X32822000Y-61657000D01*
G75*
G02*
X32722000Y-61557000I0J100000D01*
G01*
G37*
G36*
G01*
X32722000Y-62207000D02*
X32722000Y-62007000D01*
G75*
G02*
X32822000Y-61907000I100000J0D01*
G01*
X34097000Y-61907000D01*
G75*
G02*
X34197000Y-62007000I0J-100000D01*
G01*
X34197000Y-62207000D01*
G75*
G02*
X34097000Y-62307000I-100000J0D01*
G01*
X32822000Y-62307000D01*
G75*
G02*
X32722000Y-62207000I0J100000D01*
G01*
G37*
G36*
G01*
X38447000Y-62207000D02*
X38447000Y-62007000D01*
G75*
G02*
X38547000Y-61907000I100000J0D01*
G01*
X39822000Y-61907000D01*
G75*
G02*
X39922000Y-62007000I0J-100000D01*
G01*
X39922000Y-62207000D01*
G75*
G02*
X39822000Y-62307000I-100000J0D01*
G01*
X38547000Y-62307000D01*
G75*
G02*
X38447000Y-62207000I0J100000D01*
G01*
G37*
G36*
G01*
X38447000Y-61557000D02*
X38447000Y-61357000D01*
G75*
G02*
X38547000Y-61257000I100000J0D01*
G01*
X39822000Y-61257000D01*
G75*
G02*
X39922000Y-61357000I0J-100000D01*
G01*
X39922000Y-61557000D01*
G75*
G02*
X39822000Y-61657000I-100000J0D01*
G01*
X38547000Y-61657000D01*
G75*
G02*
X38447000Y-61557000I0J100000D01*
G01*
G37*
G36*
G01*
X38447000Y-60907000D02*
X38447000Y-60707000D01*
G75*
G02*
X38547000Y-60607000I100000J0D01*
G01*
X39822000Y-60607000D01*
G75*
G02*
X39922000Y-60707000I0J-100000D01*
G01*
X39922000Y-60907000D01*
G75*
G02*
X39822000Y-61007000I-100000J0D01*
G01*
X38547000Y-61007000D01*
G75*
G02*
X38447000Y-60907000I0J100000D01*
G01*
G37*
G36*
G01*
X38447000Y-60257000D02*
X38447000Y-60057000D01*
G75*
G02*
X38547000Y-59957000I100000J0D01*
G01*
X39822000Y-59957000D01*
G75*
G02*
X39922000Y-60057000I0J-100000D01*
G01*
X39922000Y-60257000D01*
G75*
G02*
X39822000Y-60357000I-100000J0D01*
G01*
X38547000Y-60357000D01*
G75*
G02*
X38447000Y-60257000I0J100000D01*
G01*
G37*
G36*
G01*
X38447000Y-59607000D02*
X38447000Y-59407000D01*
G75*
G02*
X38547000Y-59307000I100000J0D01*
G01*
X39822000Y-59307000D01*
G75*
G02*
X39922000Y-59407000I0J-100000D01*
G01*
X39922000Y-59607000D01*
G75*
G02*
X39822000Y-59707000I-100000J0D01*
G01*
X38547000Y-59707000D01*
G75*
G02*
X38447000Y-59607000I0J100000D01*
G01*
G37*
G36*
G01*
X38447000Y-58957000D02*
X38447000Y-58757000D01*
G75*
G02*
X38547000Y-58657000I100000J0D01*
G01*
X39822000Y-58657000D01*
G75*
G02*
X39922000Y-58757000I0J-100000D01*
G01*
X39922000Y-58957000D01*
G75*
G02*
X39822000Y-59057000I-100000J0D01*
G01*
X38547000Y-59057000D01*
G75*
G02*
X38447000Y-58957000I0J100000D01*
G01*
G37*
G36*
G01*
X38447000Y-58307000D02*
X38447000Y-58107000D01*
G75*
G02*
X38547000Y-58007000I100000J0D01*
G01*
X39822000Y-58007000D01*
G75*
G02*
X39922000Y-58107000I0J-100000D01*
G01*
X39922000Y-58307000D01*
G75*
G02*
X39822000Y-58407000I-100000J0D01*
G01*
X38547000Y-58407000D01*
G75*
G02*
X38447000Y-58307000I0J100000D01*
G01*
G37*
G36*
G01*
X38447000Y-57657000D02*
X38447000Y-57457000D01*
G75*
G02*
X38547000Y-57357000I100000J0D01*
G01*
X39822000Y-57357000D01*
G75*
G02*
X39922000Y-57457000I0J-100000D01*
G01*
X39922000Y-57657000D01*
G75*
G02*
X39822000Y-57757000I-100000J0D01*
G01*
X38547000Y-57757000D01*
G75*
G02*
X38447000Y-57657000I0J100000D01*
G01*
G37*
G36*
G01*
X38447000Y-57007000D02*
X38447000Y-56807000D01*
G75*
G02*
X38547000Y-56707000I100000J0D01*
G01*
X39822000Y-56707000D01*
G75*
G02*
X39922000Y-56807000I0J-100000D01*
G01*
X39922000Y-57007000D01*
G75*
G02*
X39822000Y-57107000I-100000J0D01*
G01*
X38547000Y-57107000D01*
G75*
G02*
X38447000Y-57007000I0J100000D01*
G01*
G37*
G36*
G01*
X38447000Y-56357000D02*
X38447000Y-56157000D01*
G75*
G02*
X38547000Y-56057000I100000J0D01*
G01*
X39822000Y-56057000D01*
G75*
G02*
X39922000Y-56157000I0J-100000D01*
G01*
X39922000Y-56357000D01*
G75*
G02*
X39822000Y-56457000I-100000J0D01*
G01*
X38547000Y-56457000D01*
G75*
G02*
X38447000Y-56357000I0J100000D01*
G01*
G37*
%TD*%
D10*
%TO.C,U4*%
X50760000Y-57724000D03*
X50760000Y-58674000D03*
X50760000Y-59624000D03*
X53380000Y-59624000D03*
X53380000Y-57724000D03*
%TD*%
D11*
%TO.C,Y1*%
X30044000Y-50412000D03*
X26344000Y-50412000D03*
X26344000Y-52712000D03*
X30044000Y-52712000D03*
%TD*%
D12*
%TO.C,U3*%
X44482000Y-64836000D03*
X44482000Y-66736000D03*
X46482000Y-65786000D03*
%TD*%
D13*
%TO.C,U6*%
X38100000Y-52644000D03*
X38100000Y-53594000D03*
X38100000Y-54544000D03*
X40300000Y-54544000D03*
X40300000Y-52644000D03*
%TD*%
%TO.C,D2*%
G36*
G01*
X49627500Y-37623000D02*
X50052500Y-37623000D01*
G75*
G02*
X50265000Y-37835500I0J-212500D01*
G01*
X50265000Y-38635500D01*
G75*
G02*
X50052500Y-38848000I-212500J0D01*
G01*
X49627500Y-38848000D01*
G75*
G02*
X49415000Y-38635500I0J212500D01*
G01*
X49415000Y-37835500D01*
G75*
G02*
X49627500Y-37623000I212500J0D01*
G01*
G37*
G36*
G01*
X49627500Y-39248000D02*
X50052500Y-39248000D01*
G75*
G02*
X50265000Y-39460500I0J-212500D01*
G01*
X50265000Y-40260500D01*
G75*
G02*
X50052500Y-40473000I-212500J0D01*
G01*
X49627500Y-40473000D01*
G75*
G02*
X49415000Y-40260500I0J212500D01*
G01*
X49415000Y-39460500D01*
G75*
G02*
X49627500Y-39248000I212500J0D01*
G01*
G37*
%TD*%
%TO.C,R4*%
G36*
G01*
X50096250Y-43485500D02*
X49583750Y-43485500D01*
G75*
G02*
X49365000Y-43266750I0J218750D01*
G01*
X49365000Y-42829250D01*
G75*
G02*
X49583750Y-42610500I218750J0D01*
G01*
X50096250Y-42610500D01*
G75*
G02*
X50315000Y-42829250I0J-218750D01*
G01*
X50315000Y-43266750D01*
G75*
G02*
X50096250Y-43485500I-218750J0D01*
G01*
G37*
G36*
G01*
X50096250Y-41910500D02*
X49583750Y-41910500D01*
G75*
G02*
X49365000Y-41691750I0J218750D01*
G01*
X49365000Y-41254250D01*
G75*
G02*
X49583750Y-41035500I218750J0D01*
G01*
X50096250Y-41035500D01*
G75*
G02*
X50315000Y-41254250I0J-218750D01*
G01*
X50315000Y-41691750D01*
G75*
G02*
X50096250Y-41910500I-218750J0D01*
G01*
G37*
%TD*%
D14*
%TO.C,U2*%
X48550000Y-48900000D03*
D15*
X54850000Y-48900000D03*
X54850000Y-46600000D03*
X54850000Y-51200000D03*
%TD*%
%TO.C,C17*%
G36*
G01*
X42161750Y-36621000D02*
X42674250Y-36621000D01*
G75*
G02*
X42893000Y-36839750I0J-218750D01*
G01*
X42893000Y-37277250D01*
G75*
G02*
X42674250Y-37496000I-218750J0D01*
G01*
X42161750Y-37496000D01*
G75*
G02*
X41943000Y-37277250I0J218750D01*
G01*
X41943000Y-36839750D01*
G75*
G02*
X42161750Y-36621000I218750J0D01*
G01*
G37*
G36*
G01*
X42161750Y-38196000D02*
X42674250Y-38196000D01*
G75*
G02*
X42893000Y-38414750I0J-218750D01*
G01*
X42893000Y-38852250D01*
G75*
G02*
X42674250Y-39071000I-218750J0D01*
G01*
X42161750Y-39071000D01*
G75*
G02*
X41943000Y-38852250I0J218750D01*
G01*
X41943000Y-38414750D01*
G75*
G02*
X42161750Y-38196000I218750J0D01*
G01*
G37*
%TD*%
D13*
%TO.C,U5*%
X48176000Y-62207100D03*
X48176000Y-63157100D03*
X48176000Y-64107100D03*
X50376000Y-64107100D03*
X50376000Y-62207100D03*
%TD*%
M02*
