%TF.GenerationSoftware,KiCad,Pcbnew,5.1.6*%
%TF.CreationDate,2020-09-04T20:47:42+02:00*%
%TF.ProjectId,JBC_Nano_Hardware,4a42435f-4e61-46e6-9f5f-486172647761,rev?*%
%TF.SameCoordinates,Original*%
%TF.FileFunction,Copper,L2,Bot*%
%TF.FilePolarity,Positive*%
%FSLAX46Y46*%
G04 Gerber Fmt 4.6, Leading zero omitted, Abs format (unit mm)*
G04 Created by KiCad (PCBNEW 5.1.6) date 2020-09-04 20:47:42*
%MOMM*%
%LPD*%
G01*
G04 APERTURE LIST*
%TA.AperFunction,ComponentPad*%
%ADD10R,2.000000X2.000000*%
%TD*%
%TA.AperFunction,ComponentPad*%
%ADD11C,2.000000*%
%TD*%
%TA.AperFunction,ComponentPad*%
%ADD12C,3.000000*%
%TD*%
%TA.AperFunction,ComponentPad*%
%ADD13R,3.000000X3.000000*%
%TD*%
%TA.AperFunction,ComponentPad*%
%ADD14R,1.700000X1.700000*%
%TD*%
%TA.AperFunction,ComponentPad*%
%ADD15O,1.700000X1.700000*%
%TD*%
%TA.AperFunction,ComponentPad*%
%ADD16R,2.500000X3.000000*%
%TD*%
%TA.AperFunction,SMDPad,CuDef*%
%ADD17R,0.900000X1.700000*%
%TD*%
%TA.AperFunction,SMDPad,CuDef*%
%ADD18C,1.500000*%
%TD*%
%TA.AperFunction,ViaPad*%
%ADD19C,0.800000*%
%TD*%
%TA.AperFunction,Conductor*%
%ADD20C,0.250000*%
%TD*%
%TA.AperFunction,Conductor*%
%ADD21C,0.152400*%
%TD*%
%TA.AperFunction,Conductor*%
%ADD22C,2.000000*%
%TD*%
%TA.AperFunction,Conductor*%
%ADD23C,1.500000*%
%TD*%
%TA.AperFunction,Conductor*%
%ADD24C,0.254000*%
%TD*%
G04 APERTURE END LIST*
D10*
%TO.P,C9,1*%
%TO.N,VDC*%
X60325000Y-32258000D03*
D11*
%TO.P,C9,2*%
%TO.N,GND*%
X60325000Y-28758000D03*
%TD*%
D12*
%TO.P,F1,1*%
%TO.N,VDC*%
X67056000Y-42164000D03*
%TO.P,F1,2*%
%TO.N,Net-(F1-Pad2)*%
X44556000Y-42164000D03*
%TD*%
D13*
%TO.P,J1,1*%
%TO.N,GND*%
X45466000Y-32004000D03*
D12*
%TO.P,J1,2*%
%TO.N,Net-(F1-Pad2)*%
X50546000Y-32004000D03*
%TD*%
D14*
%TO.P,J3,1*%
%TO.N,GND*%
X37846000Y-50038000D03*
D15*
%TO.P,J3,2*%
%TO.N,/SWDCLK*%
X40386000Y-50038000D03*
%TO.P,J3,3*%
%TO.N,/SWDIO*%
X42926000Y-50038000D03*
%TO.P,J3,4*%
%TO.N,+3V3*%
X45466000Y-50038000D03*
%TD*%
D14*
%TO.P,J4,1*%
%TO.N,GND*%
X31242000Y-63754000D03*
D15*
%TO.P,J4,2*%
%TO.N,/UART_RX*%
X28702000Y-63754000D03*
%TO.P,J4,3*%
%TO.N,/UART_TX*%
X26162000Y-63754000D03*
%TD*%
D14*
%TO.P,J5,1*%
%TO.N,/I2C_SDA*%
X40386000Y-32004000D03*
D15*
%TO.P,J5,2*%
%TO.N,/I2C_SCL*%
X40386000Y-34544000D03*
%TO.P,J5,3*%
%TO.N,+3V3*%
X40386000Y-37084000D03*
%TO.P,J5,4*%
%TO.N,GND*%
X40386000Y-39624000D03*
%TD*%
D11*
%TO.P,SW1,S2*%
%TO.N,GND*%
X32686000Y-28934000D03*
%TO.P,SW1,S1*%
%TO.N,/ENCODER_SW*%
X27686000Y-28934000D03*
D16*
%TO.P,SW1,MP*%
%TO.N,N/C*%
X35786000Y-35934000D03*
X24586000Y-35934000D03*
D11*
%TO.P,SW1,B*%
%TO.N,/ENCODER_B*%
X32686000Y-43434000D03*
%TO.P,SW1,C*%
%TO.N,GND*%
X30186000Y-43434000D03*
D10*
%TO.P,SW1,A*%
%TO.N,/ENCODER_A*%
X27686000Y-43434000D03*
%TD*%
D17*
%TO.P,SW2,2*%
%TO.N,GND*%
X31926000Y-51562000D03*
%TO.P,SW2,1*%
%TO.N,/UC_RST*%
X28526000Y-51562000D03*
%TD*%
%TO.P,SW3,1*%
%TO.N,+3V3*%
X31926000Y-48006000D03*
%TO.P,SW3,2*%
%TO.N,/UC_BOOT*%
X28526000Y-48006000D03*
%TD*%
D12*
%TO.P,J2,2*%
%TO.N,GND*%
X63881000Y-56134000D03*
%TO.P,J2,3*%
%TO.N,Net-(J2-Pad3)*%
X63881000Y-61214000D03*
D13*
%TO.P,J2,1*%
%TO.N,GND*%
X63881000Y-51054000D03*
D12*
%TO.P,J2,4*%
%TO.N,Net-(J2-Pad4)*%
X63881000Y-66294000D03*
%TD*%
D18*
%TO.P,TP1,1*%
%TO.N,/V_TC_AMP*%
X48260000Y-58674000D03*
%TD*%
%TO.P,TP2,1*%
%TO.N,/HEATER_ON*%
X44424600Y-62001400D03*
%TD*%
D19*
%TO.N,GND*%
X37846000Y-46228000D03*
X31750000Y-54356000D03*
X27178000Y-45720000D03*
X31242000Y-60130800D03*
X37592000Y-59436000D03*
X43180000Y-63500000D03*
X38608000Y-63246000D03*
X45720000Y-53340000D03*
X36068000Y-40894000D03*
X69291200Y-58877200D03*
X69138800Y-53543200D03*
X69240400Y-63042800D03*
X39928800Y-28956000D03*
X26771600Y-31953200D03*
X32258000Y-39573200D03*
X25806400Y-40792400D03*
X34645600Y-31648400D03*
X25146000Y-61874400D03*
X24892000Y-55270400D03*
X62484000Y-40894000D03*
X69088000Y-48260000D03*
X59944000Y-44958000D03*
X34290000Y-66802000D03*
X29464000Y-35560000D03*
X63500000Y-31242000D03*
X42164000Y-52324000D03*
X63500000Y-69850000D03*
X58420000Y-69850000D03*
X53340000Y-69850000D03*
X48260000Y-69850000D03*
X43180000Y-69850000D03*
X38100000Y-69850000D03*
X33020000Y-69850000D03*
X30480000Y-67310000D03*
X54610000Y-25400000D03*
X47244000Y-27686000D03*
X40640000Y-25400000D03*
X30480000Y-25400000D03*
X68580000Y-33020000D03*
X51308000Y-51054000D03*
X56464200Y-51181000D03*
X52451000Y-49872900D03*
X52044600Y-61137800D03*
X46266100Y-59613800D03*
%TO.N,+3V3*%
X54610000Y-54610000D03*
X33274000Y-48006000D03*
X40894000Y-57912000D03*
X40640000Y-56230800D03*
X29718000Y-56896000D03*
X47752000Y-40386000D03*
%TO.N,VDC*%
X55626000Y-65278000D03*
X55626000Y-63754000D03*
X55626000Y-66802000D03*
X58674000Y-50546000D03*
%TO.N,Net-(J2-Pad3)*%
X39878000Y-66802000D03*
%TO.N,/HEATER_ON*%
X46799500Y-64414400D03*
X40957500Y-60566300D03*
%TO.N,/V_TC_AMP*%
X52070000Y-58674000D03*
X35028361Y-60165071D03*
%TO.N,/VDC_SENSE*%
X41402000Y-62230000D03*
X36322000Y-61722000D03*
%TO.N,/UC_RST*%
X28088082Y-54207918D03*
X33274000Y-49022000D03*
%TO.N,/UC_BOOT*%
X29718000Y-49022000D03*
%TO.N,/I2C_SDA*%
X35854230Y-57150000D03*
X37592000Y-57150000D03*
X37846000Y-55580800D03*
%TO.N,/I2C_SCL*%
X36911460Y-52578000D03*
X36382583Y-51053125D03*
%TD*%
D20*
%TO.N,GND*%
X32980000Y-46228000D02*
X37846000Y-46228000D01*
X30186000Y-43434000D02*
X32980000Y-46228000D01*
X32726000Y-40894000D02*
X30186000Y-43434000D01*
X36068000Y-50038000D02*
X37846000Y-50038000D01*
X33020000Y-51562000D02*
X33782000Y-52324000D01*
X31926000Y-51562000D02*
X33020000Y-51562000D01*
X33782000Y-52324000D02*
X36068000Y-50038000D01*
X31750000Y-54356000D02*
X33782000Y-52324000D01*
X30186000Y-43519002D02*
X30186000Y-43434000D01*
X27985002Y-45720000D02*
X30186000Y-43519002D01*
X27178000Y-45720000D02*
X27985002Y-45720000D01*
X36137928Y-60890072D02*
X37592000Y-59436000D01*
X32001272Y-60890072D02*
X36137928Y-60890072D01*
X31242000Y-60130800D02*
X32001272Y-60890072D01*
X38862000Y-63500000D02*
X38608000Y-63246000D01*
X43180000Y-63500000D02*
X38862000Y-63500000D01*
X41148000Y-53340000D02*
X37846000Y-50038000D01*
X36068000Y-40894000D02*
X32726000Y-40894000D01*
X39116000Y-40894000D02*
X36068000Y-40894000D01*
X40386000Y-39624000D02*
X39116000Y-40894000D01*
D21*
X42164000Y-52324000D02*
X42164000Y-53340000D01*
D20*
X42164000Y-53340000D02*
X41148000Y-53340000D01*
X45720000Y-53340000D02*
X42164000Y-53340000D01*
%TO.N,+3V3*%
X50038000Y-54610000D02*
X45466000Y-50038000D01*
X54610000Y-54610000D02*
X50038000Y-54610000D01*
D21*
X33274000Y-48006000D02*
X31926000Y-48006000D01*
D20*
X43434000Y-48006000D02*
X45466000Y-50038000D01*
X33274000Y-48006000D02*
X43434000Y-48006000D01*
D21*
X40640000Y-57658000D02*
X40894000Y-57912000D01*
X40640000Y-56230800D02*
X40640000Y-57658000D01*
D20*
X29718000Y-56896000D02*
X30734000Y-57912000D01*
X30734000Y-57912000D02*
X40894000Y-57912000D01*
X44450000Y-37084000D02*
X40386000Y-37084000D01*
X47752000Y-40386000D02*
X44450000Y-37084000D01*
D22*
%TO.N,VDC*%
X67056000Y-42164000D02*
X60706000Y-48514000D01*
X59690000Y-65278000D02*
X55626000Y-65278000D01*
X60706000Y-64262000D02*
X59690000Y-65278000D01*
D23*
X55626000Y-65278000D02*
X55626000Y-63754000D01*
X55626000Y-65278000D02*
X55626000Y-66802000D01*
D21*
X59182000Y-51054000D02*
X60706000Y-51054000D01*
X58674000Y-50546000D02*
X59182000Y-51054000D01*
D22*
X60706000Y-51054000D02*
X60706000Y-64262000D01*
X60706000Y-48514000D02*
X60706000Y-51054000D01*
X67056000Y-38989000D02*
X60325000Y-32258000D01*
X67056000Y-42164000D02*
X67056000Y-38989000D01*
D21*
%TO.N,Net-(J2-Pad3)*%
X40904210Y-67828210D02*
X39878000Y-66802000D01*
X59388110Y-67828210D02*
X40904210Y-67828210D01*
X63881000Y-63335320D02*
X59388110Y-67828210D01*
X63881000Y-61214000D02*
X63881000Y-63335320D01*
%TO.N,/HEATER_ON*%
X42951400Y-60566300D02*
X40957500Y-60566300D01*
X46799500Y-64414400D02*
X42951400Y-60566300D01*
%TO.N,/V_TC_AMP*%
X52070000Y-58674000D02*
X36519432Y-58674000D01*
X36519432Y-58674000D02*
X35028361Y-60165071D01*
%TO.N,/VDC_SENSE*%
X36830000Y-62230000D02*
X36322000Y-61722000D01*
X41402000Y-62230000D02*
X36830000Y-62230000D01*
%TO.N,/UC_RST*%
X28526000Y-53770000D02*
X28526000Y-51562000D01*
X28088082Y-54207918D02*
X28526000Y-53770000D01*
X31860201Y-50435799D02*
X33274000Y-49022000D01*
X29652201Y-50435799D02*
X31860201Y-50435799D01*
X28526000Y-51562000D02*
X29652201Y-50435799D01*
%TO.N,/UC_BOOT*%
X28702000Y-48006000D02*
X28526000Y-48006000D01*
X29718000Y-49022000D02*
X28702000Y-48006000D01*
%TO.N,/I2C_SDA*%
X35854230Y-57150000D02*
X37592000Y-57150000D01*
X37846000Y-56896000D02*
X37592000Y-57150000D01*
X37846000Y-55580800D02*
X37846000Y-56896000D01*
%TO.N,/I2C_SCL*%
X36382583Y-52049123D02*
X36382583Y-51053125D01*
X36911460Y-52578000D02*
X36382583Y-52049123D01*
%TD*%
D24*
%TO.N,GND*%
G36*
X70156001Y-70918000D02*
G01*
X23570000Y-70918000D01*
X23570000Y-68155117D01*
X25189000Y-68155117D01*
X25189000Y-68496883D01*
X25255675Y-68832081D01*
X25386463Y-69147831D01*
X25576337Y-69431998D01*
X25818002Y-69673663D01*
X26102169Y-69863537D01*
X26417919Y-69994325D01*
X26753117Y-70061000D01*
X27094883Y-70061000D01*
X27430081Y-69994325D01*
X27745831Y-69863537D01*
X28029998Y-69673663D01*
X28271663Y-69431998D01*
X28461537Y-69147831D01*
X28592325Y-68832081D01*
X28659000Y-68496883D01*
X28659000Y-68155117D01*
X28592325Y-67819919D01*
X28461537Y-67504169D01*
X28271663Y-67220002D01*
X28029998Y-66978337D01*
X27745831Y-66788463D01*
X27532410Y-66700061D01*
X38843000Y-66700061D01*
X38843000Y-66903939D01*
X38882774Y-67103898D01*
X38960795Y-67292256D01*
X39074063Y-67461774D01*
X39218226Y-67605937D01*
X39387744Y-67719205D01*
X39576102Y-67797226D01*
X39776061Y-67837000D01*
X39907212Y-67837000D01*
X40376613Y-68306401D01*
X40398883Y-68333537D01*
X40507177Y-68422412D01*
X40630729Y-68488452D01*
X40764790Y-68529119D01*
X40869274Y-68539410D01*
X40869283Y-68539410D01*
X40904209Y-68542850D01*
X40939135Y-68539410D01*
X59353184Y-68539410D01*
X59388110Y-68542850D01*
X59423036Y-68539410D01*
X59423046Y-68539410D01*
X59527530Y-68529119D01*
X59661591Y-68488452D01*
X59785143Y-68422412D01*
X59893437Y-68333537D01*
X59915712Y-68306395D01*
X61746000Y-66476107D01*
X61746000Y-66504279D01*
X61828047Y-66916756D01*
X61988988Y-67305302D01*
X62222637Y-67654983D01*
X62520017Y-67952363D01*
X62869698Y-68186012D01*
X63258244Y-68346953D01*
X63670721Y-68429000D01*
X64091279Y-68429000D01*
X64503756Y-68346953D01*
X64892302Y-68186012D01*
X65241983Y-67952363D01*
X65539363Y-67654983D01*
X65773012Y-67305302D01*
X65933953Y-66916756D01*
X66016000Y-66504279D01*
X66016000Y-66083721D01*
X65933953Y-65671244D01*
X65773012Y-65282698D01*
X65539363Y-64933017D01*
X65241983Y-64635637D01*
X64892302Y-64401988D01*
X64503756Y-64241047D01*
X64091279Y-64159000D01*
X64063108Y-64159000D01*
X64359191Y-63862917D01*
X64386327Y-63840647D01*
X64475202Y-63732353D01*
X64541242Y-63608801D01*
X64581909Y-63474740D01*
X64592200Y-63370256D01*
X64592200Y-63370249D01*
X64595640Y-63335320D01*
X64592200Y-63300392D01*
X64592200Y-63230318D01*
X64892302Y-63106012D01*
X65241983Y-62872363D01*
X65539363Y-62574983D01*
X65773012Y-62225302D01*
X65933953Y-61836756D01*
X66016000Y-61424279D01*
X66016000Y-61003721D01*
X65933953Y-60591244D01*
X65773012Y-60202698D01*
X65539363Y-59853017D01*
X65241983Y-59555637D01*
X64892302Y-59321988D01*
X64503756Y-59161047D01*
X64091279Y-59079000D01*
X63670721Y-59079000D01*
X63258244Y-59161047D01*
X62869698Y-59321988D01*
X62520017Y-59555637D01*
X62341000Y-59734654D01*
X62341000Y-49191238D01*
X67233239Y-44299000D01*
X67266279Y-44299000D01*
X67678756Y-44216953D01*
X68067302Y-44056012D01*
X68416983Y-43822363D01*
X68714363Y-43524983D01*
X68948012Y-43175302D01*
X69108953Y-42786756D01*
X69191000Y-42374279D01*
X69191000Y-41953721D01*
X69108953Y-41541244D01*
X68948012Y-41152698D01*
X68714363Y-40803017D01*
X68691000Y-40779654D01*
X68691000Y-39069319D01*
X68698911Y-38988999D01*
X68691000Y-38908678D01*
X68667343Y-38668484D01*
X68573852Y-38360285D01*
X68422031Y-38076248D01*
X68217714Y-37827286D01*
X68155319Y-37776080D01*
X61963072Y-31583834D01*
X61963072Y-31258000D01*
X61950812Y-31133518D01*
X61914502Y-31013820D01*
X61855537Y-30903506D01*
X61776185Y-30806815D01*
X61679494Y-30727463D01*
X61569180Y-30668498D01*
X61449482Y-30632188D01*
X61325000Y-30619928D01*
X60374130Y-30619928D01*
X60325000Y-30615089D01*
X60275870Y-30619928D01*
X59325000Y-30619928D01*
X59200518Y-30632188D01*
X59080820Y-30668498D01*
X58970506Y-30727463D01*
X58873815Y-30806815D01*
X58794463Y-30903506D01*
X58735498Y-31013820D01*
X58699188Y-31133518D01*
X58686928Y-31258000D01*
X58686928Y-32208870D01*
X58682089Y-32258000D01*
X58686928Y-32307130D01*
X58686928Y-33258000D01*
X58699188Y-33382482D01*
X58735498Y-33502180D01*
X58794463Y-33612494D01*
X58873815Y-33709185D01*
X58970506Y-33788537D01*
X59080820Y-33847502D01*
X59200518Y-33883812D01*
X59325000Y-33896072D01*
X59650834Y-33896072D01*
X65421001Y-39666240D01*
X65421000Y-40779654D01*
X65397637Y-40803017D01*
X65163988Y-41152698D01*
X65003047Y-41541244D01*
X64921000Y-41953721D01*
X64921000Y-41986761D01*
X59606687Y-47301075D01*
X59544286Y-47352286D01*
X59339969Y-47601249D01*
X59188148Y-47885286D01*
X59094657Y-48193485D01*
X59071579Y-48427798D01*
X59063089Y-48514000D01*
X59071000Y-48594320D01*
X59071000Y-49590167D01*
X58975898Y-49550774D01*
X58775939Y-49511000D01*
X58572061Y-49511000D01*
X58372102Y-49550774D01*
X58183744Y-49628795D01*
X58014226Y-49742063D01*
X57870063Y-49886226D01*
X57756795Y-50055744D01*
X57678774Y-50244102D01*
X57639000Y-50444061D01*
X57639000Y-50647939D01*
X57678774Y-50847898D01*
X57756795Y-51036256D01*
X57870063Y-51205774D01*
X58014226Y-51349937D01*
X58183744Y-51463205D01*
X58372102Y-51541226D01*
X58572061Y-51581000D01*
X58703082Y-51581000D01*
X58703804Y-51581593D01*
X58703808Y-51581597D01*
X58769764Y-51635726D01*
X58784967Y-51648202D01*
X58908519Y-51714242D01*
X59042580Y-51754909D01*
X59071000Y-51757708D01*
X59071001Y-63584761D01*
X59012762Y-63643000D01*
X57006769Y-63643000D01*
X56990960Y-63482493D01*
X56911764Y-63221419D01*
X56783157Y-62980812D01*
X56610081Y-62769919D01*
X56399188Y-62596843D01*
X56158581Y-62468236D01*
X55897507Y-62389040D01*
X55626000Y-62362299D01*
X55354494Y-62389040D01*
X55093420Y-62468236D01*
X54852813Y-62596843D01*
X54641920Y-62769919D01*
X54468844Y-62980812D01*
X54340237Y-63221419D01*
X54261040Y-63482493D01*
X54241000Y-63685963D01*
X54241000Y-64400736D01*
X54108148Y-64649285D01*
X54014657Y-64957484D01*
X53983089Y-65278000D01*
X54014657Y-65598516D01*
X54108148Y-65906715D01*
X54241000Y-66155264D01*
X54241000Y-66870037D01*
X54261040Y-67073507D01*
X54274237Y-67117010D01*
X41198798Y-67117010D01*
X40913000Y-66831212D01*
X40913000Y-66700061D01*
X40873226Y-66500102D01*
X40795205Y-66311744D01*
X40681937Y-66142226D01*
X40537774Y-65998063D01*
X40368256Y-65884795D01*
X40179898Y-65806774D01*
X39979939Y-65767000D01*
X39776061Y-65767000D01*
X39576102Y-65806774D01*
X39387744Y-65884795D01*
X39218226Y-65998063D01*
X39074063Y-66142226D01*
X38960795Y-66311744D01*
X38882774Y-66500102D01*
X38843000Y-66700061D01*
X27532410Y-66700061D01*
X27430081Y-66657675D01*
X27094883Y-66591000D01*
X26753117Y-66591000D01*
X26417919Y-66657675D01*
X26102169Y-66788463D01*
X25818002Y-66978337D01*
X25576337Y-67220002D01*
X25386463Y-67504169D01*
X25255675Y-67819919D01*
X25189000Y-68155117D01*
X23570000Y-68155117D01*
X23570000Y-63607740D01*
X24677000Y-63607740D01*
X24677000Y-63900260D01*
X24734068Y-64187158D01*
X24846010Y-64457411D01*
X25008525Y-64700632D01*
X25215368Y-64907475D01*
X25458589Y-65069990D01*
X25728842Y-65181932D01*
X26015740Y-65239000D01*
X26308260Y-65239000D01*
X26595158Y-65181932D01*
X26865411Y-65069990D01*
X27108632Y-64907475D01*
X27315475Y-64700632D01*
X27432000Y-64526240D01*
X27548525Y-64700632D01*
X27755368Y-64907475D01*
X27998589Y-65069990D01*
X28268842Y-65181932D01*
X28555740Y-65239000D01*
X28848260Y-65239000D01*
X29135158Y-65181932D01*
X29405411Y-65069990D01*
X29648632Y-64907475D01*
X29855475Y-64700632D01*
X30017990Y-64457411D01*
X30129932Y-64187158D01*
X30187000Y-63900260D01*
X30187000Y-63607740D01*
X30129932Y-63320842D01*
X30017990Y-63050589D01*
X29855475Y-62807368D01*
X29648632Y-62600525D01*
X29405411Y-62438010D01*
X29135158Y-62326068D01*
X28848260Y-62269000D01*
X28555740Y-62269000D01*
X28268842Y-62326068D01*
X27998589Y-62438010D01*
X27755368Y-62600525D01*
X27548525Y-62807368D01*
X27432000Y-62981760D01*
X27315475Y-62807368D01*
X27108632Y-62600525D01*
X26865411Y-62438010D01*
X26595158Y-62326068D01*
X26308260Y-62269000D01*
X26015740Y-62269000D01*
X25728842Y-62326068D01*
X25458589Y-62438010D01*
X25215368Y-62600525D01*
X25008525Y-62807368D01*
X24846010Y-63050589D01*
X24734068Y-63320842D01*
X24677000Y-63607740D01*
X23570000Y-63607740D01*
X23570000Y-56794061D01*
X28683000Y-56794061D01*
X28683000Y-56997939D01*
X28722774Y-57197898D01*
X28800795Y-57386256D01*
X28914063Y-57555774D01*
X29058226Y-57699937D01*
X29227744Y-57813205D01*
X29416102Y-57891226D01*
X29616061Y-57931000D01*
X29678199Y-57931000D01*
X30170201Y-58423003D01*
X30193999Y-58452001D01*
X30222997Y-58475799D01*
X30309723Y-58546974D01*
X30433076Y-58612908D01*
X30441753Y-58617546D01*
X30585014Y-58661003D01*
X30696667Y-58672000D01*
X30696677Y-58672000D01*
X30734000Y-58675676D01*
X30771322Y-58672000D01*
X35515644Y-58672000D01*
X35057574Y-59130071D01*
X34926422Y-59130071D01*
X34726463Y-59169845D01*
X34538105Y-59247866D01*
X34368587Y-59361134D01*
X34224424Y-59505297D01*
X34111156Y-59674815D01*
X34033135Y-59863173D01*
X33993361Y-60063132D01*
X33993361Y-60267010D01*
X34033135Y-60466969D01*
X34111156Y-60655327D01*
X34224424Y-60824845D01*
X34368587Y-60969008D01*
X34538105Y-61082276D01*
X34726463Y-61160297D01*
X34926422Y-61200071D01*
X35130300Y-61200071D01*
X35330259Y-61160297D01*
X35499327Y-61090266D01*
X35404795Y-61231744D01*
X35326774Y-61420102D01*
X35287000Y-61620061D01*
X35287000Y-61823939D01*
X35326774Y-62023898D01*
X35404795Y-62212256D01*
X35518063Y-62381774D01*
X35662226Y-62525937D01*
X35831744Y-62639205D01*
X36020102Y-62717226D01*
X36220061Y-62757000D01*
X36351082Y-62757000D01*
X36351804Y-62757593D01*
X36351808Y-62757597D01*
X36366823Y-62769919D01*
X36432967Y-62824202D01*
X36556519Y-62890242D01*
X36690580Y-62930909D01*
X36795064Y-62941200D01*
X36795081Y-62941200D01*
X36829999Y-62944639D01*
X36864917Y-62941200D01*
X40649489Y-62941200D01*
X40742226Y-63033937D01*
X40911744Y-63147205D01*
X41100102Y-63225226D01*
X41300061Y-63265000D01*
X41503939Y-63265000D01*
X41703898Y-63225226D01*
X41892256Y-63147205D01*
X42061774Y-63033937D01*
X42205937Y-62889774D01*
X42319205Y-62720256D01*
X42397226Y-62531898D01*
X42437000Y-62331939D01*
X42437000Y-62128061D01*
X42397226Y-61928102D01*
X42319205Y-61739744D01*
X42205937Y-61570226D01*
X42061774Y-61426063D01*
X41892256Y-61312795D01*
X41807047Y-61277500D01*
X42656813Y-61277500D01*
X43073562Y-61694250D01*
X43039600Y-61864989D01*
X43039600Y-62137811D01*
X43092825Y-62405389D01*
X43197229Y-62657443D01*
X43348801Y-62884286D01*
X43541714Y-63077199D01*
X43768557Y-63228771D01*
X44020611Y-63333175D01*
X44288189Y-63386400D01*
X44561011Y-63386400D01*
X44731750Y-63352438D01*
X45764500Y-64385189D01*
X45764500Y-64516339D01*
X45804274Y-64716298D01*
X45882295Y-64904656D01*
X45995563Y-65074174D01*
X46139726Y-65218337D01*
X46309244Y-65331605D01*
X46497602Y-65409626D01*
X46697561Y-65449400D01*
X46901439Y-65449400D01*
X47101398Y-65409626D01*
X47289756Y-65331605D01*
X47459274Y-65218337D01*
X47603437Y-65074174D01*
X47716705Y-64904656D01*
X47794726Y-64716298D01*
X47834500Y-64516339D01*
X47834500Y-64312461D01*
X47794726Y-64112502D01*
X47716705Y-63924144D01*
X47603437Y-63754626D01*
X47459274Y-63610463D01*
X47289756Y-63497195D01*
X47101398Y-63419174D01*
X46901439Y-63379400D01*
X46770289Y-63379400D01*
X45762995Y-62372107D01*
X45809600Y-62137811D01*
X45809600Y-61864989D01*
X45756375Y-61597411D01*
X45651971Y-61345357D01*
X45500399Y-61118514D01*
X45307486Y-60925601D01*
X45080643Y-60774029D01*
X44828589Y-60669625D01*
X44561011Y-60616400D01*
X44288189Y-60616400D01*
X44053892Y-60663005D01*
X43479002Y-60088115D01*
X43456727Y-60060973D01*
X43348433Y-59972098D01*
X43224881Y-59906058D01*
X43090820Y-59865391D01*
X42986336Y-59855100D01*
X42986326Y-59855100D01*
X42951400Y-59851660D01*
X42916474Y-59855100D01*
X41710011Y-59855100D01*
X41617274Y-59762363D01*
X41447756Y-59649095D01*
X41259398Y-59571074D01*
X41059439Y-59531300D01*
X40855561Y-59531300D01*
X40655602Y-59571074D01*
X40467244Y-59649095D01*
X40297726Y-59762363D01*
X40153563Y-59906526D01*
X40040295Y-60076044D01*
X39962274Y-60264402D01*
X39922500Y-60464361D01*
X39922500Y-60668239D01*
X39962274Y-60868198D01*
X40040295Y-61056556D01*
X40153563Y-61226074D01*
X40297726Y-61370237D01*
X40467244Y-61483505D01*
X40552453Y-61518800D01*
X37336858Y-61518800D01*
X37317226Y-61420102D01*
X37239205Y-61231744D01*
X37125937Y-61062226D01*
X36981774Y-60918063D01*
X36812256Y-60804795D01*
X36623898Y-60726774D01*
X36423939Y-60687000D01*
X36220061Y-60687000D01*
X36020102Y-60726774D01*
X35851034Y-60796805D01*
X35945566Y-60655327D01*
X36023587Y-60466969D01*
X36063361Y-60267010D01*
X36063361Y-60135858D01*
X36814020Y-59385200D01*
X47069484Y-59385200D01*
X47184201Y-59556886D01*
X47377114Y-59749799D01*
X47603957Y-59901371D01*
X47856011Y-60005775D01*
X48123589Y-60059000D01*
X48396411Y-60059000D01*
X48663989Y-60005775D01*
X48916043Y-59901371D01*
X49142886Y-59749799D01*
X49335799Y-59556886D01*
X49450516Y-59385200D01*
X51317489Y-59385200D01*
X51410226Y-59477937D01*
X51579744Y-59591205D01*
X51768102Y-59669226D01*
X51968061Y-59709000D01*
X52171939Y-59709000D01*
X52371898Y-59669226D01*
X52560256Y-59591205D01*
X52729774Y-59477937D01*
X52873937Y-59333774D01*
X52987205Y-59164256D01*
X53065226Y-58975898D01*
X53105000Y-58775939D01*
X53105000Y-58572061D01*
X53065226Y-58372102D01*
X52987205Y-58183744D01*
X52873937Y-58014226D01*
X52729774Y-57870063D01*
X52560256Y-57756795D01*
X52371898Y-57678774D01*
X52171939Y-57639000D01*
X51968061Y-57639000D01*
X51768102Y-57678774D01*
X51579744Y-57756795D01*
X51410226Y-57870063D01*
X51317489Y-57962800D01*
X49450516Y-57962800D01*
X49335799Y-57791114D01*
X49142886Y-57598201D01*
X48916043Y-57446629D01*
X48663989Y-57342225D01*
X48396411Y-57289000D01*
X48123589Y-57289000D01*
X47856011Y-57342225D01*
X47603957Y-57446629D01*
X47377114Y-57598201D01*
X47184201Y-57791114D01*
X47069484Y-57962800D01*
X41929000Y-57962800D01*
X41929000Y-57810061D01*
X41889226Y-57610102D01*
X41811205Y-57421744D01*
X41697937Y-57252226D01*
X41553774Y-57108063D01*
X41384256Y-56994795D01*
X41352762Y-56981749D01*
X41443937Y-56890574D01*
X41557205Y-56721056D01*
X41635226Y-56532698D01*
X41675000Y-56332739D01*
X41675000Y-56128861D01*
X41635226Y-55928902D01*
X41557205Y-55740544D01*
X41443937Y-55571026D01*
X41299774Y-55426863D01*
X41130256Y-55313595D01*
X40941898Y-55235574D01*
X40741939Y-55195800D01*
X40538061Y-55195800D01*
X40338102Y-55235574D01*
X40149744Y-55313595D01*
X39980226Y-55426863D01*
X39836063Y-55571026D01*
X39722795Y-55740544D01*
X39644774Y-55928902D01*
X39605000Y-56128861D01*
X39605000Y-56332739D01*
X39644774Y-56532698D01*
X39722795Y-56721056D01*
X39836063Y-56890574D01*
X39928801Y-56983312D01*
X39928801Y-57152000D01*
X38627000Y-57152000D01*
X38627000Y-57048061D01*
X38587226Y-56848102D01*
X38557200Y-56775613D01*
X38557200Y-56333311D01*
X38649937Y-56240574D01*
X38763205Y-56071056D01*
X38841226Y-55882698D01*
X38881000Y-55682739D01*
X38881000Y-55478861D01*
X38841226Y-55278902D01*
X38763205Y-55090544D01*
X38649937Y-54921026D01*
X38505774Y-54776863D01*
X38336256Y-54663595D01*
X38147898Y-54585574D01*
X37947939Y-54545800D01*
X37744061Y-54545800D01*
X37544102Y-54585574D01*
X37355744Y-54663595D01*
X37186226Y-54776863D01*
X37042063Y-54921026D01*
X36928795Y-55090544D01*
X36850774Y-55278902D01*
X36811000Y-55478861D01*
X36811000Y-55682739D01*
X36850774Y-55882698D01*
X36928795Y-56071056D01*
X37042063Y-56240574D01*
X37061305Y-56259816D01*
X36932226Y-56346063D01*
X36839489Y-56438800D01*
X36606741Y-56438800D01*
X36514004Y-56346063D01*
X36344486Y-56232795D01*
X36156128Y-56154774D01*
X35956169Y-56115000D01*
X35752291Y-56115000D01*
X35552332Y-56154774D01*
X35363974Y-56232795D01*
X35194456Y-56346063D01*
X35050293Y-56490226D01*
X34937025Y-56659744D01*
X34859004Y-56848102D01*
X34819230Y-57048061D01*
X34819230Y-57152000D01*
X31048802Y-57152000D01*
X30753000Y-56856199D01*
X30753000Y-56794061D01*
X30713226Y-56594102D01*
X30635205Y-56405744D01*
X30521937Y-56236226D01*
X30377774Y-56092063D01*
X30208256Y-55978795D01*
X30019898Y-55900774D01*
X29819939Y-55861000D01*
X29616061Y-55861000D01*
X29416102Y-55900774D01*
X29227744Y-55978795D01*
X29058226Y-56092063D01*
X28914063Y-56236226D01*
X28800795Y-56405744D01*
X28722774Y-56594102D01*
X28683000Y-56794061D01*
X23570000Y-56794061D01*
X23570000Y-54105979D01*
X27053082Y-54105979D01*
X27053082Y-54309857D01*
X27092856Y-54509816D01*
X27170877Y-54698174D01*
X27284145Y-54867692D01*
X27428308Y-55011855D01*
X27597826Y-55125123D01*
X27786184Y-55203144D01*
X27986143Y-55242918D01*
X28190021Y-55242918D01*
X28389980Y-55203144D01*
X28578338Y-55125123D01*
X28747856Y-55011855D01*
X28892019Y-54867692D01*
X29005287Y-54698174D01*
X29083308Y-54509816D01*
X29123082Y-54309857D01*
X29123082Y-54161645D01*
X29186242Y-54043482D01*
X29226909Y-53909420D01*
X29232761Y-53850000D01*
X29237200Y-53804936D01*
X29237200Y-53804929D01*
X29240640Y-53770000D01*
X29237200Y-53735072D01*
X29237200Y-52992404D01*
X29330494Y-52942537D01*
X29427185Y-52863185D01*
X29506537Y-52766494D01*
X29565502Y-52656180D01*
X29601812Y-52536482D01*
X29614072Y-52412000D01*
X29614072Y-51479716D01*
X29946790Y-51146999D01*
X31825275Y-51146999D01*
X31860201Y-51150439D01*
X31895127Y-51146999D01*
X31895137Y-51146999D01*
X31999621Y-51136708D01*
X32133682Y-51096041D01*
X32257234Y-51030001D01*
X32353269Y-50951186D01*
X35347583Y-50951186D01*
X35347583Y-51155064D01*
X35387357Y-51355023D01*
X35465378Y-51543381D01*
X35578646Y-51712899D01*
X35671383Y-51805636D01*
X35671383Y-52014197D01*
X35667943Y-52049123D01*
X35671383Y-52084049D01*
X35671383Y-52084058D01*
X35681674Y-52188542D01*
X35722341Y-52322603D01*
X35788381Y-52446155D01*
X35876460Y-52553479D01*
X35876460Y-52679939D01*
X35916234Y-52879898D01*
X35994255Y-53068256D01*
X36107523Y-53237774D01*
X36251686Y-53381937D01*
X36421204Y-53495205D01*
X36609562Y-53573226D01*
X36809521Y-53613000D01*
X37013399Y-53613000D01*
X37213358Y-53573226D01*
X37401716Y-53495205D01*
X37571234Y-53381937D01*
X37715397Y-53237774D01*
X37828665Y-53068256D01*
X37906686Y-52879898D01*
X37946460Y-52679939D01*
X37946460Y-52476061D01*
X37906686Y-52276102D01*
X37828665Y-52087744D01*
X37715397Y-51918226D01*
X37571234Y-51774063D01*
X37401716Y-51660795D01*
X37260437Y-51602275D01*
X37299788Y-51543381D01*
X37377809Y-51355023D01*
X37417583Y-51155064D01*
X37417583Y-50951186D01*
X37377809Y-50751227D01*
X37299788Y-50562869D01*
X37186520Y-50393351D01*
X37042357Y-50249188D01*
X36872839Y-50135920D01*
X36684481Y-50057899D01*
X36484522Y-50018125D01*
X36280644Y-50018125D01*
X36080685Y-50057899D01*
X35892327Y-50135920D01*
X35722809Y-50249188D01*
X35578646Y-50393351D01*
X35465378Y-50562869D01*
X35387357Y-50751227D01*
X35347583Y-50951186D01*
X32353269Y-50951186D01*
X32365528Y-50941126D01*
X32387803Y-50913985D01*
X33244788Y-50057000D01*
X33375939Y-50057000D01*
X33575898Y-50017226D01*
X33764256Y-49939205D01*
X33933774Y-49825937D01*
X34077937Y-49681774D01*
X34191205Y-49512256D01*
X34269226Y-49323898D01*
X34309000Y-49123939D01*
X34309000Y-48920061D01*
X34278356Y-48766000D01*
X39616753Y-48766000D01*
X39439368Y-48884525D01*
X39232525Y-49091368D01*
X39070010Y-49334589D01*
X38958068Y-49604842D01*
X38901000Y-49891740D01*
X38901000Y-50184260D01*
X38958068Y-50471158D01*
X39070010Y-50741411D01*
X39232525Y-50984632D01*
X39439368Y-51191475D01*
X39682589Y-51353990D01*
X39952842Y-51465932D01*
X40239740Y-51523000D01*
X40532260Y-51523000D01*
X40819158Y-51465932D01*
X41089411Y-51353990D01*
X41332632Y-51191475D01*
X41539475Y-50984632D01*
X41656000Y-50810240D01*
X41772525Y-50984632D01*
X41979368Y-51191475D01*
X42222589Y-51353990D01*
X42492842Y-51465932D01*
X42779740Y-51523000D01*
X43072260Y-51523000D01*
X43359158Y-51465932D01*
X43629411Y-51353990D01*
X43872632Y-51191475D01*
X44079475Y-50984632D01*
X44196000Y-50810240D01*
X44312525Y-50984632D01*
X44519368Y-51191475D01*
X44762589Y-51353990D01*
X45032842Y-51465932D01*
X45319740Y-51523000D01*
X45612260Y-51523000D01*
X45832408Y-51479209D01*
X49474205Y-55121008D01*
X49497999Y-55150001D01*
X49526992Y-55173795D01*
X49526996Y-55173799D01*
X49597685Y-55231811D01*
X49613724Y-55244974D01*
X49745753Y-55315546D01*
X49889014Y-55359003D01*
X50000667Y-55370000D01*
X50000676Y-55370000D01*
X50037999Y-55373676D01*
X50075322Y-55370000D01*
X53906289Y-55370000D01*
X53950226Y-55413937D01*
X54119744Y-55527205D01*
X54308102Y-55605226D01*
X54508061Y-55645000D01*
X54711939Y-55645000D01*
X54911898Y-55605226D01*
X55100256Y-55527205D01*
X55269774Y-55413937D01*
X55413937Y-55269774D01*
X55527205Y-55100256D01*
X55605226Y-54911898D01*
X55645000Y-54711939D01*
X55645000Y-54508061D01*
X55605226Y-54308102D01*
X55527205Y-54119744D01*
X55413937Y-53950226D01*
X55269774Y-53806063D01*
X55100256Y-53692795D01*
X54911898Y-53614774D01*
X54711939Y-53575000D01*
X54508061Y-53575000D01*
X54308102Y-53614774D01*
X54119744Y-53692795D01*
X53950226Y-53806063D01*
X53906289Y-53850000D01*
X50352803Y-53850000D01*
X46907209Y-50404408D01*
X46951000Y-50184260D01*
X46951000Y-49891740D01*
X46893932Y-49604842D01*
X46781990Y-49334589D01*
X46619475Y-49091368D01*
X46412632Y-48884525D01*
X46169411Y-48722010D01*
X45899158Y-48610068D01*
X45612260Y-48553000D01*
X45319740Y-48553000D01*
X45099592Y-48596790D01*
X43997804Y-47495003D01*
X43974001Y-47465999D01*
X43858276Y-47371026D01*
X43726247Y-47300454D01*
X43582986Y-47256997D01*
X43471333Y-47246000D01*
X43471322Y-47246000D01*
X43434000Y-47242324D01*
X43396678Y-47246000D01*
X33977711Y-47246000D01*
X33933774Y-47202063D01*
X33764256Y-47088795D01*
X33575898Y-47010774D01*
X33375939Y-46971000D01*
X33172061Y-46971000D01*
X32994187Y-47006381D01*
X32965502Y-46911820D01*
X32906537Y-46801506D01*
X32827185Y-46704815D01*
X32730494Y-46625463D01*
X32620180Y-46566498D01*
X32500482Y-46530188D01*
X32376000Y-46517928D01*
X31476000Y-46517928D01*
X31351518Y-46530188D01*
X31231820Y-46566498D01*
X31121506Y-46625463D01*
X31024815Y-46704815D01*
X30945463Y-46801506D01*
X30886498Y-46911820D01*
X30850188Y-47031518D01*
X30837928Y-47156000D01*
X30837928Y-48856000D01*
X30850188Y-48980482D01*
X30886498Y-49100180D01*
X30945463Y-49210494D01*
X31024815Y-49307185D01*
X31121506Y-49386537D01*
X31231820Y-49445502D01*
X31351518Y-49481812D01*
X31476000Y-49494072D01*
X31796140Y-49494072D01*
X31565614Y-49724599D01*
X30479112Y-49724599D01*
X30521937Y-49681774D01*
X30635205Y-49512256D01*
X30713226Y-49323898D01*
X30753000Y-49123939D01*
X30753000Y-48920061D01*
X30713226Y-48720102D01*
X30635205Y-48531744D01*
X30521937Y-48362226D01*
X30377774Y-48218063D01*
X30208256Y-48104795D01*
X30019898Y-48026774D01*
X29819939Y-47987000D01*
X29688787Y-47987000D01*
X29614072Y-47912285D01*
X29614072Y-47156000D01*
X29601812Y-47031518D01*
X29565502Y-46911820D01*
X29506537Y-46801506D01*
X29427185Y-46704815D01*
X29330494Y-46625463D01*
X29220180Y-46566498D01*
X29100482Y-46530188D01*
X28976000Y-46517928D01*
X28076000Y-46517928D01*
X27951518Y-46530188D01*
X27831820Y-46566498D01*
X27721506Y-46625463D01*
X27624815Y-46704815D01*
X27545463Y-46801506D01*
X27486498Y-46911820D01*
X27450188Y-47031518D01*
X27437928Y-47156000D01*
X27437928Y-48856000D01*
X27450188Y-48980482D01*
X27486498Y-49100180D01*
X27545463Y-49210494D01*
X27624815Y-49307185D01*
X27721506Y-49386537D01*
X27831820Y-49445502D01*
X27951518Y-49481812D01*
X28076000Y-49494072D01*
X28793263Y-49494072D01*
X28800795Y-49512256D01*
X28914063Y-49681774D01*
X29058226Y-49825937D01*
X29177301Y-49905500D01*
X29174010Y-49908201D01*
X29174005Y-49908206D01*
X29146874Y-49930472D01*
X29124608Y-49957603D01*
X29005389Y-50076822D01*
X28976000Y-50073928D01*
X28076000Y-50073928D01*
X27951518Y-50086188D01*
X27831820Y-50122498D01*
X27721506Y-50181463D01*
X27624815Y-50260815D01*
X27545463Y-50357506D01*
X27486498Y-50467820D01*
X27450188Y-50587518D01*
X27437928Y-50712000D01*
X27437928Y-52412000D01*
X27450188Y-52536482D01*
X27486498Y-52656180D01*
X27545463Y-52766494D01*
X27624815Y-52863185D01*
X27721506Y-52942537D01*
X27814800Y-52992405D01*
X27814800Y-53207000D01*
X27786184Y-53212692D01*
X27597826Y-53290713D01*
X27428308Y-53403981D01*
X27284145Y-53548144D01*
X27170877Y-53717662D01*
X27092856Y-53906020D01*
X27053082Y-54105979D01*
X23570000Y-54105979D01*
X23570000Y-47718973D01*
X23608463Y-47811831D01*
X23798337Y-48095998D01*
X24040002Y-48337663D01*
X24324169Y-48527537D01*
X24639919Y-48658325D01*
X24975117Y-48725000D01*
X25316883Y-48725000D01*
X25652081Y-48658325D01*
X25967831Y-48527537D01*
X26251998Y-48337663D01*
X26493663Y-48095998D01*
X26683537Y-47811831D01*
X26814325Y-47496081D01*
X26881000Y-47160883D01*
X26881000Y-46819117D01*
X26814325Y-46483919D01*
X26683537Y-46168169D01*
X26493663Y-45884002D01*
X26251998Y-45642337D01*
X25967831Y-45452463D01*
X25652081Y-45321675D01*
X25316883Y-45255000D01*
X24975117Y-45255000D01*
X24639919Y-45321675D01*
X24324169Y-45452463D01*
X24040002Y-45642337D01*
X23798337Y-45884002D01*
X23608463Y-46168169D01*
X23570000Y-46261027D01*
X23570000Y-42434000D01*
X26047928Y-42434000D01*
X26047928Y-44434000D01*
X26060188Y-44558482D01*
X26096498Y-44678180D01*
X26155463Y-44788494D01*
X26234815Y-44885185D01*
X26331506Y-44964537D01*
X26441820Y-45023502D01*
X26561518Y-45059812D01*
X26686000Y-45072072D01*
X28686000Y-45072072D01*
X28810482Y-45059812D01*
X28930180Y-45023502D01*
X29040494Y-44964537D01*
X29137185Y-44885185D01*
X29216537Y-44788494D01*
X29275502Y-44678180D01*
X29311812Y-44558482D01*
X29324072Y-44434000D01*
X29324072Y-43272967D01*
X31051000Y-43272967D01*
X31051000Y-43595033D01*
X31113832Y-43910912D01*
X31237082Y-44208463D01*
X31416013Y-44476252D01*
X31643748Y-44703987D01*
X31911537Y-44882918D01*
X32209088Y-45006168D01*
X32524967Y-45069000D01*
X32847033Y-45069000D01*
X32987210Y-45041117D01*
X38905000Y-45041117D01*
X38905000Y-45382883D01*
X38971675Y-45718081D01*
X39102463Y-46033831D01*
X39292337Y-46317998D01*
X39534002Y-46559663D01*
X39818169Y-46749537D01*
X40133919Y-46880325D01*
X40469117Y-46947000D01*
X40810883Y-46947000D01*
X41146081Y-46880325D01*
X41461831Y-46749537D01*
X41745998Y-46559663D01*
X41987663Y-46317998D01*
X42177537Y-46033831D01*
X42308325Y-45718081D01*
X42375000Y-45382883D01*
X42375000Y-45041117D01*
X42308325Y-44705919D01*
X42177537Y-44390169D01*
X41987663Y-44106002D01*
X41745998Y-43864337D01*
X41461831Y-43674463D01*
X41146081Y-43543675D01*
X40810883Y-43477000D01*
X40469117Y-43477000D01*
X40133919Y-43543675D01*
X39818169Y-43674463D01*
X39534002Y-43864337D01*
X39292337Y-44106002D01*
X39102463Y-44390169D01*
X38971675Y-44705919D01*
X38905000Y-45041117D01*
X32987210Y-45041117D01*
X33162912Y-45006168D01*
X33460463Y-44882918D01*
X33728252Y-44703987D01*
X33955987Y-44476252D01*
X34134918Y-44208463D01*
X34258168Y-43910912D01*
X34321000Y-43595033D01*
X34321000Y-43272967D01*
X34258168Y-42957088D01*
X34134918Y-42659537D01*
X33955987Y-42391748D01*
X33728252Y-42164013D01*
X33460463Y-41985082D01*
X33384752Y-41953721D01*
X42421000Y-41953721D01*
X42421000Y-42374279D01*
X42503047Y-42786756D01*
X42663988Y-43175302D01*
X42897637Y-43524983D01*
X43195017Y-43822363D01*
X43544698Y-44056012D01*
X43933244Y-44216953D01*
X44345721Y-44299000D01*
X44766279Y-44299000D01*
X45178756Y-44216953D01*
X45567302Y-44056012D01*
X45916983Y-43822363D01*
X46214363Y-43524983D01*
X46448012Y-43175302D01*
X46608953Y-42786756D01*
X46691000Y-42374279D01*
X46691000Y-41968495D01*
X53821000Y-41968495D01*
X53821000Y-42359505D01*
X53897282Y-42743003D01*
X54046915Y-43104250D01*
X54264149Y-43429364D01*
X54540636Y-43705851D01*
X54865750Y-43923085D01*
X55226997Y-44072718D01*
X55610495Y-44149000D01*
X56001505Y-44149000D01*
X56385003Y-44072718D01*
X56746250Y-43923085D01*
X57071364Y-43705851D01*
X57347851Y-43429364D01*
X57565085Y-43104250D01*
X57714718Y-42743003D01*
X57791000Y-42359505D01*
X57791000Y-41968495D01*
X57714718Y-41584997D01*
X57565085Y-41223750D01*
X57347851Y-40898636D01*
X57071364Y-40622149D01*
X56746250Y-40404915D01*
X56385003Y-40255282D01*
X56001505Y-40179000D01*
X55610495Y-40179000D01*
X55226997Y-40255282D01*
X54865750Y-40404915D01*
X54540636Y-40622149D01*
X54264149Y-40898636D01*
X54046915Y-41223750D01*
X53897282Y-41584997D01*
X53821000Y-41968495D01*
X46691000Y-41968495D01*
X46691000Y-41953721D01*
X46608953Y-41541244D01*
X46448012Y-41152698D01*
X46214363Y-40803017D01*
X45916983Y-40505637D01*
X45567302Y-40271988D01*
X45178756Y-40111047D01*
X44766279Y-40029000D01*
X44345721Y-40029000D01*
X43933244Y-40111047D01*
X43544698Y-40271988D01*
X43195017Y-40505637D01*
X42897637Y-40803017D01*
X42663988Y-41152698D01*
X42503047Y-41541244D01*
X42421000Y-41953721D01*
X33384752Y-41953721D01*
X33162912Y-41861832D01*
X32847033Y-41799000D01*
X32524967Y-41799000D01*
X32209088Y-41861832D01*
X31911537Y-41985082D01*
X31643748Y-42164013D01*
X31416013Y-42391748D01*
X31237082Y-42659537D01*
X31113832Y-42957088D01*
X31051000Y-43272967D01*
X29324072Y-43272967D01*
X29324072Y-42434000D01*
X29311812Y-42309518D01*
X29275502Y-42189820D01*
X29216537Y-42079506D01*
X29137185Y-41982815D01*
X29040494Y-41903463D01*
X28930180Y-41844498D01*
X28810482Y-41808188D01*
X28686000Y-41795928D01*
X26686000Y-41795928D01*
X26561518Y-41808188D01*
X26441820Y-41844498D01*
X26331506Y-41903463D01*
X26234815Y-41982815D01*
X26155463Y-42079506D01*
X26096498Y-42189820D01*
X26060188Y-42309518D01*
X26047928Y-42434000D01*
X23570000Y-42434000D01*
X23570000Y-38072072D01*
X25836000Y-38072072D01*
X25960482Y-38059812D01*
X26080180Y-38023502D01*
X26190494Y-37964537D01*
X26287185Y-37885185D01*
X26366537Y-37788494D01*
X26425502Y-37678180D01*
X26461812Y-37558482D01*
X26474072Y-37434000D01*
X26474072Y-34434000D01*
X33897928Y-34434000D01*
X33897928Y-37434000D01*
X33910188Y-37558482D01*
X33946498Y-37678180D01*
X34005463Y-37788494D01*
X34084815Y-37885185D01*
X34181506Y-37964537D01*
X34291820Y-38023502D01*
X34411518Y-38059812D01*
X34536000Y-38072072D01*
X37036000Y-38072072D01*
X37160482Y-38059812D01*
X37280180Y-38023502D01*
X37390494Y-37964537D01*
X37487185Y-37885185D01*
X37566537Y-37788494D01*
X37625502Y-37678180D01*
X37661812Y-37558482D01*
X37674072Y-37434000D01*
X37674072Y-34434000D01*
X37661812Y-34309518D01*
X37625502Y-34189820D01*
X37566537Y-34079506D01*
X37487185Y-33982815D01*
X37390494Y-33903463D01*
X37280180Y-33844498D01*
X37160482Y-33808188D01*
X37036000Y-33795928D01*
X34536000Y-33795928D01*
X34411518Y-33808188D01*
X34291820Y-33844498D01*
X34181506Y-33903463D01*
X34084815Y-33982815D01*
X34005463Y-34079506D01*
X33946498Y-34189820D01*
X33910188Y-34309518D01*
X33897928Y-34434000D01*
X26474072Y-34434000D01*
X26461812Y-34309518D01*
X26425502Y-34189820D01*
X26366537Y-34079506D01*
X26287185Y-33982815D01*
X26190494Y-33903463D01*
X26080180Y-33844498D01*
X25960482Y-33808188D01*
X25836000Y-33795928D01*
X23570000Y-33795928D01*
X23570000Y-31154000D01*
X38897928Y-31154000D01*
X38897928Y-32854000D01*
X38910188Y-32978482D01*
X38946498Y-33098180D01*
X39005463Y-33208494D01*
X39084815Y-33305185D01*
X39181506Y-33384537D01*
X39291820Y-33443502D01*
X39364380Y-33465513D01*
X39232525Y-33597368D01*
X39070010Y-33840589D01*
X38958068Y-34110842D01*
X38901000Y-34397740D01*
X38901000Y-34690260D01*
X38958068Y-34977158D01*
X39070010Y-35247411D01*
X39232525Y-35490632D01*
X39439368Y-35697475D01*
X39613760Y-35814000D01*
X39439368Y-35930525D01*
X39232525Y-36137368D01*
X39070010Y-36380589D01*
X38958068Y-36650842D01*
X38901000Y-36937740D01*
X38901000Y-37230260D01*
X38958068Y-37517158D01*
X39070010Y-37787411D01*
X39232525Y-38030632D01*
X39439368Y-38237475D01*
X39682589Y-38399990D01*
X39952842Y-38511932D01*
X40239740Y-38569000D01*
X40532260Y-38569000D01*
X40819158Y-38511932D01*
X41089411Y-38399990D01*
X41332632Y-38237475D01*
X41539475Y-38030632D01*
X41664178Y-37844000D01*
X44135199Y-37844000D01*
X46717000Y-40425802D01*
X46717000Y-40487939D01*
X46756774Y-40687898D01*
X46834795Y-40876256D01*
X46948063Y-41045774D01*
X47092226Y-41189937D01*
X47261744Y-41303205D01*
X47450102Y-41381226D01*
X47650061Y-41421000D01*
X47853939Y-41421000D01*
X48053898Y-41381226D01*
X48242256Y-41303205D01*
X48411774Y-41189937D01*
X48555937Y-41045774D01*
X48669205Y-40876256D01*
X48747226Y-40687898D01*
X48787000Y-40487939D01*
X48787000Y-40284061D01*
X48747226Y-40084102D01*
X48669205Y-39895744D01*
X48555937Y-39726226D01*
X48411774Y-39582063D01*
X48242256Y-39468795D01*
X48053898Y-39390774D01*
X47853939Y-39351000D01*
X47791802Y-39351000D01*
X45013804Y-36573003D01*
X44990001Y-36543999D01*
X44874276Y-36449026D01*
X44742247Y-36378454D01*
X44598986Y-36334997D01*
X44487333Y-36324000D01*
X44487322Y-36324000D01*
X44450000Y-36320324D01*
X44412678Y-36324000D01*
X41664178Y-36324000D01*
X41539475Y-36137368D01*
X41332632Y-35930525D01*
X41158240Y-35814000D01*
X41332632Y-35697475D01*
X41539475Y-35490632D01*
X41701990Y-35247411D01*
X41813932Y-34977158D01*
X41871000Y-34690260D01*
X41871000Y-34397740D01*
X41813932Y-34110842D01*
X41701990Y-33840589D01*
X41539475Y-33597368D01*
X41407620Y-33465513D01*
X41480180Y-33443502D01*
X41590494Y-33384537D01*
X41687185Y-33305185D01*
X41766537Y-33208494D01*
X41825502Y-33098180D01*
X41861812Y-32978482D01*
X41874072Y-32854000D01*
X41874072Y-31793721D01*
X48411000Y-31793721D01*
X48411000Y-32214279D01*
X48493047Y-32626756D01*
X48653988Y-33015302D01*
X48887637Y-33364983D01*
X49185017Y-33662363D01*
X49534698Y-33896012D01*
X49923244Y-34056953D01*
X50335721Y-34139000D01*
X50756279Y-34139000D01*
X51168756Y-34056953D01*
X51557302Y-33896012D01*
X51906983Y-33662363D01*
X52204363Y-33364983D01*
X52438012Y-33015302D01*
X52598953Y-32626756D01*
X52681000Y-32214279D01*
X52681000Y-31793721D01*
X52598953Y-31381244D01*
X52438012Y-30992698D01*
X52204363Y-30643017D01*
X51906983Y-30345637D01*
X51557302Y-30111988D01*
X51168756Y-29951047D01*
X50756279Y-29869000D01*
X50335721Y-29869000D01*
X49923244Y-29951047D01*
X49534698Y-30111988D01*
X49185017Y-30345637D01*
X48887637Y-30643017D01*
X48653988Y-30992698D01*
X48493047Y-31381244D01*
X48411000Y-31793721D01*
X41874072Y-31793721D01*
X41874072Y-31154000D01*
X41861812Y-31029518D01*
X41825502Y-30909820D01*
X41766537Y-30799506D01*
X41687185Y-30702815D01*
X41590494Y-30623463D01*
X41480180Y-30564498D01*
X41360482Y-30528188D01*
X41236000Y-30515928D01*
X39536000Y-30515928D01*
X39411518Y-30528188D01*
X39291820Y-30564498D01*
X39181506Y-30623463D01*
X39084815Y-30702815D01*
X39005463Y-30799506D01*
X38946498Y-30909820D01*
X38910188Y-31029518D01*
X38897928Y-31154000D01*
X23570000Y-31154000D01*
X23570000Y-28772967D01*
X26051000Y-28772967D01*
X26051000Y-29095033D01*
X26113832Y-29410912D01*
X26237082Y-29708463D01*
X26416013Y-29976252D01*
X26643748Y-30203987D01*
X26911537Y-30382918D01*
X27209088Y-30506168D01*
X27524967Y-30569000D01*
X27847033Y-30569000D01*
X28162912Y-30506168D01*
X28460463Y-30382918D01*
X28728252Y-30203987D01*
X28955987Y-29976252D01*
X29134918Y-29708463D01*
X29258168Y-29410912D01*
X29321000Y-29095033D01*
X29321000Y-28772967D01*
X29258168Y-28457088D01*
X29134918Y-28159537D01*
X28955987Y-27891748D01*
X28728252Y-27664013D01*
X28460463Y-27485082D01*
X28162912Y-27361832D01*
X27847033Y-27299000D01*
X27524967Y-27299000D01*
X27209088Y-27361832D01*
X26911537Y-27485082D01*
X26643748Y-27664013D01*
X26416013Y-27891748D01*
X26237082Y-28159537D01*
X26113832Y-28457088D01*
X26051000Y-28772967D01*
X23570000Y-28772967D01*
X23570000Y-24975117D01*
X24173000Y-24975117D01*
X24173000Y-25316883D01*
X24239675Y-25652081D01*
X24370463Y-25967831D01*
X24560337Y-26251998D01*
X24802002Y-26493663D01*
X25086169Y-26683537D01*
X25401919Y-26814325D01*
X25737117Y-26881000D01*
X26078883Y-26881000D01*
X26414081Y-26814325D01*
X26729831Y-26683537D01*
X27013998Y-26493663D01*
X27255663Y-26251998D01*
X27445537Y-25967831D01*
X27576325Y-25652081D01*
X27643000Y-25316883D01*
X27643000Y-24975117D01*
X34079000Y-24975117D01*
X34079000Y-25316883D01*
X34145675Y-25652081D01*
X34276463Y-25967831D01*
X34466337Y-26251998D01*
X34708002Y-26493663D01*
X34992169Y-26683537D01*
X35307919Y-26814325D01*
X35643117Y-26881000D01*
X35984883Y-26881000D01*
X36320081Y-26814325D01*
X36635831Y-26683537D01*
X36919998Y-26493663D01*
X37161663Y-26251998D01*
X37351537Y-25967831D01*
X37482325Y-25652081D01*
X37549000Y-25316883D01*
X37549000Y-24975117D01*
X65829000Y-24975117D01*
X65829000Y-25316883D01*
X65895675Y-25652081D01*
X66026463Y-25967831D01*
X66216337Y-26251998D01*
X66458002Y-26493663D01*
X66742169Y-26683537D01*
X67057919Y-26814325D01*
X67393117Y-26881000D01*
X67734883Y-26881000D01*
X68070081Y-26814325D01*
X68385831Y-26683537D01*
X68669998Y-26493663D01*
X68911663Y-26251998D01*
X69101537Y-25967831D01*
X69232325Y-25652081D01*
X69299000Y-25316883D01*
X69299000Y-24975117D01*
X69232325Y-24639919D01*
X69101537Y-24324169D01*
X68911663Y-24040002D01*
X68669998Y-23798337D01*
X68385831Y-23608463D01*
X68070081Y-23477675D01*
X67734883Y-23411000D01*
X67393117Y-23411000D01*
X67057919Y-23477675D01*
X66742169Y-23608463D01*
X66458002Y-23798337D01*
X66216337Y-24040002D01*
X66026463Y-24324169D01*
X65895675Y-24639919D01*
X65829000Y-24975117D01*
X37549000Y-24975117D01*
X37482325Y-24639919D01*
X37351537Y-24324169D01*
X37161663Y-24040002D01*
X36919998Y-23798337D01*
X36635831Y-23608463D01*
X36320081Y-23477675D01*
X35984883Y-23411000D01*
X35643117Y-23411000D01*
X35307919Y-23477675D01*
X34992169Y-23608463D01*
X34708002Y-23798337D01*
X34466337Y-24040002D01*
X34276463Y-24324169D01*
X34145675Y-24639919D01*
X34079000Y-24975117D01*
X27643000Y-24975117D01*
X27576325Y-24639919D01*
X27445537Y-24324169D01*
X27255663Y-24040002D01*
X27013998Y-23798337D01*
X26729831Y-23608463D01*
X26414081Y-23477675D01*
X26078883Y-23411000D01*
X25737117Y-23411000D01*
X25401919Y-23477675D01*
X25086169Y-23608463D01*
X24802002Y-23798337D01*
X24560337Y-24040002D01*
X24370463Y-24324169D01*
X24239675Y-24639919D01*
X24173000Y-24975117D01*
X23570000Y-24975117D01*
X23570000Y-23316000D01*
X70156000Y-23316000D01*
X70156001Y-70918000D01*
G37*
X70156001Y-70918000D02*
X23570000Y-70918000D01*
X23570000Y-68155117D01*
X25189000Y-68155117D01*
X25189000Y-68496883D01*
X25255675Y-68832081D01*
X25386463Y-69147831D01*
X25576337Y-69431998D01*
X25818002Y-69673663D01*
X26102169Y-69863537D01*
X26417919Y-69994325D01*
X26753117Y-70061000D01*
X27094883Y-70061000D01*
X27430081Y-69994325D01*
X27745831Y-69863537D01*
X28029998Y-69673663D01*
X28271663Y-69431998D01*
X28461537Y-69147831D01*
X28592325Y-68832081D01*
X28659000Y-68496883D01*
X28659000Y-68155117D01*
X28592325Y-67819919D01*
X28461537Y-67504169D01*
X28271663Y-67220002D01*
X28029998Y-66978337D01*
X27745831Y-66788463D01*
X27532410Y-66700061D01*
X38843000Y-66700061D01*
X38843000Y-66903939D01*
X38882774Y-67103898D01*
X38960795Y-67292256D01*
X39074063Y-67461774D01*
X39218226Y-67605937D01*
X39387744Y-67719205D01*
X39576102Y-67797226D01*
X39776061Y-67837000D01*
X39907212Y-67837000D01*
X40376613Y-68306401D01*
X40398883Y-68333537D01*
X40507177Y-68422412D01*
X40630729Y-68488452D01*
X40764790Y-68529119D01*
X40869274Y-68539410D01*
X40869283Y-68539410D01*
X40904209Y-68542850D01*
X40939135Y-68539410D01*
X59353184Y-68539410D01*
X59388110Y-68542850D01*
X59423036Y-68539410D01*
X59423046Y-68539410D01*
X59527530Y-68529119D01*
X59661591Y-68488452D01*
X59785143Y-68422412D01*
X59893437Y-68333537D01*
X59915712Y-68306395D01*
X61746000Y-66476107D01*
X61746000Y-66504279D01*
X61828047Y-66916756D01*
X61988988Y-67305302D01*
X62222637Y-67654983D01*
X62520017Y-67952363D01*
X62869698Y-68186012D01*
X63258244Y-68346953D01*
X63670721Y-68429000D01*
X64091279Y-68429000D01*
X64503756Y-68346953D01*
X64892302Y-68186012D01*
X65241983Y-67952363D01*
X65539363Y-67654983D01*
X65773012Y-67305302D01*
X65933953Y-66916756D01*
X66016000Y-66504279D01*
X66016000Y-66083721D01*
X65933953Y-65671244D01*
X65773012Y-65282698D01*
X65539363Y-64933017D01*
X65241983Y-64635637D01*
X64892302Y-64401988D01*
X64503756Y-64241047D01*
X64091279Y-64159000D01*
X64063108Y-64159000D01*
X64359191Y-63862917D01*
X64386327Y-63840647D01*
X64475202Y-63732353D01*
X64541242Y-63608801D01*
X64581909Y-63474740D01*
X64592200Y-63370256D01*
X64592200Y-63370249D01*
X64595640Y-63335320D01*
X64592200Y-63300392D01*
X64592200Y-63230318D01*
X64892302Y-63106012D01*
X65241983Y-62872363D01*
X65539363Y-62574983D01*
X65773012Y-62225302D01*
X65933953Y-61836756D01*
X66016000Y-61424279D01*
X66016000Y-61003721D01*
X65933953Y-60591244D01*
X65773012Y-60202698D01*
X65539363Y-59853017D01*
X65241983Y-59555637D01*
X64892302Y-59321988D01*
X64503756Y-59161047D01*
X64091279Y-59079000D01*
X63670721Y-59079000D01*
X63258244Y-59161047D01*
X62869698Y-59321988D01*
X62520017Y-59555637D01*
X62341000Y-59734654D01*
X62341000Y-49191238D01*
X67233239Y-44299000D01*
X67266279Y-44299000D01*
X67678756Y-44216953D01*
X68067302Y-44056012D01*
X68416983Y-43822363D01*
X68714363Y-43524983D01*
X68948012Y-43175302D01*
X69108953Y-42786756D01*
X69191000Y-42374279D01*
X69191000Y-41953721D01*
X69108953Y-41541244D01*
X68948012Y-41152698D01*
X68714363Y-40803017D01*
X68691000Y-40779654D01*
X68691000Y-39069319D01*
X68698911Y-38988999D01*
X68691000Y-38908678D01*
X68667343Y-38668484D01*
X68573852Y-38360285D01*
X68422031Y-38076248D01*
X68217714Y-37827286D01*
X68155319Y-37776080D01*
X61963072Y-31583834D01*
X61963072Y-31258000D01*
X61950812Y-31133518D01*
X61914502Y-31013820D01*
X61855537Y-30903506D01*
X61776185Y-30806815D01*
X61679494Y-30727463D01*
X61569180Y-30668498D01*
X61449482Y-30632188D01*
X61325000Y-30619928D01*
X60374130Y-30619928D01*
X60325000Y-30615089D01*
X60275870Y-30619928D01*
X59325000Y-30619928D01*
X59200518Y-30632188D01*
X59080820Y-30668498D01*
X58970506Y-30727463D01*
X58873815Y-30806815D01*
X58794463Y-30903506D01*
X58735498Y-31013820D01*
X58699188Y-31133518D01*
X58686928Y-31258000D01*
X58686928Y-32208870D01*
X58682089Y-32258000D01*
X58686928Y-32307130D01*
X58686928Y-33258000D01*
X58699188Y-33382482D01*
X58735498Y-33502180D01*
X58794463Y-33612494D01*
X58873815Y-33709185D01*
X58970506Y-33788537D01*
X59080820Y-33847502D01*
X59200518Y-33883812D01*
X59325000Y-33896072D01*
X59650834Y-33896072D01*
X65421001Y-39666240D01*
X65421000Y-40779654D01*
X65397637Y-40803017D01*
X65163988Y-41152698D01*
X65003047Y-41541244D01*
X64921000Y-41953721D01*
X64921000Y-41986761D01*
X59606687Y-47301075D01*
X59544286Y-47352286D01*
X59339969Y-47601249D01*
X59188148Y-47885286D01*
X59094657Y-48193485D01*
X59071579Y-48427798D01*
X59063089Y-48514000D01*
X59071000Y-48594320D01*
X59071000Y-49590167D01*
X58975898Y-49550774D01*
X58775939Y-49511000D01*
X58572061Y-49511000D01*
X58372102Y-49550774D01*
X58183744Y-49628795D01*
X58014226Y-49742063D01*
X57870063Y-49886226D01*
X57756795Y-50055744D01*
X57678774Y-50244102D01*
X57639000Y-50444061D01*
X57639000Y-50647939D01*
X57678774Y-50847898D01*
X57756795Y-51036256D01*
X57870063Y-51205774D01*
X58014226Y-51349937D01*
X58183744Y-51463205D01*
X58372102Y-51541226D01*
X58572061Y-51581000D01*
X58703082Y-51581000D01*
X58703804Y-51581593D01*
X58703808Y-51581597D01*
X58769764Y-51635726D01*
X58784967Y-51648202D01*
X58908519Y-51714242D01*
X59042580Y-51754909D01*
X59071000Y-51757708D01*
X59071001Y-63584761D01*
X59012762Y-63643000D01*
X57006769Y-63643000D01*
X56990960Y-63482493D01*
X56911764Y-63221419D01*
X56783157Y-62980812D01*
X56610081Y-62769919D01*
X56399188Y-62596843D01*
X56158581Y-62468236D01*
X55897507Y-62389040D01*
X55626000Y-62362299D01*
X55354494Y-62389040D01*
X55093420Y-62468236D01*
X54852813Y-62596843D01*
X54641920Y-62769919D01*
X54468844Y-62980812D01*
X54340237Y-63221419D01*
X54261040Y-63482493D01*
X54241000Y-63685963D01*
X54241000Y-64400736D01*
X54108148Y-64649285D01*
X54014657Y-64957484D01*
X53983089Y-65278000D01*
X54014657Y-65598516D01*
X54108148Y-65906715D01*
X54241000Y-66155264D01*
X54241000Y-66870037D01*
X54261040Y-67073507D01*
X54274237Y-67117010D01*
X41198798Y-67117010D01*
X40913000Y-66831212D01*
X40913000Y-66700061D01*
X40873226Y-66500102D01*
X40795205Y-66311744D01*
X40681937Y-66142226D01*
X40537774Y-65998063D01*
X40368256Y-65884795D01*
X40179898Y-65806774D01*
X39979939Y-65767000D01*
X39776061Y-65767000D01*
X39576102Y-65806774D01*
X39387744Y-65884795D01*
X39218226Y-65998063D01*
X39074063Y-66142226D01*
X38960795Y-66311744D01*
X38882774Y-66500102D01*
X38843000Y-66700061D01*
X27532410Y-66700061D01*
X27430081Y-66657675D01*
X27094883Y-66591000D01*
X26753117Y-66591000D01*
X26417919Y-66657675D01*
X26102169Y-66788463D01*
X25818002Y-66978337D01*
X25576337Y-67220002D01*
X25386463Y-67504169D01*
X25255675Y-67819919D01*
X25189000Y-68155117D01*
X23570000Y-68155117D01*
X23570000Y-63607740D01*
X24677000Y-63607740D01*
X24677000Y-63900260D01*
X24734068Y-64187158D01*
X24846010Y-64457411D01*
X25008525Y-64700632D01*
X25215368Y-64907475D01*
X25458589Y-65069990D01*
X25728842Y-65181932D01*
X26015740Y-65239000D01*
X26308260Y-65239000D01*
X26595158Y-65181932D01*
X26865411Y-65069990D01*
X27108632Y-64907475D01*
X27315475Y-64700632D01*
X27432000Y-64526240D01*
X27548525Y-64700632D01*
X27755368Y-64907475D01*
X27998589Y-65069990D01*
X28268842Y-65181932D01*
X28555740Y-65239000D01*
X28848260Y-65239000D01*
X29135158Y-65181932D01*
X29405411Y-65069990D01*
X29648632Y-64907475D01*
X29855475Y-64700632D01*
X30017990Y-64457411D01*
X30129932Y-64187158D01*
X30187000Y-63900260D01*
X30187000Y-63607740D01*
X30129932Y-63320842D01*
X30017990Y-63050589D01*
X29855475Y-62807368D01*
X29648632Y-62600525D01*
X29405411Y-62438010D01*
X29135158Y-62326068D01*
X28848260Y-62269000D01*
X28555740Y-62269000D01*
X28268842Y-62326068D01*
X27998589Y-62438010D01*
X27755368Y-62600525D01*
X27548525Y-62807368D01*
X27432000Y-62981760D01*
X27315475Y-62807368D01*
X27108632Y-62600525D01*
X26865411Y-62438010D01*
X26595158Y-62326068D01*
X26308260Y-62269000D01*
X26015740Y-62269000D01*
X25728842Y-62326068D01*
X25458589Y-62438010D01*
X25215368Y-62600525D01*
X25008525Y-62807368D01*
X24846010Y-63050589D01*
X24734068Y-63320842D01*
X24677000Y-63607740D01*
X23570000Y-63607740D01*
X23570000Y-56794061D01*
X28683000Y-56794061D01*
X28683000Y-56997939D01*
X28722774Y-57197898D01*
X28800795Y-57386256D01*
X28914063Y-57555774D01*
X29058226Y-57699937D01*
X29227744Y-57813205D01*
X29416102Y-57891226D01*
X29616061Y-57931000D01*
X29678199Y-57931000D01*
X30170201Y-58423003D01*
X30193999Y-58452001D01*
X30222997Y-58475799D01*
X30309723Y-58546974D01*
X30433076Y-58612908D01*
X30441753Y-58617546D01*
X30585014Y-58661003D01*
X30696667Y-58672000D01*
X30696677Y-58672000D01*
X30734000Y-58675676D01*
X30771322Y-58672000D01*
X35515644Y-58672000D01*
X35057574Y-59130071D01*
X34926422Y-59130071D01*
X34726463Y-59169845D01*
X34538105Y-59247866D01*
X34368587Y-59361134D01*
X34224424Y-59505297D01*
X34111156Y-59674815D01*
X34033135Y-59863173D01*
X33993361Y-60063132D01*
X33993361Y-60267010D01*
X34033135Y-60466969D01*
X34111156Y-60655327D01*
X34224424Y-60824845D01*
X34368587Y-60969008D01*
X34538105Y-61082276D01*
X34726463Y-61160297D01*
X34926422Y-61200071D01*
X35130300Y-61200071D01*
X35330259Y-61160297D01*
X35499327Y-61090266D01*
X35404795Y-61231744D01*
X35326774Y-61420102D01*
X35287000Y-61620061D01*
X35287000Y-61823939D01*
X35326774Y-62023898D01*
X35404795Y-62212256D01*
X35518063Y-62381774D01*
X35662226Y-62525937D01*
X35831744Y-62639205D01*
X36020102Y-62717226D01*
X36220061Y-62757000D01*
X36351082Y-62757000D01*
X36351804Y-62757593D01*
X36351808Y-62757597D01*
X36366823Y-62769919D01*
X36432967Y-62824202D01*
X36556519Y-62890242D01*
X36690580Y-62930909D01*
X36795064Y-62941200D01*
X36795081Y-62941200D01*
X36829999Y-62944639D01*
X36864917Y-62941200D01*
X40649489Y-62941200D01*
X40742226Y-63033937D01*
X40911744Y-63147205D01*
X41100102Y-63225226D01*
X41300061Y-63265000D01*
X41503939Y-63265000D01*
X41703898Y-63225226D01*
X41892256Y-63147205D01*
X42061774Y-63033937D01*
X42205937Y-62889774D01*
X42319205Y-62720256D01*
X42397226Y-62531898D01*
X42437000Y-62331939D01*
X42437000Y-62128061D01*
X42397226Y-61928102D01*
X42319205Y-61739744D01*
X42205937Y-61570226D01*
X42061774Y-61426063D01*
X41892256Y-61312795D01*
X41807047Y-61277500D01*
X42656813Y-61277500D01*
X43073562Y-61694250D01*
X43039600Y-61864989D01*
X43039600Y-62137811D01*
X43092825Y-62405389D01*
X43197229Y-62657443D01*
X43348801Y-62884286D01*
X43541714Y-63077199D01*
X43768557Y-63228771D01*
X44020611Y-63333175D01*
X44288189Y-63386400D01*
X44561011Y-63386400D01*
X44731750Y-63352438D01*
X45764500Y-64385189D01*
X45764500Y-64516339D01*
X45804274Y-64716298D01*
X45882295Y-64904656D01*
X45995563Y-65074174D01*
X46139726Y-65218337D01*
X46309244Y-65331605D01*
X46497602Y-65409626D01*
X46697561Y-65449400D01*
X46901439Y-65449400D01*
X47101398Y-65409626D01*
X47289756Y-65331605D01*
X47459274Y-65218337D01*
X47603437Y-65074174D01*
X47716705Y-64904656D01*
X47794726Y-64716298D01*
X47834500Y-64516339D01*
X47834500Y-64312461D01*
X47794726Y-64112502D01*
X47716705Y-63924144D01*
X47603437Y-63754626D01*
X47459274Y-63610463D01*
X47289756Y-63497195D01*
X47101398Y-63419174D01*
X46901439Y-63379400D01*
X46770289Y-63379400D01*
X45762995Y-62372107D01*
X45809600Y-62137811D01*
X45809600Y-61864989D01*
X45756375Y-61597411D01*
X45651971Y-61345357D01*
X45500399Y-61118514D01*
X45307486Y-60925601D01*
X45080643Y-60774029D01*
X44828589Y-60669625D01*
X44561011Y-60616400D01*
X44288189Y-60616400D01*
X44053892Y-60663005D01*
X43479002Y-60088115D01*
X43456727Y-60060973D01*
X43348433Y-59972098D01*
X43224881Y-59906058D01*
X43090820Y-59865391D01*
X42986336Y-59855100D01*
X42986326Y-59855100D01*
X42951400Y-59851660D01*
X42916474Y-59855100D01*
X41710011Y-59855100D01*
X41617274Y-59762363D01*
X41447756Y-59649095D01*
X41259398Y-59571074D01*
X41059439Y-59531300D01*
X40855561Y-59531300D01*
X40655602Y-59571074D01*
X40467244Y-59649095D01*
X40297726Y-59762363D01*
X40153563Y-59906526D01*
X40040295Y-60076044D01*
X39962274Y-60264402D01*
X39922500Y-60464361D01*
X39922500Y-60668239D01*
X39962274Y-60868198D01*
X40040295Y-61056556D01*
X40153563Y-61226074D01*
X40297726Y-61370237D01*
X40467244Y-61483505D01*
X40552453Y-61518800D01*
X37336858Y-61518800D01*
X37317226Y-61420102D01*
X37239205Y-61231744D01*
X37125937Y-61062226D01*
X36981774Y-60918063D01*
X36812256Y-60804795D01*
X36623898Y-60726774D01*
X36423939Y-60687000D01*
X36220061Y-60687000D01*
X36020102Y-60726774D01*
X35851034Y-60796805D01*
X35945566Y-60655327D01*
X36023587Y-60466969D01*
X36063361Y-60267010D01*
X36063361Y-60135858D01*
X36814020Y-59385200D01*
X47069484Y-59385200D01*
X47184201Y-59556886D01*
X47377114Y-59749799D01*
X47603957Y-59901371D01*
X47856011Y-60005775D01*
X48123589Y-60059000D01*
X48396411Y-60059000D01*
X48663989Y-60005775D01*
X48916043Y-59901371D01*
X49142886Y-59749799D01*
X49335799Y-59556886D01*
X49450516Y-59385200D01*
X51317489Y-59385200D01*
X51410226Y-59477937D01*
X51579744Y-59591205D01*
X51768102Y-59669226D01*
X51968061Y-59709000D01*
X52171939Y-59709000D01*
X52371898Y-59669226D01*
X52560256Y-59591205D01*
X52729774Y-59477937D01*
X52873937Y-59333774D01*
X52987205Y-59164256D01*
X53065226Y-58975898D01*
X53105000Y-58775939D01*
X53105000Y-58572061D01*
X53065226Y-58372102D01*
X52987205Y-58183744D01*
X52873937Y-58014226D01*
X52729774Y-57870063D01*
X52560256Y-57756795D01*
X52371898Y-57678774D01*
X52171939Y-57639000D01*
X51968061Y-57639000D01*
X51768102Y-57678774D01*
X51579744Y-57756795D01*
X51410226Y-57870063D01*
X51317489Y-57962800D01*
X49450516Y-57962800D01*
X49335799Y-57791114D01*
X49142886Y-57598201D01*
X48916043Y-57446629D01*
X48663989Y-57342225D01*
X48396411Y-57289000D01*
X48123589Y-57289000D01*
X47856011Y-57342225D01*
X47603957Y-57446629D01*
X47377114Y-57598201D01*
X47184201Y-57791114D01*
X47069484Y-57962800D01*
X41929000Y-57962800D01*
X41929000Y-57810061D01*
X41889226Y-57610102D01*
X41811205Y-57421744D01*
X41697937Y-57252226D01*
X41553774Y-57108063D01*
X41384256Y-56994795D01*
X41352762Y-56981749D01*
X41443937Y-56890574D01*
X41557205Y-56721056D01*
X41635226Y-56532698D01*
X41675000Y-56332739D01*
X41675000Y-56128861D01*
X41635226Y-55928902D01*
X41557205Y-55740544D01*
X41443937Y-55571026D01*
X41299774Y-55426863D01*
X41130256Y-55313595D01*
X40941898Y-55235574D01*
X40741939Y-55195800D01*
X40538061Y-55195800D01*
X40338102Y-55235574D01*
X40149744Y-55313595D01*
X39980226Y-55426863D01*
X39836063Y-55571026D01*
X39722795Y-55740544D01*
X39644774Y-55928902D01*
X39605000Y-56128861D01*
X39605000Y-56332739D01*
X39644774Y-56532698D01*
X39722795Y-56721056D01*
X39836063Y-56890574D01*
X39928801Y-56983312D01*
X39928801Y-57152000D01*
X38627000Y-57152000D01*
X38627000Y-57048061D01*
X38587226Y-56848102D01*
X38557200Y-56775613D01*
X38557200Y-56333311D01*
X38649937Y-56240574D01*
X38763205Y-56071056D01*
X38841226Y-55882698D01*
X38881000Y-55682739D01*
X38881000Y-55478861D01*
X38841226Y-55278902D01*
X38763205Y-55090544D01*
X38649937Y-54921026D01*
X38505774Y-54776863D01*
X38336256Y-54663595D01*
X38147898Y-54585574D01*
X37947939Y-54545800D01*
X37744061Y-54545800D01*
X37544102Y-54585574D01*
X37355744Y-54663595D01*
X37186226Y-54776863D01*
X37042063Y-54921026D01*
X36928795Y-55090544D01*
X36850774Y-55278902D01*
X36811000Y-55478861D01*
X36811000Y-55682739D01*
X36850774Y-55882698D01*
X36928795Y-56071056D01*
X37042063Y-56240574D01*
X37061305Y-56259816D01*
X36932226Y-56346063D01*
X36839489Y-56438800D01*
X36606741Y-56438800D01*
X36514004Y-56346063D01*
X36344486Y-56232795D01*
X36156128Y-56154774D01*
X35956169Y-56115000D01*
X35752291Y-56115000D01*
X35552332Y-56154774D01*
X35363974Y-56232795D01*
X35194456Y-56346063D01*
X35050293Y-56490226D01*
X34937025Y-56659744D01*
X34859004Y-56848102D01*
X34819230Y-57048061D01*
X34819230Y-57152000D01*
X31048802Y-57152000D01*
X30753000Y-56856199D01*
X30753000Y-56794061D01*
X30713226Y-56594102D01*
X30635205Y-56405744D01*
X30521937Y-56236226D01*
X30377774Y-56092063D01*
X30208256Y-55978795D01*
X30019898Y-55900774D01*
X29819939Y-55861000D01*
X29616061Y-55861000D01*
X29416102Y-55900774D01*
X29227744Y-55978795D01*
X29058226Y-56092063D01*
X28914063Y-56236226D01*
X28800795Y-56405744D01*
X28722774Y-56594102D01*
X28683000Y-56794061D01*
X23570000Y-56794061D01*
X23570000Y-54105979D01*
X27053082Y-54105979D01*
X27053082Y-54309857D01*
X27092856Y-54509816D01*
X27170877Y-54698174D01*
X27284145Y-54867692D01*
X27428308Y-55011855D01*
X27597826Y-55125123D01*
X27786184Y-55203144D01*
X27986143Y-55242918D01*
X28190021Y-55242918D01*
X28389980Y-55203144D01*
X28578338Y-55125123D01*
X28747856Y-55011855D01*
X28892019Y-54867692D01*
X29005287Y-54698174D01*
X29083308Y-54509816D01*
X29123082Y-54309857D01*
X29123082Y-54161645D01*
X29186242Y-54043482D01*
X29226909Y-53909420D01*
X29232761Y-53850000D01*
X29237200Y-53804936D01*
X29237200Y-53804929D01*
X29240640Y-53770000D01*
X29237200Y-53735072D01*
X29237200Y-52992404D01*
X29330494Y-52942537D01*
X29427185Y-52863185D01*
X29506537Y-52766494D01*
X29565502Y-52656180D01*
X29601812Y-52536482D01*
X29614072Y-52412000D01*
X29614072Y-51479716D01*
X29946790Y-51146999D01*
X31825275Y-51146999D01*
X31860201Y-51150439D01*
X31895127Y-51146999D01*
X31895137Y-51146999D01*
X31999621Y-51136708D01*
X32133682Y-51096041D01*
X32257234Y-51030001D01*
X32353269Y-50951186D01*
X35347583Y-50951186D01*
X35347583Y-51155064D01*
X35387357Y-51355023D01*
X35465378Y-51543381D01*
X35578646Y-51712899D01*
X35671383Y-51805636D01*
X35671383Y-52014197D01*
X35667943Y-52049123D01*
X35671383Y-52084049D01*
X35671383Y-52084058D01*
X35681674Y-52188542D01*
X35722341Y-52322603D01*
X35788381Y-52446155D01*
X35876460Y-52553479D01*
X35876460Y-52679939D01*
X35916234Y-52879898D01*
X35994255Y-53068256D01*
X36107523Y-53237774D01*
X36251686Y-53381937D01*
X36421204Y-53495205D01*
X36609562Y-53573226D01*
X36809521Y-53613000D01*
X37013399Y-53613000D01*
X37213358Y-53573226D01*
X37401716Y-53495205D01*
X37571234Y-53381937D01*
X37715397Y-53237774D01*
X37828665Y-53068256D01*
X37906686Y-52879898D01*
X37946460Y-52679939D01*
X37946460Y-52476061D01*
X37906686Y-52276102D01*
X37828665Y-52087744D01*
X37715397Y-51918226D01*
X37571234Y-51774063D01*
X37401716Y-51660795D01*
X37260437Y-51602275D01*
X37299788Y-51543381D01*
X37377809Y-51355023D01*
X37417583Y-51155064D01*
X37417583Y-50951186D01*
X37377809Y-50751227D01*
X37299788Y-50562869D01*
X37186520Y-50393351D01*
X37042357Y-50249188D01*
X36872839Y-50135920D01*
X36684481Y-50057899D01*
X36484522Y-50018125D01*
X36280644Y-50018125D01*
X36080685Y-50057899D01*
X35892327Y-50135920D01*
X35722809Y-50249188D01*
X35578646Y-50393351D01*
X35465378Y-50562869D01*
X35387357Y-50751227D01*
X35347583Y-50951186D01*
X32353269Y-50951186D01*
X32365528Y-50941126D01*
X32387803Y-50913985D01*
X33244788Y-50057000D01*
X33375939Y-50057000D01*
X33575898Y-50017226D01*
X33764256Y-49939205D01*
X33933774Y-49825937D01*
X34077937Y-49681774D01*
X34191205Y-49512256D01*
X34269226Y-49323898D01*
X34309000Y-49123939D01*
X34309000Y-48920061D01*
X34278356Y-48766000D01*
X39616753Y-48766000D01*
X39439368Y-48884525D01*
X39232525Y-49091368D01*
X39070010Y-49334589D01*
X38958068Y-49604842D01*
X38901000Y-49891740D01*
X38901000Y-50184260D01*
X38958068Y-50471158D01*
X39070010Y-50741411D01*
X39232525Y-50984632D01*
X39439368Y-51191475D01*
X39682589Y-51353990D01*
X39952842Y-51465932D01*
X40239740Y-51523000D01*
X40532260Y-51523000D01*
X40819158Y-51465932D01*
X41089411Y-51353990D01*
X41332632Y-51191475D01*
X41539475Y-50984632D01*
X41656000Y-50810240D01*
X41772525Y-50984632D01*
X41979368Y-51191475D01*
X42222589Y-51353990D01*
X42492842Y-51465932D01*
X42779740Y-51523000D01*
X43072260Y-51523000D01*
X43359158Y-51465932D01*
X43629411Y-51353990D01*
X43872632Y-51191475D01*
X44079475Y-50984632D01*
X44196000Y-50810240D01*
X44312525Y-50984632D01*
X44519368Y-51191475D01*
X44762589Y-51353990D01*
X45032842Y-51465932D01*
X45319740Y-51523000D01*
X45612260Y-51523000D01*
X45832408Y-51479209D01*
X49474205Y-55121008D01*
X49497999Y-55150001D01*
X49526992Y-55173795D01*
X49526996Y-55173799D01*
X49597685Y-55231811D01*
X49613724Y-55244974D01*
X49745753Y-55315546D01*
X49889014Y-55359003D01*
X50000667Y-55370000D01*
X50000676Y-55370000D01*
X50037999Y-55373676D01*
X50075322Y-55370000D01*
X53906289Y-55370000D01*
X53950226Y-55413937D01*
X54119744Y-55527205D01*
X54308102Y-55605226D01*
X54508061Y-55645000D01*
X54711939Y-55645000D01*
X54911898Y-55605226D01*
X55100256Y-55527205D01*
X55269774Y-55413937D01*
X55413937Y-55269774D01*
X55527205Y-55100256D01*
X55605226Y-54911898D01*
X55645000Y-54711939D01*
X55645000Y-54508061D01*
X55605226Y-54308102D01*
X55527205Y-54119744D01*
X55413937Y-53950226D01*
X55269774Y-53806063D01*
X55100256Y-53692795D01*
X54911898Y-53614774D01*
X54711939Y-53575000D01*
X54508061Y-53575000D01*
X54308102Y-53614774D01*
X54119744Y-53692795D01*
X53950226Y-53806063D01*
X53906289Y-53850000D01*
X50352803Y-53850000D01*
X46907209Y-50404408D01*
X46951000Y-50184260D01*
X46951000Y-49891740D01*
X46893932Y-49604842D01*
X46781990Y-49334589D01*
X46619475Y-49091368D01*
X46412632Y-48884525D01*
X46169411Y-48722010D01*
X45899158Y-48610068D01*
X45612260Y-48553000D01*
X45319740Y-48553000D01*
X45099592Y-48596790D01*
X43997804Y-47495003D01*
X43974001Y-47465999D01*
X43858276Y-47371026D01*
X43726247Y-47300454D01*
X43582986Y-47256997D01*
X43471333Y-47246000D01*
X43471322Y-47246000D01*
X43434000Y-47242324D01*
X43396678Y-47246000D01*
X33977711Y-47246000D01*
X33933774Y-47202063D01*
X33764256Y-47088795D01*
X33575898Y-47010774D01*
X33375939Y-46971000D01*
X33172061Y-46971000D01*
X32994187Y-47006381D01*
X32965502Y-46911820D01*
X32906537Y-46801506D01*
X32827185Y-46704815D01*
X32730494Y-46625463D01*
X32620180Y-46566498D01*
X32500482Y-46530188D01*
X32376000Y-46517928D01*
X31476000Y-46517928D01*
X31351518Y-46530188D01*
X31231820Y-46566498D01*
X31121506Y-46625463D01*
X31024815Y-46704815D01*
X30945463Y-46801506D01*
X30886498Y-46911820D01*
X30850188Y-47031518D01*
X30837928Y-47156000D01*
X30837928Y-48856000D01*
X30850188Y-48980482D01*
X30886498Y-49100180D01*
X30945463Y-49210494D01*
X31024815Y-49307185D01*
X31121506Y-49386537D01*
X31231820Y-49445502D01*
X31351518Y-49481812D01*
X31476000Y-49494072D01*
X31796140Y-49494072D01*
X31565614Y-49724599D01*
X30479112Y-49724599D01*
X30521937Y-49681774D01*
X30635205Y-49512256D01*
X30713226Y-49323898D01*
X30753000Y-49123939D01*
X30753000Y-48920061D01*
X30713226Y-48720102D01*
X30635205Y-48531744D01*
X30521937Y-48362226D01*
X30377774Y-48218063D01*
X30208256Y-48104795D01*
X30019898Y-48026774D01*
X29819939Y-47987000D01*
X29688787Y-47987000D01*
X29614072Y-47912285D01*
X29614072Y-47156000D01*
X29601812Y-47031518D01*
X29565502Y-46911820D01*
X29506537Y-46801506D01*
X29427185Y-46704815D01*
X29330494Y-46625463D01*
X29220180Y-46566498D01*
X29100482Y-46530188D01*
X28976000Y-46517928D01*
X28076000Y-46517928D01*
X27951518Y-46530188D01*
X27831820Y-46566498D01*
X27721506Y-46625463D01*
X27624815Y-46704815D01*
X27545463Y-46801506D01*
X27486498Y-46911820D01*
X27450188Y-47031518D01*
X27437928Y-47156000D01*
X27437928Y-48856000D01*
X27450188Y-48980482D01*
X27486498Y-49100180D01*
X27545463Y-49210494D01*
X27624815Y-49307185D01*
X27721506Y-49386537D01*
X27831820Y-49445502D01*
X27951518Y-49481812D01*
X28076000Y-49494072D01*
X28793263Y-49494072D01*
X28800795Y-49512256D01*
X28914063Y-49681774D01*
X29058226Y-49825937D01*
X29177301Y-49905500D01*
X29174010Y-49908201D01*
X29174005Y-49908206D01*
X29146874Y-49930472D01*
X29124608Y-49957603D01*
X29005389Y-50076822D01*
X28976000Y-50073928D01*
X28076000Y-50073928D01*
X27951518Y-50086188D01*
X27831820Y-50122498D01*
X27721506Y-50181463D01*
X27624815Y-50260815D01*
X27545463Y-50357506D01*
X27486498Y-50467820D01*
X27450188Y-50587518D01*
X27437928Y-50712000D01*
X27437928Y-52412000D01*
X27450188Y-52536482D01*
X27486498Y-52656180D01*
X27545463Y-52766494D01*
X27624815Y-52863185D01*
X27721506Y-52942537D01*
X27814800Y-52992405D01*
X27814800Y-53207000D01*
X27786184Y-53212692D01*
X27597826Y-53290713D01*
X27428308Y-53403981D01*
X27284145Y-53548144D01*
X27170877Y-53717662D01*
X27092856Y-53906020D01*
X27053082Y-54105979D01*
X23570000Y-54105979D01*
X23570000Y-47718973D01*
X23608463Y-47811831D01*
X23798337Y-48095998D01*
X24040002Y-48337663D01*
X24324169Y-48527537D01*
X24639919Y-48658325D01*
X24975117Y-48725000D01*
X25316883Y-48725000D01*
X25652081Y-48658325D01*
X25967831Y-48527537D01*
X26251998Y-48337663D01*
X26493663Y-48095998D01*
X26683537Y-47811831D01*
X26814325Y-47496081D01*
X26881000Y-47160883D01*
X26881000Y-46819117D01*
X26814325Y-46483919D01*
X26683537Y-46168169D01*
X26493663Y-45884002D01*
X26251998Y-45642337D01*
X25967831Y-45452463D01*
X25652081Y-45321675D01*
X25316883Y-45255000D01*
X24975117Y-45255000D01*
X24639919Y-45321675D01*
X24324169Y-45452463D01*
X24040002Y-45642337D01*
X23798337Y-45884002D01*
X23608463Y-46168169D01*
X23570000Y-46261027D01*
X23570000Y-42434000D01*
X26047928Y-42434000D01*
X26047928Y-44434000D01*
X26060188Y-44558482D01*
X26096498Y-44678180D01*
X26155463Y-44788494D01*
X26234815Y-44885185D01*
X26331506Y-44964537D01*
X26441820Y-45023502D01*
X26561518Y-45059812D01*
X26686000Y-45072072D01*
X28686000Y-45072072D01*
X28810482Y-45059812D01*
X28930180Y-45023502D01*
X29040494Y-44964537D01*
X29137185Y-44885185D01*
X29216537Y-44788494D01*
X29275502Y-44678180D01*
X29311812Y-44558482D01*
X29324072Y-44434000D01*
X29324072Y-43272967D01*
X31051000Y-43272967D01*
X31051000Y-43595033D01*
X31113832Y-43910912D01*
X31237082Y-44208463D01*
X31416013Y-44476252D01*
X31643748Y-44703987D01*
X31911537Y-44882918D01*
X32209088Y-45006168D01*
X32524967Y-45069000D01*
X32847033Y-45069000D01*
X32987210Y-45041117D01*
X38905000Y-45041117D01*
X38905000Y-45382883D01*
X38971675Y-45718081D01*
X39102463Y-46033831D01*
X39292337Y-46317998D01*
X39534002Y-46559663D01*
X39818169Y-46749537D01*
X40133919Y-46880325D01*
X40469117Y-46947000D01*
X40810883Y-46947000D01*
X41146081Y-46880325D01*
X41461831Y-46749537D01*
X41745998Y-46559663D01*
X41987663Y-46317998D01*
X42177537Y-46033831D01*
X42308325Y-45718081D01*
X42375000Y-45382883D01*
X42375000Y-45041117D01*
X42308325Y-44705919D01*
X42177537Y-44390169D01*
X41987663Y-44106002D01*
X41745998Y-43864337D01*
X41461831Y-43674463D01*
X41146081Y-43543675D01*
X40810883Y-43477000D01*
X40469117Y-43477000D01*
X40133919Y-43543675D01*
X39818169Y-43674463D01*
X39534002Y-43864337D01*
X39292337Y-44106002D01*
X39102463Y-44390169D01*
X38971675Y-44705919D01*
X38905000Y-45041117D01*
X32987210Y-45041117D01*
X33162912Y-45006168D01*
X33460463Y-44882918D01*
X33728252Y-44703987D01*
X33955987Y-44476252D01*
X34134918Y-44208463D01*
X34258168Y-43910912D01*
X34321000Y-43595033D01*
X34321000Y-43272967D01*
X34258168Y-42957088D01*
X34134918Y-42659537D01*
X33955987Y-42391748D01*
X33728252Y-42164013D01*
X33460463Y-41985082D01*
X33384752Y-41953721D01*
X42421000Y-41953721D01*
X42421000Y-42374279D01*
X42503047Y-42786756D01*
X42663988Y-43175302D01*
X42897637Y-43524983D01*
X43195017Y-43822363D01*
X43544698Y-44056012D01*
X43933244Y-44216953D01*
X44345721Y-44299000D01*
X44766279Y-44299000D01*
X45178756Y-44216953D01*
X45567302Y-44056012D01*
X45916983Y-43822363D01*
X46214363Y-43524983D01*
X46448012Y-43175302D01*
X46608953Y-42786756D01*
X46691000Y-42374279D01*
X46691000Y-41968495D01*
X53821000Y-41968495D01*
X53821000Y-42359505D01*
X53897282Y-42743003D01*
X54046915Y-43104250D01*
X54264149Y-43429364D01*
X54540636Y-43705851D01*
X54865750Y-43923085D01*
X55226997Y-44072718D01*
X55610495Y-44149000D01*
X56001505Y-44149000D01*
X56385003Y-44072718D01*
X56746250Y-43923085D01*
X57071364Y-43705851D01*
X57347851Y-43429364D01*
X57565085Y-43104250D01*
X57714718Y-42743003D01*
X57791000Y-42359505D01*
X57791000Y-41968495D01*
X57714718Y-41584997D01*
X57565085Y-41223750D01*
X57347851Y-40898636D01*
X57071364Y-40622149D01*
X56746250Y-40404915D01*
X56385003Y-40255282D01*
X56001505Y-40179000D01*
X55610495Y-40179000D01*
X55226997Y-40255282D01*
X54865750Y-40404915D01*
X54540636Y-40622149D01*
X54264149Y-40898636D01*
X54046915Y-41223750D01*
X53897282Y-41584997D01*
X53821000Y-41968495D01*
X46691000Y-41968495D01*
X46691000Y-41953721D01*
X46608953Y-41541244D01*
X46448012Y-41152698D01*
X46214363Y-40803017D01*
X45916983Y-40505637D01*
X45567302Y-40271988D01*
X45178756Y-40111047D01*
X44766279Y-40029000D01*
X44345721Y-40029000D01*
X43933244Y-40111047D01*
X43544698Y-40271988D01*
X43195017Y-40505637D01*
X42897637Y-40803017D01*
X42663988Y-41152698D01*
X42503047Y-41541244D01*
X42421000Y-41953721D01*
X33384752Y-41953721D01*
X33162912Y-41861832D01*
X32847033Y-41799000D01*
X32524967Y-41799000D01*
X32209088Y-41861832D01*
X31911537Y-41985082D01*
X31643748Y-42164013D01*
X31416013Y-42391748D01*
X31237082Y-42659537D01*
X31113832Y-42957088D01*
X31051000Y-43272967D01*
X29324072Y-43272967D01*
X29324072Y-42434000D01*
X29311812Y-42309518D01*
X29275502Y-42189820D01*
X29216537Y-42079506D01*
X29137185Y-41982815D01*
X29040494Y-41903463D01*
X28930180Y-41844498D01*
X28810482Y-41808188D01*
X28686000Y-41795928D01*
X26686000Y-41795928D01*
X26561518Y-41808188D01*
X26441820Y-41844498D01*
X26331506Y-41903463D01*
X26234815Y-41982815D01*
X26155463Y-42079506D01*
X26096498Y-42189820D01*
X26060188Y-42309518D01*
X26047928Y-42434000D01*
X23570000Y-42434000D01*
X23570000Y-38072072D01*
X25836000Y-38072072D01*
X25960482Y-38059812D01*
X26080180Y-38023502D01*
X26190494Y-37964537D01*
X26287185Y-37885185D01*
X26366537Y-37788494D01*
X26425502Y-37678180D01*
X26461812Y-37558482D01*
X26474072Y-37434000D01*
X26474072Y-34434000D01*
X33897928Y-34434000D01*
X33897928Y-37434000D01*
X33910188Y-37558482D01*
X33946498Y-37678180D01*
X34005463Y-37788494D01*
X34084815Y-37885185D01*
X34181506Y-37964537D01*
X34291820Y-38023502D01*
X34411518Y-38059812D01*
X34536000Y-38072072D01*
X37036000Y-38072072D01*
X37160482Y-38059812D01*
X37280180Y-38023502D01*
X37390494Y-37964537D01*
X37487185Y-37885185D01*
X37566537Y-37788494D01*
X37625502Y-37678180D01*
X37661812Y-37558482D01*
X37674072Y-37434000D01*
X37674072Y-34434000D01*
X37661812Y-34309518D01*
X37625502Y-34189820D01*
X37566537Y-34079506D01*
X37487185Y-33982815D01*
X37390494Y-33903463D01*
X37280180Y-33844498D01*
X37160482Y-33808188D01*
X37036000Y-33795928D01*
X34536000Y-33795928D01*
X34411518Y-33808188D01*
X34291820Y-33844498D01*
X34181506Y-33903463D01*
X34084815Y-33982815D01*
X34005463Y-34079506D01*
X33946498Y-34189820D01*
X33910188Y-34309518D01*
X33897928Y-34434000D01*
X26474072Y-34434000D01*
X26461812Y-34309518D01*
X26425502Y-34189820D01*
X26366537Y-34079506D01*
X26287185Y-33982815D01*
X26190494Y-33903463D01*
X26080180Y-33844498D01*
X25960482Y-33808188D01*
X25836000Y-33795928D01*
X23570000Y-33795928D01*
X23570000Y-31154000D01*
X38897928Y-31154000D01*
X38897928Y-32854000D01*
X38910188Y-32978482D01*
X38946498Y-33098180D01*
X39005463Y-33208494D01*
X39084815Y-33305185D01*
X39181506Y-33384537D01*
X39291820Y-33443502D01*
X39364380Y-33465513D01*
X39232525Y-33597368D01*
X39070010Y-33840589D01*
X38958068Y-34110842D01*
X38901000Y-34397740D01*
X38901000Y-34690260D01*
X38958068Y-34977158D01*
X39070010Y-35247411D01*
X39232525Y-35490632D01*
X39439368Y-35697475D01*
X39613760Y-35814000D01*
X39439368Y-35930525D01*
X39232525Y-36137368D01*
X39070010Y-36380589D01*
X38958068Y-36650842D01*
X38901000Y-36937740D01*
X38901000Y-37230260D01*
X38958068Y-37517158D01*
X39070010Y-37787411D01*
X39232525Y-38030632D01*
X39439368Y-38237475D01*
X39682589Y-38399990D01*
X39952842Y-38511932D01*
X40239740Y-38569000D01*
X40532260Y-38569000D01*
X40819158Y-38511932D01*
X41089411Y-38399990D01*
X41332632Y-38237475D01*
X41539475Y-38030632D01*
X41664178Y-37844000D01*
X44135199Y-37844000D01*
X46717000Y-40425802D01*
X46717000Y-40487939D01*
X46756774Y-40687898D01*
X46834795Y-40876256D01*
X46948063Y-41045774D01*
X47092226Y-41189937D01*
X47261744Y-41303205D01*
X47450102Y-41381226D01*
X47650061Y-41421000D01*
X47853939Y-41421000D01*
X48053898Y-41381226D01*
X48242256Y-41303205D01*
X48411774Y-41189937D01*
X48555937Y-41045774D01*
X48669205Y-40876256D01*
X48747226Y-40687898D01*
X48787000Y-40487939D01*
X48787000Y-40284061D01*
X48747226Y-40084102D01*
X48669205Y-39895744D01*
X48555937Y-39726226D01*
X48411774Y-39582063D01*
X48242256Y-39468795D01*
X48053898Y-39390774D01*
X47853939Y-39351000D01*
X47791802Y-39351000D01*
X45013804Y-36573003D01*
X44990001Y-36543999D01*
X44874276Y-36449026D01*
X44742247Y-36378454D01*
X44598986Y-36334997D01*
X44487333Y-36324000D01*
X44487322Y-36324000D01*
X44450000Y-36320324D01*
X44412678Y-36324000D01*
X41664178Y-36324000D01*
X41539475Y-36137368D01*
X41332632Y-35930525D01*
X41158240Y-35814000D01*
X41332632Y-35697475D01*
X41539475Y-35490632D01*
X41701990Y-35247411D01*
X41813932Y-34977158D01*
X41871000Y-34690260D01*
X41871000Y-34397740D01*
X41813932Y-34110842D01*
X41701990Y-33840589D01*
X41539475Y-33597368D01*
X41407620Y-33465513D01*
X41480180Y-33443502D01*
X41590494Y-33384537D01*
X41687185Y-33305185D01*
X41766537Y-33208494D01*
X41825502Y-33098180D01*
X41861812Y-32978482D01*
X41874072Y-32854000D01*
X41874072Y-31793721D01*
X48411000Y-31793721D01*
X48411000Y-32214279D01*
X48493047Y-32626756D01*
X48653988Y-33015302D01*
X48887637Y-33364983D01*
X49185017Y-33662363D01*
X49534698Y-33896012D01*
X49923244Y-34056953D01*
X50335721Y-34139000D01*
X50756279Y-34139000D01*
X51168756Y-34056953D01*
X51557302Y-33896012D01*
X51906983Y-33662363D01*
X52204363Y-33364983D01*
X52438012Y-33015302D01*
X52598953Y-32626756D01*
X52681000Y-32214279D01*
X52681000Y-31793721D01*
X52598953Y-31381244D01*
X52438012Y-30992698D01*
X52204363Y-30643017D01*
X51906983Y-30345637D01*
X51557302Y-30111988D01*
X51168756Y-29951047D01*
X50756279Y-29869000D01*
X50335721Y-29869000D01*
X49923244Y-29951047D01*
X49534698Y-30111988D01*
X49185017Y-30345637D01*
X48887637Y-30643017D01*
X48653988Y-30992698D01*
X48493047Y-31381244D01*
X48411000Y-31793721D01*
X41874072Y-31793721D01*
X41874072Y-31154000D01*
X41861812Y-31029518D01*
X41825502Y-30909820D01*
X41766537Y-30799506D01*
X41687185Y-30702815D01*
X41590494Y-30623463D01*
X41480180Y-30564498D01*
X41360482Y-30528188D01*
X41236000Y-30515928D01*
X39536000Y-30515928D01*
X39411518Y-30528188D01*
X39291820Y-30564498D01*
X39181506Y-30623463D01*
X39084815Y-30702815D01*
X39005463Y-30799506D01*
X38946498Y-30909820D01*
X38910188Y-31029518D01*
X38897928Y-31154000D01*
X23570000Y-31154000D01*
X23570000Y-28772967D01*
X26051000Y-28772967D01*
X26051000Y-29095033D01*
X26113832Y-29410912D01*
X26237082Y-29708463D01*
X26416013Y-29976252D01*
X26643748Y-30203987D01*
X26911537Y-30382918D01*
X27209088Y-30506168D01*
X27524967Y-30569000D01*
X27847033Y-30569000D01*
X28162912Y-30506168D01*
X28460463Y-30382918D01*
X28728252Y-30203987D01*
X28955987Y-29976252D01*
X29134918Y-29708463D01*
X29258168Y-29410912D01*
X29321000Y-29095033D01*
X29321000Y-28772967D01*
X29258168Y-28457088D01*
X29134918Y-28159537D01*
X28955987Y-27891748D01*
X28728252Y-27664013D01*
X28460463Y-27485082D01*
X28162912Y-27361832D01*
X27847033Y-27299000D01*
X27524967Y-27299000D01*
X27209088Y-27361832D01*
X26911537Y-27485082D01*
X26643748Y-27664013D01*
X26416013Y-27891748D01*
X26237082Y-28159537D01*
X26113832Y-28457088D01*
X26051000Y-28772967D01*
X23570000Y-28772967D01*
X23570000Y-24975117D01*
X24173000Y-24975117D01*
X24173000Y-25316883D01*
X24239675Y-25652081D01*
X24370463Y-25967831D01*
X24560337Y-26251998D01*
X24802002Y-26493663D01*
X25086169Y-26683537D01*
X25401919Y-26814325D01*
X25737117Y-26881000D01*
X26078883Y-26881000D01*
X26414081Y-26814325D01*
X26729831Y-26683537D01*
X27013998Y-26493663D01*
X27255663Y-26251998D01*
X27445537Y-25967831D01*
X27576325Y-25652081D01*
X27643000Y-25316883D01*
X27643000Y-24975117D01*
X34079000Y-24975117D01*
X34079000Y-25316883D01*
X34145675Y-25652081D01*
X34276463Y-25967831D01*
X34466337Y-26251998D01*
X34708002Y-26493663D01*
X34992169Y-26683537D01*
X35307919Y-26814325D01*
X35643117Y-26881000D01*
X35984883Y-26881000D01*
X36320081Y-26814325D01*
X36635831Y-26683537D01*
X36919998Y-26493663D01*
X37161663Y-26251998D01*
X37351537Y-25967831D01*
X37482325Y-25652081D01*
X37549000Y-25316883D01*
X37549000Y-24975117D01*
X65829000Y-24975117D01*
X65829000Y-25316883D01*
X65895675Y-25652081D01*
X66026463Y-25967831D01*
X66216337Y-26251998D01*
X66458002Y-26493663D01*
X66742169Y-26683537D01*
X67057919Y-26814325D01*
X67393117Y-26881000D01*
X67734883Y-26881000D01*
X68070081Y-26814325D01*
X68385831Y-26683537D01*
X68669998Y-26493663D01*
X68911663Y-26251998D01*
X69101537Y-25967831D01*
X69232325Y-25652081D01*
X69299000Y-25316883D01*
X69299000Y-24975117D01*
X69232325Y-24639919D01*
X69101537Y-24324169D01*
X68911663Y-24040002D01*
X68669998Y-23798337D01*
X68385831Y-23608463D01*
X68070081Y-23477675D01*
X67734883Y-23411000D01*
X67393117Y-23411000D01*
X67057919Y-23477675D01*
X66742169Y-23608463D01*
X66458002Y-23798337D01*
X66216337Y-24040002D01*
X66026463Y-24324169D01*
X65895675Y-24639919D01*
X65829000Y-24975117D01*
X37549000Y-24975117D01*
X37482325Y-24639919D01*
X37351537Y-24324169D01*
X37161663Y-24040002D01*
X36919998Y-23798337D01*
X36635831Y-23608463D01*
X36320081Y-23477675D01*
X35984883Y-23411000D01*
X35643117Y-23411000D01*
X35307919Y-23477675D01*
X34992169Y-23608463D01*
X34708002Y-23798337D01*
X34466337Y-24040002D01*
X34276463Y-24324169D01*
X34145675Y-24639919D01*
X34079000Y-24975117D01*
X27643000Y-24975117D01*
X27576325Y-24639919D01*
X27445537Y-24324169D01*
X27255663Y-24040002D01*
X27013998Y-23798337D01*
X26729831Y-23608463D01*
X26414081Y-23477675D01*
X26078883Y-23411000D01*
X25737117Y-23411000D01*
X25401919Y-23477675D01*
X25086169Y-23608463D01*
X24802002Y-23798337D01*
X24560337Y-24040002D01*
X24370463Y-24324169D01*
X24239675Y-24639919D01*
X24173000Y-24975117D01*
X23570000Y-24975117D01*
X23570000Y-23316000D01*
X70156000Y-23316000D01*
X70156001Y-70918000D01*
%TD*%
M02*
